G04*
G04 #@! TF.GenerationSoftware,Altium Limited,Altium Designer,19.0.15 (446)*
G04*
G04 Layer_Color=16777215*
%FSLAX44Y44*%
%MOMM*%
G71*
G01*
G75*
%ADD85C,0.7112*%
D85*
X997387Y144643D02*
X1018713D01*
X1061366Y155307D02*
X1066698Y160638D01*
X1077361D01*
X1082693Y155307D01*
Y149975D01*
X1077361Y144643D01*
X1072029D01*
X1077361D01*
X1082693Y139312D01*
Y133980D01*
X1077361Y128649D01*
X1066698D01*
X1061366Y133980D01*
X1146672Y160638D02*
X1125346D01*
Y144643D01*
X1136009D01*
X1125346D01*
Y128649D01*
X1157335Y160638D02*
X1167999D01*
X1162667D01*
Y128649D01*
X1157335D01*
X1167999D01*
X1183993Y160638D02*
Y128649D01*
X1199988D01*
X1205320Y133980D01*
Y155307D01*
X1199988Y160638D01*
X1183993D01*
X1215983D02*
Y133980D01*
X1221315Y128649D01*
X1231978D01*
X1237309Y133980D01*
Y160638D01*
X1269299Y155307D02*
X1263968Y160638D01*
X1253304D01*
X1247973Y155307D01*
Y133980D01*
X1253304Y128649D01*
X1263968D01*
X1269299Y133980D01*
X1279962Y160638D02*
X1290626D01*
X1285294D01*
Y128649D01*
X1279962D01*
X1290626D01*
X1306620D02*
Y149975D01*
X1317284Y160638D01*
X1327947Y149975D01*
Y128649D01*
Y144643D01*
X1306620D01*
X1338610Y160638D02*
Y128649D01*
X1359937D01*
X1391926Y155307D02*
X1386595Y160638D01*
X1375931D01*
X1370600Y155307D01*
Y149975D01*
X1375931Y144643D01*
X1386595D01*
X1391926Y139312D01*
Y133980D01*
X1386595Y128649D01*
X1375931D01*
X1370600Y133980D01*
X1455905Y155307D02*
X1450574Y160638D01*
X1439911D01*
X1434579Y155307D01*
Y149975D01*
X1439911Y144643D01*
X1450574D01*
X1455905Y139312D01*
Y133980D01*
X1450574Y128649D01*
X1439911D01*
X1434579Y133980D01*
X1466569Y160638D02*
Y128649D01*
Y144643D01*
X1487895D01*
Y160638D01*
Y128649D01*
X1514553Y160638D02*
X1503890D01*
X1498558Y155307D01*
Y133980D01*
X1503890Y128649D01*
X1514553D01*
X1519885Y133980D01*
Y155307D01*
X1514553Y160638D01*
X1530548D02*
Y133980D01*
X1535880Y128649D01*
X1546543D01*
X1551875Y133980D01*
Y160638D01*
X1562538D02*
Y128649D01*
X1583864D01*
X1594527Y160638D02*
Y128649D01*
X1610522D01*
X1615854Y133980D01*
Y155307D01*
X1610522Y160638D01*
X1594527D01*
X1658507D02*
Y128649D01*
X1679833D01*
X1690497Y160638D02*
X1701160D01*
X1695828D01*
Y128649D01*
X1690497D01*
X1701160D01*
X1738481Y160638D02*
X1717155D01*
Y128649D01*
X1738481D01*
X1717155Y144643D02*
X1727818D01*
X1797129Y160638D02*
X1786465D01*
X1781134Y155307D01*
Y133980D01*
X1786465Y128649D01*
X1797129D01*
X1802460Y133980D01*
Y155307D01*
X1797129Y160638D01*
X1813124Y128649D02*
Y160638D01*
X1834450Y128649D01*
Y160638D01*
X1877103D02*
X1898429D01*
X1887766D01*
Y128649D01*
X1909093Y160638D02*
Y128649D01*
X1919756Y139312D01*
X1930419Y128649D01*
Y160638D01*
X1957077D02*
X1946414D01*
X1941082Y155307D01*
Y133980D01*
X1946414Y128649D01*
X1957077D01*
X1962409Y133980D01*
Y155307D01*
X1957077Y160638D01*
X2005062D02*
Y128649D01*
X2026388D01*
X2037051Y160638D02*
X2047715D01*
X2042383D01*
Y128649D01*
X2037051D01*
X2047715D01*
X2063709D02*
Y160638D01*
X2085036Y128649D01*
Y160638D01*
X2117025D02*
X2095699D01*
Y128649D01*
X2117025D01*
X2095699Y144643D02*
X2106362D01*
X2149015Y155307D02*
X2143683Y160638D01*
X2133020D01*
X2127689Y155307D01*
Y149975D01*
X2133020Y144643D01*
X2143683D01*
X2149015Y139312D01*
Y133980D01*
X2143683Y128649D01*
X2133020D01*
X2127689Y133980D01*
X2191668Y160638D02*
X2212995D01*
X2202331D01*
Y128649D01*
X2223658Y160638D02*
Y128649D01*
Y144643D01*
X2244984D01*
Y160638D01*
Y128649D01*
X2255647D02*
Y149975D01*
X2266311Y160638D01*
X2276974Y149975D01*
Y128649D01*
Y144643D01*
X2255647D01*
X2287637Y160638D02*
X2308963D01*
X2298300D01*
Y128649D01*
X2351616Y160638D02*
X2362280D01*
X2356948D01*
Y128649D01*
X2351616D01*
X2362280D01*
X2378275D02*
Y160638D01*
X2399601Y128649D01*
Y160638D01*
X2410264D02*
X2431591D01*
X2420927D01*
Y128649D01*
X2463580Y160638D02*
X2442254D01*
Y128649D01*
X2463580D01*
X2442254Y144643D02*
X2452917D01*
X2474243Y128649D02*
Y160638D01*
X2490238D01*
X2495570Y155307D01*
Y144643D01*
X2490238Y139312D01*
X2474243D01*
X2484907D02*
X2495570Y128649D01*
X2527560Y155307D02*
X2522228Y160638D01*
X2511565D01*
X2506233Y155307D01*
Y149975D01*
X2511565Y144643D01*
X2522228D01*
X2527560Y139312D01*
Y133980D01*
X2522228Y128649D01*
X2511565D01*
X2506233Y133980D01*
X2559549Y160638D02*
X2538223D01*
Y128649D01*
X2559549D01*
X2538223Y144643D02*
X2548886D01*
X2591539Y155307D02*
X2586207Y160638D01*
X2575544D01*
X2570212Y155307D01*
Y133980D01*
X2575544Y128649D01*
X2586207D01*
X2591539Y133980D01*
X2602202Y160638D02*
X2623529D01*
X2612865D01*
Y128649D01*
X2666182D02*
Y149975D01*
X2676845Y160638D01*
X2687508Y149975D01*
Y128649D01*
Y144643D01*
X2666182D01*
X2698171Y160638D02*
X2719498D01*
X2708835D01*
Y128649D01*
X2762151D02*
Y160638D01*
X2778145D01*
X2783477Y155307D01*
Y144643D01*
X2778145Y139312D01*
X2762151D01*
X2772814D02*
X2783477Y128649D01*
X2794140Y160638D02*
X2804803D01*
X2799472D01*
Y128649D01*
X2794140D01*
X2804803D01*
X2842125Y155307D02*
X2836793Y160638D01*
X2826130D01*
X2820798Y155307D01*
Y133980D01*
X2826130Y128649D01*
X2836793D01*
X2842125Y133980D01*
Y144643D01*
X2831461D01*
X2852788Y160638D02*
Y128649D01*
Y144643D01*
X2874114D01*
Y160638D01*
Y128649D01*
X2884778Y160638D02*
X2906104D01*
X2895441D01*
Y128649D01*
X2948757D02*
Y149975D01*
X2959420Y160638D01*
X2970084Y149975D01*
Y128649D01*
Y144643D01*
X2948757D01*
X2980747Y128649D02*
Y160638D01*
X3002073Y128649D01*
Y160638D01*
X3034063Y155307D02*
X3028731Y160638D01*
X3018068D01*
X3012737Y155307D01*
Y133980D01*
X3018068Y128649D01*
X3028731D01*
X3034063Y133980D01*
Y144643D01*
X3023400D01*
X3044726Y160638D02*
Y128649D01*
X3066053D01*
X3098042Y160638D02*
X3076716D01*
Y128649D01*
X3098042D01*
X3076716Y144643D02*
X3087379D01*
X-1327944Y1240829D02*
X-1349271D01*
Y1224834D01*
X-1338608D01*
X-1349271D01*
Y1208839D01*
X-1317281D02*
X-1306618D01*
X-1311950D01*
Y1230166D01*
X-1317281D01*
X-1290623Y1208839D02*
X-1279960D01*
X-1285291D01*
Y1240829D01*
X-1290623D01*
X-1247970Y1208839D02*
X-1258633D01*
X-1263965Y1214171D01*
Y1224834D01*
X-1258633Y1230166D01*
X-1247970D01*
X-1242639Y1224834D01*
Y1219503D01*
X-1263965D01*
X-1231975Y1208839D02*
X-1215981D01*
X-1210649Y1214171D01*
X-1215981Y1219503D01*
X-1226644D01*
X-1231975Y1224834D01*
X-1226644Y1230166D01*
X-1210649D01*
X-1384638Y505080D02*
X-1363311Y483753D01*
X-1384638D02*
X-1363311Y505080D01*
X-1384638Y494417D02*
X-1363311D01*
X-1373975Y483753D02*
Y505080D01*
X-1352648Y478422D02*
Y483753D01*
X-1347316D01*
Y478422D01*
X-1352648D01*
X-1304664Y505080D02*
X-1309995Y510411D01*
X-1320659D01*
X-1325990Y505080D01*
Y483753D01*
X-1320659Y478422D01*
X-1309995D01*
X-1304664Y483753D01*
Y494417D01*
X-1315327D01*
X-1294000Y478422D02*
Y510411D01*
X-1283337Y499748D01*
X-1272674Y510411D01*
Y478422D01*
X-1240684Y510411D02*
X-1262011D01*
Y494417D01*
X-1251348Y499748D01*
X-1246016D01*
X-1240684Y494417D01*
Y483753D01*
X-1246016Y478422D01*
X-1256679D01*
X-1262011Y483753D01*
X-1198031Y494417D02*
X-1176705D01*
X-1134052Y510411D02*
Y478422D01*
X-1112726D01*
X-1102062D02*
X-1091399D01*
X-1096731D01*
Y499748D01*
X-1102062D01*
X-1054078D02*
X-1070073D01*
X-1075404Y494417D01*
Y483753D01*
X-1070073Y478422D01*
X-1054078D01*
X-1027420D02*
X-1038083D01*
X-1043415Y483753D01*
Y494417D01*
X-1038083Y499748D01*
X-1027420D01*
X-1022088Y494417D01*
Y489085D01*
X-1043415D01*
X-1011425Y478422D02*
Y499748D01*
X-995430D01*
X-990098Y494417D01*
Y478422D01*
X-979435D02*
X-963440D01*
X-958109Y483753D01*
X-963440Y489085D01*
X-974104D01*
X-979435Y494417D01*
X-974104Y499748D01*
X-958109D01*
X-931451Y478422D02*
X-942114D01*
X-947446Y483753D01*
Y494417D01*
X-942114Y499748D01*
X-931451D01*
X-926119Y494417D01*
Y489085D01*
X-947446D01*
X-1357513Y1105892D02*
X-1336187Y1084565D01*
X-1357513D02*
X-1336187Y1105892D01*
X-1357513Y1095228D02*
X-1336187D01*
X-1346850Y1084565D02*
Y1105892D01*
X-1325524Y1079234D02*
Y1084565D01*
X-1320192D01*
Y1079234D01*
X-1325524D01*
X-1277539Y1105892D02*
X-1282871Y1111223D01*
X-1293534D01*
X-1298865Y1105892D01*
Y1084565D01*
X-1293534Y1079234D01*
X-1282871D01*
X-1277539Y1084565D01*
Y1095228D01*
X-1288202D01*
X-1266876Y1111223D02*
X-1245549D01*
X-1256212D01*
Y1079234D01*
X-1234886D02*
Y1111223D01*
X-1218891D01*
X-1213560Y1105892D01*
Y1095228D01*
X-1218891Y1089897D01*
X-1234886D01*
X-1170907Y1095228D02*
X-1149580D01*
X-1106927Y1111223D02*
X-1085601D01*
X-1096264D01*
Y1079234D01*
X-1069606D02*
X-1058943D01*
X-1053611Y1084565D01*
Y1095228D01*
X-1058943Y1100560D01*
X-1069606D01*
X-1074938Y1095228D01*
Y1084565D01*
X-1069606Y1079234D01*
X-1042948Y1068570D02*
Y1100560D01*
X-1026953D01*
X-1021622Y1095228D01*
Y1084565D01*
X-1026953Y1079234D01*
X-1042948D01*
X-978969D02*
Y1111223D01*
X-962974D01*
X-957642Y1105892D01*
Y1095228D01*
X-962974Y1089897D01*
X-978969D01*
X-941647Y1100560D02*
X-930984D01*
X-925653Y1095228D01*
Y1079234D01*
X-941647D01*
X-946979Y1084565D01*
X-941647Y1089897D01*
X-925653D01*
X-914989Y1079234D02*
X-898995D01*
X-893663Y1084565D01*
X-898995Y1089897D01*
X-909658D01*
X-914989Y1095228D01*
X-909658Y1100560D01*
X-893663D01*
X-877668Y1105892D02*
Y1100560D01*
X-883000D01*
X-872336D01*
X-877668D01*
Y1084565D01*
X-872336Y1079234D01*
X-840347D02*
X-851010D01*
X-856342Y1084565D01*
Y1095228D01*
X-851010Y1100560D01*
X-840347D01*
X-835015Y1095228D01*
Y1089897D01*
X-856342D01*
X-1363358Y755669D02*
X-1342031Y734342D01*
X-1363358D02*
X-1342031Y755669D01*
X-1363358Y745006D02*
X-1342031D01*
X-1352695Y734342D02*
Y755669D01*
X-1331368Y729011D02*
Y734342D01*
X-1326036D01*
Y729011D01*
X-1331368D01*
X-1283383Y755669D02*
X-1288715Y761001D01*
X-1299378D01*
X-1304710Y755669D01*
Y734342D01*
X-1299378Y729011D01*
X-1288715D01*
X-1283383Y734342D01*
Y745006D01*
X-1294047D01*
X-1272720Y761001D02*
Y729011D01*
X-1256725D01*
X-1251394Y734342D01*
Y739674D01*
X-1256725Y745006D01*
X-1272720D01*
X-1256725D01*
X-1251394Y750337D01*
Y755669D01*
X-1256725Y761001D01*
X-1272720D01*
X-1224736D02*
X-1235399D01*
X-1240731Y755669D01*
Y734342D01*
X-1235399Y729011D01*
X-1224736D01*
X-1219404Y734342D01*
Y755669D01*
X-1224736Y761001D01*
X-1176751Y745006D02*
X-1155425D01*
X-1112772Y761001D02*
Y729011D01*
X-1096777D01*
X-1091445Y734342D01*
Y739674D01*
X-1096777Y745006D01*
X-1112772D01*
X-1096777D01*
X-1091445Y750337D01*
Y755669D01*
X-1096777Y761001D01*
X-1112772D01*
X-1075451Y729011D02*
X-1064787D01*
X-1059456Y734342D01*
Y745006D01*
X-1064787Y750337D01*
X-1075451D01*
X-1080782Y745006D01*
Y734342D01*
X-1075451Y729011D01*
X-1043461Y755669D02*
Y750337D01*
X-1048793D01*
X-1038129D01*
X-1043461D01*
Y734342D01*
X-1038129Y729011D01*
X-1016803Y755669D02*
Y750337D01*
X-1022134D01*
X-1011471D01*
X-1016803D01*
Y734342D01*
X-1011471Y729011D01*
X-990145D02*
X-979482D01*
X-974150Y734342D01*
Y745006D01*
X-979482Y750337D01*
X-990145D01*
X-995476Y745006D01*
Y734342D01*
X-990145Y729011D01*
X-963487D02*
Y750337D01*
X-958155D01*
X-952823Y745006D01*
Y729011D01*
Y745006D01*
X-947492Y750337D01*
X-942160Y745006D01*
Y729011D01*
X-883513Y761001D02*
X-894176D01*
X-899507Y755669D01*
Y734342D01*
X-894176Y729011D01*
X-883513D01*
X-878181Y734342D01*
Y755669D01*
X-883513Y761001D01*
X-867518Y750337D02*
X-856854Y729011D01*
X-846191Y750337D01*
X-819533Y729011D02*
X-830197D01*
X-835528Y734342D01*
Y745006D01*
X-830197Y750337D01*
X-819533D01*
X-814202Y745006D01*
Y739674D01*
X-835528D01*
X-803538Y750337D02*
Y729011D01*
Y739674D01*
X-798207Y745006D01*
X-792875Y750337D01*
X-787544D01*
X-771549Y729011D02*
X-760885D01*
X-766217D01*
Y761001D01*
X-771549D01*
X-739559Y750337D02*
X-728896D01*
X-723564Y745006D01*
Y729011D01*
X-739559D01*
X-744891Y734342D01*
X-739559Y739674D01*
X-723564D01*
X-712901Y750337D02*
Y734342D01*
X-707569Y729011D01*
X-691574D01*
Y723679D01*
X-696906Y718348D01*
X-702238D01*
X-691574Y729011D02*
Y750337D01*
X1000234Y1115846D02*
Y1083856D01*
X1016229D01*
X1021561Y1089188D01*
Y1094519D01*
X1016229Y1099851D01*
X1000234D01*
X1016229D01*
X1021561Y1105182D01*
Y1110514D01*
X1016229Y1115846D01*
X1000234D01*
X1037555Y1083856D02*
X1048219D01*
X1053550Y1089188D01*
Y1099851D01*
X1048219Y1105182D01*
X1037555D01*
X1032224Y1099851D01*
Y1089188D01*
X1037555Y1083856D01*
X1069545Y1105182D02*
X1080208D01*
X1085540Y1099851D01*
Y1083856D01*
X1069545D01*
X1064214Y1089188D01*
X1069545Y1094519D01*
X1085540D01*
X1096203Y1105182D02*
Y1083856D01*
Y1094519D01*
X1101535Y1099851D01*
X1106867Y1105182D01*
X1112198D01*
X1149519Y1115846D02*
Y1083856D01*
X1133524D01*
X1128193Y1089188D01*
Y1099851D01*
X1133524Y1105182D01*
X1149519D01*
X1192172Y1115846D02*
X1202835D01*
X1197504D01*
Y1083856D01*
X1192172D01*
X1202835D01*
X1218830D02*
Y1105182D01*
X1234825D01*
X1240157Y1099851D01*
Y1083856D01*
X1256152D02*
Y1110514D01*
Y1099851D01*
X1250820D01*
X1261483D01*
X1256152D01*
Y1110514D01*
X1261483Y1115846D01*
X1282810Y1083856D02*
X1293473D01*
X1298804Y1089188D01*
Y1099851D01*
X1293473Y1105182D01*
X1282810D01*
X1277478Y1099851D01*
Y1089188D01*
X1282810Y1083856D01*
X970009Y432334D02*
X948682D01*
Y416339D01*
X959346Y421671D01*
X964677D01*
X970009Y416339D01*
Y405676D01*
X964677Y400345D01*
X954014D01*
X948682Y405676D01*
X980672Y400345D02*
Y405676D01*
X986004D01*
Y400345D01*
X980672D01*
X1039320D02*
Y432334D01*
X1055315D01*
X1060646Y427003D01*
Y416339D01*
X1055315Y411008D01*
X1039320D01*
X1071310Y400345D02*
Y421671D01*
X1081973Y432334D01*
X1092636Y421671D01*
Y400345D01*
Y416339D01*
X1071310D01*
X1103299Y400345D02*
Y432334D01*
X1124626Y400345D01*
Y432334D01*
X1156615D02*
X1135289D01*
Y400345D01*
X1156615D01*
X1135289Y416339D02*
X1145952D01*
X1167279Y432334D02*
Y400345D01*
X1188605D01*
X1199268Y432334D02*
X1209931D01*
X1204600D01*
Y400345D01*
X1199268D01*
X1209931D01*
X1225926Y432334D02*
X1247253D01*
Y427003D01*
X1225926Y405676D01*
Y400345D01*
X1247253D01*
X1279242Y432334D02*
X1257916D01*
Y400345D01*
X1279242D01*
X1257916Y416339D02*
X1268579D01*
X1321895Y432334D02*
X1343222D01*
X1332558D01*
Y400345D01*
X1353885Y432334D02*
Y400345D01*
Y416339D01*
X1375211D01*
Y432334D01*
Y400345D01*
X1407201Y432334D02*
X1385875D01*
Y400345D01*
X1407201D01*
X1385875Y416339D02*
X1396538D01*
X1449854Y432334D02*
Y400345D01*
X1465849D01*
X1471180Y405676D01*
Y411008D01*
X1465849Y416339D01*
X1449854D01*
X1465849D01*
X1471180Y421671D01*
Y427003D01*
X1465849Y432334D01*
X1449854D01*
X1497838D02*
X1487175D01*
X1481844Y427003D01*
Y405676D01*
X1487175Y400345D01*
X1497838D01*
X1503170Y405676D01*
Y427003D01*
X1497838Y432334D01*
X1513833Y400345D02*
Y421671D01*
X1524496Y432334D01*
X1535160Y421671D01*
Y400345D01*
Y416339D01*
X1513833D01*
X1545823Y400345D02*
Y432334D01*
X1561818D01*
X1567149Y427003D01*
Y416339D01*
X1561818Y411008D01*
X1545823D01*
X1556486D02*
X1567149Y400345D01*
X1577813Y432334D02*
Y400345D01*
X1593808D01*
X1599139Y405676D01*
Y427003D01*
X1593808Y432334D01*
X1577813D01*
X1652455Y400345D02*
X1641792Y411008D01*
Y421671D01*
X1652455Y432334D01*
X1684445Y400345D02*
Y432334D01*
X1668450Y416339D01*
X1689776D01*
X1700440Y400345D02*
Y432334D01*
X1716435D01*
X1721766Y427003D01*
Y416339D01*
X1716435Y411008D01*
X1700440D01*
X1753756Y427003D02*
X1748424Y432334D01*
X1737761D01*
X1732429Y427003D01*
Y405676D01*
X1737761Y400345D01*
X1748424D01*
X1753756Y405676D01*
X1785746Y427003D02*
X1780414Y432334D01*
X1769751D01*
X1764419Y427003D01*
Y421671D01*
X1769751Y416339D01*
X1780414D01*
X1785746Y411008D01*
Y405676D01*
X1780414Y400345D01*
X1769751D01*
X1764419Y405676D01*
X1828398Y400345D02*
Y432334D01*
X1844393D01*
X1849725Y427003D01*
Y416339D01*
X1844393Y411008D01*
X1828398D01*
X1881714Y432334D02*
X1860388D01*
Y400345D01*
X1881714D01*
X1860388Y416339D02*
X1871051D01*
X1892378Y400345D02*
Y432334D01*
X1908373D01*
X1913704Y427003D01*
Y416339D01*
X1908373Y411008D01*
X1892378D01*
X1903041D02*
X1913704Y400345D01*
X1956357D02*
Y432334D01*
X1972352D01*
X1977684Y427003D01*
Y416339D01*
X1972352Y411008D01*
X1956357D01*
X1988347Y400345D02*
Y421671D01*
X1999010Y432334D01*
X2009673Y421671D01*
Y400345D01*
Y416339D01*
X1988347D01*
X2020336Y400345D02*
Y432334D01*
X2041663Y400345D01*
Y432334D01*
X2073653D02*
X2052326D01*
Y400345D01*
X2073653D01*
X2052326Y416339D02*
X2062989D01*
X2084316Y432334D02*
Y400345D01*
X2105642D01*
X2116306D02*
X2126969Y411008D01*
Y421671D01*
X2116306Y432334D01*
X2142964Y400345D02*
Y405676D01*
X2148295D01*
Y400345D01*
X2142964D01*
X2201611D02*
Y432334D01*
X2217606D01*
X2222938Y427003D01*
Y416339D01*
X2217606Y411008D01*
X2201611D01*
X2233601Y432334D02*
Y400345D01*
X2254927D01*
X2265591D02*
Y421671D01*
X2276254Y432334D01*
X2286917Y421671D01*
Y400345D01*
Y416339D01*
X2265591D01*
X2318907Y427003D02*
X2313575Y432334D01*
X2302912D01*
X2297580Y427003D01*
Y405676D01*
X2302912Y400345D01*
X2313575D01*
X2318907Y405676D01*
X2350896Y432334D02*
X2329570D01*
Y400345D01*
X2350896D01*
X2329570Y416339D02*
X2340233D01*
X2414876Y432334D02*
X2393549D01*
Y416339D01*
X2404213D01*
X2393549D01*
Y400345D01*
X2425539Y432334D02*
X2436202D01*
X2430871D01*
Y400345D01*
X2425539D01*
X2436202D01*
X2452197Y432334D02*
Y400345D01*
X2468192D01*
X2473524Y405676D01*
Y427003D01*
X2468192Y432334D01*
X2452197D01*
X2484187D02*
Y405676D01*
X2489518Y400345D01*
X2500182D01*
X2505513Y405676D01*
Y432334D01*
X2537503Y427003D02*
X2532171Y432334D01*
X2521508D01*
X2516176Y427003D01*
Y405676D01*
X2521508Y400345D01*
X2532171D01*
X2537503Y405676D01*
X2548166Y432334D02*
X2558829D01*
X2553498D01*
Y400345D01*
X2548166D01*
X2558829D01*
X2574824D02*
Y421671D01*
X2585487Y432334D01*
X2596151Y421671D01*
Y400345D01*
Y416339D01*
X2574824D01*
X2606814Y432334D02*
Y400345D01*
X2628140D01*
X2660130Y427003D02*
X2654798Y432334D01*
X2644135D01*
X2638803Y427003D01*
Y421671D01*
X2644135Y416339D01*
X2654798D01*
X2660130Y411008D01*
Y405676D01*
X2654798Y400345D01*
X2644135D01*
X2638803Y405676D01*
X2718778Y432334D02*
X2708115D01*
X2702783Y427003D01*
Y405676D01*
X2708115Y400345D01*
X2718778D01*
X2724109Y405676D01*
Y427003D01*
X2718778Y432334D01*
X2734773Y400345D02*
Y432334D01*
X2756099Y400345D01*
Y432334D01*
X2798752D02*
X2820078D01*
X2809415D01*
Y400345D01*
X2830742Y432334D02*
Y400345D01*
Y416339D01*
X2852068D01*
Y432334D01*
Y400345D01*
X2884058Y432334D02*
X2862731D01*
Y400345D01*
X2884058D01*
X2862731Y416339D02*
X2873394D01*
X2926711Y400345D02*
Y432334D01*
X2942705D01*
X2948037Y427003D01*
Y416339D01*
X2942705Y411008D01*
X2926711D01*
X2958700Y400345D02*
Y421671D01*
X2969363Y432334D01*
X2980027Y421671D01*
Y400345D01*
Y416339D01*
X2958700D01*
X2990690Y400345D02*
Y432334D01*
X3012016Y400345D01*
Y432334D01*
X3044006D02*
X3022680D01*
Y400345D01*
X3044006D01*
X3022680Y416339D02*
X3033343D01*
X3054669Y432334D02*
Y400345D01*
X3075996D01*
X3139975Y427003D02*
X3134644Y432334D01*
X3123980D01*
X3118649Y427003D01*
Y421671D01*
X3123980Y416339D01*
X3134644D01*
X3139975Y411008D01*
Y405676D01*
X3134644Y400345D01*
X3123980D01*
X3118649Y405676D01*
X3150638Y432334D02*
X3171965D01*
X3161302D01*
Y400345D01*
X3182628D02*
Y432334D01*
X3198623D01*
X3203954Y427003D01*
Y416339D01*
X3198623Y411008D01*
X3182628D01*
X3193291D02*
X3203954Y400345D01*
X3214618Y432334D02*
X3225281D01*
X3219949D01*
Y400345D01*
X3214618D01*
X3225281D01*
X3241276D02*
Y432334D01*
X3257271D01*
X3262602Y427003D01*
Y416339D01*
X3257271Y411008D01*
X3241276D01*
X3294592Y427003D02*
X3289260Y432334D01*
X3278597D01*
X3273265Y427003D01*
Y421671D01*
X3278597Y416339D01*
X3289260D01*
X3294592Y411008D01*
Y405676D01*
X3289260Y400345D01*
X3278597D01*
X3273265Y405676D01*
X3337245Y400345D02*
Y421671D01*
X3347908Y432334D01*
X3358571Y421671D01*
Y400345D01*
Y416339D01*
X3337245D01*
X3390561Y427003D02*
X3385229Y432334D01*
X3374566D01*
X3369234Y427003D01*
Y421671D01*
X3374566Y416339D01*
X3385229D01*
X3390561Y411008D01*
Y405676D01*
X3385229Y400345D01*
X3374566D01*
X3369234Y405676D01*
X3454540Y432334D02*
X3433214D01*
Y416339D01*
X3443877D01*
X3433214D01*
Y400345D01*
X3481198Y432334D02*
X3470535D01*
X3465204Y427003D01*
Y405676D01*
X3470535Y400345D01*
X3481198D01*
X3486530Y405676D01*
Y427003D01*
X3481198Y432334D01*
X3497193D02*
Y400345D01*
X3518520D01*
X3529183Y432334D02*
Y400345D01*
X3550509D01*
X3577167Y432334D02*
X3566504D01*
X3561172Y427003D01*
Y405676D01*
X3566504Y400345D01*
X3577167D01*
X3582499Y405676D01*
Y427003D01*
X3577167Y432334D01*
X3593162D02*
Y400345D01*
X3603825Y411008D01*
X3614489Y400345D01*
Y432334D01*
X3646478Y427003D02*
X3641147Y432334D01*
X3630483D01*
X3625152Y427003D01*
Y421671D01*
X3630483Y416339D01*
X3641147D01*
X3646478Y411008D01*
Y405676D01*
X3641147Y400345D01*
X3630483D01*
X3625152Y405676D01*
X3657141Y421671D02*
X3662473D01*
Y416339D01*
X3657141D01*
Y421671D01*
Y405676D02*
X3662473D01*
Y400345D01*
X3657141D01*
Y405676D01*
X941189Y583606D02*
X946521Y588938D01*
X957184D01*
X962516Y583606D01*
Y578275D01*
X957184Y572943D01*
X951853D01*
X957184D01*
X962516Y567612D01*
Y562280D01*
X957184Y556948D01*
X946521D01*
X941189Y562280D01*
X973179Y556948D02*
Y562280D01*
X978511D01*
Y556948D01*
X973179D01*
X1053153Y583606D02*
X1047822Y588938D01*
X1037158D01*
X1031827Y583606D01*
Y578275D01*
X1037158Y572943D01*
X1047822D01*
X1053153Y567612D01*
Y562280D01*
X1047822Y556948D01*
X1037158D01*
X1031827Y562280D01*
X1079811Y588938D02*
X1069148D01*
X1063817Y583606D01*
Y562280D01*
X1069148Y556948D01*
X1079811D01*
X1085143Y562280D01*
Y583606D01*
X1079811Y588938D01*
X1095806D02*
Y556948D01*
X1117133D01*
X1127796Y588938D02*
Y556948D01*
X1143791D01*
X1149122Y562280D01*
Y583606D01*
X1143791Y588938D01*
X1127796D01*
X1181112D02*
X1159786D01*
Y556948D01*
X1181112D01*
X1159786Y572943D02*
X1170449D01*
X1191775Y556948D02*
Y588938D01*
X1207770D01*
X1213102Y583606D01*
Y572943D01*
X1207770Y567612D01*
X1191775D01*
X1202438D02*
X1213102Y556948D01*
X1255754D02*
Y588938D01*
X1271749D01*
X1277081Y583606D01*
Y572943D01*
X1271749Y567612D01*
X1255754D01*
X1266418D02*
X1277081Y556948D01*
X1309071Y588938D02*
X1287744D01*
Y556948D01*
X1309071D01*
X1287744Y572943D02*
X1298407D01*
X1341060Y583606D02*
X1335729Y588938D01*
X1325065D01*
X1319734Y583606D01*
Y578275D01*
X1325065Y572943D01*
X1335729D01*
X1341060Y567612D01*
Y562280D01*
X1335729Y556948D01*
X1325065D01*
X1319734Y562280D01*
X1351723Y588938D02*
X1362387D01*
X1357055D01*
Y556948D01*
X1351723D01*
X1362387D01*
X1399708Y583606D02*
X1394376Y588938D01*
X1383713D01*
X1378382Y583606D01*
Y578275D01*
X1383713Y572943D01*
X1394376D01*
X1399708Y567612D01*
Y562280D01*
X1394376Y556948D01*
X1383713D01*
X1378382Y562280D01*
X1410371Y588938D02*
X1431698D01*
X1421035D01*
Y556948D01*
X1442361Y578275D02*
X1447693D01*
Y572943D01*
X1442361D01*
Y578275D01*
Y562280D02*
X1447693D01*
Y556948D01*
X1442361D01*
Y562280D01*
X1501009Y556948D02*
Y578275D01*
X1511672Y588938D01*
X1522335Y578275D01*
Y556948D01*
Y572943D01*
X1501009D01*
X1532998Y556948D02*
Y588938D01*
X1548993D01*
X1554325Y583606D01*
Y572943D01*
X1548993Y567612D01*
X1532998D01*
X1564988Y556948D02*
Y588938D01*
X1580983D01*
X1586315Y583606D01*
Y572943D01*
X1580983Y567612D01*
X1564988D01*
X1596978Y588938D02*
Y556948D01*
X1618304D01*
X1628967Y588938D02*
Y583606D01*
X1639631Y572943D01*
X1650294Y583606D01*
Y588938D01*
X1639631Y572943D02*
Y556948D01*
X1692947Y588938D02*
X1714273D01*
X1703610D01*
Y556948D01*
X1740931Y588938D02*
X1730268D01*
X1724936Y583606D01*
Y562280D01*
X1730268Y556948D01*
X1740931D01*
X1746263Y562280D01*
Y583606D01*
X1740931Y588938D01*
X1788916D02*
Y556948D01*
X1804911D01*
X1810242Y562280D01*
Y567612D01*
X1804911Y572943D01*
X1788916D01*
X1804911D01*
X1810242Y578275D01*
Y583606D01*
X1804911Y588938D01*
X1788916D01*
X1836900D02*
X1826237D01*
X1820905Y583606D01*
Y562280D01*
X1826237Y556948D01*
X1836900D01*
X1842232Y562280D01*
Y583606D01*
X1836900Y588938D01*
X1852895D02*
X1874221D01*
X1863558D01*
Y556948D01*
X1884885Y588938D02*
Y556948D01*
Y572943D01*
X1906211D01*
Y588938D01*
Y556948D01*
X1970191Y583606D02*
X1964859Y588938D01*
X1954196D01*
X1948864Y583606D01*
Y578275D01*
X1954196Y572943D01*
X1964859D01*
X1970191Y567612D01*
Y562280D01*
X1964859Y556948D01*
X1954196D01*
X1948864Y562280D01*
X1980854Y588938D02*
X1991517D01*
X1986185D01*
Y556948D01*
X1980854D01*
X1991517D01*
X2007512Y588938D02*
Y556948D01*
X2023507D01*
X2028838Y562280D01*
Y583606D01*
X2023507Y588938D01*
X2007512D01*
X2060828D02*
X2039501D01*
Y556948D01*
X2060828D01*
X2039501Y572943D02*
X2050165D01*
X2092818Y583606D02*
X2087486Y588938D01*
X2076823D01*
X2071491Y583606D01*
Y578275D01*
X2076823Y572943D01*
X2087486D01*
X2092818Y567612D01*
Y562280D01*
X2087486Y556948D01*
X2076823D01*
X2071491Y562280D01*
X2156797Y583606D02*
X2151465Y588938D01*
X2140802D01*
X2135471Y583606D01*
Y562280D01*
X2140802Y556948D01*
X2151465D01*
X2156797Y562280D01*
X2183455Y588938D02*
X2172792D01*
X2167460Y583606D01*
Y562280D01*
X2172792Y556948D01*
X2183455D01*
X2188787Y562280D01*
Y583606D01*
X2183455Y588938D01*
X2199450D02*
Y556948D01*
X2220776D01*
X2247434Y588938D02*
X2236771D01*
X2231440Y583606D01*
Y562280D01*
X2236771Y556948D01*
X2247434D01*
X2252766Y562280D01*
Y583606D01*
X2247434Y588938D01*
X2263429Y556948D02*
Y588938D01*
X2279424D01*
X2284756Y583606D01*
Y572943D01*
X2279424Y567612D01*
X2263429D01*
X2274093D02*
X2284756Y556948D01*
X2327409Y572943D02*
X2348735D01*
X2391388Y588938D02*
Y556948D01*
X2407383D01*
X2412714Y562280D01*
Y567612D01*
X2407383Y572943D01*
X2391388D01*
X2407383D01*
X2412714Y578275D01*
Y583606D01*
X2407383Y588938D01*
X2391388D01*
X2423378D02*
Y556948D01*
X2444704D01*
X2455367Y588938D02*
Y562280D01*
X2460699Y556948D01*
X2471362D01*
X2476694Y562280D01*
Y588938D01*
X2508683D02*
X2487357D01*
Y556948D01*
X2508683D01*
X2487357Y572943D02*
X2498020D01*
X-1370851Y568793D02*
X-1349524Y547467D01*
X-1370851D02*
X-1349524Y568793D01*
X-1370851Y558130D02*
X-1349524D01*
X-1360188Y547467D02*
Y568793D01*
X-1338861Y542135D02*
Y547467D01*
X-1333529D01*
Y542135D01*
X-1338861D01*
X-1290876Y568793D02*
X-1296208Y574125D01*
X-1306871D01*
X-1312203Y568793D01*
Y547467D01*
X-1306871Y542135D01*
X-1296208D01*
X-1290876Y547467D01*
Y558130D01*
X-1301540D01*
X-1280213Y542135D02*
Y574125D01*
X-1269550Y563462D01*
X-1258887Y574125D01*
Y542135D01*
X-1232229D02*
Y574125D01*
X-1248224Y558130D01*
X-1226897D01*
X-1184244D02*
X-1162918D01*
X-1120265Y542135D02*
Y574125D01*
X-1109602Y563462D01*
X-1098939Y574125D01*
Y542135D01*
X-1082944Y563462D02*
X-1072280D01*
X-1066949Y558130D01*
Y542135D01*
X-1082944D01*
X-1088275Y547467D01*
X-1082944Y552799D01*
X-1066949D01*
X-1056286Y542135D02*
Y563462D01*
X-1040291D01*
X-1034959Y558130D01*
Y542135D01*
X-1024296Y563462D02*
Y547467D01*
X-1018964Y542135D01*
X-1002969D01*
Y563462D01*
X-986975Y542135D02*
Y568793D01*
Y558130D01*
X-992306D01*
X-981643D01*
X-986975D01*
Y568793D01*
X-981643Y574125D01*
X-960316Y563462D02*
X-949653D01*
X-944322Y558130D01*
Y542135D01*
X-960316D01*
X-965648Y547467D01*
X-960316Y552799D01*
X-944322D01*
X-912332Y563462D02*
X-928327D01*
X-933659Y558130D01*
Y547467D01*
X-928327Y542135D01*
X-912332D01*
X-896337Y568793D02*
Y563462D01*
X-901669D01*
X-891006D01*
X-896337D01*
Y547467D01*
X-891006Y542135D01*
X-875011Y563462D02*
Y547467D01*
X-869679Y542135D01*
X-853684D01*
Y563462D01*
X-843021D02*
Y542135D01*
Y552799D01*
X-837690Y558130D01*
X-832358Y563462D01*
X-827026D01*
X-811031Y542135D02*
X-800368D01*
X-805700D01*
Y563462D01*
X-811031D01*
X-784373Y542135D02*
Y563462D01*
X-768379D01*
X-763047Y558130D01*
Y542135D01*
X-741720Y531472D02*
X-736389D01*
X-731057Y536804D01*
Y563462D01*
X-747052D01*
X-752384Y558130D01*
Y547467D01*
X-747052Y542135D01*
X-731057D01*
X-688404D02*
Y574125D01*
X-667078Y542135D01*
Y574125D01*
X-651083Y542135D02*
X-640420D01*
X-635088Y547467D01*
Y558130D01*
X-640420Y563462D01*
X-651083D01*
X-656415Y558130D01*
Y547467D01*
X-651083Y542135D01*
X-619093Y568793D02*
Y563462D01*
X-624425D01*
X-613762D01*
X-619093D01*
Y547467D01*
X-613762Y542135D01*
X-581772D02*
X-592435D01*
X-597767Y547467D01*
Y558130D01*
X-592435Y563462D01*
X-581772D01*
X-576441Y558130D01*
Y552799D01*
X-597767D01*
X-565777Y542135D02*
X-549782D01*
X-544451Y547467D01*
X-549782Y552799D01*
X-560446D01*
X-565777Y558130D01*
X-560446Y563462D01*
X-544451D01*
X-1360361Y964700D02*
X-1339034Y943374D01*
X-1360361D02*
X-1339034Y964700D01*
X-1360361Y954037D02*
X-1339034D01*
X-1349697Y943374D02*
Y964700D01*
X-1328371Y938042D02*
Y943374D01*
X-1323039D01*
Y938042D01*
X-1328371D01*
X-1280386Y964700D02*
X-1285718Y970032D01*
X-1296381D01*
X-1301713Y964700D01*
Y943374D01*
X-1296381Y938042D01*
X-1285718D01*
X-1280386Y943374D01*
Y954037D01*
X-1291049D01*
X-1269723Y970032D02*
X-1248397D01*
X-1259060D01*
Y938042D01*
X-1237733Y970032D02*
Y938042D01*
X-1216407D01*
X-1173754Y954037D02*
X-1152428D01*
X-1109775Y970032D02*
Y938042D01*
X-1088448D01*
X-1077785D02*
X-1067122D01*
X-1072453D01*
Y970032D01*
X-1077785Y964700D01*
X-1008474Y938042D02*
X-1019137Y948706D01*
Y959369D01*
X-1008474Y970032D01*
X-992479Y938042D02*
Y970032D01*
X-976484D01*
X-971153Y964700D01*
Y954037D01*
X-976484Y948706D01*
X-992479D01*
X-955158Y938042D02*
X-944495D01*
X-939163Y943374D01*
Y954037D01*
X-944495Y959369D01*
X-955158D01*
X-960490Y954037D01*
Y943374D01*
X-955158Y938042D01*
X-928500D02*
X-912505D01*
X-907173Y943374D01*
X-912505Y948706D01*
X-923168D01*
X-928500Y954037D01*
X-923168Y959369D01*
X-907173D01*
X-896510Y938042D02*
X-885847D01*
X-891179D01*
Y959369D01*
X-896510D01*
X-864520Y964700D02*
Y959369D01*
X-869852D01*
X-859189D01*
X-864520D01*
Y943374D01*
X-859189Y938042D01*
X-843194D02*
X-832531D01*
X-837862D01*
Y959369D01*
X-843194D01*
X-816536D02*
X-805873Y938042D01*
X-795210Y959369D01*
X-768551Y938042D02*
X-779215D01*
X-784546Y943374D01*
Y954037D01*
X-779215Y959369D01*
X-768551D01*
X-763220Y954037D01*
Y948706D01*
X-784546D01*
X-752557Y938042D02*
X-741893Y948706D01*
Y959369D01*
X-752557Y970032D01*
X-1360361Y691679D02*
X-1339034Y670352D01*
X-1360361D02*
X-1339034Y691679D01*
X-1360361Y681015D02*
X-1339034D01*
X-1349697Y670352D02*
Y691679D01*
X-1328371Y665021D02*
Y670352D01*
X-1323039D01*
Y665021D01*
X-1328371D01*
X-1280386Y691679D02*
X-1285718Y697010D01*
X-1296381D01*
X-1301713Y691679D01*
Y670352D01*
X-1296381Y665021D01*
X-1285718D01*
X-1280386Y670352D01*
Y681015D01*
X-1291049D01*
X-1269723Y665021D02*
Y697010D01*
X-1259060Y686347D01*
X-1248397Y697010D01*
Y665021D01*
X-1216407D02*
X-1237733D01*
X-1216407Y686347D01*
Y691679D01*
X-1221739Y697010D01*
X-1232402D01*
X-1237733Y691679D01*
X-1173754Y681015D02*
X-1152428D01*
X-1109775Y665021D02*
Y697010D01*
X-1099111Y686347D01*
X-1088448Y697010D01*
Y665021D01*
X-1061790D02*
X-1072453D01*
X-1077785Y670352D01*
Y681015D01*
X-1072453Y686347D01*
X-1061790D01*
X-1056459Y681015D01*
Y675684D01*
X-1077785D01*
X-1024469Y686347D02*
X-1040464D01*
X-1045795Y681015D01*
Y670352D01*
X-1040464Y665021D01*
X-1024469D01*
X-1013806Y697010D02*
Y665021D01*
Y681015D01*
X-1008474Y686347D01*
X-997811D01*
X-992479Y681015D01*
Y665021D01*
X-976484Y686347D02*
X-965821D01*
X-960490Y681015D01*
Y665021D01*
X-976484D01*
X-981816Y670352D01*
X-976484Y675684D01*
X-960490D01*
X-949826Y665021D02*
Y686347D01*
X-933831D01*
X-928500Y681015D01*
Y665021D01*
X-917837D02*
X-907173D01*
X-912505D01*
Y686347D01*
X-917837D01*
X-869852D02*
X-885847D01*
X-891179Y681015D01*
Y670352D01*
X-885847Y665021D01*
X-869852D01*
X-853857Y686347D02*
X-843194D01*
X-837862Y681015D01*
Y665021D01*
X-853857D01*
X-859189Y670352D01*
X-853857Y675684D01*
X-837862D01*
X-827199Y665021D02*
X-816536D01*
X-821868D01*
Y697010D01*
X-827199D01*
X-768551D02*
Y665021D01*
X-752557D01*
X-747225Y670352D01*
Y691679D01*
X-752557Y697010D01*
X-768551D01*
X-736562Y686347D02*
Y665021D01*
Y675684D01*
X-731230Y681015D01*
X-725899Y686347D01*
X-720567D01*
X-699241D02*
X-688577D01*
X-683246Y681015D01*
Y665021D01*
X-699241D01*
X-704572Y670352D01*
X-699241Y675684D01*
X-683246D01*
X-672582Y686347D02*
Y670352D01*
X-667251Y665021D01*
X-661919Y670352D01*
X-656588Y665021D01*
X-651256Y670352D01*
Y686347D01*
X-640593Y665021D02*
X-629930D01*
X-635261D01*
Y686347D01*
X-640593D01*
X-613935Y665021D02*
Y686347D01*
X-597940D01*
X-592608Y681015D01*
Y665021D01*
X-571282Y654357D02*
X-565950D01*
X-560619Y659689D01*
Y686347D01*
X-576614D01*
X-581945Y681015D01*
Y670352D01*
X-576614Y665021D01*
X-560619D01*
X980603Y936567D02*
Y968557D01*
X991266Y957893D01*
X1001929Y968557D01*
Y936567D01*
X1012592D02*
X1023255D01*
X1017924D01*
Y957893D01*
X1012592D01*
X1039250Y936567D02*
Y957893D01*
X1055245D01*
X1060577Y952562D01*
Y936567D01*
X1071240D02*
X1081903D01*
X1076572D01*
Y957893D01*
X1071240D01*
X1097898Y936567D02*
Y957893D01*
X1103230D01*
X1108561Y952562D01*
Y936567D01*
Y952562D01*
X1113893Y957893D01*
X1119224Y952562D01*
Y936567D01*
X1129888Y957893D02*
Y941898D01*
X1135219Y936567D01*
X1151214D01*
Y957893D01*
X1161877Y936567D02*
Y957893D01*
X1167209D01*
X1172541Y952562D01*
Y936567D01*
Y952562D01*
X1177872Y957893D01*
X1183204Y952562D01*
Y936567D01*
X1247183Y963225D02*
X1241852Y968557D01*
X1231188D01*
X1225857Y963225D01*
Y941898D01*
X1231188Y936567D01*
X1241852D01*
X1247183Y941898D01*
Y952562D01*
X1236520D01*
X1263178Y957893D02*
X1273841D01*
X1279173Y952562D01*
Y936567D01*
X1263178D01*
X1257846Y941898D01*
X1263178Y947230D01*
X1279173D01*
X1289836Y925904D02*
Y957893D01*
X1305831D01*
X1311163Y952562D01*
Y941898D01*
X1305831Y936567D01*
X1289836D01*
X1321826Y957893D02*
X1327157D01*
Y952562D01*
X1321826D01*
Y957893D01*
Y941898D02*
X1327157D01*
Y936567D01*
X1321826D01*
Y941898D01*
X1401800Y936567D02*
X1380473D01*
X1401800Y957893D01*
Y963225D01*
X1396468Y968557D01*
X1385805D01*
X1380473Y963225D01*
X1412463D02*
X1417795Y968557D01*
X1428458D01*
X1433790Y963225D01*
Y941898D01*
X1428458Y936567D01*
X1417795D01*
X1412463Y941898D01*
Y963225D01*
X1444453D02*
X1449785Y968557D01*
X1460448D01*
X1465779Y963225D01*
Y941898D01*
X1460448Y936567D01*
X1449785D01*
X1444453Y941898D01*
Y963225D01*
X1476443Y957893D02*
Y941898D01*
X1481774Y936567D01*
X1497769D01*
Y957893D01*
X1508432Y936567D02*
Y957893D01*
X1513764D01*
X1519095Y952562D01*
Y936567D01*
Y952562D01*
X1524427Y957893D01*
X1529759Y952562D01*
Y936567D01*
X982251Y868980D02*
Y900970D01*
X992914Y890306D01*
X1003577Y900970D01*
Y868980D01*
X1014241D02*
X1024904D01*
X1019572D01*
Y890306D01*
X1014241D01*
X1040899Y868980D02*
Y890306D01*
X1056894D01*
X1062225Y884975D01*
Y868980D01*
X1072888D02*
X1083552D01*
X1078220D01*
Y890306D01*
X1072888D01*
X1099547Y868980D02*
Y890306D01*
X1104878D01*
X1110210Y884975D01*
Y868980D01*
Y884975D01*
X1115541Y890306D01*
X1120873Y884975D01*
Y868980D01*
X1131536Y890306D02*
Y874312D01*
X1136868Y868980D01*
X1152863D01*
Y890306D01*
X1163526Y868980D02*
Y890306D01*
X1168857D01*
X1174189Y884975D01*
Y868980D01*
Y884975D01*
X1179521Y890306D01*
X1184852Y884975D01*
Y868980D01*
X1227505Y900970D02*
X1248832D01*
X1238168D01*
Y868980D01*
X1259495Y900970D02*
Y868980D01*
Y884975D01*
X1264827Y890306D01*
X1275490D01*
X1280821Y884975D01*
Y868980D01*
X1291485Y890306D02*
Y868980D01*
Y879643D01*
X1296816Y884975D01*
X1302148Y890306D01*
X1307479D01*
X1328806Y868980D02*
X1339469D01*
X1344801Y874312D01*
Y884975D01*
X1339469Y890306D01*
X1328806D01*
X1323474Y884975D01*
Y874312D01*
X1328806Y868980D01*
X1355464Y890306D02*
Y874312D01*
X1360795Y868980D01*
X1376790D01*
Y890306D01*
X1398117Y858317D02*
X1403448D01*
X1408780Y863648D01*
Y890306D01*
X1392785D01*
X1387454Y884975D01*
Y874312D01*
X1392785Y868980D01*
X1408780D01*
X1419443Y900970D02*
Y868980D01*
Y884975D01*
X1424775Y890306D01*
X1435438D01*
X1440770Y884975D01*
Y868980D01*
X1483423Y900970D02*
Y868980D01*
Y884975D01*
X1504749D01*
Y900970D01*
Y868980D01*
X1520744D02*
X1531407D01*
X1536739Y874312D01*
Y884975D01*
X1531407Y890306D01*
X1520744D01*
X1515412Y884975D01*
Y874312D01*
X1520744Y868980D01*
X1547402D02*
X1558065D01*
X1552733D01*
Y900970D01*
X1547402D01*
X1590055Y868980D02*
X1579392D01*
X1574060Y874312D01*
Y884975D01*
X1579392Y890306D01*
X1590055D01*
X1595386Y884975D01*
Y879643D01*
X1574060D01*
X1638039Y900970D02*
Y879643D01*
X1648703Y868980D01*
X1659366Y879643D01*
Y900970D01*
X1670029D02*
X1680692D01*
X1675361D01*
Y868980D01*
X1670029D01*
X1680692D01*
X1696687D02*
Y890306D01*
X1707350Y900970D01*
X1718013Y890306D01*
Y868980D01*
Y884975D01*
X1696687D01*
X1728677Y890306D02*
X1734008D01*
Y884975D01*
X1728677D01*
Y890306D01*
Y874312D02*
X1734008D01*
Y868980D01*
X1728677D01*
Y874312D01*
X1787325Y895638D02*
X1792656Y900970D01*
X1803319D01*
X1808651Y895638D01*
Y874312D01*
X1803319Y868980D01*
X1792656D01*
X1787325Y874312D01*
Y895638D01*
X1819314Y868980D02*
Y874312D01*
X1824646D01*
Y868980D01*
X1819314D01*
X1867299Y900970D02*
X1856635Y895638D01*
X1845972Y884975D01*
Y874312D01*
X1851304Y868980D01*
X1861967D01*
X1867299Y874312D01*
Y879643D01*
X1861967Y884975D01*
X1845972D01*
X1877962Y868980D02*
Y890306D01*
X1883293D01*
X1888625Y884975D01*
Y868980D01*
Y884975D01*
X1893957Y890306D01*
X1899288Y884975D01*
Y868980D01*
X1909952D02*
Y890306D01*
X1915283D01*
X1920615Y884975D01*
Y868980D01*
Y884975D01*
X1925946Y890306D01*
X1931278Y884975D01*
Y868980D01*
X1984594D02*
X1973931Y879643D01*
Y890306D01*
X1984594Y900970D01*
X2000589Y858317D02*
Y890306D01*
X2016584D01*
X2021915Y884975D01*
Y874312D01*
X2016584Y868980D01*
X2000589D01*
X2037910Y890306D02*
X2048573D01*
X2053905Y884975D01*
Y868980D01*
X2037910D01*
X2032579Y874312D01*
X2037910Y879643D01*
X2053905D01*
X2085895Y900970D02*
Y868980D01*
X2069900D01*
X2064568Y874312D01*
Y884975D01*
X2069900Y890306D01*
X2085895D01*
X2096558Y868980D02*
X2107221Y879643D01*
Y890306D01*
X2096558Y900970D01*
X2155206Y868980D02*
X2176532Y890306D01*
X2219185Y895638D02*
X2224517Y900970D01*
X2235180D01*
X2240511Y895638D01*
Y874312D01*
X2235180Y868980D01*
X2224517D01*
X2219185Y874312D01*
Y895638D01*
X2251175Y868980D02*
Y874312D01*
X2256506D01*
Y868980D01*
X2251175D01*
X2277833Y895638D02*
X2283164Y900970D01*
X2293828D01*
X2299159Y895638D01*
Y890306D01*
X2293828Y884975D01*
X2288496D01*
X2293828D01*
X2299159Y879643D01*
Y874312D01*
X2293828Y868980D01*
X2283164D01*
X2277833Y874312D01*
X2309823Y868980D02*
Y890306D01*
X2315154D01*
X2320486Y884975D01*
Y868980D01*
Y884975D01*
X2325817Y890306D01*
X2331149Y884975D01*
Y868980D01*
X2341812D02*
Y890306D01*
X2347144D01*
X2352475Y884975D01*
Y868980D01*
Y884975D01*
X2357807Y890306D01*
X2363139Y884975D01*
Y868980D01*
X2416455D02*
X2405791Y879643D01*
Y890306D01*
X2416455Y900970D01*
X2453776D02*
Y868980D01*
X2437781D01*
X2432450Y874312D01*
Y884975D01*
X2437781Y890306D01*
X2453776D01*
X2464439D02*
Y868980D01*
Y879643D01*
X2469771Y884975D01*
X2475103Y890306D01*
X2480434D01*
X2496429Y868980D02*
X2507092D01*
X2501761D01*
Y890306D01*
X2496429D01*
X2523087Y868980D02*
X2533750D01*
X2528419D01*
Y900970D01*
X2523087D01*
X2549745Y868980D02*
X2560408D01*
X2555077D01*
Y900970D01*
X2549745D01*
X2576403Y868980D02*
X2587066Y879643D01*
Y890306D01*
X2576403Y900970D01*
X2603061Y868980D02*
Y874312D01*
X2608393D01*
Y868980D01*
X2603061D01*
X2661709Y900970D02*
Y868980D01*
X2677704D01*
X2683035Y874312D01*
Y895638D01*
X2677704Y900970D01*
X2661709D01*
X2693699Y890306D02*
Y868980D01*
Y879643D01*
X2699030Y884975D01*
X2704362Y890306D01*
X2709693D01*
X2725688Y868980D02*
X2736352D01*
X2731020D01*
Y890306D01*
X2725688D01*
X2752346Y868980D02*
X2763010D01*
X2757678D01*
Y900970D01*
X2752346D01*
X2779005Y868980D02*
X2789668D01*
X2784336D01*
Y900970D01*
X2779005D01*
X2805663Y868980D02*
X2816326D01*
X2810994D01*
Y890306D01*
X2805663D01*
X2832321Y868980D02*
Y890306D01*
X2848315D01*
X2853647Y884975D01*
Y868980D01*
X2874973Y858317D02*
X2880305D01*
X2885637Y863648D01*
Y890306D01*
X2869642D01*
X2864310Y884975D01*
Y874312D01*
X2869642Y868980D01*
X2885637D01*
X2896300Y890306D02*
X2901631D01*
Y884975D01*
X2896300D01*
Y890306D01*
Y874312D02*
X2901631D01*
Y868980D01*
X2896300D01*
Y874312D01*
X2954948Y900970D02*
Y868980D01*
X2976274D01*
X2986937D02*
X2997600D01*
X2992269D01*
Y900970D01*
X2986937Y895638D01*
X3013595Y884975D02*
X3034922D01*
X3045585Y900970D02*
Y868980D01*
X3066912D01*
X3098901D02*
X3077575D01*
X3098901Y890306D01*
Y895638D01*
X3093570Y900970D01*
X3082906D01*
X3077575Y895638D01*
X955236Y477672D02*
Y509662D01*
X939241Y493667D01*
X960568D01*
X971231Y477672D02*
Y483004D01*
X976562D01*
Y477672D01*
X971231D01*
X1051205Y504330D02*
X1045873Y509662D01*
X1035210D01*
X1029879Y504330D01*
Y483004D01*
X1035210Y477672D01*
X1045873D01*
X1051205Y483004D01*
X1077863Y509662D02*
X1067200D01*
X1061868Y504330D01*
Y483004D01*
X1067200Y477672D01*
X1077863D01*
X1083195Y483004D01*
Y504330D01*
X1077863Y509662D01*
X1093858Y477672D02*
Y509662D01*
X1104521Y498999D01*
X1115184Y509662D01*
Y477672D01*
X1125848D02*
Y509662D01*
X1141842D01*
X1147174Y504330D01*
Y493667D01*
X1141842Y488336D01*
X1125848D01*
X1173832Y509662D02*
X1163169D01*
X1157837Y504330D01*
Y483004D01*
X1163169Y477672D01*
X1173832D01*
X1179164Y483004D01*
Y504330D01*
X1173832Y509662D01*
X1189827Y477672D02*
Y509662D01*
X1211153Y477672D01*
Y509662D01*
X1243143D02*
X1221817D01*
Y477672D01*
X1243143D01*
X1221817Y493667D02*
X1232480D01*
X1253806Y477672D02*
Y509662D01*
X1275133Y477672D01*
Y509662D01*
X1285796D02*
X1307122D01*
X1296459D01*
Y477672D01*
X1349775Y509662D02*
X1360439D01*
X1355107D01*
Y477672D01*
X1349775D01*
X1360439D01*
X1376433D02*
Y509662D01*
X1397760Y477672D01*
Y509662D01*
X1408423D02*
Y477672D01*
X1424418D01*
X1429749Y483004D01*
Y504330D01*
X1424418Y509662D01*
X1408423D01*
X1461739D02*
X1440413D01*
Y477672D01*
X1461739D01*
X1440413Y493667D02*
X1451076D01*
X1472402Y477672D02*
Y509662D01*
X1493729Y477672D01*
Y509662D01*
X1504392D02*
X1525719D01*
X1515055D01*
Y477672D01*
X1536382Y498999D02*
X1541713D01*
Y493667D01*
X1536382D01*
Y498999D01*
Y483004D02*
X1541713D01*
Y477672D01*
X1536382D01*
Y483004D01*
X1616356Y504330D02*
X1611024Y509662D01*
X1600361D01*
X1595029Y504330D01*
Y483004D01*
X1600361Y477672D01*
X1611024D01*
X1616356Y483004D01*
X1643014Y509662D02*
X1632351D01*
X1627019Y504330D01*
Y483004D01*
X1632351Y477672D01*
X1643014D01*
X1648346Y483004D01*
Y504330D01*
X1643014Y509662D01*
X1659009D02*
Y477672D01*
X1680335D01*
X1706993Y509662D02*
X1696330D01*
X1690999Y504330D01*
Y483004D01*
X1696330Y477672D01*
X1706993D01*
X1712325Y483004D01*
Y504330D01*
X1706993Y509662D01*
X1722988Y477672D02*
Y509662D01*
X1738983D01*
X1744315Y504330D01*
Y493667D01*
X1738983Y488336D01*
X1722988D01*
X1733651D02*
X1744315Y477672D01*
X1786968Y509662D02*
X1808294D01*
X1797631D01*
Y477672D01*
X1834952Y509662D02*
X1824289D01*
X1818957Y504330D01*
Y483004D01*
X1824289Y477672D01*
X1834952D01*
X1840284Y483004D01*
Y504330D01*
X1834952Y509662D01*
X1882937D02*
Y477672D01*
X1898931D01*
X1904263Y483004D01*
Y488336D01*
X1898931Y493667D01*
X1882937D01*
X1898931D01*
X1904263Y498999D01*
Y504330D01*
X1898931Y509662D01*
X1882937D01*
X1936253D02*
X1914926D01*
Y477672D01*
X1936253D01*
X1914926Y493667D02*
X1925589D01*
X1978906Y509662D02*
Y477672D01*
X1989569Y488336D01*
X2000232Y477672D01*
Y509662D01*
X2010895D02*
Y477672D01*
Y493667D01*
X2032222D01*
Y509662D01*
Y477672D01*
X2042885Y509662D02*
X2053548D01*
X2048217D01*
Y477672D01*
X2042885D01*
X2053548D01*
X2069543Y509662D02*
X2090869D01*
X2080206D01*
Y477672D01*
X2122859Y509662D02*
X2101533D01*
Y477672D01*
X2122859D01*
X2101533Y493667D02*
X2112196D01*
X950631Y715350D02*
X961294D01*
X955962D01*
Y747340D01*
X950631Y742008D01*
X977289Y715350D02*
Y720682D01*
X982620D01*
Y715350D01*
X977289D01*
X1057263Y747340D02*
X1035936D01*
Y731345D01*
X1046600D01*
X1035936D01*
Y715350D01*
X1067926Y747340D02*
X1078589D01*
X1073258D01*
Y715350D01*
X1067926D01*
X1078589D01*
X1094584D02*
Y747340D01*
X1115910Y715350D01*
Y747340D01*
X1126574D02*
X1137237D01*
X1131905D01*
Y715350D01*
X1126574D01*
X1137237D01*
X1174558Y742008D02*
X1169227Y747340D01*
X1158563D01*
X1153232Y742008D01*
Y736677D01*
X1158563Y731345D01*
X1169227D01*
X1174558Y726014D01*
Y720682D01*
X1169227Y715350D01*
X1158563D01*
X1153232Y720682D01*
X1185221Y747340D02*
Y715350D01*
Y731345D01*
X1206548D01*
Y747340D01*
Y715350D01*
X1238538Y747340D02*
X1217211D01*
Y715350D01*
X1238538D01*
X1217211Y731345D02*
X1227874D01*
X1249201Y747340D02*
Y715350D01*
X1265196D01*
X1270527Y720682D01*
Y742008D01*
X1265196Y747340D01*
X1249201D01*
X1313180Y715350D02*
Y747340D01*
X1329175D01*
X1334507Y742008D01*
Y731345D01*
X1329175Y726014D01*
X1313180D01*
X1345170Y715350D02*
Y736677D01*
X1355833Y747340D01*
X1366496Y736677D01*
Y715350D01*
Y731345D01*
X1345170D01*
X1377160Y715350D02*
Y747340D01*
X1398486Y715350D01*
Y747340D01*
X1430476D02*
X1409149D01*
Y715350D01*
X1430476D01*
X1409149Y731345D02*
X1419812D01*
X1441139Y747340D02*
Y715350D01*
X1462465D01*
X1505118Y747340D02*
X1526445D01*
X1515782D01*
Y715350D01*
X1537108Y747340D02*
Y715350D01*
Y731345D01*
X1558434D01*
Y747340D01*
Y715350D01*
X1569098Y747340D02*
X1579761D01*
X1574429D01*
Y715350D01*
X1569098D01*
X1579761D01*
X1617082Y742008D02*
X1611750Y747340D01*
X1601087D01*
X1595756Y742008D01*
Y720682D01*
X1601087Y715350D01*
X1611750D01*
X1617082Y720682D01*
X1627745Y747340D02*
Y715350D01*
Y726014D01*
X1649072Y747340D01*
X1633077Y731345D01*
X1649072Y715350D01*
X1659735D02*
Y747340D01*
X1681062Y715350D01*
Y747340D01*
X1713051D02*
X1691725D01*
Y715350D01*
X1713051D01*
X1691725Y731345D02*
X1702388D01*
X1745041Y742008D02*
X1739709Y747340D01*
X1729046D01*
X1723714Y742008D01*
Y736677D01*
X1729046Y731345D01*
X1739709D01*
X1745041Y726014D01*
Y720682D01*
X1739709Y715350D01*
X1729046D01*
X1723714Y720682D01*
X1777030Y742008D02*
X1771699Y747340D01*
X1761036D01*
X1755704Y742008D01*
Y736677D01*
X1761036Y731345D01*
X1771699D01*
X1777030Y726014D01*
Y720682D01*
X1771699Y715350D01*
X1761036D01*
X1755704Y720682D01*
X1819683Y747340D02*
X1830347D01*
X1825015D01*
Y715350D01*
X1819683D01*
X1830347D01*
X1867668Y742008D02*
X1862336Y747340D01*
X1851673D01*
X1846341Y742008D01*
Y736677D01*
X1851673Y731345D01*
X1862336D01*
X1867668Y726014D01*
Y720682D01*
X1862336Y715350D01*
X1851673D01*
X1846341Y720682D01*
X1910321Y715350D02*
Y747340D01*
X1931647Y715350D01*
Y747340D01*
X1958305D02*
X1947642D01*
X1942310Y742008D01*
Y720682D01*
X1947642Y715350D01*
X1958305D01*
X1963637Y720682D01*
Y742008D01*
X1958305Y747340D01*
X1974300D02*
X1995627D01*
X1984963D01*
Y715350D01*
X2059606Y742008D02*
X2054274Y747340D01*
X2043611D01*
X2038280Y742008D01*
Y720682D01*
X2043611Y715350D01*
X2054274D01*
X2059606Y720682D01*
X2070269Y715350D02*
Y747340D01*
X2086264D01*
X2091596Y742008D01*
Y731345D01*
X2086264Y726014D01*
X2070269D01*
X2080932D02*
X2091596Y715350D01*
X2102259Y747340D02*
X2112922D01*
X2107590D01*
Y715350D01*
X2102259D01*
X2112922D01*
X2128917Y747340D02*
X2150243D01*
X2139580D01*
Y715350D01*
X2160907Y747340D02*
X2171570D01*
X2166238D01*
Y715350D01*
X2160907D01*
X2171570D01*
X2208891Y742008D02*
X2203560Y747340D01*
X2192896D01*
X2187565Y742008D01*
Y720682D01*
X2192896Y715350D01*
X2203560D01*
X2208891Y720682D01*
X2219554Y715350D02*
Y736677D01*
X2230217Y747340D01*
X2240881Y736677D01*
Y715350D01*
Y731345D01*
X2219554D01*
X2251544Y747340D02*
Y715350D01*
X2272870D01*
X2283534Y736677D02*
X2288865D01*
Y731345D01*
X2283534D01*
Y736677D01*
Y720682D02*
X2288865D01*
Y715350D01*
X2283534D01*
Y720682D01*
X2342181Y747340D02*
X2363508D01*
X2352845D01*
Y715350D01*
X2390166Y747340D02*
X2379503D01*
X2374171Y742008D01*
Y720682D01*
X2379503Y715350D01*
X2390166D01*
X2395497Y720682D01*
Y742008D01*
X2390166Y747340D01*
X2438150D02*
Y715350D01*
X2454145D01*
X2459477Y720682D01*
Y726014D01*
X2454145Y731345D01*
X2438150D01*
X2454145D01*
X2459477Y736677D01*
Y742008D01*
X2454145Y747340D01*
X2438150D01*
X2491467D02*
X2470140D01*
Y715350D01*
X2491467D01*
X2470140Y731345D02*
X2480803D01*
X2534119Y715350D02*
Y736677D01*
X2544783Y747340D01*
X2555446Y736677D01*
Y715350D01*
Y731345D01*
X2534119D01*
X2566109Y715350D02*
Y747340D01*
X2582104D01*
X2587436Y742008D01*
Y731345D01*
X2582104Y726014D01*
X2566109D01*
X2598099Y715350D02*
Y747340D01*
X2614094D01*
X2619425Y742008D01*
Y731345D01*
X2614094Y726014D01*
X2598099D01*
X2630089Y715350D02*
Y747340D01*
X2646083D01*
X2651415Y742008D01*
Y731345D01*
X2646083Y726014D01*
X2630089D01*
X2640752D02*
X2651415Y715350D01*
X2678073Y747340D02*
X2667410D01*
X2662078Y742008D01*
Y720682D01*
X2667410Y715350D01*
X2678073D01*
X2683405Y720682D01*
Y742008D01*
X2678073Y747340D01*
X2694068D02*
X2715394Y715350D01*
Y747340D02*
X2694068Y715350D01*
X2726057Y747340D02*
X2736721D01*
X2731389D01*
Y715350D01*
X2726057D01*
X2736721D01*
X2752715D02*
Y747340D01*
X2763379Y736677D01*
X2774042Y747340D01*
Y715350D01*
X2784705D02*
Y736677D01*
X2795369Y747340D01*
X2806032Y736677D01*
Y715350D01*
Y731345D01*
X2784705D01*
X2816695Y747340D02*
X2838021D01*
X2827358D01*
Y715350D01*
X2870011Y747340D02*
X2848685D01*
Y715350D01*
X2870011D01*
X2848685Y731345D02*
X2859348D01*
X2880674Y747340D02*
Y715350D01*
X2902001D01*
X2912664Y747340D02*
Y742008D01*
X2923327Y731345D01*
X2933990Y742008D01*
Y747340D01*
X2923327Y731345D02*
Y715350D01*
X2976643D02*
X2987307D01*
X2981975D01*
Y747340D01*
X2976643Y742008D01*
X3003301Y715350D02*
Y720682D01*
X3008633D01*
Y715350D01*
X3003301D01*
X3051286Y747340D02*
X3040623Y742008D01*
X3029959Y731345D01*
Y720682D01*
X3035291Y715350D01*
X3045954D01*
X3051286Y720682D01*
Y726014D01*
X3045954Y731345D01*
X3029959D01*
X3061949Y715350D02*
Y736677D01*
X3067281D01*
X3072612Y731345D01*
Y715350D01*
Y731345D01*
X3077944Y736677D01*
X3083275Y731345D01*
Y715350D01*
X3093939D02*
Y736677D01*
X3099270D01*
X3104602Y731345D01*
Y715350D01*
Y731345D01*
X3109933Y736677D01*
X3115265Y731345D01*
Y715350D01*
X993940Y343516D02*
X1015266D01*
X1079246Y359511D02*
X1057919D01*
Y343516D01*
X1068583D01*
X1057919D01*
Y327521D01*
X1089909Y359511D02*
X1100572D01*
X1095241D01*
Y327521D01*
X1089909D01*
X1100572D01*
X1116567Y359511D02*
Y327521D01*
X1132562D01*
X1137894Y332853D01*
Y354179D01*
X1132562Y359511D01*
X1116567D01*
X1148557D02*
Y332853D01*
X1153888Y327521D01*
X1164552D01*
X1169883Y332853D01*
Y359511D01*
X1201873Y354179D02*
X1196541Y359511D01*
X1185878D01*
X1180546Y354179D01*
Y332853D01*
X1185878Y327521D01*
X1196541D01*
X1201873Y332853D01*
X1212536Y359511D02*
X1223199D01*
X1217868D01*
Y327521D01*
X1212536D01*
X1223199D01*
X1239194D02*
Y348847D01*
X1249857Y359511D01*
X1260521Y348847D01*
Y327521D01*
Y343516D01*
X1239194D01*
X1271184Y359511D02*
Y327521D01*
X1292510D01*
X1335163Y359511D02*
Y327521D01*
X1351158D01*
X1356490Y332853D01*
Y354179D01*
X1351158Y359511D01*
X1335163D01*
X1367153D02*
X1377816D01*
X1372485D01*
Y327521D01*
X1367153D01*
X1377816D01*
X1393811D02*
Y348847D01*
X1404474Y359511D01*
X1415137Y348847D01*
Y327521D01*
Y343516D01*
X1393811D01*
X1425801Y327521D02*
Y359511D01*
X1436464Y348847D01*
X1447127Y359511D01*
Y327521D01*
X1479117Y359511D02*
X1457790D01*
Y327521D01*
X1479117D01*
X1457790Y343516D02*
X1468454D01*
X1489780Y359511D02*
X1511107D01*
X1500443D01*
Y327521D01*
X1543096Y359511D02*
X1521770D01*
Y327521D01*
X1543096D01*
X1521770Y343516D02*
X1532433D01*
X1553759Y327521D02*
Y359511D01*
X1569754D01*
X1575086Y354179D01*
Y343516D01*
X1569754Y338184D01*
X1553759D01*
X1564423D02*
X1575086Y327521D01*
X1617739D02*
X1628402D01*
X1623070D01*
Y359511D01*
X1617739Y354179D01*
X1644397Y343516D02*
X1665723D01*
X1676387Y327521D02*
X1687050D01*
X1681718D01*
Y359511D01*
X1676387Y354179D01*
X1703044Y327521D02*
Y332853D01*
X1708376D01*
Y327521D01*
X1703044D01*
X1751029Y359511D02*
X1729703D01*
Y343516D01*
X1740366Y348847D01*
X1745697D01*
X1751029Y343516D01*
Y332853D01*
X1745697Y327521D01*
X1735034D01*
X1729703Y332853D01*
X1761692Y327521D02*
Y359511D01*
X1772355Y348847D01*
X1783019Y359511D01*
Y327521D01*
X1793682D02*
Y359511D01*
X1804345Y348847D01*
X1815008Y359511D01*
Y327521D01*
X1831003Y322189D02*
X1836335Y327521D01*
Y332853D01*
X1831003D01*
Y327521D01*
X1836335D01*
X1831003Y322189D01*
X1825672Y316858D01*
X1910977Y354179D02*
X1905646Y359511D01*
X1894983D01*
X1889651Y354179D01*
Y348847D01*
X1894983Y343516D01*
X1905646D01*
X1910977Y338184D01*
Y332853D01*
X1905646Y327521D01*
X1894983D01*
X1889651Y332853D01*
X1937635Y359511D02*
X1926972D01*
X1921641Y354179D01*
Y332853D01*
X1926972Y327521D01*
X1937635D01*
X1942967Y332853D01*
Y354179D01*
X1937635Y359511D01*
X1953630D02*
Y327521D01*
X1974957D01*
X1985620Y359511D02*
Y327521D01*
X2001615D01*
X2006947Y332853D01*
Y354179D01*
X2001615Y359511D01*
X1985620D01*
X2038936D02*
X2017610D01*
Y327521D01*
X2038936D01*
X2017610Y343516D02*
X2028273D01*
X2049599Y327521D02*
Y359511D01*
X2065594D01*
X2070926Y354179D01*
Y343516D01*
X2065594Y338184D01*
X2049599D01*
X2060263D02*
X2070926Y327521D01*
X2113579D02*
Y359511D01*
X2124242Y348847D01*
X2134905Y359511D01*
Y327521D01*
X2145568D02*
Y348847D01*
X2156232Y359511D01*
X2166895Y348847D01*
Y327521D01*
Y343516D01*
X2145568D01*
X2198884Y354179D02*
X2193553Y359511D01*
X2182890D01*
X2177558Y354179D01*
Y348847D01*
X2182890Y343516D01*
X2193553D01*
X2198884Y338184D01*
Y332853D01*
X2193553Y327521D01*
X2182890D01*
X2177558Y332853D01*
X2209548Y359511D02*
Y327521D01*
Y338184D01*
X2230874Y359511D01*
X2214879Y343516D01*
X2230874Y327521D01*
X2289522Y359511D02*
X2278859D01*
X2273527Y354179D01*
Y332853D01*
X2278859Y327521D01*
X2289522D01*
X2294854Y332853D01*
Y354179D01*
X2289522Y359511D01*
X2305517Y327521D02*
Y359511D01*
X2321512D01*
X2326843Y354179D01*
Y343516D01*
X2321512Y338184D01*
X2305517D01*
X2358833Y359511D02*
X2337506D01*
Y327521D01*
X2358833D01*
X2337506Y343516D02*
X2348170D01*
X2369496Y327521D02*
Y359511D01*
X2390822Y327521D01*
Y359511D01*
X2401486D02*
X2412149D01*
X2406817D01*
Y327521D01*
X2401486D01*
X2412149D01*
X2428144D02*
Y359511D01*
X2449470Y327521D01*
Y359511D01*
X2481460Y354179D02*
X2476128Y359511D01*
X2465465D01*
X2460134Y354179D01*
Y332853D01*
X2465465Y327521D01*
X2476128D01*
X2481460Y332853D01*
Y343516D01*
X2470797D01*
X2524113Y327521D02*
Y348847D01*
X2534776Y359511D01*
X2545439Y348847D01*
Y327521D01*
Y343516D01*
X2524113D01*
X2556102Y359511D02*
X2577429D01*
X2566766D01*
Y327521D01*
X2620082Y359511D02*
Y327521D01*
X2641408D01*
X2673398Y359511D02*
X2652072D01*
Y327521D01*
X2673398D01*
X2652072Y343516D02*
X2662735D01*
X2684061Y327521D02*
Y348847D01*
X2694724Y359511D01*
X2705388Y348847D01*
Y327521D01*
Y343516D01*
X2684061D01*
X2737377Y354179D02*
X2732046Y359511D01*
X2721382D01*
X2716051Y354179D01*
Y348847D01*
X2721382Y343516D01*
X2732046D01*
X2737377Y338184D01*
Y332853D01*
X2732046Y327521D01*
X2721382D01*
X2716051Y332853D01*
X2748040Y359511D02*
X2769367D01*
X2758704D01*
Y327521D01*
X2812020D02*
X2822683D01*
X2817351D01*
Y359511D01*
X2812020Y354179D01*
X2838678Y327521D02*
Y359511D01*
X2849341Y348847D01*
X2860004Y359511D01*
Y327521D01*
X2870668D02*
Y359511D01*
X2881331Y348847D01*
X2891994Y359511D01*
Y327521D01*
X2955974Y354179D02*
X2950642Y359511D01*
X2939979D01*
X2934647Y354179D01*
Y332853D01*
X2939979Y327521D01*
X2950642D01*
X2955974Y332853D01*
Y343516D01*
X2945310D01*
X2966637Y327521D02*
Y359511D01*
X2982632D01*
X2987963Y354179D01*
Y343516D01*
X2982632Y338184D01*
X2966637D01*
X2977300D02*
X2987963Y327521D01*
X3019953Y359511D02*
X2998626D01*
Y327521D01*
X3019953D01*
X2998626Y343516D02*
X3009290D01*
X3030616Y327521D02*
Y348847D01*
X3041279Y359511D01*
X3051942Y348847D01*
Y327521D01*
Y343516D01*
X3030616D01*
X3062606Y359511D02*
X3083932D01*
X3073269D01*
Y327521D01*
X3115922Y359511D02*
X3094595D01*
Y327521D01*
X3115922D01*
X3094595Y343516D02*
X3105258D01*
X3126585Y327521D02*
Y359511D01*
X3142580D01*
X3147911Y354179D01*
Y343516D01*
X3142580Y338184D01*
X3126585D01*
X3137248D02*
X3147911Y327521D01*
X993940Y304054D02*
X1015266D01*
X1004603D01*
Y272064D01*
X1025930Y304054D02*
Y272064D01*
Y288059D01*
X1047256D01*
Y304054D01*
Y272064D01*
X1057919D02*
Y293391D01*
X1068583Y304054D01*
X1079246Y293391D01*
Y272064D01*
Y288059D01*
X1057919D01*
X1089909Y272064D02*
Y304054D01*
X1111236Y272064D01*
Y304054D01*
X1175215D02*
X1153888D01*
Y288059D01*
X1164552D01*
X1153888D01*
Y272064D01*
X1185878Y304054D02*
X1196541D01*
X1191210D01*
Y272064D01*
X1185878D01*
X1196541D01*
X1212536Y304054D02*
Y272064D01*
X1228531D01*
X1233863Y277396D01*
Y298722D01*
X1228531Y304054D01*
X1212536D01*
X1244526D02*
Y277396D01*
X1249857Y272064D01*
X1260521D01*
X1265852Y277396D01*
Y304054D01*
X1297842Y298722D02*
X1292510Y304054D01*
X1281847D01*
X1276516Y298722D01*
Y277396D01*
X1281847Y272064D01*
X1292510D01*
X1297842Y277396D01*
X1308505Y304054D02*
X1319169D01*
X1313837D01*
Y272064D01*
X1308505D01*
X1319169D01*
X1335163D02*
Y293391D01*
X1345827Y304054D01*
X1356490Y293391D01*
Y272064D01*
Y288059D01*
X1335163D01*
X1367153Y304054D02*
Y272064D01*
X1388479D01*
X-1368902Y632761D02*
X-1347576Y611434D01*
X-1368902D02*
X-1347576Y632761D01*
X-1368902Y622097D02*
X-1347576D01*
X-1358239Y611434D02*
Y632761D01*
X-1336913Y606102D02*
Y611434D01*
X-1331581D01*
Y606102D01*
X-1336913D01*
X-1288928Y632761D02*
X-1294260Y638092D01*
X-1304923D01*
X-1310255Y632761D01*
Y611434D01*
X-1304923Y606102D01*
X-1294260D01*
X-1288928Y611434D01*
Y622097D01*
X-1299592D01*
X-1278265Y606102D02*
Y638092D01*
X-1267602Y627429D01*
X-1256939Y638092D01*
Y606102D01*
X-1246275Y632761D02*
X-1240944Y638092D01*
X-1230281D01*
X-1224949Y632761D01*
Y627429D01*
X-1230281Y622097D01*
X-1235612D01*
X-1230281D01*
X-1224949Y616766D01*
Y611434D01*
X-1230281Y606102D01*
X-1240944D01*
X-1246275Y611434D01*
X-1182296Y622097D02*
X-1160970D01*
X-1118317Y638092D02*
Y606102D01*
X-1102322D01*
X-1096990Y611434D01*
Y616766D01*
X-1102322Y622097D01*
X-1118317D01*
X-1102322D01*
X-1096990Y627429D01*
Y632761D01*
X-1102322Y638092D01*
X-1118317D01*
X-1080995Y606102D02*
X-1070332D01*
X-1065001Y611434D01*
Y622097D01*
X-1070332Y627429D01*
X-1080995D01*
X-1086327Y622097D01*
Y611434D01*
X-1080995Y606102D01*
X-1049006Y627429D02*
X-1038343D01*
X-1033011Y622097D01*
Y606102D01*
X-1049006D01*
X-1054337Y611434D01*
X-1049006Y616766D01*
X-1033011D01*
X-1022348Y627429D02*
Y606102D01*
Y616766D01*
X-1017016Y622097D01*
X-1011684Y627429D01*
X-1006353D01*
X-969032Y638092D02*
Y606102D01*
X-985026D01*
X-990358Y611434D01*
Y622097D01*
X-985026Y627429D01*
X-969032D01*
X-910384Y638092D02*
X-921047D01*
X-926379Y632761D01*
Y611434D01*
X-921047Y606102D01*
X-910384D01*
X-905052Y611434D01*
Y632761D01*
X-910384Y638092D01*
X-894389Y627429D02*
Y611434D01*
X-889057Y606102D01*
X-873063D01*
Y627429D01*
X-857068Y632761D02*
Y627429D01*
X-862399D01*
X-851736D01*
X-857068D01*
Y611434D01*
X-851736Y606102D01*
X-835741D02*
X-825078D01*
X-830410D01*
Y638092D01*
X-835741D01*
X-809083Y606102D02*
X-798420D01*
X-803752D01*
Y627429D01*
X-809083D01*
X-782425Y606102D02*
Y627429D01*
X-766430D01*
X-761099Y622097D01*
Y606102D01*
X-734441D02*
X-745104D01*
X-750435Y611434D01*
Y622097D01*
X-745104Y627429D01*
X-734441D01*
X-729109Y622097D01*
Y616766D01*
X-750435D01*
X983750Y996188D02*
Y1028178D01*
X994413Y1017514D01*
X1005076Y1028178D01*
Y996188D01*
X1015739D02*
X1026403D01*
X1021071D01*
Y1017514D01*
X1015739D01*
X1042397Y996188D02*
Y1017514D01*
X1058392D01*
X1063724Y1012183D01*
Y996188D01*
X1074387D02*
X1085050D01*
X1079719D01*
Y1017514D01*
X1074387D01*
X1101045Y996188D02*
Y1017514D01*
X1106377D01*
X1111708Y1012183D01*
Y996188D01*
Y1012183D01*
X1117040Y1017514D01*
X1122372Y1012183D01*
Y996188D01*
X1133035Y1017514D02*
Y1001520D01*
X1138366Y996188D01*
X1154361D01*
Y1017514D01*
X1165024Y996188D02*
Y1017514D01*
X1170356D01*
X1175688Y1012183D01*
Y996188D01*
Y1012183D01*
X1181019Y1017514D01*
X1186351Y1012183D01*
Y996188D01*
X1229004Y1028178D02*
X1250330D01*
X1239667D01*
Y996188D01*
X1260993Y1017514D02*
Y996188D01*
Y1006851D01*
X1266325Y1012183D01*
X1271657Y1017514D01*
X1276988D01*
X1298315D02*
X1308978D01*
X1314310Y1012183D01*
Y996188D01*
X1298315D01*
X1292983Y1001520D01*
X1298315Y1006851D01*
X1314310D01*
X1346299Y1017514D02*
X1330304D01*
X1324973Y1012183D01*
Y1001520D01*
X1330304Y996188D01*
X1346299D01*
X1356962D02*
Y1028178D01*
Y1006851D02*
X1372957Y1017514D01*
X1356962Y1006851D02*
X1372957Y996188D01*
X1388952Y1017514D02*
X1394284D01*
Y1012183D01*
X1388952D01*
Y1017514D01*
Y1001520D02*
X1394284D01*
Y996188D01*
X1388952D01*
Y1001520D01*
X1468926Y996188D02*
X1447600D01*
X1468926Y1017514D01*
Y1022846D01*
X1463595Y1028178D01*
X1452932D01*
X1447600Y1022846D01*
X1479590D02*
X1484921Y1028178D01*
X1495584D01*
X1500916Y1022846D01*
Y1001520D01*
X1495584Y996188D01*
X1484921D01*
X1479590Y1001520D01*
Y1022846D01*
X1511579D02*
X1516911Y1028178D01*
X1527574D01*
X1532906Y1022846D01*
Y1001520D01*
X1527574Y996188D01*
X1516911D01*
X1511579Y1001520D01*
Y1022846D01*
X1543569Y1017514D02*
Y1001520D01*
X1548900Y996188D01*
X1564895D01*
Y1017514D01*
X1575559Y996188D02*
Y1017514D01*
X1580890D01*
X1586222Y1012183D01*
Y996188D01*
Y1012183D01*
X1591553Y1017514D01*
X1596885Y1012183D01*
Y996188D01*
X964314Y633913D02*
X942988D01*
X964314Y655239D01*
Y660571D01*
X958982Y665903D01*
X948319D01*
X942988Y660571D01*
X974977Y633913D02*
Y639245D01*
X980309D01*
Y633913D01*
X974977D01*
X1033625Y665903D02*
Y633913D01*
X1049620D01*
X1054952Y639245D01*
Y644576D01*
X1049620Y649908D01*
X1033625D01*
X1049620D01*
X1054952Y655239D01*
Y660571D01*
X1049620Y665903D01*
X1033625D01*
X1081610D02*
X1070946D01*
X1065615Y660571D01*
Y639245D01*
X1070946Y633913D01*
X1081610D01*
X1086941Y639245D01*
Y660571D01*
X1081610Y665903D01*
X1097605Y633913D02*
Y655239D01*
X1108268Y665903D01*
X1118931Y655239D01*
Y633913D01*
Y649908D01*
X1097605D01*
X1129594Y633913D02*
Y665903D01*
X1145589D01*
X1150921Y660571D01*
Y649908D01*
X1145589Y644576D01*
X1129594D01*
X1140257D02*
X1150921Y633913D01*
X1161584Y665903D02*
Y633913D01*
X1177579D01*
X1182910Y639245D01*
Y660571D01*
X1177579Y665903D01*
X1161584D01*
X1246890D02*
X1225563D01*
Y649908D01*
X1236226D01*
X1225563D01*
Y633913D01*
X1257553Y665903D02*
X1268216D01*
X1262884D01*
Y633913D01*
X1257553D01*
X1268216D01*
X1284211D02*
Y665903D01*
X1305537Y633913D01*
Y665903D01*
X1316201D02*
X1326864D01*
X1321532D01*
Y633913D01*
X1316201D01*
X1326864D01*
X1364185Y660571D02*
X1358853Y665903D01*
X1348190D01*
X1342859Y660571D01*
Y655239D01*
X1348190Y649908D01*
X1358853D01*
X1364185Y644576D01*
Y639245D01*
X1358853Y633913D01*
X1348190D01*
X1342859Y639245D01*
X1374848Y665903D02*
Y633913D01*
Y649908D01*
X1396175D01*
Y665903D01*
Y633913D01*
X1406838Y655239D02*
X1412170D01*
Y649908D01*
X1406838D01*
Y655239D01*
Y639245D02*
X1412170D01*
Y633913D01*
X1406838D01*
Y639245D01*
X1465486Y665903D02*
X1476149D01*
X1470817D01*
Y633913D01*
X1465486D01*
X1476149D01*
X1492144D02*
Y665903D01*
X1502807Y655239D01*
X1513470Y665903D01*
Y633913D01*
X1524133D02*
Y665903D01*
X1534797Y655239D01*
X1545460Y665903D01*
Y633913D01*
X1577450Y665903D02*
X1556123D01*
Y633913D01*
X1577450D01*
X1556123Y649908D02*
X1566786D01*
X1588113Y633913D02*
Y665903D01*
X1604108D01*
X1609439Y660571D01*
Y649908D01*
X1604108Y644576D01*
X1588113D01*
X1598776D02*
X1609439Y633913D01*
X1641429Y660571D02*
X1636097Y665903D01*
X1625434D01*
X1620103Y660571D01*
Y655239D01*
X1625434Y649908D01*
X1636097D01*
X1641429Y644576D01*
Y639245D01*
X1636097Y633913D01*
X1625434D01*
X1620103Y639245D01*
X1652092Y665903D02*
X1662755D01*
X1657424D01*
Y633913D01*
X1652092D01*
X1662755D01*
X1694745Y665903D02*
X1684082D01*
X1678750Y660571D01*
Y639245D01*
X1684082Y633913D01*
X1694745D01*
X1700077Y639245D01*
Y660571D01*
X1694745Y665903D01*
X1710740Y633913D02*
Y665903D01*
X1732066Y633913D01*
Y665903D01*
X1774719Y633913D02*
Y655239D01*
X1785383Y665903D01*
X1796046Y655239D01*
Y633913D01*
Y649908D01*
X1774719D01*
X1806709Y655239D02*
Y639245D01*
X1812041Y633913D01*
X1828035D01*
Y655239D01*
X1838699Y633913D02*
X1860025Y655239D01*
X1892015Y665903D02*
X1870688D01*
Y633913D01*
X1892015D01*
X1870688Y649908D02*
X1881351D01*
X1902678Y665903D02*
Y633913D01*
X1924004D01*
X1955994Y665903D02*
X1934668D01*
Y633913D01*
X1955994D01*
X1934668Y649908D02*
X1945331D01*
X1987984Y660571D02*
X1982652Y665903D01*
X1971989D01*
X1966657Y660571D01*
Y639245D01*
X1971989Y633913D01*
X1982652D01*
X1987984Y639245D01*
X1998647Y665903D02*
X2019973D01*
X2009310D01*
Y633913D01*
X2030637D02*
Y665903D01*
X2046631D01*
X2051963Y660571D01*
Y649908D01*
X2046631Y644576D01*
X2030637D01*
X2041300D02*
X2051963Y633913D01*
X2078621Y665903D02*
X2067958D01*
X2062626Y660571D01*
Y639245D01*
X2067958Y633913D01*
X2078621D01*
X2083953Y639245D01*
Y660571D01*
X2078621Y665903D01*
X2094616D02*
Y633913D01*
X2115942D01*
X2147932Y665903D02*
X2126606D01*
Y633913D01*
X2147932D01*
X2126606Y649908D02*
X2137269D01*
X2179922Y660571D02*
X2174590Y665903D01*
X2163927D01*
X2158595Y660571D01*
Y655239D01*
X2163927Y649908D01*
X2174590D01*
X2179922Y644576D01*
Y639245D01*
X2174590Y633913D01*
X2163927D01*
X2158595Y639245D01*
X2211911Y660571D02*
X2206580Y665903D01*
X2195917D01*
X2190585Y660571D01*
Y655239D01*
X2195917Y649908D01*
X2206580D01*
X2211911Y644576D01*
Y639245D01*
X2206580Y633913D01*
X2195917D01*
X2190585Y639245D01*
X2254564Y633913D02*
Y665903D01*
X2275891Y633913D01*
Y665903D01*
X2286554Y633913D02*
X2297217D01*
X2291886D01*
Y655239D01*
X2286554D01*
X2313212Y649908D02*
Y655239D01*
X2318544D01*
Y649908D01*
X2313212D01*
Y639245D02*
X2318544D01*
Y633913D01*
X2313212Y628581D01*
X2318544Y633913D02*
X2313212D01*
Y639245D01*
X2371860Y660571D02*
X2377191Y665903D01*
X2387855D01*
X2393186Y660571D01*
Y639245D01*
X2387855Y633913D01*
X2377191D01*
X2371860Y639245D01*
Y660571D01*
X2403849Y633913D02*
Y639245D01*
X2409181D01*
Y633913D01*
X2403849D01*
X2430508Y660571D02*
X2435839Y665903D01*
X2446502D01*
X2451834Y660571D01*
Y639245D01*
X2446502Y633913D01*
X2435839D01*
X2430508Y639245D01*
Y660571D01*
X2483824Y665903D02*
X2462497D01*
Y649908D01*
X2473161Y655239D01*
X2478492D01*
X2483824Y649908D01*
Y639245D01*
X2478492Y633913D01*
X2467829D01*
X2462497Y639245D01*
X2526477Y649908D02*
X2547803D01*
X2590456Y660571D02*
X2595787Y665903D01*
X2606451D01*
X2611783Y660571D01*
Y639245D01*
X2606451Y633913D01*
X2595787D01*
X2590456Y639245D01*
Y660571D01*
X2622446Y633913D02*
Y639245D01*
X2627777D01*
Y633913D01*
X2622446D01*
X2649104D02*
X2659767D01*
X2654435D01*
Y665903D01*
X2649104Y660571D01*
X2697088Y633913D02*
X2675762D01*
X2697088Y655239D01*
Y660571D01*
X2691757Y665903D01*
X2681093D01*
X2675762Y660571D01*
X2707751Y655239D02*
Y639245D01*
X2713083Y633913D01*
X2729078D01*
Y655239D01*
X2739741Y633913D02*
Y655239D01*
X2745073D01*
X2750404Y649908D01*
Y633913D01*
Y649908D01*
X2755736Y655239D01*
X2761068Y649908D01*
Y633913D01*
X2825047Y660571D02*
X2819715Y665903D01*
X2809052D01*
X2803720Y660571D01*
Y639245D01*
X2809052Y633913D01*
X2819715D01*
X2825047Y639245D01*
Y649908D01*
X2814384D01*
X2851705Y665903D02*
X2841042D01*
X2835710Y660571D01*
Y639245D01*
X2841042Y633913D01*
X2851705D01*
X2857037Y639245D01*
Y660571D01*
X2851705Y665903D01*
X2867700D02*
Y633913D01*
X2889026D01*
X2899690Y665903D02*
Y633913D01*
X2915684D01*
X2921016Y639245D01*
Y660571D01*
X2915684Y665903D01*
X2899690D01*
X2931679Y649908D02*
Y655239D01*
X2937011D01*
Y649908D01*
X2931679D01*
Y639245D02*
X2937011D01*
Y633913D01*
X2931679Y628581D01*
X2937011Y633913D02*
X2931679D01*
Y639245D01*
X2990327Y660571D02*
X2995659Y665903D01*
X3006322D01*
X3011653Y660571D01*
Y655239D01*
X3006322Y649908D01*
X3000990D01*
X3006322D01*
X3011653Y644576D01*
Y639245D01*
X3006322Y633913D01*
X2995659D01*
X2990327Y639245D01*
X3022317Y649908D02*
X3043643D01*
X3075633Y665903D02*
X3064969Y660571D01*
X3054306Y649908D01*
Y639245D01*
X3059638Y633913D01*
X3070301D01*
X3075633Y639245D01*
Y644576D01*
X3070301Y649908D01*
X3054306D01*
X3086296Y655239D02*
Y639245D01*
X3091628Y633913D01*
X3107622D01*
Y655239D01*
X3118286Y633913D02*
Y655239D01*
X3123617D01*
X3128949Y649908D01*
Y633913D01*
Y649908D01*
X3134280Y655239D01*
X3139612Y649908D01*
Y633913D01*
X3182265D02*
Y665903D01*
X3203591Y633913D01*
Y665903D01*
X3214254D02*
X3224918D01*
X3219586D01*
Y633913D01*
X3214254D01*
X3224918D01*
X3262239Y660571D02*
X3256907Y665903D01*
X3246244D01*
X3240912Y660571D01*
Y639245D01*
X3246244Y633913D01*
X3256907D01*
X3262239Y639245D01*
X3272902Y665903D02*
Y633913D01*
Y644576D01*
X3294229Y665903D01*
X3278234Y649908D01*
X3294229Y633913D01*
X3326218Y665903D02*
X3304892D01*
Y633913D01*
X3326218D01*
X3304892Y649908D02*
X3315555D01*
X3336882Y665903D02*
Y633913D01*
X3358208D01*
X997387Y83201D02*
X1018713D01*
X1061366Y67206D02*
Y99195D01*
X1077361D01*
X1082693Y93864D01*
Y83201D01*
X1077361Y77869D01*
X1061366D01*
X1093356Y99195D02*
Y67206D01*
X1114682D01*
X1125346D02*
Y88532D01*
X1136009Y99195D01*
X1146672Y88532D01*
Y67206D01*
Y83201D01*
X1125346D01*
X1178662Y93864D02*
X1173330Y99195D01*
X1162667D01*
X1157335Y93864D01*
Y72537D01*
X1162667Y67206D01*
X1173330D01*
X1178662Y72537D01*
X1210651Y99195D02*
X1189325D01*
Y67206D01*
X1210651D01*
X1189325Y83201D02*
X1199988D01*
X1269299Y99195D02*
X1258636D01*
X1253304Y93864D01*
Y72537D01*
X1258636Y67206D01*
X1269299D01*
X1274631Y72537D01*
Y93864D01*
X1269299Y99195D01*
X1285294Y67206D02*
Y99195D01*
X1306620Y67206D01*
Y99195D01*
X1338610D02*
X1317284D01*
Y67206D01*
X1338610D01*
X1317284Y83201D02*
X1327947D01*
X1402589Y99195D02*
X1381263D01*
Y83201D01*
X1391926D01*
X1381263D01*
Y67206D01*
X1413253Y99195D02*
X1423916D01*
X1418584D01*
Y67206D01*
X1413253D01*
X1423916D01*
X1439911Y99195D02*
Y67206D01*
X1455905D01*
X1461237Y72537D01*
Y93864D01*
X1455905Y99195D01*
X1439911D01*
X1471900D02*
Y72537D01*
X1477232Y67206D01*
X1487895D01*
X1493227Y72537D01*
Y99195D01*
X1525217Y93864D02*
X1519885Y99195D01*
X1509222D01*
X1503890Y93864D01*
Y72537D01*
X1509222Y67206D01*
X1519885D01*
X1525217Y72537D01*
X1535880Y99195D02*
X1546543D01*
X1541211D01*
Y67206D01*
X1535880D01*
X1546543D01*
X1562538D02*
Y88532D01*
X1573201Y99195D01*
X1583864Y88532D01*
Y67206D01*
Y83201D01*
X1562538D01*
X1594527Y99195D02*
Y67206D01*
X1615854D01*
X1658507Y99195D02*
X1669170D01*
X1663838D01*
Y67206D01*
X1658507D01*
X1669170D01*
X1685165D02*
Y99195D01*
X1706491Y67206D01*
Y99195D01*
X1717155D02*
X1738481D01*
X1727818D01*
Y67206D01*
X1765139Y99195D02*
X1754476D01*
X1749144Y93864D01*
Y72537D01*
X1754476Y67206D01*
X1765139D01*
X1770471Y72537D01*
Y93864D01*
X1765139Y99195D01*
X1834450D02*
X1813124D01*
Y67206D01*
X1834450D01*
X1813124Y83201D02*
X1823787D01*
X1845113Y67206D02*
Y88532D01*
X1855777Y99195D01*
X1866440Y88532D01*
Y67206D01*
Y83201D01*
X1845113D01*
X1898429Y93864D02*
X1893098Y99195D01*
X1882435D01*
X1877103Y93864D01*
Y72537D01*
X1882435Y67206D01*
X1893098D01*
X1898429Y72537D01*
X1909093Y99195D02*
Y67206D01*
Y83201D01*
X1930419D01*
Y99195D01*
Y67206D01*
X1973072D02*
Y99195D01*
X1989067D01*
X1994398Y93864D01*
Y83201D01*
X1989067Y77869D01*
X1973072D01*
X2005062Y67206D02*
Y88532D01*
X2015725Y99195D01*
X2026388Y88532D01*
Y67206D01*
Y83201D01*
X2005062D01*
X2037051Y67206D02*
Y99195D01*
X2058378Y67206D01*
Y99195D01*
X2090367D02*
X2069041D01*
Y67206D01*
X2090367D01*
X2069041Y83201D02*
X2079704D01*
X2101031Y99195D02*
Y67206D01*
X2122357D01*
X2186336Y93864D02*
X2181005Y99195D01*
X2170342D01*
X2165010Y93864D01*
Y72537D01*
X2170342Y67206D01*
X2181005D01*
X2186336Y72537D01*
X2212995Y99195D02*
X2202331D01*
X2197000Y93864D01*
Y72537D01*
X2202331Y67206D01*
X2212995D01*
X2218326Y72537D01*
Y93864D01*
X2212995Y99195D01*
X2228989Y67206D02*
Y99195D01*
X2244984D01*
X2250316Y93864D01*
Y83201D01*
X2244984Y77869D01*
X2228989D01*
X2239653D02*
X2250316Y67206D01*
X2260979D02*
Y99195D01*
X2282305Y67206D01*
Y99195D01*
X2314295D02*
X2292969D01*
Y67206D01*
X2314295D01*
X2292969Y83201D02*
X2303632D01*
X2324958Y67206D02*
Y99195D01*
X2340953D01*
X2346285Y93864D01*
Y83201D01*
X2340953Y77869D01*
X2324958D01*
X2335622D02*
X2346285Y67206D01*
X2399601D02*
X2388938Y77869D01*
Y88532D01*
X2399601Y99195D01*
X2436922D02*
X2415596D01*
Y83201D01*
X2426259D01*
X2415596D01*
Y67206D01*
X2463580Y99195D02*
X2452917D01*
X2447585Y93864D01*
Y72537D01*
X2452917Y67206D01*
X2463580D01*
X2468912Y72537D01*
Y93864D01*
X2463580Y99195D01*
X2479575D02*
Y72537D01*
X2484907Y67206D01*
X2495570D01*
X2500902Y72537D01*
Y99195D01*
X2511565Y67206D02*
Y99195D01*
X2527560D01*
X2532891Y93864D01*
Y83201D01*
X2527560Y77869D01*
X2511565D01*
X2522228D02*
X2532891Y67206D01*
X2591539Y99195D02*
X2580876D01*
X2575544Y93864D01*
Y72537D01*
X2580876Y67206D01*
X2591539D01*
X2596871Y72537D01*
Y93864D01*
X2591539Y99195D01*
X2607534Y67206D02*
Y99195D01*
X2628860Y67206D01*
Y99195D01*
X2671513D02*
X2692840D01*
X2682177D01*
Y67206D01*
X2703503Y99195D02*
Y67206D01*
Y83201D01*
X2724829D01*
Y99195D01*
Y67206D01*
X2756819Y99195D02*
X2735493D01*
Y67206D01*
X2756819D01*
X2735493Y83201D02*
X2746156D01*
X2799472Y99195D02*
X2820798D01*
X2810135D01*
Y67206D01*
X2847456Y99195D02*
X2836793D01*
X2831461Y93864D01*
Y72537D01*
X2836793Y67206D01*
X2847456D01*
X2852788Y72537D01*
Y93864D01*
X2847456Y99195D01*
X2863451Y67206D02*
Y99195D01*
X2879446D01*
X2884778Y93864D01*
Y83201D01*
X2879446Y77869D01*
X2863451D01*
X2927431Y99195D02*
Y67206D01*
X2948757D01*
X2959420D02*
Y88532D01*
X2970084Y99195D01*
X2980747Y88532D01*
Y67206D01*
Y83201D01*
X2959420D01*
X2991410Y99195D02*
Y93864D01*
X3002073Y83201D01*
X3012737Y93864D01*
Y99195D01*
X3002073Y83201D02*
Y67206D01*
X3044726Y99195D02*
X3023400D01*
Y67206D01*
X3044726D01*
X3023400Y83201D02*
X3034063D01*
X3055389Y67206D02*
Y99195D01*
X3071384D01*
X3076716Y93864D01*
Y83201D01*
X3071384Y77869D01*
X3055389D01*
X3066053D02*
X3076716Y67206D01*
X3087379D02*
X3098042Y77869D01*
Y88532D01*
X3087379Y99195D01*
X-1361110Y1171680D02*
X-1339783Y1150354D01*
X-1361110D02*
X-1339783Y1171680D01*
X-1361110Y1161017D02*
X-1339783D01*
X-1350447Y1150354D02*
Y1171680D01*
X-1329120Y1145022D02*
Y1150354D01*
X-1323788D01*
Y1145022D01*
X-1329120D01*
X-1281136Y1171680D02*
X-1286467Y1177012D01*
X-1297130D01*
X-1302462Y1171680D01*
Y1150354D01*
X-1297130Y1145022D01*
X-1286467D01*
X-1281136Y1150354D01*
Y1161017D01*
X-1291799D01*
X-1270472Y1177012D02*
X-1249146D01*
X-1259809D01*
Y1145022D01*
X-1222488Y1177012D02*
X-1233151D01*
X-1238483Y1171680D01*
Y1150354D01*
X-1233151Y1145022D01*
X-1222488D01*
X-1217156Y1150354D01*
Y1171680D01*
X-1222488Y1177012D01*
X-1174503Y1161017D02*
X-1153177D01*
X-1110524Y1177012D02*
X-1089198D01*
X-1099861D01*
Y1145022D01*
X-1073203D02*
X-1062540D01*
X-1057208Y1150354D01*
Y1161017D01*
X-1062540Y1166349D01*
X-1073203D01*
X-1078534Y1161017D01*
Y1150354D01*
X-1073203Y1145022D01*
X-1046545Y1134359D02*
Y1166349D01*
X-1030550D01*
X-1025218Y1161017D01*
Y1150354D01*
X-1030550Y1145022D01*
X-1046545D01*
X-966571Y1177012D02*
X-977234D01*
X-982565Y1171680D01*
Y1150354D01*
X-977234Y1145022D01*
X-966571D01*
X-961239Y1150354D01*
Y1171680D01*
X-966571Y1177012D01*
X-950576Y1166349D02*
X-939912Y1145022D01*
X-929249Y1166349D01*
X-902591Y1145022D02*
X-913254D01*
X-918586Y1150354D01*
Y1161017D01*
X-913254Y1166349D01*
X-902591D01*
X-897260Y1161017D01*
Y1155685D01*
X-918586D01*
X-886596Y1166349D02*
Y1145022D01*
Y1155685D01*
X-881265Y1161017D01*
X-875933Y1166349D01*
X-870602D01*
X-854607Y1145022D02*
X-843943D01*
X-849275D01*
Y1177012D01*
X-854607D01*
X-822617Y1166349D02*
X-811954D01*
X-806622Y1161017D01*
Y1145022D01*
X-822617D01*
X-827949Y1150354D01*
X-822617Y1155685D01*
X-806622D01*
X-795959Y1166349D02*
Y1150354D01*
X-790627Y1145022D01*
X-774632D01*
Y1139690D01*
X-779964Y1134359D01*
X-785296D01*
X-774632Y1145022D02*
Y1166349D01*
X998136Y222870D02*
X1019463D01*
X1062115Y206875D02*
Y238865D01*
X1072779Y228202D01*
X1083442Y238865D01*
Y206875D01*
X1094105Y238865D02*
X1104768D01*
X1099437D01*
Y206875D01*
X1094105D01*
X1104768D01*
X1120763D02*
Y238865D01*
X1142090Y206875D01*
Y238865D01*
X1152753D02*
X1163416D01*
X1158085D01*
Y206875D01*
X1152753D01*
X1163416D01*
X1179411D02*
Y238865D01*
X1190074Y228202D01*
X1200738Y238865D01*
Y206875D01*
X1211401Y238865D02*
Y212207D01*
X1216732Y206875D01*
X1227395D01*
X1232727Y212207D01*
Y238865D01*
X1243390Y206875D02*
Y238865D01*
X1254054Y228202D01*
X1264717Y238865D01*
Y206875D01*
X1323365D02*
Y238865D01*
X1307370Y222870D01*
X1328696D01*
X1339359Y206875D02*
Y238865D01*
X1350023Y228202D01*
X1360686Y238865D01*
Y206875D01*
X1371349D02*
Y238865D01*
X1382012Y228202D01*
X1392675Y238865D01*
Y206875D01*
X1435328Y238865D02*
Y206875D01*
X1451323D01*
X1456655Y212207D01*
Y233533D01*
X1451323Y238865D01*
X1435328D01*
X1467318D02*
X1477981D01*
X1472650D01*
Y206875D01*
X1467318D01*
X1477981D01*
X1515303Y233533D02*
X1509971Y238865D01*
X1499308D01*
X1493976Y233533D01*
Y228202D01*
X1499308Y222870D01*
X1509971D01*
X1515303Y217539D01*
Y212207D01*
X1509971Y206875D01*
X1499308D01*
X1493976Y212207D01*
X1525966Y238865D02*
X1547292D01*
X1536629D01*
Y206875D01*
X1557955D02*
Y228202D01*
X1568619Y238865D01*
X1579282Y228202D01*
Y206875D01*
Y222870D01*
X1557955D01*
X1589945Y206875D02*
Y238865D01*
X1611272Y206875D01*
Y238865D01*
X1643261Y233533D02*
X1637930Y238865D01*
X1627266D01*
X1621935Y233533D01*
Y212207D01*
X1627266Y206875D01*
X1637930D01*
X1643261Y212207D01*
X1675251Y238865D02*
X1653925D01*
Y206875D01*
X1675251D01*
X1653925Y222870D02*
X1664588D01*
X1739230Y238865D02*
X1717904D01*
Y222870D01*
X1728567D01*
X1717904D01*
Y206875D01*
X1749893D02*
Y238865D01*
X1765888D01*
X1771220Y233533D01*
Y222870D01*
X1765888Y217539D01*
X1749893D01*
X1760557D02*
X1771220Y206875D01*
X1797878Y238865D02*
X1787215D01*
X1781883Y233533D01*
Y212207D01*
X1787215Y206875D01*
X1797878D01*
X1803210Y212207D01*
Y233533D01*
X1797878Y238865D01*
X1813873Y206875D02*
Y238865D01*
X1824536Y228202D01*
X1835199Y238865D01*
Y206875D01*
X1877852Y238865D02*
X1899179D01*
X1888515D01*
Y206875D01*
X1909842Y238865D02*
Y206875D01*
Y222870D01*
X1931168D01*
Y238865D01*
Y206875D01*
X1963158Y238865D02*
X1941832D01*
Y206875D01*
X1963158D01*
X1941832Y222870D02*
X1952495D01*
X2005811Y206875D02*
Y238865D01*
X2021806D01*
X2027137Y233533D01*
Y222870D01*
X2021806Y217539D01*
X2005811D01*
X2037801Y206875D02*
Y228202D01*
X2048464Y238865D01*
X2059127Y228202D01*
Y206875D01*
Y222870D01*
X2037801D01*
X2069790Y206875D02*
Y238865D01*
X2091117Y206875D01*
Y238865D01*
X2123106D02*
X2101780D01*
Y206875D01*
X2123106D01*
X2101780Y222870D02*
X2112443D01*
X2133770Y238865D02*
Y206875D01*
X2155096D01*
X2219075Y238865D02*
X2197749D01*
Y206875D01*
X2219075D01*
X2197749Y222870D02*
X2208412D01*
X2229739Y238865D02*
Y206875D01*
X2245733D01*
X2251065Y212207D01*
Y233533D01*
X2245733Y238865D01*
X2229739D01*
X2283055Y233533D02*
X2277723Y238865D01*
X2267060D01*
X2261728Y233533D01*
Y212207D01*
X2267060Y206875D01*
X2277723D01*
X2283055Y212207D01*
Y222870D01*
X2272392D01*
X2315044Y238865D02*
X2293718D01*
Y206875D01*
X2315044D01*
X2293718Y222870D02*
X2304381D01*
X-1360361Y821284D02*
X-1339034Y799958D01*
X-1360361D02*
X-1339034Y821284D01*
X-1360361Y810621D02*
X-1339034D01*
X-1349697Y799958D02*
Y821284D01*
X-1328371Y794626D02*
Y799958D01*
X-1323039D01*
Y794626D01*
X-1328371D01*
X-1280386Y821284D02*
X-1285718Y826616D01*
X-1296381D01*
X-1301713Y821284D01*
Y799958D01*
X-1296381Y794626D01*
X-1285718D01*
X-1280386Y799958D01*
Y810621D01*
X-1291049D01*
X-1269723Y826616D02*
Y794626D01*
X-1253728D01*
X-1248397Y799958D01*
Y805290D01*
X-1253728Y810621D01*
X-1269723D01*
X-1253728D01*
X-1248397Y815953D01*
Y821284D01*
X-1253728Y826616D01*
X-1269723D01*
X-1216407Y821284D02*
X-1221739Y826616D01*
X-1232402D01*
X-1237733Y821284D01*
Y815953D01*
X-1232402Y810621D01*
X-1221739D01*
X-1216407Y805290D01*
Y799958D01*
X-1221739Y794626D01*
X-1232402D01*
X-1237733Y799958D01*
X-1173754Y810621D02*
X-1152428D01*
X-1109775Y826616D02*
Y794626D01*
X-1093780D01*
X-1088448Y799958D01*
Y805290D01*
X-1093780Y810621D01*
X-1109775D01*
X-1093780D01*
X-1088448Y815953D01*
Y821284D01*
X-1093780Y826616D01*
X-1109775D01*
X-1072453Y794626D02*
X-1061790D01*
X-1056459Y799958D01*
Y810621D01*
X-1061790Y815953D01*
X-1072453D01*
X-1077785Y810621D01*
Y799958D01*
X-1072453Y794626D01*
X-1040464Y821284D02*
Y815953D01*
X-1045795D01*
X-1035132D01*
X-1040464D01*
Y799958D01*
X-1035132Y794626D01*
X-1013806Y821284D02*
Y815953D01*
X-1019137D01*
X-1008474D01*
X-1013806D01*
Y799958D01*
X-1008474Y794626D01*
X-987148D02*
X-976484D01*
X-971153Y799958D01*
Y810621D01*
X-976484Y815953D01*
X-987148D01*
X-992479Y810621D01*
Y799958D01*
X-987148Y794626D01*
X-960490D02*
Y815953D01*
X-955158D01*
X-949826Y810621D01*
Y794626D01*
Y810621D01*
X-944495Y815953D01*
X-939163Y810621D01*
Y794626D01*
X-875184Y821284D02*
X-880515Y826616D01*
X-891179D01*
X-896510Y821284D01*
Y815953D01*
X-891179Y810621D01*
X-880515D01*
X-875184Y805290D01*
Y799958D01*
X-880515Y794626D01*
X-891179D01*
X-896510Y799958D01*
X-859189Y794626D02*
X-848526D01*
X-843194Y799958D01*
Y810621D01*
X-848526Y815953D01*
X-859189D01*
X-864520Y810621D01*
Y799958D01*
X-859189Y794626D01*
X-832531D02*
X-821868D01*
X-827199D01*
Y826616D01*
X-832531D01*
X-784546D02*
Y794626D01*
X-800541D01*
X-805873Y799958D01*
Y810621D01*
X-800541Y815953D01*
X-784546D01*
X-757888Y794626D02*
X-768551D01*
X-773883Y799958D01*
Y810621D01*
X-768551Y815953D01*
X-757888D01*
X-752557Y810621D01*
Y805290D01*
X-773883D01*
X-741893Y815953D02*
Y794626D01*
Y805290D01*
X-736562Y810621D01*
X-731230Y815953D01*
X-725899D01*
X-1357213Y897563D02*
X-1335887Y876237D01*
X-1357213D02*
X-1335887Y897563D01*
X-1357213Y886900D02*
X-1335887D01*
X-1346550Y876237D02*
Y897563D01*
X-1325224Y870905D02*
Y876237D01*
X-1319892D01*
Y870905D01*
X-1325224D01*
X-1277239Y897563D02*
X-1282571Y902895D01*
X-1293234D01*
X-1298566Y897563D01*
Y876237D01*
X-1293234Y870905D01*
X-1282571D01*
X-1277239Y876237D01*
Y886900D01*
X-1287903D01*
X-1266576Y902895D02*
Y870905D01*
X-1250581D01*
X-1245250Y876237D01*
Y881568D01*
X-1250581Y886900D01*
X-1266576D01*
X-1250581D01*
X-1245250Y892232D01*
Y897563D01*
X-1250581Y902895D01*
X-1266576D01*
X-1234586D02*
Y870905D01*
X-1213260D01*
X-1170607Y886900D02*
X-1149281D01*
X-1106628Y902895D02*
Y870905D01*
X-1085301D01*
X-1053311D02*
X-1074638D01*
X-1053311Y892232D01*
Y897563D01*
X-1058643Y902895D01*
X-1069306D01*
X-1074638Y897563D01*
X-999995Y870905D02*
X-1010659Y881568D01*
Y892232D01*
X-999995Y902895D01*
X-984001Y870905D02*
Y902895D01*
X-968006D01*
X-962674Y897563D01*
Y886900D01*
X-968006Y881568D01*
X-984001D01*
X-946679Y870905D02*
X-936016D01*
X-930684Y876237D01*
Y886900D01*
X-936016Y892232D01*
X-946679D01*
X-952011Y886900D01*
Y876237D01*
X-946679Y870905D01*
X-920021D02*
X-904026D01*
X-898695Y876237D01*
X-904026Y881568D01*
X-914690D01*
X-920021Y886900D01*
X-914690Y892232D01*
X-898695D01*
X-888031Y870905D02*
X-877368D01*
X-882700D01*
Y892232D01*
X-888031D01*
X-856042Y897563D02*
Y892232D01*
X-861374D01*
X-850710D01*
X-856042D01*
Y876237D01*
X-850710Y870905D01*
X-834715D02*
X-824052D01*
X-829384D01*
Y892232D01*
X-834715D01*
X-808057D02*
X-797394Y870905D01*
X-786731Y892232D01*
X-760073Y870905D02*
X-770736D01*
X-776068Y876237D01*
Y886900D01*
X-770736Y892232D01*
X-760073D01*
X-754741Y886900D01*
Y881568D01*
X-776068D01*
X-744078Y870905D02*
X-733415Y881568D01*
Y892232D01*
X-744078Y902895D01*
X-1359162Y1037705D02*
X-1337835Y1016379D01*
X-1359162D02*
X-1337835Y1037705D01*
X-1359162Y1027042D02*
X-1337835D01*
X-1348498Y1016379D02*
Y1037705D01*
X-1327172Y1011047D02*
Y1016379D01*
X-1321840D01*
Y1011047D01*
X-1327172D01*
X-1279187Y1037705D02*
X-1284519Y1043037D01*
X-1295182D01*
X-1300514Y1037705D01*
Y1016379D01*
X-1295182Y1011047D01*
X-1284519D01*
X-1279187Y1016379D01*
Y1027042D01*
X-1289851D01*
X-1268524Y1043037D02*
X-1247198D01*
X-1257861D01*
Y1011047D01*
X-1215208Y1037705D02*
X-1220540Y1043037D01*
X-1231203D01*
X-1236535Y1037705D01*
Y1032374D01*
X-1231203Y1027042D01*
X-1220540D01*
X-1215208Y1021711D01*
Y1016379D01*
X-1220540Y1011047D01*
X-1231203D01*
X-1236535Y1016379D01*
X-1172555Y1027042D02*
X-1151229D01*
X-1108576Y1043037D02*
X-1087249D01*
X-1097913D01*
Y1011047D01*
X-1071255D02*
X-1060591D01*
X-1055260Y1016379D01*
Y1027042D01*
X-1060591Y1032374D01*
X-1071255D01*
X-1076586Y1027042D01*
Y1016379D01*
X-1071255Y1011047D01*
X-1044596Y1000384D02*
Y1032374D01*
X-1028602D01*
X-1023270Y1027042D01*
Y1016379D01*
X-1028602Y1011047D01*
X-1044596D01*
X-959291Y1037705D02*
X-964622Y1043037D01*
X-975285D01*
X-980617Y1037705D01*
Y1032374D01*
X-975285Y1027042D01*
X-964622D01*
X-959291Y1021711D01*
Y1016379D01*
X-964622Y1011047D01*
X-975285D01*
X-980617Y1016379D01*
X-943296Y1011047D02*
X-932633D01*
X-927301Y1016379D01*
Y1027042D01*
X-932633Y1032374D01*
X-943296D01*
X-948627Y1027042D01*
Y1016379D01*
X-943296Y1011047D01*
X-916638D02*
X-905975D01*
X-911306D01*
Y1043037D01*
X-916638D01*
X-868653D02*
Y1011047D01*
X-884648D01*
X-889980Y1016379D01*
Y1027042D01*
X-884648Y1032374D01*
X-868653D01*
X-841995Y1011047D02*
X-852658D01*
X-857990Y1016379D01*
Y1027042D01*
X-852658Y1032374D01*
X-841995D01*
X-836664Y1027042D01*
Y1021711D01*
X-857990D01*
X-826000Y1032374D02*
Y1011047D01*
Y1021711D01*
X-820669Y1027042D01*
X-815337Y1032374D01*
X-810005D01*
M02*
