G04*
G04 #@! TF.GenerationSoftware,Altium Limited,Altium Designer,19.0.15 (446)*
G04*
G04 Layer_Physical_Order=1*
G04 Layer_Color=255*
%FSLAX44Y44*%
%MOMM*%
G71*
G01*
G75*
%ADD11C,0.5000*%
%ADD12C,0.4000*%
%ADD14R,0.9000X1.3000*%
%ADD15R,0.8000X0.8000*%
%ADD16R,1.4000X1.6000*%
%ADD17R,1.9000X1.9000*%
%ADD18R,1.3500X0.4000*%
%ADD19R,1.6000X3.0000*%
%ADD20R,0.7000X1.3000*%
%ADD21R,0.6000X2.2000*%
%ADD22R,3.5000X2.2000*%
%ADD23R,0.6858X0.5588*%
%ADD24R,0.5588X0.6858*%
%ADD25R,0.5500X1.5000*%
%ADD26R,1.5000X0.5500*%
%ADD27R,0.5500X1.0000*%
%ADD28R,1.3000X0.7000*%
%ADD29R,1.3000X0.9000*%
%ADD30R,2.7000X2.0000*%
%ADD31R,0.9000X0.6000*%
%ADD32R,2.6000X2.5000*%
%ADD33R,2.5000X2.6000*%
%ADD34R,1.0000X0.5500*%
%ADD63R,1.9000X1.9000*%
%ADD64C,1.9000*%
%ADD69C,1.0160*%
%ADD70C,0.3000*%
%ADD71C,3.2000*%
%ADD72R,2.0000X1.6000*%
%ADD73O,2.0000X1.6000*%
G04:AMPARAMS|DCode=74|XSize=2mm|YSize=1.2mm|CornerRadius=0.36mm|HoleSize=0mm|Usage=FLASHONLY|Rotation=0.000|XOffset=0mm|YOffset=0mm|HoleType=Round|Shape=RoundedRectangle|*
%AMROUNDEDRECTD74*
21,1,2.0000,0.4800,0,0,0.0*
21,1,1.2800,1.2000,0,0,0.0*
1,1,0.7200,0.6400,-0.2400*
1,1,0.7200,-0.6400,-0.2400*
1,1,0.7200,-0.6400,0.2400*
1,1,0.7200,0.6400,0.2400*
%
%ADD74ROUNDEDRECTD74*%
%ADD75R,1.6000X2.0000*%
%ADD76O,1.6000X2.0000*%
%ADD77R,1.7000X1.7000*%
%ADD78C,1.7000*%
%ADD79C,7.4000*%
%ADD80C,4.0000*%
%ADD81C,0.6000*%
G36*
X59878Y429635D02*
X116102D01*
X117000Y428737D01*
X117000Y422498D01*
X117000Y417898D01*
X116102Y417000D01*
X94316D01*
X87929Y417000D01*
X83671Y422498D01*
X67807Y422498D01*
X41298Y422498D01*
X37000Y418200D01*
Y402727D01*
X36277Y402003D01*
X36274Y402000D01*
X10600Y402000D01*
X9702Y402898D01*
X9702Y438950D01*
X10022Y439269D01*
X50244Y439269D01*
X59878Y429635D01*
D02*
G37*
G36*
X54400Y229179D02*
X53785Y228259D01*
X53397Y226308D01*
X53785Y224357D01*
X54375Y223475D01*
X52400Y221500D01*
X32700D01*
Y194800D01*
X36000Y191500D01*
X39995D01*
Y190500D01*
X48900D01*
X49245Y190431D01*
X54967D01*
X55427Y189972D01*
Y173861D01*
X55698Y172495D01*
X56200Y171744D01*
Y166100D01*
X61800Y160500D01*
X92900D01*
X93000Y160400D01*
X96200Y163600D01*
Y181425D01*
X129125D01*
X136100Y188400D01*
X177852D01*
Y166975D01*
X176955Y166078D01*
X162100D01*
X162100Y166078D01*
X160798Y165819D01*
X160539Y165768D01*
X160485Y165731D01*
X128431D01*
X124900Y162200D01*
X125300Y161800D01*
Y129284D01*
X119816Y123800D01*
X102900D01*
Y122905D01*
X102616Y122480D01*
X102461Y121700D01*
X102461Y70398D01*
D01*
Y70398D01*
X102492Y70243D01*
X102616Y69618D01*
X103058Y68956D01*
X103058D01*
Y68956D01*
X103956Y68058D01*
X103956Y68058D01*
X104618Y67616D01*
X105139Y67512D01*
X105398Y67461D01*
X105398D01*
X105398D01*
X107700Y67461D01*
X126800D01*
X127580Y67616D01*
X127706Y67700D01*
X187300D01*
Y72903D01*
X187339Y73100D01*
Y99861D01*
X204605D01*
X212008Y92458D01*
X212670Y92016D01*
X212687Y92013D01*
X213700Y91000D01*
Y6300D01*
X102100D01*
X100936Y5864D01*
X89900Y6300D01*
Y46300D01*
X43339D01*
X43339Y80625D01*
X90525D01*
X96100Y86200D01*
X96100Y126782D01*
X71783Y126782D01*
X63828Y118826D01*
X63304D01*
Y118303D01*
X61742Y116741D01*
X1700Y116741D01*
X1700Y241700D01*
X2300Y242300D01*
X54400D01*
Y229179D01*
D02*
G37*
G36*
X193500Y129800D02*
X195500Y127800D01*
Y116100D01*
X195800Y115800D01*
X215700D01*
Y108400D01*
X221000Y103100D01*
X223200Y100900D01*
X223200Y93941D01*
X223100Y93900D01*
X213450D01*
X205450Y101900D01*
X185300D01*
Y73100D01*
X184100Y71900D01*
X156600D01*
X156600Y93600D01*
X166900Y103900D01*
X166900Y124644D01*
X172056Y129800D01*
X193500Y129800D01*
D02*
G37*
G36*
X94061Y124742D02*
X94061Y87661D01*
X89400Y83000D01*
X43800D01*
X43400Y83400D01*
X43000Y83000D01*
X41497D01*
X41300Y83039D01*
X2670Y83039D01*
X2233Y83237D01*
X1500Y83791D01*
Y114538D01*
X1700Y114702D01*
X61742Y114702D01*
X62523Y114857D01*
X63184Y115299D01*
X63184Y115299D01*
X63185Y115300D01*
X63898D01*
X73340Y124742D01*
X94061Y124742D01*
D02*
G37*
G36*
X151900Y130300D02*
Y100700D01*
X131500D01*
X126800Y96000D01*
Y69500D01*
X107700D01*
X105398Y69500D01*
X104500Y70398D01*
X104500Y121700D01*
X120600D01*
X127500Y128600D01*
Y131900D01*
X151900D01*
Y130300D01*
D02*
G37*
G36*
X41300Y81000D02*
X41300Y44100D01*
X41900Y43500D01*
X86600D01*
X87300Y42800D01*
Y1900D01*
X5400D01*
X1400Y5900D01*
Y80348D01*
X2670Y81000D01*
X41300Y81000D01*
D02*
G37*
G36*
X367000Y383704D02*
X366600Y382600D01*
X353200D01*
Y494596D01*
X353200Y495900D01*
X354270Y495900D01*
X367000D01*
Y383704D01*
D02*
G37*
G36*
X646400Y409100D02*
X650700Y404800D01*
X686100D01*
Y296496D01*
X685100Y295700D01*
X592200D01*
Y311100D01*
X592100Y311200D01*
X603000Y322100D01*
Y344900D01*
X619700D01*
Y386000D01*
X602400D01*
Y369998D01*
X601502Y369100D01*
X586800Y369100D01*
X586800Y406400D01*
X593100Y412700D01*
Y417500D01*
X617000D01*
X625200Y424000D01*
X646400D01*
Y409100D01*
D02*
G37*
G36*
X426200Y114300D02*
Y85300D01*
X445500D01*
X446100Y85051D01*
Y72100D01*
X423779D01*
X423400Y72100D01*
X422420Y71400D01*
X408466Y71400D01*
X407568Y72298D01*
X407568Y115132D01*
Y137360D01*
X426200D01*
Y114300D01*
D02*
G37*
G36*
X405250Y38400D02*
X444150Y38400D01*
X446050Y36500D01*
Y20000D01*
X440750Y14700D01*
X399350D01*
X391900Y22150D01*
Y86700D01*
X405250D01*
Y38400D01*
D02*
G37*
G36*
X389839Y75653D02*
X389839Y14400D01*
X370639Y14400D01*
X370639Y82453D01*
X368110Y82453D01*
X367165Y83084D01*
X365214Y83472D01*
X363263Y83084D01*
X362319Y82453D01*
X336616Y82453D01*
X336090Y83723D01*
X336732Y84365D01*
X337616Y85688D01*
X337926Y87248D01*
X337760Y88083D01*
X338664Y89353D01*
X376139D01*
X389839Y75653D01*
D02*
G37*
G36*
X368000Y50000D02*
Y14000D01*
X345000D01*
Y36000D01*
X340000Y41000D01*
X323000Y41000D01*
Y54000D01*
X324000Y55000D01*
X363000D01*
X368000Y50000D01*
D02*
G37*
G36*
X342000Y61000D02*
X326588D01*
X314000Y49625D01*
X314000Y46000D01*
Y14000D01*
X295000D01*
Y58000D01*
X313000D01*
X316000Y61000D01*
Y74000D01*
X342000D01*
Y61000D01*
D02*
G37*
%LPC*%
G36*
X23446Y105905D02*
X21885Y105594D01*
X20562Y104710D01*
X18935Y103083D01*
X18051Y101760D01*
X17740Y100199D01*
X18051Y98638D01*
X18935Y97315D01*
X20258Y96431D01*
X21819Y96121D01*
X23379Y96431D01*
X24702Y97315D01*
X26330Y98943D01*
X27214Y100266D01*
X27524Y101826D01*
X27214Y103387D01*
X26330Y104710D01*
X25007Y105594D01*
X23446Y105905D01*
D02*
G37*
G36*
X397500Y83278D02*
X397300D01*
X395739Y82968D01*
X394416Y82084D01*
X393532Y80761D01*
X393222Y79200D01*
X393532Y77639D01*
X394416Y76316D01*
X395739Y75432D01*
X397300Y75122D01*
X397500D01*
X399061Y75432D01*
X400384Y76316D01*
X401268Y77639D01*
X401578Y79200D01*
X401268Y80761D01*
X400384Y82084D01*
X399061Y82968D01*
X397500Y83278D01*
D02*
G37*
G36*
X406400Y34277D02*
X404839Y33967D01*
X403516Y33083D01*
X402632Y31760D01*
X402322Y30199D01*
Y25400D01*
X402632Y23839D01*
X403516Y22516D01*
X404839Y21632D01*
X406400Y21322D01*
X407961Y21632D01*
X409284Y22516D01*
X410168Y23839D01*
X410478Y25400D01*
Y30199D01*
X410168Y31760D01*
X409284Y33083D01*
X407961Y33967D01*
X406400Y34277D01*
D02*
G37*
G36*
X379000Y40000D02*
X373167D01*
X379000Y40000D01*
X379000Y40000D01*
D02*
G37*
G36*
X383296Y31774D02*
X381735Y31464D01*
X380412Y30580D01*
X378116Y28284D01*
X377232Y26961D01*
X376922Y25400D01*
X377232Y23839D01*
X378116Y22516D01*
X379439Y21632D01*
X381000Y21322D01*
X382561Y21632D01*
X383884Y22516D01*
X386180Y24812D01*
X387064Y26135D01*
X387374Y27696D01*
X387064Y29257D01*
X386180Y30580D01*
X384857Y31464D01*
X383296Y31774D01*
D02*
G37*
%LPD*%
D11*
X210432Y449794D02*
X212450Y447776D01*
X196907Y182981D02*
X198907Y180981D01*
X286600Y431970D02*
Y448287D01*
X284167Y429537D02*
X286600Y431970D01*
X591719Y243281D02*
X606844D01*
X586000Y249000D02*
X591719Y243281D01*
X586000Y249000D02*
Y320000D01*
X463372Y148252D02*
X600383D01*
X442850Y120483D02*
Y125730D01*
Y127730D02*
X463372Y148252D01*
X600383D02*
X608367Y156236D01*
X442850Y125730D02*
Y127730D01*
X475900Y176800D02*
Y193680D01*
X475700Y193880D02*
X475900Y193680D01*
X475700Y193880D02*
X476000Y194180D01*
X468250Y201930D02*
X476000Y194180D01*
X683008Y222328D02*
Y231400D01*
X642423D02*
X683008D01*
X639073Y228049D02*
X642423Y231400D01*
X629073Y228049D02*
X639073D01*
X628073Y227049D02*
X629073Y228049D01*
X586000Y320000D02*
X591888Y325888D01*
X650415Y127415D02*
X652897D01*
X616000Y93000D02*
X650415Y127415D01*
X616000Y65000D02*
Y93000D01*
X192700Y172700D02*
X198907Y178907D01*
X192700Y166863D02*
Y172700D01*
X198907Y178907D02*
Y180981D01*
X181337Y155500D02*
X192700Y166863D01*
X652897Y127415D02*
X653423D01*
X670760Y144752D02*
X672272D01*
X653423Y127415D02*
X670760Y144752D01*
X165500Y155500D02*
X181337D01*
X150000Y140000D02*
X165500Y155500D01*
X591888Y325888D02*
Y331185D01*
X457138Y43138D02*
Y55158D01*
X672008Y206885D02*
X683008D01*
Y222328D01*
X672187D02*
X683008D01*
X46000Y260000D02*
X83671D01*
X176343Y291007D02*
X181085Y295750D01*
X195750D01*
X196000Y296000D01*
X206236D02*
X219380Y309143D01*
X196000Y296000D02*
X206236D01*
X176343Y282500D02*
X182000Y276843D01*
Y258000D02*
Y276843D01*
Y253250D02*
Y258000D01*
X176343Y282500D02*
Y291007D01*
X438000Y52000D02*
Y59706D01*
X49523Y292845D02*
X49668Y292990D01*
X83671Y260000D02*
X88536Y255135D01*
X196907Y182981D02*
X198907D01*
X8815Y286463D02*
X9388Y285889D01*
X8815Y286463D02*
X9038D01*
X9388Y294233D02*
X9609Y294453D01*
X9388Y286813D02*
Y294233D01*
X9038Y286463D02*
X9388Y286813D01*
X23368Y499872D02*
Y519912D01*
X294407Y426305D02*
X294537Y426175D01*
X285667Y426305D02*
X294407D01*
X284167Y427805D02*
X285667Y426305D01*
X284167Y427805D02*
Y429537D01*
X224706Y447776D02*
X224772Y447710D01*
X212450Y447776D02*
X224706D01*
X209700Y449062D02*
X210432Y449794D01*
X194216Y449062D02*
X209700D01*
X193484Y448330D02*
X194216Y449062D01*
X9609Y294453D02*
X9616D01*
X9702Y294367D01*
X28767D01*
X28853Y294281D01*
X49523Y276497D02*
Y292845D01*
X49377Y276352D02*
X49523Y276497D01*
X229828Y165582D02*
Y176901D01*
X223558Y183171D02*
X229828Y176901D01*
X221558Y183171D02*
X223558D01*
X221462Y183076D02*
X221558Y183171D01*
X199003Y183076D02*
X221462D01*
X198907Y182981D02*
X199003Y183076D01*
X672045Y222469D02*
X672187Y222328D01*
X591569Y354124D02*
X591729Y353965D01*
Y331344D02*
Y353965D01*
X122101Y213497D02*
Y234818D01*
X197669Y192481D02*
Y200742D01*
X198907Y201981D01*
X200806Y239776D02*
X216429Y224153D01*
X198907Y201981D02*
X200907D01*
X203407Y204481D01*
Y205204D01*
X218929Y220726D01*
X220929D01*
X216429Y223226D02*
X218929Y220726D01*
X216429Y223226D02*
Y224153D01*
X198806Y239776D02*
X200806D01*
X196284Y242276D02*
Y247482D01*
Y242276D02*
X198784Y239776D01*
X198806D01*
X191266Y252500D02*
X196284Y247482D01*
X182750Y252500D02*
X191266D01*
X182000Y253250D02*
X182750Y252500D01*
X435762Y113395D02*
X442850Y120483D01*
X435762Y98908D02*
Y113395D01*
D12*
X365214Y77914D02*
Y78374D01*
X356400Y69100D02*
X365214Y77914D01*
X447558Y218715D02*
Y228088D01*
X672538Y128056D02*
X673303Y127291D01*
X454699Y98844D02*
X456543Y97000D01*
X449000D02*
X456543D01*
X455000Y79060D02*
X457000Y81060D01*
Y77060D02*
X457400Y77460D01*
X456140Y76200D02*
X457000Y77060D01*
X396878Y100002D02*
X397718Y100842D01*
X306557Y70066D02*
X307000Y70509D01*
X207036Y129669D02*
X213000Y135632D01*
X397300Y79200D02*
X397500D01*
X406400Y25400D02*
Y30199D01*
X41298Y522907D02*
X49207D01*
X437804Y59902D02*
X438000Y59706D01*
X476200Y55372D02*
Y76860D01*
Y55372D02*
X476276Y55296D01*
X476302Y76963D02*
Y93836D01*
X476200Y76860D02*
X476302Y76963D01*
X476200Y76860D02*
X476200Y76860D01*
X237522Y476767D02*
X240400Y479645D01*
X226704Y476767D02*
X237522D01*
X480123Y252017D02*
X480720Y251421D01*
X467845Y252017D02*
X480123D01*
X627200Y183997D02*
X634800Y191597D01*
X627200Y159100D02*
Y183997D01*
Y159100D02*
X630900Y155400D01*
X628073Y227049D02*
Y229200D01*
Y226200D02*
Y227049D01*
X606844Y242646D02*
Y243281D01*
Y242646D02*
X607638Y241852D01*
X615420D01*
X628073Y229200D01*
X634800Y191597D02*
Y216472D01*
X628073Y223200D02*
X634800Y216472D01*
X628073Y223200D02*
Y226200D01*
X630900Y155400D02*
X663874D01*
X672272Y147002D01*
Y144752D02*
Y147002D01*
X416300Y79200D02*
X418535Y81435D01*
X457600Y80860D02*
Y87500D01*
X457400Y80660D02*
X457600Y80860D01*
X457400Y80660D02*
X459000Y79060D01*
X457000Y81060D02*
X457400Y80660D01*
Y77460D02*
Y80660D01*
Y77460D02*
X459000Y79060D01*
X354400Y69100D02*
X356400D01*
X397718Y100842D02*
Y106602D01*
X396878Y100002D02*
X396970Y99909D01*
X457000Y77060D02*
X457200Y76860D01*
X455000Y79060D02*
X457000Y77060D01*
X332422Y85822D02*
X333848Y87248D01*
X306557Y70066D02*
X306674Y69949D01*
X307000Y70509D02*
Y88617D01*
X238760Y508000D02*
X239578Y507182D01*
Y484650D02*
Y507182D01*
Y484650D02*
X240396Y483833D01*
X49377Y263918D02*
Y276352D01*
X46000Y260000D02*
Y260541D01*
X49377Y263918D01*
X192000Y152000D02*
X192541D01*
X197209Y147332D01*
X202078D01*
X285627Y67323D02*
X292181D01*
X271194Y52890D02*
X285627Y67323D01*
X162100Y162000D02*
X178644D01*
X181930Y165285D01*
Y190552D01*
X143000Y142900D02*
X162100Y162000D01*
X160430Y123942D02*
X176131Y139643D01*
Y146000D01*
X457000Y43000D02*
X457138Y43138D01*
Y55158D02*
X457276Y55296D01*
X62910Y451090D02*
X63000Y451000D01*
X22823Y451090D02*
X62910D01*
X22733Y451181D02*
X22823Y451090D01*
X454699Y98844D02*
X454762Y98908D01*
X452383Y101287D02*
X454762Y98908D01*
X229932Y137360D02*
X230993Y138421D01*
X239000D01*
X229932Y130194D02*
Y137360D01*
X229199Y129462D02*
X229932Y130194D01*
X673303Y127291D02*
X677000D01*
X671897Y127415D02*
X672538Y128056D01*
X73256Y249153D02*
X74256Y248153D01*
X69773Y249153D02*
X73256D01*
X69573Y249352D02*
X69773Y249153D01*
X68377Y249352D02*
X69573D01*
X213000Y135632D02*
Y157000D01*
X116200Y88000D02*
X118000Y86200D01*
X147730Y107942D02*
Y115942D01*
X113755Y90445D02*
X116200Y88000D01*
X207036Y129669D02*
X207243Y129461D01*
X639047Y179667D02*
X644788Y185409D01*
X181930Y190552D02*
X186700Y195322D01*
Y230997D01*
X202078Y147332D02*
X202828Y146582D01*
X178200Y239497D02*
X186700Y230997D01*
X143000Y137100D02*
Y142900D01*
Y137100D02*
X148512Y131588D01*
Y116724D02*
Y131588D01*
X147730Y115942D02*
X148512Y116724D01*
X272794Y251101D02*
Y251308D01*
X166484Y429330D02*
X167234Y428580D01*
X174132D01*
X176955Y425758D02*
X177496D01*
X174132Y428580D02*
X176955Y425758D01*
X23217Y495658D02*
X25400Y497840D01*
X70411Y292042D02*
X76089D01*
X68378Y294075D02*
X70411Y292042D01*
X208432Y430794D02*
X210432D01*
X200590Y438636D02*
X208432Y430794D01*
X195734Y438636D02*
X200590D01*
X195416Y438318D02*
X195734Y438636D01*
X445146Y204226D02*
Y216303D01*
X442850Y201930D02*
X445146Y204226D01*
X447558Y228088D02*
X448914Y229445D01*
X467462Y252400D02*
X467845Y252017D01*
X395551Y252256D02*
X395670D01*
X395814Y252400D01*
X409879D01*
X104980Y248937D02*
X104983Y248939D01*
X104980Y235239D02*
Y248937D01*
X104530Y234789D02*
X104980Y235239D01*
X134586Y226234D02*
Y226302D01*
X141398Y233114D01*
Y235114D01*
X149721Y271642D02*
X149860Y271503D01*
Y258140D02*
Y271503D01*
Y258140D02*
X150000Y258000D01*
X176131Y211835D02*
Y220428D01*
X176200Y220497D01*
X199039Y211481D02*
Y220543D01*
X198806Y220776D02*
X199039Y220543D01*
X237332Y202171D02*
X237680Y202520D01*
X221558Y202171D02*
X237332D01*
X270057Y248363D02*
X272794Y251101D01*
X261852Y248363D02*
X270057D01*
X261392Y247904D02*
X261852Y248363D01*
X220929Y252907D02*
X220949Y252927D01*
X220929Y239726D02*
Y252907D01*
X183843Y287901D02*
X183926Y287984D01*
X195984D01*
X196000Y288000D01*
X219225Y343527D02*
Y343652D01*
Y343527D02*
X219380Y343373D01*
Y328143D02*
Y343373D01*
X272521Y353517D02*
X272853Y353850D01*
X259817Y353517D02*
X272521D01*
X259396Y483833D02*
X261864Y486301D01*
Y505704D01*
X264160Y508000D01*
X40336Y521945D02*
X41298Y522907D01*
X644788Y185409D02*
X647638D01*
X650138Y187909D01*
X643272Y171752D02*
X653272D01*
X160430Y115942D02*
Y123942D01*
X75645Y181425D02*
X75725Y181505D01*
X68155Y181425D02*
X75645D01*
X67818Y181088D02*
X68155Y181425D01*
X23368Y499872D02*
X25400Y497840D01*
X21336Y521945D02*
X23368Y519912D01*
X437804Y59902D02*
X437896Y59994D01*
X139657Y245614D02*
X141250Y247207D01*
Y257250D01*
X142000Y258000D01*
X130898Y245614D02*
X139657D01*
X122398Y237114D02*
X130898Y245614D01*
X122398Y235114D02*
Y237114D01*
X122101Y234818D02*
X122398Y235114D01*
X121805Y213201D02*
X122101Y213497D01*
X415907Y99846D02*
X415970Y99909D01*
X415869Y100011D02*
X415970Y99909D01*
X417450Y125730D02*
X417551Y125629D01*
X476302Y93836D02*
X476405Y93939D01*
X467914Y229445D02*
X468082Y229277D01*
Y202098D02*
Y229277D01*
Y202098D02*
X468250Y201930D01*
X174421Y192942D02*
X177696Y196217D01*
X143256Y192942D02*
X174421D01*
X140805Y195393D02*
X143256Y192942D01*
X140805Y195393D02*
Y213201D01*
X174000Y241697D02*
Y258000D01*
Y241697D02*
X176200Y239497D01*
X178200D01*
X135030Y113372D02*
Y115942D01*
X134030Y112373D02*
X135030Y113372D01*
X71603Y19149D02*
X73304Y20851D01*
X381000Y25400D02*
X383296Y27696D01*
X73304Y20851D02*
Y22626D01*
X67304Y28626D02*
X73304Y22626D01*
X21539Y67920D02*
X21819Y68199D01*
Y100199D02*
X23446Y101826D01*
X53495Y214000D02*
X58495Y219000D01*
Y226308D01*
X48745Y214000D02*
X53495D01*
X240400Y479645D02*
Y480300D01*
D14*
X398100Y54200D02*
D03*
X379100D02*
D03*
X435762Y98908D02*
D03*
X454762D02*
D03*
X40336Y521945D02*
D03*
X21336D02*
D03*
X141398Y235114D02*
D03*
X122398D02*
D03*
X259817Y353517D02*
D03*
X240817D02*
D03*
X261392Y247904D02*
D03*
X242392D02*
D03*
X457276Y55296D02*
D03*
X476276D02*
D03*
X259400Y480300D02*
D03*
X240400D02*
D03*
X448914Y229445D02*
D03*
X467914D02*
D03*
X457200Y76860D02*
D03*
X476200D02*
D03*
X610900Y331200D02*
D03*
X591900D02*
D03*
X396970Y99909D02*
D03*
X415970D02*
D03*
X397300Y79200D02*
D03*
X416300D02*
D03*
X409879Y252400D02*
D03*
X428879D02*
D03*
X467462D02*
D03*
X448462D02*
D03*
X671897Y127415D02*
D03*
X652897D02*
D03*
X68378Y294075D02*
D03*
X49378D02*
D03*
X104530Y234789D02*
D03*
X85530D02*
D03*
D15*
X247708Y431178D02*
D03*
X231708D02*
D03*
X248347Y389186D02*
D03*
X232348D02*
D03*
X232694Y407393D02*
D03*
X248694D02*
D03*
X609704Y374194D02*
D03*
X593704D02*
D03*
D16*
X46495Y169000D02*
D03*
Y233000D02*
D03*
D17*
X21995Y189000D02*
D03*
Y213000D02*
D03*
X245414Y90294D02*
D03*
D18*
X48745Y214000D02*
D03*
Y207500D02*
D03*
Y201000D02*
D03*
Y194500D02*
D03*
Y188000D02*
D03*
D19*
X73304Y61851D02*
D03*
Y20851D02*
D03*
Y142826D02*
D03*
Y101826D02*
D03*
D20*
X121805Y213201D02*
D03*
X140805D02*
D03*
X410946Y229032D02*
D03*
X429946D02*
D03*
X265167Y429537D02*
D03*
X284167D02*
D03*
X264800Y451800D02*
D03*
X283800D02*
D03*
X103559Y357876D02*
D03*
X84559D02*
D03*
X84591Y213505D02*
D03*
X103591D02*
D03*
X84099Y192227D02*
D03*
X103099D02*
D03*
X103215Y170192D02*
D03*
X84215D02*
D03*
X381356Y98933D02*
D03*
X362356D02*
D03*
X609073Y226200D02*
D03*
X628073D02*
D03*
X248131Y451136D02*
D03*
X229131D02*
D03*
X610569Y354124D02*
D03*
X591569D02*
D03*
X286815Y91175D02*
D03*
X267815D02*
D03*
X11082Y253141D02*
D03*
X30082D02*
D03*
D21*
X135030Y115942D02*
D03*
X147730D02*
D03*
X160430D02*
D03*
X173130D02*
D03*
X185830D02*
D03*
D22*
X160430Y177942D02*
D03*
D23*
X9616Y294453D02*
D03*
Y270069D02*
D03*
D24*
X631228Y243281D02*
D03*
X606844D02*
D03*
D25*
X182000Y258000D02*
D03*
X174000D02*
D03*
X166000D02*
D03*
X158000D02*
D03*
X150000D02*
D03*
X142000D02*
D03*
X134000D02*
D03*
X126000D02*
D03*
Y342000D02*
D03*
X134000D02*
D03*
X142000D02*
D03*
X150000D02*
D03*
X158000D02*
D03*
X166000D02*
D03*
X174000D02*
D03*
X182000D02*
D03*
D26*
X112000Y272000D02*
D03*
Y280000D02*
D03*
Y288000D02*
D03*
Y296000D02*
D03*
Y304000D02*
D03*
Y312000D02*
D03*
Y320000D02*
D03*
Y328000D02*
D03*
X196000D02*
D03*
Y320000D02*
D03*
Y312000D02*
D03*
Y304000D02*
D03*
Y296000D02*
D03*
Y288000D02*
D03*
Y280000D02*
D03*
Y272000D02*
D03*
D27*
X68377Y276352D02*
D03*
X49377D02*
D03*
X68377Y249352D02*
D03*
X58877D02*
D03*
X49377D02*
D03*
X672272Y171752D02*
D03*
X662772D02*
D03*
X653272D02*
D03*
X672272Y144752D02*
D03*
X653272D02*
D03*
D28*
X219634Y292304D02*
D03*
Y273304D02*
D03*
X170765Y413909D02*
D03*
Y394909D02*
D03*
X88536Y274135D02*
D03*
Y255135D02*
D03*
X613179Y455003D02*
D03*
Y474002D02*
D03*
X585295Y454808D02*
D03*
Y473808D02*
D03*
X637042Y417781D02*
D03*
Y436781D02*
D03*
X332493Y48604D02*
D03*
Y67604D02*
D03*
D03*
Y86604D02*
D03*
X271194Y71890D02*
D03*
Y52890D02*
D03*
X672008Y187885D02*
D03*
Y206885D02*
D03*
X672045Y241469D02*
D03*
Y222469D02*
D03*
X248496Y165951D02*
D03*
Y146951D02*
D03*
X28853Y275281D02*
D03*
Y294281D02*
D03*
X649958Y241570D02*
D03*
Y222570D02*
D03*
D29*
X198907Y182981D02*
D03*
Y201981D02*
D03*
X219380Y328143D02*
D03*
Y309143D02*
D03*
X198806Y220776D02*
D03*
Y239776D02*
D03*
X220929Y239726D02*
D03*
Y220726D02*
D03*
X176200Y220497D02*
D03*
Y239497D02*
D03*
X636906Y454287D02*
D03*
Y473287D02*
D03*
X207243Y129461D02*
D03*
Y110461D02*
D03*
X113755Y131372D02*
D03*
Y112373D02*
D03*
X22733Y451181D02*
D03*
Y432181D02*
D03*
X306674Y69949D02*
D03*
Y50949D02*
D03*
X354400Y69100D02*
D03*
Y50100D02*
D03*
X437896Y59994D02*
D03*
Y78994D02*
D03*
X210955Y430704D02*
D03*
Y449704D02*
D03*
X221558Y202171D02*
D03*
Y183171D02*
D03*
X229199Y129462D02*
D03*
Y110462D02*
D03*
X650138Y187909D02*
D03*
Y206909D02*
D03*
D30*
X21819Y100199D02*
D03*
Y68199D02*
D03*
D31*
X67818Y196088D02*
D03*
Y181088D02*
D03*
X68555Y209359D02*
D03*
Y224359D02*
D03*
D32*
X250114Y276541D02*
D03*
Y325541D02*
D03*
D33*
X464859Y282721D02*
D03*
X415859D02*
D03*
D34*
X166484Y448330D02*
D03*
Y438830D02*
D03*
Y429330D02*
D03*
X193484Y448330D02*
D03*
Y429330D02*
D03*
X202828Y165582D02*
D03*
Y156082D02*
D03*
Y146582D02*
D03*
X229828Y165582D02*
D03*
Y146582D02*
D03*
D63*
X672536Y261834D02*
D03*
D64*
X200414Y90294D02*
D03*
Y25294D02*
D03*
X245414D02*
D03*
X672536Y306834D02*
D03*
X607536D02*
D03*
Y261834D02*
D03*
D69*
X223058Y55418D02*
D03*
X667890Y20308D02*
D03*
X668598Y508130D02*
D03*
X107800Y518496D02*
D03*
D70*
X619077Y150323D02*
Y203503D01*
X620650Y201930D01*
X619077Y150323D02*
X624648Y144752D01*
X653272D01*
X291317Y503892D02*
X302700Y492510D01*
Y475510D02*
Y492510D01*
X289790Y462600D02*
X302700Y475510D01*
X182374Y462600D02*
X289790D01*
X167848Y448074D02*
X182374Y462600D01*
X280300Y467600D02*
X296200Y483500D01*
X158152Y467600D02*
X280300D01*
X141312Y484440D02*
X158152Y467600D01*
X258167Y441114D02*
X264970Y447917D01*
Y450917D01*
X484276Y42024D02*
Y95260D01*
X482150Y97386D02*
X484276Y95260D01*
Y42024D02*
X491400Y34900D01*
X258167Y423770D02*
Y441114D01*
X265167Y413667D02*
Y429537D01*
X250290Y415893D02*
X258167Y423770D01*
X250290Y408988D02*
Y415893D01*
X261194Y402307D02*
X269882Y410995D01*
X311795D01*
X266194Y400236D02*
X271058Y405100D01*
X314500D01*
X261194Y385994D02*
Y402307D01*
X314500Y405100D02*
X326532Y417132D01*
X311795Y410995D02*
X319500Y418700D01*
X256194Y404694D02*
X265167Y413667D01*
X256194Y397033D02*
Y404694D01*
X266194Y383923D02*
Y400236D01*
X256171Y373900D02*
X266194Y383923D01*
X45129Y362300D02*
X55205D01*
X89505Y328000D01*
X505400Y112080D02*
X519050Y125730D01*
X505400Y53400D02*
Y112080D01*
Y53400D02*
X533400Y25400D01*
X493650Y53750D02*
Y125730D01*
Y53750D02*
X509500Y37900D01*
Y26900D02*
Y37900D01*
X531900Y113180D02*
X544450Y125730D01*
X531900Y52300D02*
Y113180D01*
Y52300D02*
X558800Y25400D01*
X554800Y110680D02*
X569850Y125730D01*
X554800Y54800D02*
Y110680D01*
Y54800D02*
X584200Y25400D01*
X587800Y103800D02*
X595250Y111250D01*
X587800Y47200D02*
Y103800D01*
Y47200D02*
X609600Y25400D01*
X595250Y111250D02*
Y125730D01*
X508000Y25400D02*
X509500Y26900D01*
X530500Y235570D02*
X545076Y220994D01*
X549664D01*
X568728Y201930D01*
X569850D01*
X491400Y11200D02*
Y34900D01*
X484009Y3809D02*
X491400Y11200D01*
X530500Y235570D02*
Y282100D01*
X535500Y242229D02*
X556529Y221200D01*
X493900Y318700D02*
X530500Y282100D01*
X494200Y326900D02*
X535500Y285600D01*
Y242229D02*
Y285600D01*
X499119Y331900D02*
X540500Y290520D01*
Y244300D02*
Y290520D01*
Y244300D02*
X558600Y226200D01*
X487600Y313000D02*
X524700Y275900D01*
Y217200D02*
Y275900D01*
Y217200D02*
X539970Y201930D01*
X482800Y306400D02*
X519050Y270150D01*
Y201930D02*
Y270150D01*
X571000Y221200D02*
X590270Y201930D01*
X556529Y221200D02*
X571000D01*
X558600Y226200D02*
X609073D01*
X590270Y201930D02*
X595250D01*
X445200Y420400D02*
X468300Y443500D01*
X445200Y402000D02*
Y420400D01*
X468300Y443500D02*
X514300D01*
X449400Y338629D02*
X461129Y326900D01*
X449400Y338629D02*
Y390000D01*
X461129Y326900D02*
X494200D01*
X463200Y331900D02*
X499119D01*
X454400Y340700D02*
X463200Y331900D01*
X454400Y340700D02*
Y392800D01*
X445200Y402000D02*
X454400Y392800D01*
X514300Y443500D02*
X526900Y430900D01*
X510300Y449000D02*
X528100Y466800D01*
X464000Y449000D02*
X510300D01*
X507800Y454000D02*
X527608Y473808D01*
X461929Y454000D02*
X507800D01*
X503900Y459300D02*
X526900Y482300D01*
X458400Y459300D02*
X503900D01*
X430200Y431100D02*
X458400Y459300D01*
X435200Y427271D02*
X461929Y454000D01*
X440200Y425200D02*
X464000Y449000D01*
X502700Y466200D02*
X523800Y487300D01*
X450800Y466200D02*
X502700D01*
X425200Y440600D02*
X450800Y466200D01*
X526900Y482300D02*
X574200D01*
X519000Y492300D02*
X529000D01*
X501700Y475000D02*
X519000Y492300D01*
X447400Y475000D02*
X501700D01*
X523800Y487300D02*
X551600D01*
X528100Y466800D02*
X600900D01*
X527608Y473808D02*
X585295D01*
X435200Y395100D02*
Y427271D01*
Y395100D02*
X444400Y385900D01*
X430200Y391500D02*
X439400Y382300D01*
X430200Y391500D02*
Y431100D01*
X440200Y399200D02*
Y425200D01*
X425200Y387700D02*
Y440600D01*
Y387700D02*
X433400Y379500D01*
X440200Y399200D02*
X449400Y390000D01*
X444400Y336000D02*
Y385900D01*
X439400Y332500D02*
Y382300D01*
X280158Y102200D02*
X360356D01*
X362356Y100200D01*
Y98933D02*
Y100200D01*
X444400Y336000D02*
X461700Y318700D01*
X439400Y332500D02*
X458900Y313000D01*
X433400Y327500D02*
Y379500D01*
Y327500D02*
X454500Y306400D01*
X482150Y97386D02*
Y138351D01*
X341250Y118150D02*
Y125730D01*
X335330Y112230D02*
X341250Y118150D01*
X284270Y112230D02*
X335330D01*
X355673Y107200D02*
X363400Y114927D01*
Y122480D01*
X366650Y125730D01*
X261600Y120758D02*
X280158Y102200D01*
X282229Y107200D02*
X355673D01*
X266600Y122829D02*
X282229Y107200D01*
X271600Y124900D02*
X284270Y112230D01*
X271600Y205400D02*
X281630Y215430D01*
X261600Y210600D02*
X276430Y225430D01*
X261600Y120758D02*
Y210600D01*
X276430Y225430D02*
X283800D01*
Y257458D01*
X277600Y263658D02*
X283800Y257458D01*
X165598Y448074D02*
X167848D01*
X266600Y207471D02*
X279559Y220430D01*
X266600Y122829D02*
Y207471D01*
X271600Y124900D02*
Y205400D01*
X281630Y215430D02*
X288476D01*
X279559Y220430D02*
X286405D01*
X288800Y222825D01*
X288476Y215430D02*
X293800Y220754D01*
Y261600D01*
X288800Y222825D02*
Y259529D01*
X287600Y267800D02*
X293800Y261600D01*
X282600Y265729D02*
X288800Y259529D01*
X302215Y301686D02*
X320085D01*
X282600Y282071D02*
X302215Y301686D01*
X300258Y306800D02*
X315057D01*
X277600Y284142D02*
X300258Y306800D01*
X277600Y263658D02*
Y284142D01*
X282600Y265729D02*
Y282071D01*
X304250Y296650D02*
X323350D01*
X287600Y280000D02*
X304250Y296650D01*
X287600Y267800D02*
Y280000D01*
X315057Y306800D02*
X320000Y311744D01*
X323350Y296650D02*
X332457Y305757D01*
X320085Y301686D02*
X325800Y307400D01*
X320000Y311744D02*
Y347700D01*
X325800Y307400D02*
Y346429D01*
X329371Y350000D01*
X320000Y347700D02*
X327300Y355000D01*
X332457Y345000D02*
X338242D01*
X332457Y305757D02*
Y345000D01*
X329371Y350000D02*
X336171D01*
X334100Y355000D02*
X337600Y358500D01*
X327300Y355000D02*
X334100D01*
X347600Y354358D02*
Y495562D01*
X340360Y502802D02*
X347600Y495562D01*
X340360Y502802D02*
Y508000D01*
X314960Y506000D02*
X342600Y478360D01*
Y356429D02*
Y478360D01*
X338242Y345000D02*
X347600Y354358D01*
X336171Y350000D02*
X342600Y356429D01*
X318800Y485896D02*
X337600Y467097D01*
Y358500D02*
Y467097D01*
X314960Y506000D02*
Y508000D01*
X318800Y485896D02*
X318800D01*
X301184Y503513D02*
X318800Y485896D01*
X337873Y510487D02*
X340360Y508000D01*
X337873Y510487D02*
Y519175D01*
X334412Y522635D02*
X337873Y519175D01*
X32400Y375029D02*
X45129Y362300D01*
X32400Y375029D02*
Y379080D01*
X25400Y386080D02*
X32400Y379080D01*
X121108Y343286D02*
X126000Y338394D01*
X57276Y367300D02*
X81290Y343286D01*
X47200Y367300D02*
X57276D01*
X38800Y375700D02*
X47200Y367300D01*
X38800Y375700D02*
Y399480D01*
X174051Y379587D02*
Y396848D01*
X150000Y355537D02*
X174051Y379587D01*
X150000Y342000D02*
Y355537D01*
X254951Y379751D02*
X261194Y385994D01*
X196222Y379751D02*
X254951D01*
X182000Y365529D02*
X196222Y379751D01*
X197566Y373900D02*
X256171D01*
X189100Y365434D02*
X197566Y373900D01*
X189100Y334900D02*
Y365434D01*
Y334900D02*
X196000Y328000D01*
X388400Y384900D02*
Y466900D01*
X416000Y494500D02*
Y507440D01*
X416560Y508000D01*
X388400Y466900D02*
X416000Y494500D01*
X432800Y493600D02*
X456400D01*
X395700Y456500D02*
X432800Y493600D01*
X395700Y385100D02*
Y456500D01*
X436954Y488600D02*
X477300D01*
X402600Y454246D02*
X436954Y488600D01*
X402600Y385271D02*
Y454246D01*
X505071Y492571D02*
Y508000D01*
X442300Y482800D02*
X495300D01*
X410700Y451200D02*
X442300Y482800D01*
X410700Y384242D02*
Y451200D01*
X419500Y447100D02*
X447400Y475000D01*
X419500Y385300D02*
Y447100D01*
X461700Y318700D02*
X493900D01*
X419500Y385300D02*
X428000Y376800D01*
Y321500D02*
Y376800D01*
Y321500D02*
X450280Y299221D01*
X410700Y384242D02*
X420054Y374888D01*
X454500Y306400D02*
X482800D01*
X458900Y313000D02*
X487600D01*
X512500Y220780D02*
Y265530D01*
X478809Y299221D02*
X512500Y265530D01*
X450280Y299221D02*
X478809D01*
X402600Y385271D02*
X415054Y372817D01*
Y343296D02*
Y372817D01*
X389900Y318142D02*
X415054Y343296D01*
X420054Y341225D02*
Y374888D01*
X394900Y316071D02*
X420054Y341225D01*
X395700Y385100D02*
X408700Y372100D01*
Y344013D02*
Y372100D01*
X384900Y320213D02*
X408700Y344013D01*
X493650Y201930D02*
X512500Y220780D01*
X411100Y508000D02*
X416560D01*
X388400Y384900D02*
X401000Y372300D01*
Y343384D02*
Y372300D01*
X379900Y322284D02*
X401000Y343384D01*
X380500Y384500D02*
X392800Y372200D01*
Y342255D02*
Y372200D01*
X373800Y323255D02*
X392800Y342255D01*
X371100Y383900D02*
X382500Y372500D01*
Y339026D02*
Y372500D01*
X368800Y325326D02*
X382500Y339026D01*
X371100Y383900D02*
Y500660D01*
X380500Y384500D02*
Y497340D01*
X608102Y474002D02*
X613179D01*
X600900Y466800D02*
X608102Y474002D01*
X394900Y266516D02*
Y316071D01*
X373800Y273700D02*
Y323255D01*
X384900Y270658D02*
Y320213D01*
X368800Y279400D02*
Y325326D01*
X389900Y268587D02*
Y318142D01*
X379900Y272729D02*
Y322284D01*
X539970Y201930D02*
X544450D01*
X366650D02*
Y212806D01*
X364026Y215430D02*
X366650Y212806D01*
X343700Y215430D02*
X364026D01*
X374992Y246608D02*
X394900Y266516D01*
X338300Y220830D02*
X343700Y215430D01*
X338300Y220830D02*
Y227700D01*
X331800Y211380D02*
Y229016D01*
X326000Y212080D02*
Y230287D01*
X315850Y201930D02*
X326000Y212080D01*
X331800Y211380D02*
X341250Y201930D01*
X338300Y227700D02*
X357208Y246608D01*
X304486Y225037D02*
X346057Y266608D01*
X319100Y230580D02*
X350128Y261608D01*
X326000Y230287D02*
X352321Y256608D01*
X331800Y229016D02*
X354392Y251608D01*
X357208Y246608D02*
X374992D01*
X354392Y251608D02*
X372921D01*
X352321Y256608D02*
X370850D01*
X350128Y261608D02*
X368779D01*
X346057Y266608D02*
X366708D01*
X373800Y273700D01*
X368779Y261608D02*
X379900Y272729D01*
X370850Y256608D02*
X384900Y270658D01*
X372921Y251608D02*
X389900Y268587D01*
X319100Y224100D02*
Y230580D01*
X294937Y206417D02*
X301417D01*
X290450Y201930D02*
X294937Y206417D01*
X290450Y199516D02*
Y201930D01*
X301417Y206417D02*
X319100Y224100D01*
X361200Y271800D02*
X368800Y279400D01*
X344178Y271800D02*
X361200D01*
X328278Y255900D02*
X344178Y271800D01*
X313247Y255900D02*
X328278D01*
X307867Y261280D02*
X313247Y255900D01*
X302026Y225037D02*
X304486D01*
X526900Y430900D02*
X585722D01*
X586000Y431178D01*
X613179Y474002D02*
X621671D01*
X365760Y506000D02*
X371100Y500660D01*
X380500Y497340D02*
X391160Y508000D01*
X37400Y484440D02*
X141312D01*
X25400Y472440D02*
X37400Y484440D01*
X558600Y494300D02*
Y507800D01*
X558800Y508000D01*
X635000Y487332D02*
Y508000D01*
X621671Y474002D02*
X635000Y487332D01*
X147531Y485292D02*
X209200D01*
X122983Y509840D02*
X147531Y485292D01*
X209200D02*
Y485500D01*
X227260Y503560D01*
Y514763D01*
X609600Y487900D02*
Y508000D01*
X595508Y473808D02*
X609600Y487900D01*
X585295Y473808D02*
X595508D01*
X584200Y492300D02*
Y508000D01*
X574200Y482300D02*
X584200Y492300D01*
X551600Y487300D02*
X558600Y494300D01*
X533400Y496700D02*
Y508000D01*
X529000Y492300D02*
X533400Y496700D01*
X482600Y493900D02*
Y508000D01*
X477300Y488600D02*
X482600Y493900D01*
X456400Y493600D02*
X457700Y494900D01*
X495300Y482800D02*
X505071Y492571D01*
X457700Y494900D02*
Y507500D01*
X457200Y508000D02*
X457700Y507500D01*
X225737Y401400D02*
X229848Y397290D01*
Y391686D02*
Y397290D01*
Y391686D02*
X232348Y389186D01*
X210800Y401400D02*
X225737D01*
X174000Y364600D02*
X210800Y401400D01*
X182000Y342000D02*
Y365529D01*
X174000Y342000D02*
Y364600D01*
X166000Y364466D02*
X208927Y407393D01*
X232694D01*
X319500Y418700D02*
Y441943D01*
X321257Y443700D01*
X326124D01*
X326588Y444164D01*
X326532Y417132D02*
Y433132D01*
X584279Y454808D02*
X585295D01*
X569300Y439829D02*
X584279Y454808D01*
X569300Y437400D02*
Y439829D01*
X89505Y328000D02*
X112000D01*
X81290Y343286D02*
X121108D01*
X62800Y509840D02*
X122983D01*
X482150Y138351D02*
X483399Y139600D01*
X348123Y3809D02*
X484009D01*
X609500Y48800D02*
X632900Y25400D01*
X635000D01*
X505071Y508000D02*
X508000D01*
X365760Y506000D02*
Y508000D01*
X294047Y503513D02*
X301184D01*
X460329Y265863D02*
Y278190D01*
X448462Y253997D02*
X460329Y265863D01*
X448462Y252400D02*
Y253997D01*
X71355Y374080D02*
X84559Y360876D01*
X71229Y374080D02*
X71355D01*
X64200Y381109D02*
X71229Y374080D01*
X64200Y381109D02*
Y381235D01*
X59355Y386080D02*
X64200Y381235D01*
X50800Y386080D02*
X59355D01*
X80740Y304600D02*
X89169Y296172D01*
X37400Y304600D02*
X80740D01*
X91100Y312000D02*
X112000D01*
X73100Y330000D02*
X91100Y312000D01*
X37400Y330000D02*
X73100D01*
X50800Y316600D02*
X77049D01*
X89649Y304000D01*
X291317Y503892D02*
Y506243D01*
X607536Y261834D02*
X672536D01*
X632084Y242426D02*
X649102D01*
X631228Y243281D02*
X632084Y242426D01*
X649102D02*
X649958Y241570D01*
X650008Y241520D01*
X609500Y48800D02*
Y112580D01*
X620650Y123730D01*
X64177Y240852D02*
X65127D01*
X62127Y242902D02*
X64177Y240852D01*
X62127Y242902D02*
Y243852D01*
X65127Y240852D02*
X66190Y239789D01*
X82530D01*
X157762Y208048D02*
Y249633D01*
X156262Y206548D02*
X157762Y208048D01*
X156262Y203693D02*
Y206548D01*
X158000Y249871D02*
Y258000D01*
X157762Y249633D02*
X158000Y249871D01*
X152512Y199942D02*
X156262Y203693D01*
X289560Y508000D02*
X291317Y506243D01*
X90434Y320000D02*
X112000D01*
X145349Y415963D02*
Y419949D01*
X130898Y401511D02*
X145349Y415963D01*
X99078Y401511D02*
X130898D01*
X109625Y191682D02*
X109987Y192044D01*
X103644Y191682D02*
X109625D01*
X219500Y152307D02*
Y159692D01*
X219199Y152007D02*
X219500Y152307D01*
X219199Y118462D02*
Y152007D01*
X207689Y107303D02*
Y110016D01*
X207243Y110461D02*
X207689Y110016D01*
X185830Y107942D02*
Y115942D01*
X167000Y88000D02*
Y89112D01*
X245414Y25294D02*
Y90294D01*
X32082Y250602D02*
X48127D01*
X49377Y249352D01*
X30082Y252602D02*
X32082Y250602D01*
X30082Y252602D02*
Y253141D01*
X49377Y249352D02*
X58877D01*
Y247102D02*
X62127Y243852D01*
X58877Y247102D02*
Y249352D01*
X202828Y158176D02*
Y165582D01*
X203959Y158176D02*
X209283Y163500D01*
X203959Y156082D02*
Y158176D01*
X209283Y163500D02*
X215692D01*
X219500Y159692D01*
X202828Y156082D02*
X203959D01*
X219199Y118462D02*
X227199Y110462D01*
X230013Y146767D02*
X248311D01*
X165598Y439269D02*
Y448074D01*
X85530Y234789D02*
Y236789D01*
X82530Y239789D02*
X85530Y236789D01*
X381356Y109933D02*
X392050Y120627D01*
X193697Y416495D02*
X194209D01*
X86083Y394582D02*
X145382D01*
X77580Y386080D02*
X86083Y394582D01*
X76200Y386080D02*
X77580D01*
X145382Y394582D02*
X146000Y395200D01*
X89316Y433924D02*
X157748D01*
X50800Y472440D02*
X89316Y433924D01*
X157748D02*
X163094Y439269D01*
X620650Y123730D02*
Y125730D01*
X609073Y225720D02*
Y226200D01*
X672045Y261343D02*
X672536Y261834D01*
X619077Y203503D02*
Y215716D01*
X609073Y225720D02*
X619077Y215716D01*
X145349Y419949D02*
X146000Y420600D01*
X50800Y342000D02*
X68434D01*
X90434Y320000D01*
X89603Y273067D02*
X101576D01*
X114007Y369230D02*
X114577Y369800D01*
X103559Y357876D02*
X126919D01*
X132750Y352045D01*
Y343250D02*
Y352045D01*
X114577Y369800D02*
X146000D01*
X58995Y173861D02*
Y191450D01*
Y173861D02*
X62664Y170192D01*
X56445Y194000D02*
X58995Y191450D01*
X49245Y194000D02*
X56445D01*
X48745Y194500D02*
X49245Y194000D01*
X62664Y170192D02*
X84215D01*
X282315Y190966D02*
Y191380D01*
X290450Y199516D01*
X248496Y184951D02*
X252418Y188873D01*
X248496Y165951D02*
Y184951D01*
X248311Y146767D02*
X248496Y146951D01*
X229828Y146582D02*
X230013Y146767D01*
X227199Y110462D02*
X229199D01*
X232199Y107462D01*
X254528D01*
X267815Y94175D01*
Y91175D02*
Y94175D01*
X271194Y71890D02*
X274194D01*
X276194Y73890D01*
Y77554D01*
X286815Y88175D01*
Y91175D01*
X269194Y73890D02*
X271194Y71890D01*
X261818Y73890D02*
X269194D01*
X245414Y90294D02*
X261818Y73890D01*
X392050Y120627D02*
Y125730D01*
X381356Y98933D02*
Y109933D01*
X162762Y203855D02*
Y247562D01*
X152218Y199942D02*
X152512D01*
X185830Y115942D02*
X185940Y115832D01*
X49245Y208000D02*
X66471D01*
X67894Y209423D01*
X48745Y207500D02*
X49245Y208000D01*
X67894Y209423D02*
X82591D01*
X166000Y250800D02*
Y258000D01*
X162762Y247562D02*
X166000Y250800D01*
X103099Y192227D02*
X103644Y191682D01*
X104979Y212117D02*
X110979D01*
X103591Y213505D02*
X104979Y212117D01*
X84099Y192227D02*
Y194088D01*
X82099Y196088D02*
X84099Y194088D01*
X67818Y196088D02*
X82099D01*
X66318D02*
X67818D01*
X61406Y201000D02*
X66318Y196088D01*
X48745Y201000D02*
X61406D01*
X84591Y211423D02*
Y213505D01*
X82591Y209423D02*
X84591Y211423D01*
X10349Y253874D02*
X11082Y253141D01*
X10349Y253874D02*
Y269336D01*
X9616Y270069D02*
X10349Y269336D01*
X9616Y270069D02*
X10251D01*
X15464Y275281D01*
X28853D01*
X68377Y275385D02*
Y276352D01*
Y275385D02*
X69627Y274135D01*
X88536D01*
X89603Y273067D01*
X250114Y267647D02*
Y276541D01*
X242392Y259926D02*
X250114Y267647D01*
X242392Y247904D02*
Y259926D01*
X230634Y274561D02*
X232614Y276541D01*
X220891Y274561D02*
X230634D01*
X219634Y273304D02*
X220891Y274561D01*
X232614Y276541D02*
X250114D01*
X218982Y272652D02*
X219634Y273304D01*
X196652Y272652D02*
X218982D01*
X196000Y272000D02*
X196652Y272652D01*
X247992Y344662D02*
X250114Y342541D01*
X247672Y344662D02*
X247992D01*
X240817Y351517D02*
X247672Y344662D01*
X240817Y351517D02*
Y353517D01*
X250114Y325541D02*
Y342541D01*
X249614Y325541D02*
X250114D01*
X238614Y314541D02*
X249614Y325541D01*
X238614Y308284D02*
Y314541D01*
X222634Y292304D02*
X238614Y308284D01*
X219634Y292304D02*
X222634D01*
X216634D02*
X219634D01*
X205580Y281250D02*
X216634Y292304D01*
X197250Y281250D02*
X205580D01*
X196000Y280000D02*
X197250Y281250D01*
X166000Y342000D02*
Y364466D01*
X248347Y389186D02*
X256194Y397033D01*
X248694Y407393D02*
X250290Y408988D01*
X247708Y431178D02*
X247919Y431390D01*
Y450924D01*
X248131Y451136D01*
X225105Y421140D02*
X229208Y425242D01*
Y428678D01*
X231708Y431178D01*
X202783Y421140D02*
X225105D01*
X194848Y429074D02*
X202783Y421140D01*
X192598Y429074D02*
X194848D01*
X89169Y296172D02*
X111828D01*
X112000Y296000D01*
X25400Y316600D02*
X37400Y304600D01*
X89649Y304000D02*
X112000D01*
X25400Y342000D02*
X37400Y330000D01*
X38800Y399480D02*
X50800Y411480D01*
X84559Y357876D02*
Y360876D01*
X132750Y343250D02*
X134000Y342000D01*
X126000Y338394D02*
Y342000D01*
X291317Y506243D02*
X294047Y503513D01*
X227260Y514763D02*
X235132Y522635D01*
X163094Y439269D02*
X165598D01*
X289560Y508000D02*
X296255D01*
X50800Y497840D02*
X62800Y509840D01*
X235132Y522635D02*
X334412D01*
X174051Y396848D02*
X193697Y416495D01*
X417450Y201930D02*
Y213536D01*
X429946Y226032D01*
Y229032D01*
Y232032D01*
X431946Y234032D01*
X432094D01*
X448462Y250400D01*
Y252400D01*
X460329Y278190D02*
X464859Y282721D01*
X425879Y246965D02*
Y249400D01*
X410946Y232032D02*
X425879Y246965D01*
X392050Y201930D02*
Y207136D01*
X410946Y226032D01*
Y229032D01*
Y232032D01*
X425879Y249400D02*
X428879Y252400D01*
X422014Y261265D02*
X428879Y254400D01*
Y252400D02*
Y254400D01*
X422014Y261265D02*
Y276566D01*
X415859Y282721D02*
X422014Y276566D01*
X650138Y206909D02*
X652138D01*
X662008Y197039D01*
Y172516D02*
Y197039D01*
Y172516D02*
X662772Y171752D01*
X649958Y207090D02*
X650138Y206909D01*
X649958Y207090D02*
Y222570D01*
X672045Y241469D02*
Y261343D01*
X671995Y241520D02*
X672045Y241469D01*
X650008Y241520D02*
X671995D01*
X610137Y354557D02*
X610569Y354124D01*
X610137Y354557D02*
Y373762D01*
X609704Y374194D02*
X610137Y373762D01*
X658622Y418200D02*
X662000D01*
X640042Y436781D02*
X658622Y418200D01*
X637042Y436781D02*
X640042D01*
X657713Y473287D02*
X662000Y469000D01*
X636906Y473287D02*
X657713D01*
X597017Y428227D02*
X597452D01*
X613005Y443781D01*
X661819D01*
X596170Y441540D02*
X596716D01*
X610179Y455003D01*
X613179D01*
X330200Y21732D02*
X348123Y3809D01*
X330200Y21732D02*
Y25400D01*
X626703Y454461D02*
X626789Y454548D01*
X636645D02*
X636906Y454287D01*
X661819Y443781D02*
X662000Y443600D01*
X626789Y454548D02*
X636645D01*
X672272Y171752D02*
Y187621D01*
X672008Y187885D02*
X672272Y187621D01*
X671932Y161788D02*
X672102Y161958D01*
Y171582D01*
X672272Y171752D01*
X315850Y125730D02*
X316688Y126568D01*
Y155573D01*
X326846Y165731D01*
X290450Y125730D02*
Y154033D01*
X301614Y165197D01*
D71*
X152400Y508000D02*
D03*
D72*
X662000Y469000D02*
D03*
X146000Y446000D02*
D03*
D73*
X662000Y443600D02*
D03*
Y418200D02*
D03*
X146000Y369800D02*
D03*
Y395200D02*
D03*
Y420600D02*
D03*
D74*
X21995Y168000D02*
D03*
Y234000D02*
D03*
D75*
X116200Y88000D02*
D03*
X416560Y508000D02*
D03*
X635000D02*
D03*
X508000Y25400D02*
D03*
X279400D02*
D03*
X620650Y201930D02*
D03*
D76*
X141600Y88000D02*
D03*
X167000D02*
D03*
X187960Y508000D02*
D03*
X213360D02*
D03*
X238760D02*
D03*
X264160D02*
D03*
X289560D02*
D03*
X314960D02*
D03*
X340360D02*
D03*
X365760D02*
D03*
X391160D02*
D03*
X609600D02*
D03*
X584200D02*
D03*
X558800D02*
D03*
X533400D02*
D03*
X508000D02*
D03*
X482600D02*
D03*
X457200D02*
D03*
X635000Y25400D02*
D03*
X609600D02*
D03*
X584200D02*
D03*
X558800D02*
D03*
X533400D02*
D03*
X304800D02*
D03*
X330200D02*
D03*
X355600D02*
D03*
X381000D02*
D03*
X406400D02*
D03*
X431800D02*
D03*
X457200D02*
D03*
X595250Y201930D02*
D03*
X569850D02*
D03*
X544450D02*
D03*
X519050D02*
D03*
X493650D02*
D03*
X468250D02*
D03*
X442850D02*
D03*
X417450D02*
D03*
X392050D02*
D03*
X366650D02*
D03*
X341250D02*
D03*
X315850D02*
D03*
X290450D02*
D03*
X620650Y125730D02*
D03*
X595250D02*
D03*
X569850D02*
D03*
X544450D02*
D03*
X519050D02*
D03*
X493650D02*
D03*
X468250D02*
D03*
X442850D02*
D03*
X417450D02*
D03*
X392050D02*
D03*
X366650D02*
D03*
X341250D02*
D03*
X315850D02*
D03*
X290450D02*
D03*
D77*
X50800Y342000D02*
D03*
X25400Y386080D02*
D03*
Y472440D02*
D03*
D78*
Y342000D02*
D03*
X50800Y316600D02*
D03*
X25400D02*
D03*
X76200Y411480D02*
D03*
X50800D02*
D03*
X25400D02*
D03*
X76200Y386080D02*
D03*
X50800D02*
D03*
X76200Y497840D02*
D03*
X50800D02*
D03*
X25400D02*
D03*
X76200Y472440D02*
D03*
X50800D02*
D03*
D79*
X660400Y76200D02*
D03*
X139700Y25400D02*
D03*
X660400Y355600D02*
D03*
D80*
X21539Y28626D02*
D03*
X21233Y138228D02*
D03*
D81*
X365214Y78374D02*
D03*
X395100Y83600D02*
D03*
X401800Y81800D02*
D03*
X49207Y522907D02*
D03*
X226704Y476767D02*
D03*
X480720Y251421D02*
D03*
X586000Y431178D02*
D03*
X569300Y437400D02*
D03*
X296200Y483500D02*
D03*
X363500Y389000D02*
D03*
X363600Y398200D02*
D03*
X356500D02*
D03*
X357000Y389600D02*
D03*
X483399Y139600D02*
D03*
X475900Y176800D02*
D03*
X307867Y261280D02*
D03*
X616000Y65000D02*
D03*
X593387Y404138D02*
D03*
X457600Y87500D02*
D03*
X397718Y106602D02*
D03*
X394974Y77241D02*
D03*
X327700Y67200D02*
D03*
X307000Y88617D02*
D03*
X105658Y419949D02*
D03*
X102000Y425242D02*
D03*
X192000Y152000D02*
D03*
X176131Y146000D02*
D03*
X457000Y43000D02*
D03*
X46000Y260000D02*
D03*
X63000Y451000D02*
D03*
X109625Y425242D02*
D03*
X109987Y192044D02*
D03*
X639882Y172000D02*
D03*
X449000Y97000D02*
D03*
X239000Y138421D02*
D03*
X677000Y127291D02*
D03*
X74256Y248153D02*
D03*
X163000Y410000D02*
D03*
X216000Y102000D02*
D03*
X360000Y491000D02*
D03*
X438000Y52000D02*
D03*
X319900Y67300D02*
D03*
X213000Y157000D02*
D03*
X118000Y74000D02*
D03*
X639047Y179667D02*
D03*
X150000Y140000D02*
D03*
X9388Y285889D02*
D03*
X272794Y251308D02*
D03*
X177496Y425758D02*
D03*
X195416Y438318D02*
D03*
X126183Y177942D02*
D03*
X76089Y292042D02*
D03*
X194209Y416495D02*
D03*
X99078Y401511D02*
D03*
X447156Y218854D02*
D03*
X395551Y252256D02*
D03*
X104983Y248939D02*
D03*
X134586Y226234D02*
D03*
X149721Y271642D02*
D03*
X176131Y211835D02*
D03*
X199039Y211481D02*
D03*
X237680Y202520D02*
D03*
X220949Y252927D02*
D03*
X183843Y287901D02*
D03*
X219225Y343652D02*
D03*
X272853Y353850D02*
D03*
X75771Y224483D02*
D03*
X75725Y181505D02*
D03*
X294537Y426175D02*
D03*
X224772Y447710D02*
D03*
X292181Y67323D02*
D03*
X90452Y120282D02*
D03*
Y111979D02*
D03*
X97034Y319536D02*
D03*
X101576Y273102D02*
D03*
X114007Y369230D02*
D03*
X282315Y190966D02*
D03*
X252418Y188873D02*
D03*
X476405Y93939D02*
D03*
X197669Y192481D02*
D03*
X177696Y196217D02*
D03*
X152218Y199942D02*
D03*
X58495Y219000D02*
D03*
Y226308D02*
D03*
X162762Y203855D02*
D03*
X110979Y212117D02*
D03*
X597017Y428227D02*
D03*
X596170Y441540D02*
D03*
X608367Y156236D02*
D03*
X626703Y454461D02*
D03*
X326532Y433132D02*
D03*
X326588Y444164D02*
D03*
X671932Y161788D02*
D03*
X326846Y165731D02*
D03*
X302026Y225037D02*
D03*
X301614Y165197D02*
D03*
M02*
