G04*
G04 #@! TF.GenerationSoftware,Altium Limited,Altium Designer,19.0.15 (446)*
G04*
G04 Layer_Color=65535*
%FSLAX44Y44*%
%MOMM*%
G71*
G01*
G75*
%ADD10C,0.2000*%
%ADD11C,0.5000*%
%ADD12C,0.4000*%
%ADD13C,0.2540*%
D10*
X115603Y503276D02*
G03*
X186848Y494754I36697J4724D01*
G01*
X633350Y170180D02*
G03*
X633350Y157480I0J-6350D01*
G01*
X649300Y405500D02*
Y481700D01*
Y405500D02*
X674700D01*
Y481700D01*
X649300D02*
X674700D01*
X370820Y64360D02*
X406380D01*
X370820Y44040D02*
Y64360D01*
Y44040D02*
X406380D01*
Y64360D01*
X133300Y458700D02*
X158700D01*
Y357100D02*
Y458700D01*
X133300Y357100D02*
X158700D01*
X133300D02*
Y458700D01*
X224468Y423558D02*
Y438798D01*
X254948D01*
Y423558D02*
Y438798D01*
X224468Y423558D02*
X254948D01*
X221928D02*
Y438798D01*
X224468D01*
X221928Y423558D02*
X224468D01*
X225107Y381566D02*
Y396806D01*
X255588D01*
Y381566D02*
Y396806D01*
X225107Y381566D02*
X255588D01*
X222568D02*
Y396806D01*
X225107D01*
X222568Y381566D02*
X225107D01*
X222914Y399773D02*
X225454D01*
X222914Y415013D02*
X225454D01*
X222914Y399773D02*
Y415013D01*
X225454Y399773D02*
X255934D01*
Y415013D01*
X225454D02*
X255934D01*
X225454Y399773D02*
Y415013D01*
X-17630Y198000D02*
X-14630Y201000D01*
X-17630Y204000D02*
X-14630Y201000D01*
X-26630D02*
X-14630D01*
Y166000D02*
X-7630D01*
X-14630Y236000D02*
X-7630D01*
X-26630Y256000D02*
X-14630D01*
X-26630Y146000D02*
X-14630D01*
Y256000D01*
X7470Y161900D02*
Y240100D01*
X-4830Y161900D02*
X10370D01*
X-4730Y240200D02*
X10370D01*
X1170Y161600D02*
Y240200D01*
X-4830Y240100D02*
X-4730Y240200D01*
X-4830Y161900D02*
Y240100D01*
X51470Y179400D02*
Y184000D01*
Y218000D02*
Y222600D01*
X33270Y240100D02*
X36970D01*
X33170Y161700D02*
X36970D01*
X103500Y75300D02*
X179700D01*
Y100700D01*
X103500D02*
X179700D01*
X103500Y75300D02*
Y100700D01*
X63500Y303900D02*
Y354700D01*
X12700D02*
X63500D01*
X12700Y303900D02*
Y354700D01*
Y303900D02*
X63500D01*
X12700Y424180D02*
X88900D01*
Y373380D02*
Y424180D01*
X12700Y373380D02*
X88900D01*
X12700D02*
Y424180D01*
Y510540D02*
X88900D01*
Y459740D02*
Y510540D01*
X12700Y459740D02*
X88900D01*
X12700D02*
Y510540D01*
X431800Y495300D02*
Y520700D01*
X172720Y495300D02*
X431800D01*
X172720D02*
Y520700D01*
X431800D01*
X441960D02*
X650240D01*
X441960Y495300D02*
Y520700D01*
Y495300D02*
X650240D01*
Y520700D01*
X492760Y12700D02*
Y38100D01*
X650240D01*
Y12700D02*
Y38100D01*
X492760Y12700D02*
X650240D01*
X264160D02*
X472440D01*
Y38100D01*
X264160D02*
X472440D01*
X264160Y12700D02*
Y38100D01*
X91404Y15151D02*
X100304Y24051D01*
X85304Y15151D02*
X91404D01*
X54504Y15151D02*
X61304D01*
X45804Y23851D02*
X54504Y15151D01*
X45804Y23851D02*
Y23851D01*
X100304Y24051D02*
Y68851D01*
X85804Y68951D02*
X100304Y68851D01*
X45804Y68951D02*
X60704Y68851D01*
X45804Y23851D02*
Y65951D01*
Y68951D01*
X91404Y96126D02*
X100304Y105026D01*
X85304Y96126D02*
X91404D01*
X54504Y96126D02*
X61304D01*
X45804Y104826D02*
X54504Y96126D01*
X45804Y104826D02*
Y104826D01*
X100304Y105026D02*
Y149826D01*
X85804Y149926D02*
X100304Y149826D01*
X45804Y149926D02*
X60704Y149826D01*
X45804Y104826D02*
Y146926D01*
Y149926D01*
X147815Y203041D02*
Y223361D01*
X114795Y203041D02*
X147815D01*
X114795D02*
Y223361D01*
X147815D01*
X126430Y127942D02*
Y165942D01*
X140430D01*
X180430D02*
X194430D01*
Y127942D02*
Y165942D01*
X126430Y127942D02*
X129430D01*
X191530D02*
X194430D01*
X586464Y366574D02*
Y381814D01*
X616944D01*
Y366574D02*
Y381814D01*
X586464Y366574D02*
X616944D01*
X583924D02*
Y381814D01*
X586464D01*
X583924Y366574D02*
X586464D01*
X2616Y263261D02*
Y302261D01*
Y263261D02*
X16616D01*
Y302261D01*
X599036Y250281D02*
X638036D01*
Y236281D02*
Y250281D01*
X599036Y236281D02*
X638036D01*
X187000Y335000D02*
X189000D01*
Y333000D02*
Y335000D01*
X119000D02*
X121000D01*
X119000Y333000D02*
Y335000D01*
Y265000D02*
X121000D01*
X119000D02*
Y267000D01*
X188000Y264000D02*
X190000Y266000D01*
X463042Y88748D02*
Y109068D01*
X427482Y88748D02*
X463042D01*
X427482D02*
Y109068D01*
X463042D01*
X633350Y170180D02*
Y215830D01*
Y111830D02*
Y157480D01*
X277750Y111830D02*
X633350Y111830D01*
X277750Y111830D02*
Y215830D01*
X633350D01*
X74877Y253852D02*
Y271852D01*
X55877D02*
X61877D01*
X42877Y253852D02*
Y271852D01*
X209474Y266294D02*
X229794D01*
X209474D02*
Y299314D01*
X229794D01*
Y266294D02*
Y299314D01*
X436956Y218872D02*
Y239192D01*
X403936Y218872D02*
X436956D01*
X403936D02*
Y239192D01*
X436956D01*
X258157Y419377D02*
X291177D01*
Y439697D01*
X258157D02*
X291177D01*
X258157Y419377D02*
Y439697D01*
X257790Y441640D02*
X290810D01*
Y461960D01*
X257790D02*
X290810D01*
X257790Y441640D02*
Y461960D01*
X160605Y387899D02*
Y420919D01*
Y387899D02*
X180925D01*
Y420919D01*
X160605D02*
X180925D01*
X209067Y174701D02*
Y210261D01*
X188747D02*
X209067D01*
X188747Y174701D02*
Y210261D01*
Y174701D02*
X209067D01*
X209220Y300863D02*
Y336423D01*
Y300863D02*
X229540D01*
Y336423D01*
X209220D02*
X229540D01*
X208966Y212496D02*
Y248056D01*
X188646D02*
X208966D01*
X188646Y212496D02*
Y248056D01*
Y212496D02*
X208966D01*
X210769Y212446D02*
Y248006D01*
Y212446D02*
X231089D01*
Y248006D01*
X210769D02*
X231089D01*
X186360Y212217D02*
Y247777D01*
X166040D02*
X186360D01*
X166040Y212217D02*
Y247777D01*
Y212217D02*
X186360D01*
X78376Y248125D02*
Y281145D01*
Y248125D02*
X98696D01*
Y281145D01*
X78376D02*
X98696D01*
X5719Y55199D02*
Y113499D01*
Y55199D02*
X37719D01*
Y113499D01*
X5719D02*
X37719D01*
X13056Y532105D02*
X48616D01*
X13056Y511785D02*
Y532105D01*
Y511785D02*
X48616D01*
Y532105D01*
X77549Y368036D02*
X110569D01*
X77549Y347716D02*
Y368036D01*
Y347716D02*
X110569D01*
Y368036D01*
X114118Y245274D02*
X149678D01*
X114118Y224954D02*
Y245274D01*
Y224954D02*
X149678D01*
Y245274D01*
X77581Y203345D02*
X110601D01*
Y223665D01*
X77581D02*
X110601D01*
X77581Y203345D02*
Y223665D01*
X77089Y182067D02*
X110109D01*
Y202387D01*
X77089D02*
X110109D01*
X77089Y182067D02*
Y202387D01*
X232537Y363677D02*
X268097D01*
X232537Y343357D02*
Y363677D01*
Y343357D02*
X268097D01*
Y363677D01*
X77205Y180352D02*
X110225D01*
X77205Y160032D02*
Y180352D01*
Y160032D02*
X110225D01*
Y180352D01*
X60218Y175188D02*
X75418D01*
X60218D02*
Y201988D01*
X75418D01*
Y175188D02*
Y201988D01*
X60955Y230259D02*
X76155D01*
Y203459D02*
Y230259D01*
X60955Y203459D02*
X76155D01*
X60955D02*
Y230259D01*
X269114Y259041D02*
Y342041D01*
X231114D02*
X269114D01*
X231114Y259041D02*
Y342041D01*
X254614Y259041D02*
X259114D01*
X269114D01*
X231114D02*
X254614D01*
X623339Y447993D02*
Y481012D01*
X603019D02*
X623339D01*
X603019Y447993D02*
Y481012D01*
Y447993D02*
X623339D01*
X595455Y447798D02*
Y480818D01*
X575135D02*
X595455D01*
X575135Y447798D02*
Y480818D01*
Y447798D02*
X595455D01*
X234112Y258064D02*
X269672D01*
X234112Y237744D02*
Y258064D01*
Y237744D02*
X269672D01*
Y258064D01*
X647066Y446007D02*
Y481567D01*
X626745D02*
X647066D01*
X626745Y446007D02*
Y481567D01*
Y446007D02*
X647066D01*
X647202Y410771D02*
Y443791D01*
X626882D02*
X647202D01*
X626882Y410771D02*
Y443791D01*
Y410771D02*
X647202D01*
X342653Y41594D02*
Y74614D01*
X322333D02*
X342653D01*
X322333Y41594D02*
Y74614D01*
Y41594D02*
X342653D01*
Y60594D02*
Y93614D01*
X322333D02*
X342653D01*
X322333Y60594D02*
Y93614D01*
Y60594D02*
X342653D01*
X197083Y102181D02*
Y137741D01*
Y102181D02*
X217403D01*
Y137741D01*
X197083D02*
X217403D01*
X103595Y104093D02*
Y139653D01*
Y104093D02*
X123915D01*
Y139653D01*
X103595D02*
X123915D01*
X12573Y423901D02*
Y459461D01*
Y423901D02*
X32893D01*
Y459461D01*
X12573D02*
X32893D01*
X448996Y45136D02*
X484556D01*
Y65456D01*
X448996D02*
X484556D01*
X448996Y45136D02*
Y65456D01*
X296514Y42669D02*
Y78229D01*
Y42669D02*
X316834D01*
Y78229D01*
X296514D02*
X316834D01*
X232120Y490460D02*
X267680D01*
X232120Y470140D02*
Y490460D01*
Y470140D02*
X267680D01*
Y490460D01*
X440634Y219285D02*
X476194D01*
Y239605D01*
X440634D02*
X476194D01*
X440634Y219285D02*
Y239605D01*
X448920Y66700D02*
X484480D01*
Y87020D01*
X448920D02*
X484480D01*
X448920Y66700D02*
Y87020D01*
X583620Y341360D02*
X619180D01*
X583620Y321040D02*
Y341360D01*
Y321040D02*
X619180D01*
Y341360D01*
X355346Y109093D02*
X388366D01*
X355346Y88773D02*
Y109093D01*
Y88773D02*
X388366D01*
Y109093D01*
X344240Y41820D02*
Y77380D01*
Y41820D02*
X364560D01*
Y77380D01*
X344240D02*
X364560D01*
X448056Y51714D02*
Y87274D01*
X427736D02*
X448056D01*
X427736Y51714D02*
Y87274D01*
Y51714D02*
X448056D01*
X388690Y89749D02*
X424250D01*
Y110069D01*
X388690D02*
X424250D01*
X388690Y89749D02*
Y110069D01*
X389020Y69040D02*
X424580D01*
Y89360D01*
X389020D02*
X424580D01*
X389020Y69040D02*
Y89360D01*
X602062Y216040D02*
X635083D01*
Y236360D01*
X602062D02*
X635083D01*
X602062Y216040D02*
Y236360D01*
X401599Y242240D02*
X437159D01*
Y262560D01*
X401599D02*
X437159D01*
X401599Y242240D02*
Y262560D01*
X399359Y301721D02*
X482359D01*
X399359Y263721D02*
Y301721D01*
Y263721D02*
X482359D01*
Y287220D02*
Y291721D01*
Y301721D01*
Y263721D02*
Y287220D01*
X222121Y461296D02*
X255141D01*
X222121Y440976D02*
Y461296D01*
Y440976D02*
X255141D01*
Y461296D01*
X440182Y262560D02*
X475742D01*
X440182Y242240D02*
Y262560D01*
Y242240D02*
X475742D01*
Y262560D01*
X584559Y364284D02*
X617579D01*
X584559Y343964D02*
Y364284D01*
Y343964D02*
X617579D01*
Y364284D01*
X221115Y422424D02*
Y457984D01*
X200795D02*
X221115D01*
X200795Y422424D02*
Y457984D01*
Y422424D02*
X221115D01*
X170984Y454830D02*
X188984D01*
Y435830D02*
Y441830D01*
X170984Y422830D02*
X188984D01*
X211398Y174891D02*
Y210451D01*
Y174891D02*
X231718D01*
Y210451D01*
X211398D02*
X231718D01*
X644617Y137575D02*
X680177D01*
X644617Y117255D02*
Y137575D01*
Y117255D02*
X680177D01*
Y137575D01*
X41098Y304235D02*
X76658D01*
X41098Y283915D02*
Y304235D01*
Y283915D02*
X76658D01*
Y304235D01*
X261034Y45880D02*
Y78900D01*
Y45880D02*
X281354D01*
Y78900D01*
X261034D02*
X281354D01*
X682168Y180875D02*
Y213895D01*
X661848D02*
X682168D01*
X661848Y180875D02*
Y213895D01*
Y180875D02*
X682168D01*
X661885Y215459D02*
Y248479D01*
Y215459D02*
X682205D01*
Y248479D01*
X661885D02*
X682205D01*
X238336Y139941D02*
Y172961D01*
Y139941D02*
X258656D01*
Y172961D01*
X238336D02*
X258656D01*
X213914Y87794D02*
X231914D01*
X213914Y27794D02*
X231914D01*
X192914Y36794D02*
Y79794D01*
X252914Y36794D02*
Y77794D01*
X260805Y101335D02*
X293825D01*
X260805Y81015D02*
Y101335D01*
Y81015D02*
X293825D01*
Y101335D01*
X39013Y268271D02*
Y301291D01*
X18693D02*
X39013D01*
X18693Y268271D02*
Y301291D01*
Y268271D02*
X39013D01*
X207328Y172082D02*
X225328D01*
Y153082D02*
Y159082D01*
X207328Y140082D02*
X225328D01*
X670036Y275334D02*
Y293334D01*
X610036Y275334D02*
Y293334D01*
X619036Y314334D02*
X662036D01*
X619036Y254334D02*
X660036D01*
X219039Y102182D02*
Y137742D01*
Y102182D02*
X239359D01*
Y137742D01*
X219039D02*
X239359D01*
X639798Y215560D02*
Y248580D01*
Y215560D02*
X660118D01*
Y248580D01*
X639798D02*
X660118D01*
X678772Y149252D02*
Y167252D01*
X659772Y149252D02*
X665772D01*
X646772D02*
Y167252D01*
X4072Y242981D02*
X37092D01*
Y263301D01*
X4072D02*
X37092D01*
X4072Y242981D02*
Y263301D01*
X660298Y179629D02*
Y215189D01*
X639978D02*
X660298D01*
X639978Y179629D02*
Y215189D01*
Y179629D02*
X660298D01*
X77250Y244949D02*
X112810D01*
X77250Y224629D02*
Y244949D01*
Y224629D02*
X112810D01*
Y244949D01*
X678180Y467360D02*
X681512D01*
X679846D01*
Y477357D01*
X678180Y475691D01*
X125680Y440920D02*
X129012D01*
X127346D01*
Y450917D01*
X125680Y449251D01*
X326400Y401700D02*
Y408364D01*
X329732Y411697D01*
X333064Y408364D01*
Y401700D01*
Y406698D01*
X326400D01*
X336397Y408364D02*
Y401700D01*
Y405032D01*
X338063Y406698D01*
X339729Y408364D01*
X341395D01*
X353058Y411697D02*
Y401700D01*
X348060D01*
X346394Y403366D01*
Y406698D01*
X348060Y408364D01*
X353058D01*
X356390D02*
Y403366D01*
X358056Y401700D01*
X363055D01*
Y408364D01*
X366387Y401700D02*
X369719D01*
X368053D01*
Y408364D01*
X366387D01*
X374718Y401700D02*
Y408364D01*
X379716D01*
X381382Y406698D01*
Y401700D01*
X386381D02*
X389713D01*
X391379Y403366D01*
Y406698D01*
X389713Y408364D01*
X386381D01*
X384715Y406698D01*
Y403366D01*
X386381Y401700D01*
X404708Y411697D02*
Y403366D01*
X406374Y401700D01*
X409706D01*
X411373Y403366D01*
Y411697D01*
X414705Y401700D02*
Y411697D01*
X421369Y401700D01*
Y411697D01*
X429700D02*
X426368D01*
X424702Y410031D01*
Y403366D01*
X426368Y401700D01*
X429700D01*
X431366Y403366D01*
Y410031D01*
X429700Y411697D01*
X451360Y410031D02*
X449694Y411697D01*
X446361D01*
X444695Y410031D01*
Y403366D01*
X446361Y401700D01*
X449694D01*
X451360Y403366D01*
X454692Y401700D02*
X458024D01*
X456358D01*
Y408364D01*
X454692D01*
X463023D02*
Y401700D01*
Y405032D01*
X464689Y406698D01*
X466355Y408364D01*
X468021D01*
X479684D02*
X474686D01*
X473019Y406698D01*
Y403366D01*
X474686Y401700D01*
X479684D01*
X483016Y408364D02*
Y403366D01*
X484682Y401700D01*
X489681D01*
Y408364D01*
X493013Y401700D02*
X496345D01*
X494679D01*
Y408364D01*
X493013D01*
X503010Y410031D02*
Y408364D01*
X501344D01*
X504676D01*
X503010D01*
Y403366D01*
X504676Y401700D01*
X519671Y411697D02*
Y401700D01*
X524669D01*
X526335Y403366D01*
Y405032D01*
X524669Y406698D01*
X519671D01*
X524669D01*
X526335Y408364D01*
Y410031D01*
X524669Y411697D01*
X519671D01*
X531334Y401700D02*
X534666D01*
X536332Y403366D01*
Y406698D01*
X534666Y408364D01*
X531334D01*
X529668Y406698D01*
Y403366D01*
X531334Y401700D01*
X541331Y408364D02*
X544663D01*
X546329Y406698D01*
Y401700D01*
X541331D01*
X539665Y403366D01*
X541331Y405032D01*
X546329D01*
X549661Y408364D02*
Y401700D01*
Y405032D01*
X551328Y406698D01*
X552994Y408364D01*
X554660D01*
X566323Y411697D02*
Y401700D01*
X561324D01*
X559658Y403366D01*
Y406698D01*
X561324Y408364D01*
X566323D01*
X178303Y33500D02*
X186634D01*
X188300Y35166D01*
Y38498D01*
X186634Y40164D01*
X178303D01*
X179969Y50161D02*
X178303Y48495D01*
Y45163D01*
X179969Y43497D01*
X181635D01*
X183302Y45163D01*
Y48495D01*
X184968Y50161D01*
X186634D01*
X188300Y48495D01*
Y45163D01*
X186634Y43497D01*
X178303Y60158D02*
Y53494D01*
X188300D01*
Y60158D01*
X183302Y53494D02*
Y56826D01*
X188300Y63490D02*
X178303D01*
Y68489D01*
X179969Y70155D01*
X183302D01*
X184968Y68489D01*
Y63490D01*
Y66823D02*
X188300Y70155D01*
X38400Y437897D02*
X41732D01*
X40066D01*
Y427900D01*
X38400D01*
X41732D01*
X53395Y436231D02*
X51729Y437897D01*
X48397D01*
X46731Y436231D01*
Y429566D01*
X48397Y427900D01*
X51729D01*
X53395Y429566D01*
X63392Y436231D02*
X61726Y437897D01*
X58394D01*
X56727Y436231D01*
Y434565D01*
X58394Y432898D01*
X61726D01*
X63392Y431232D01*
Y429566D01*
X61726Y427900D01*
X58394D01*
X56727Y429566D01*
X66724Y427900D02*
Y437897D01*
X71723D01*
X73389Y436231D01*
Y432898D01*
X71723Y431232D01*
X66724D01*
X76721Y427900D02*
X80053D01*
X78387D01*
Y437897D01*
X76721Y436231D01*
X55000Y527297D02*
X58332D01*
X56666D01*
Y517300D01*
X55000D01*
X58332D01*
X69995Y525631D02*
X68329Y527297D01*
X64997D01*
X63331Y525631D01*
Y518966D01*
X64997Y517300D01*
X68329D01*
X69995Y518966D01*
X79992Y525631D02*
X78326Y527297D01*
X74994D01*
X73327Y525631D01*
Y523965D01*
X74994Y522298D01*
X78326D01*
X79992Y520632D01*
Y518966D01*
X78326Y517300D01*
X74994D01*
X73327Y518966D01*
X83324Y517300D02*
Y527297D01*
X88323D01*
X89989Y525631D01*
Y522298D01*
X88323Y520632D01*
X83324D01*
X96200Y81100D02*
X99532D01*
X97866D01*
Y91097D01*
X96200Y89431D01*
X67200Y334700D02*
X70532D01*
X68866D01*
Y344697D01*
X67200Y343031D01*
X5300Y382800D02*
X8632D01*
X6966D01*
Y392797D01*
X5300Y391131D01*
X5080Y447040D02*
X8412D01*
X6746D01*
Y457037D01*
X5080Y455371D01*
X411480Y528320D02*
Y524988D01*
Y526654D01*
X421477D01*
X419811Y528320D01*
X629920D02*
Y524988D01*
Y526654D01*
X639917D01*
X638251Y528320D01*
X513080Y5080D02*
Y8412D01*
Y6746D01*
X503083D01*
X504749Y5080D01*
X284480D02*
Y8412D01*
Y6746D01*
X274483D01*
X276149Y5080D01*
X463032Y531697D02*
X460366D01*
X461699D01*
Y525033D01*
X460366Y523700D01*
X459033D01*
X457700Y525033D01*
X465697Y530364D02*
X467030Y531697D01*
X469696D01*
X471029Y530364D01*
Y529032D01*
X469696Y527699D01*
X468363D01*
X469696D01*
X471029Y526366D01*
Y525033D01*
X469696Y523700D01*
X467030D01*
X465697Y525033D01*
X418465Y54897D02*
X415132D01*
X416798D01*
Y46566D01*
X415132Y44900D01*
X413466D01*
X411800Y46566D01*
X421797Y44900D02*
X425129D01*
X423463D01*
Y54897D01*
X421797Y53231D01*
X160099Y69598D02*
X158099D01*
X159099D01*
Y64600D01*
X158099Y63600D01*
X157100D01*
X156100Y64600D01*
X162098Y63600D02*
Y69598D01*
X165097D01*
X166097Y68598D01*
Y66599D01*
X165097Y65599D01*
X162098D01*
X171095Y63600D02*
Y69598D01*
X168096Y66599D01*
X172095D01*
X102865Y464458D02*
X99532D01*
X101198D01*
Y456127D01*
X99532Y454461D01*
X97866D01*
X96200Y456127D01*
X106197Y454461D02*
Y464458D01*
X111195D01*
X112861Y462792D01*
Y459459D01*
X111195Y457793D01*
X106197D01*
X116194Y462792D02*
X117860Y464458D01*
X121192D01*
X122858Y462792D01*
Y461126D01*
X121192Y459459D01*
X119526D01*
X121192D01*
X122858Y457793D01*
Y456127D01*
X121192Y454461D01*
X117860D01*
X116194Y456127D01*
X9365Y368897D02*
X6032D01*
X7698D01*
Y360566D01*
X6032Y358900D01*
X4366D01*
X2700Y360566D01*
X12697Y358900D02*
Y368897D01*
X17695D01*
X19361Y367231D01*
Y363898D01*
X17695Y362232D01*
X12697D01*
X29358Y358900D02*
X22694D01*
X29358Y365564D01*
Y367231D01*
X27692Y368897D01*
X24360D01*
X22694Y367231D01*
X656099Y490998D02*
X654099D01*
X655099D01*
Y486000D01*
X654099Y485000D01*
X653100D01*
X652100Y486000D01*
X658098Y485000D02*
Y490998D01*
X661097D01*
X662097Y489998D01*
Y487999D01*
X661097Y486999D01*
X658098D01*
X664096Y485000D02*
X666096D01*
X665096D01*
Y490998D01*
X664096Y489998D01*
X49665Y164097D02*
X46332D01*
X47998D01*
Y155766D01*
X46332Y154100D01*
X44666D01*
X43000Y155766D01*
X52997Y164097D02*
X59661D01*
Y162431D01*
X52997Y155766D01*
Y154100D01*
X100365Y418997D02*
X97032D01*
X98698D01*
Y410666D01*
X97032Y409000D01*
X95366D01*
X93700Y410666D01*
X110361Y418997D02*
X107029Y417331D01*
X103697Y413998D01*
Y410666D01*
X105363Y409000D01*
X108695D01*
X110361Y410666D01*
Y412332D01*
X108695Y413998D01*
X103697D01*
X100464Y501997D02*
X97132D01*
X98798D01*
Y493666D01*
X97132Y492000D01*
X95466D01*
X93800Y493666D01*
X110461Y501997D02*
X103797D01*
Y496998D01*
X107129Y498665D01*
X108795D01*
X110461Y496998D01*
Y493666D01*
X108795Y492000D01*
X105463D01*
X103797Y493666D01*
X203732Y532097D02*
X201066D01*
X202399D01*
Y525433D01*
X201066Y524100D01*
X199733D01*
X198400Y525433D01*
X210396Y524100D02*
Y532097D01*
X206397Y528099D01*
X211729D01*
X573764Y55897D02*
X570432D01*
X572098D01*
Y47566D01*
X570432Y45900D01*
X568766D01*
X567100Y47566D01*
X583761Y45900D02*
X577097D01*
X583761Y52565D01*
Y54231D01*
X582095Y55897D01*
X578763D01*
X577097Y54231D01*
X261194Y385994D02*
Y395991D01*
X266193D01*
X267859Y394325D01*
Y390993D01*
X266193Y389327D01*
X261194D01*
X264527D02*
X267859Y385994D01*
X261194Y412304D02*
X267859D01*
X264527D01*
Y402307D01*
D11*
X200000Y263000D02*
G03*
X200000Y263000I-1000J0D01*
G01*
D12*
X6616Y304261D02*
X12616D01*
X597036Y240281D02*
Y246281D01*
D13*
X326846Y420600D02*
Y435835D01*
X334464D01*
X337003Y433296D01*
Y428218D01*
X334464Y425678D01*
X326846D01*
X349698Y420600D02*
X344620D01*
X342081Y423139D01*
Y428218D01*
X344620Y430757D01*
X349698D01*
X352238Y428218D01*
Y425678D01*
X342081D01*
X359855Y433296D02*
Y430757D01*
X357316D01*
X362394D01*
X359855D01*
Y423139D01*
X362394Y420600D01*
X377630D02*
X372551D01*
X370012Y423139D01*
Y428218D01*
X372551Y430757D01*
X377630D01*
X380169Y428218D01*
Y425678D01*
X370012D01*
X385247Y430757D02*
Y420600D01*
Y425678D01*
X387786Y428218D01*
X390325Y430757D01*
X392865D01*
X425874Y433296D02*
X423335Y435835D01*
X418256D01*
X415717Y433296D01*
Y423139D01*
X418256Y420600D01*
X423335D01*
X425874Y423139D01*
Y428218D01*
X420796D01*
X433491Y430757D02*
X438570D01*
X441109Y428218D01*
Y420600D01*
X433491D01*
X430952Y423139D01*
X433491Y425678D01*
X441109D01*
X451266Y415522D02*
X453805D01*
X456344Y418061D01*
Y430757D01*
X448727D01*
X446187Y428218D01*
Y423139D01*
X448727Y420600D01*
X456344D01*
X461422D02*
X466501D01*
X463962D01*
Y435835D01*
X461422D01*
X474118Y420600D02*
X479197D01*
X476657D01*
Y430757D01*
X474118D01*
X489353D02*
X494432D01*
X496971Y428218D01*
Y420600D01*
X489353D01*
X486814Y423139D01*
X489353Y425678D01*
X496971D01*
X502049Y420600D02*
Y430757D01*
X509667D01*
X512206Y428218D01*
Y420600D01*
X519823D02*
X524902D01*
X527441Y423139D01*
Y428218D01*
X524902Y430757D01*
X519823D01*
X517284Y428218D01*
Y423139D01*
X519823Y420600D01*
X535059Y438374D02*
Y433296D01*
X532519Y430757D01*
X542676Y420600D02*
X550294D01*
X552833Y423139D01*
X550294Y425678D01*
X545215D01*
X542676Y428218D01*
X545215Y430757D01*
X552833D01*
M02*
