G04*
G04 #@! TF.GenerationSoftware,Altium Limited,Altium Designer,19.0.15 (446)*
G04*
G04 Layer_Color=32896*
%FSLAX44Y44*%
%MOMM*%
G71*
G01*
G75*
G36*
X664100Y31804D02*
X660211Y30415D01*
Y25045D01*
X664100Y23545D01*
Y21620D01*
X651286Y26860D01*
Y28712D01*
X664100Y33600D01*
Y31804D01*
D02*
G37*
G36*
X661045Y20861D02*
X661322Y20805D01*
X661841Y20638D01*
X662285Y20435D01*
X662489Y20324D01*
X662656Y20213D01*
X662822Y20120D01*
X662971Y20009D01*
X663082Y19916D01*
X663174Y19824D01*
X663248Y19750D01*
X663322Y19713D01*
X663341Y19676D01*
X663359Y19657D01*
X663526Y19435D01*
X663674Y19213D01*
X663804Y18972D01*
X663915Y18731D01*
X664081Y18268D01*
X664193Y17805D01*
X664248Y17602D01*
X664267Y17398D01*
X664285Y17231D01*
X664304Y17083D01*
X664322Y16954D01*
Y16787D01*
X664304Y16398D01*
X664248Y16028D01*
X664174Y15676D01*
X664081Y15361D01*
X663952Y15065D01*
X663822Y14787D01*
X663693Y14528D01*
X663544Y14306D01*
X663396Y14102D01*
X663267Y13917D01*
X663119Y13769D01*
X663008Y13639D01*
X662915Y13547D01*
X662841Y13472D01*
X662785Y13435D01*
X662767Y13417D01*
X662526Y13232D01*
X662267Y13084D01*
X662026Y12936D01*
X661767Y12824D01*
X661267Y12639D01*
X660786Y12528D01*
X660582Y12491D01*
X660378Y12454D01*
X660211Y12435D01*
X660063Y12417D01*
X659934Y12399D01*
X659841D01*
X659786D01*
X659767D01*
X659434Y12417D01*
X659119Y12454D01*
X658804Y12510D01*
X658527Y12584D01*
X658267Y12676D01*
X658008Y12769D01*
X657786Y12880D01*
X657582Y12973D01*
X657397Y13084D01*
X657230Y13195D01*
X657101Y13287D01*
X656971Y13380D01*
X656879Y13454D01*
X656823Y13510D01*
X656786Y13547D01*
X656767Y13565D01*
X656564Y13787D01*
X656378Y14009D01*
X656230Y14250D01*
X656101Y14491D01*
X655971Y14732D01*
X655879Y14972D01*
X655749Y15417D01*
X655693Y15620D01*
X655656Y15806D01*
X655638Y15972D01*
X655619Y16120D01*
X655601Y16231D01*
Y16639D01*
X655638Y16861D01*
X655731Y17305D01*
X655860Y17713D01*
X656008Y18083D01*
X656156Y18379D01*
X656230Y18509D01*
X656286Y18620D01*
X656341Y18713D01*
X656378Y18768D01*
X656397Y18805D01*
X656416Y18824D01*
X652953Y18139D01*
Y13010D01*
X651453D01*
Y19379D01*
X658045Y20620D01*
X658249Y19138D01*
X658045Y19009D01*
X657878Y18842D01*
X657712Y18694D01*
X657582Y18546D01*
X657489Y18398D01*
X657397Y18287D01*
X657360Y18213D01*
X657341Y18194D01*
X657230Y17953D01*
X657138Y17713D01*
X657082Y17491D01*
X657027Y17268D01*
X657008Y17083D01*
X656990Y16935D01*
Y16583D01*
X657027Y16361D01*
X657119Y15972D01*
X657249Y15639D01*
X657378Y15343D01*
X657527Y15120D01*
X657656Y14954D01*
X657749Y14861D01*
X657767Y14824D01*
X657786D01*
X658101Y14565D01*
X658434Y14380D01*
X658786Y14250D01*
X659137Y14158D01*
X659434Y14102D01*
X659563Y14083D01*
X659675D01*
X659767Y14065D01*
X659841D01*
X659878D01*
X659897D01*
X660156D01*
X660397Y14102D01*
X660860Y14195D01*
X661248Y14324D01*
X661563Y14454D01*
X661822Y14602D01*
X662026Y14732D01*
X662082Y14787D01*
X662137Y14824D01*
X662156Y14843D01*
X662174Y14861D01*
X662322Y15009D01*
X662452Y15158D01*
X662674Y15491D01*
X662822Y15806D01*
X662915Y16120D01*
X662989Y16380D01*
X663008Y16602D01*
X663026Y16676D01*
Y16787D01*
X663008Y17139D01*
X662933Y17454D01*
X662841Y17731D01*
X662730Y17953D01*
X662619Y18157D01*
X662526Y18305D01*
X662452Y18379D01*
X662433Y18416D01*
X662174Y18639D01*
X661897Y18824D01*
X661582Y18972D01*
X661304Y19083D01*
X661026Y19157D01*
X660823Y19213D01*
X660730Y19231D01*
X660674Y19250D01*
X660637D01*
X660619D01*
X660749Y20898D01*
X661045Y20861D01*
D02*
G37*
G36*
X615900Y58104D02*
X612011Y56715D01*
Y51345D01*
X615900Y49845D01*
Y47920D01*
X603087Y53160D01*
Y55012D01*
X615900Y59900D01*
Y58104D01*
D02*
G37*
G36*
X612826Y42161D02*
X615900D01*
Y40587D01*
X612826D01*
Y38847D01*
X611382D01*
Y40587D01*
X603087D01*
Y41865D01*
X611382Y47735D01*
X612826D01*
Y42161D01*
D02*
G37*
G36*
X591600Y56504D02*
X587711Y55115D01*
Y49745D01*
X591600Y48246D01*
Y46320D01*
X578787Y51560D01*
Y53412D01*
X591600Y58300D01*
Y56504D01*
D02*
G37*
G36*
X588508Y45542D02*
X588786Y45486D01*
X589304Y45320D01*
X589748Y45116D01*
X589934Y45005D01*
X590119Y44894D01*
X590285Y44783D01*
X590415Y44672D01*
X590545Y44579D01*
X590637Y44487D01*
X590711Y44431D01*
X590767Y44376D01*
X590804Y44338D01*
X590822Y44320D01*
X590989Y44098D01*
X591156Y43876D01*
X591285Y43653D01*
X591396Y43413D01*
X591581Y42950D01*
X591693Y42505D01*
X591730Y42302D01*
X591767Y42116D01*
X591785Y41950D01*
X591804Y41802D01*
X591822Y41691D01*
Y41524D01*
X591804Y41172D01*
X591767Y40857D01*
X591711Y40543D01*
X591637Y40246D01*
X591544Y39969D01*
X591452Y39728D01*
X591341Y39487D01*
X591230Y39283D01*
X591137Y39080D01*
X591026Y38913D01*
X590933Y38765D01*
X590841Y38654D01*
X590767Y38561D01*
X590711Y38487D01*
X590674Y38450D01*
X590656Y38432D01*
X590433Y38210D01*
X590193Y38024D01*
X589952Y37858D01*
X589711Y37710D01*
X589489Y37599D01*
X589248Y37487D01*
X588804Y37339D01*
X588600Y37302D01*
X588415Y37265D01*
X588248Y37228D01*
X588100Y37210D01*
X587989Y37191D01*
X587897D01*
X587841D01*
X587823D01*
X587378Y37210D01*
X586971Y37284D01*
X586619Y37395D01*
X586323Y37506D01*
X586082Y37617D01*
X585897Y37728D01*
X585786Y37802D01*
X585749Y37821D01*
X585471Y38080D01*
X585230Y38358D01*
X585045Y38654D01*
X584897Y38950D01*
X584786Y39209D01*
X584712Y39413D01*
X584693Y39487D01*
X584675Y39543D01*
X584656Y39580D01*
Y39598D01*
X584490Y39283D01*
X584323Y39024D01*
X584138Y38802D01*
X583971Y38617D01*
X583823Y38469D01*
X583693Y38358D01*
X583619Y38302D01*
X583582Y38284D01*
X583323Y38135D01*
X583064Y38024D01*
X582805Y37932D01*
X582564Y37876D01*
X582360Y37839D01*
X582212Y37821D01*
X582101D01*
X582064D01*
X581749Y37839D01*
X581434Y37895D01*
X581157Y37969D01*
X580916Y38061D01*
X580712Y38154D01*
X580546Y38228D01*
X580453Y38284D01*
X580416Y38302D01*
X580138Y38487D01*
X579897Y38709D01*
X579694Y38932D01*
X579509Y39154D01*
X579379Y39339D01*
X579268Y39506D01*
X579212Y39617D01*
X579194Y39635D01*
Y39654D01*
X579046Y39987D01*
X578935Y40320D01*
X578842Y40654D01*
X578787Y40950D01*
X578750Y41191D01*
X578731Y41394D01*
Y41857D01*
X578768Y42116D01*
X578861Y42617D01*
X579009Y43042D01*
X579157Y43413D01*
X579249Y43579D01*
X579324Y43709D01*
X579398Y43839D01*
X579472Y43931D01*
X579527Y44005D01*
X579564Y44061D01*
X579583Y44098D01*
X579601Y44116D01*
X579953Y44468D01*
X580342Y44746D01*
X580749Y44968D01*
X581157Y45153D01*
X581508Y45264D01*
X581657Y45320D01*
X581786Y45357D01*
X581897Y45375D01*
X581971Y45394D01*
X582027Y45413D01*
X582045D01*
X582323Y43839D01*
X581916Y43765D01*
X581564Y43653D01*
X581268Y43524D01*
X581027Y43394D01*
X580842Y43264D01*
X580712Y43153D01*
X580620Y43079D01*
X580601Y43061D01*
X580416Y42820D01*
X580268Y42561D01*
X580175Y42320D01*
X580101Y42080D01*
X580064Y41857D01*
X580027Y41691D01*
Y41543D01*
X580046Y41209D01*
X580120Y40913D01*
X580212Y40654D01*
X580305Y40431D01*
X580416Y40265D01*
X580508Y40135D01*
X580583Y40043D01*
X580601Y40024D01*
X580823Y39820D01*
X581064Y39672D01*
X581305Y39580D01*
X581527Y39506D01*
X581731Y39469D01*
X581879Y39432D01*
X581990D01*
X582008D01*
X582027D01*
X582231D01*
X582416Y39469D01*
X582730Y39561D01*
X583008Y39691D01*
X583249Y39839D01*
X583416Y39987D01*
X583545Y40117D01*
X583619Y40209D01*
X583638Y40228D01*
Y40246D01*
X583805Y40561D01*
X583934Y40857D01*
X584027Y41172D01*
X584082Y41450D01*
X584119Y41691D01*
X584156Y41894D01*
Y42135D01*
X584138Y42209D01*
Y42302D01*
X585527Y42487D01*
X585471Y42246D01*
X585434Y42024D01*
X585397Y41839D01*
X585378Y41672D01*
X585360Y41543D01*
Y41376D01*
X585397Y40987D01*
X585471Y40635D01*
X585582Y40320D01*
X585712Y40061D01*
X585841Y39857D01*
X585952Y39709D01*
X586026Y39617D01*
X586063Y39580D01*
X586341Y39339D01*
X586637Y39154D01*
X586934Y39024D01*
X587230Y38950D01*
X587471Y38895D01*
X587674Y38876D01*
X587748Y38858D01*
X587804D01*
X587841D01*
X587860D01*
X588267Y38895D01*
X588637Y38987D01*
X588952Y39098D01*
X589230Y39246D01*
X589452Y39395D01*
X589619Y39506D01*
X589730Y39598D01*
X589767Y39635D01*
X590026Y39931D01*
X590211Y40246D01*
X590341Y40561D01*
X590433Y40857D01*
X590489Y41117D01*
X590508Y41320D01*
X590526Y41394D01*
Y41505D01*
X590508Y41839D01*
X590433Y42154D01*
X590341Y42431D01*
X590230Y42653D01*
X590137Y42839D01*
X590045Y42987D01*
X589971Y43061D01*
X589952Y43098D01*
X589693Y43320D01*
X589397Y43505D01*
X589082Y43672D01*
X588748Y43801D01*
X588471Y43894D01*
X588341Y43931D01*
X588230Y43950D01*
X588137Y43968D01*
X588063Y43987D01*
X588026Y44005D01*
X588008D01*
X588211Y45579D01*
X588508Y45542D01*
D02*
G37*
G36*
X564500Y57404D02*
X560611Y56015D01*
Y50645D01*
X564500Y49145D01*
Y47220D01*
X551687Y52460D01*
Y54312D01*
X564500Y59200D01*
Y57404D01*
D02*
G37*
G36*
Y38221D02*
X562982D01*
Y44535D01*
X562667Y44313D01*
X562537Y44202D01*
X562408Y44109D01*
X562296Y44016D01*
X562222Y43942D01*
X562167Y43887D01*
X562148Y43868D01*
X562056Y43776D01*
X561963Y43665D01*
X561722Y43405D01*
X561445Y43109D01*
X561167Y42794D01*
X560926Y42498D01*
X560815Y42368D01*
X560704Y42257D01*
X560630Y42165D01*
X560574Y42091D01*
X560537Y42054D01*
X560519Y42035D01*
X560260Y41739D01*
X560019Y41443D01*
X559778Y41183D01*
X559575Y40943D01*
X559371Y40720D01*
X559186Y40535D01*
X559019Y40350D01*
X558871Y40202D01*
X558723Y40054D01*
X558612Y39943D01*
X558519Y39850D01*
X558427Y39758D01*
X558315Y39665D01*
X558278Y39628D01*
X557964Y39369D01*
X557686Y39146D01*
X557408Y38961D01*
X557186Y38813D01*
X556982Y38702D01*
X556834Y38628D01*
X556741Y38591D01*
X556704Y38572D01*
X556427Y38461D01*
X556149Y38387D01*
X555890Y38313D01*
X555668Y38276D01*
X555464Y38258D01*
X555316Y38239D01*
X555223D01*
X555186D01*
X554908Y38258D01*
X554649Y38295D01*
X554390Y38332D01*
X554168Y38406D01*
X553723Y38591D01*
X553372Y38776D01*
X553205Y38887D01*
X553075Y38980D01*
X552946Y39072D01*
X552853Y39165D01*
X552779Y39239D01*
X552705Y39276D01*
X552686Y39313D01*
X552668Y39332D01*
X552483Y39535D01*
X552316Y39758D01*
X552186Y39998D01*
X552075Y40239D01*
X551890Y40720D01*
X551761Y41202D01*
X551724Y41406D01*
X551687Y41609D01*
X551668Y41794D01*
X551650Y41943D01*
X551631Y42072D01*
Y42257D01*
X551650Y42591D01*
X551668Y42905D01*
X551724Y43202D01*
X551779Y43479D01*
X551853Y43739D01*
X551927Y43979D01*
X552020Y44202D01*
X552112Y44405D01*
X552205Y44590D01*
X552298Y44738D01*
X552372Y44868D01*
X552446Y44979D01*
X552501Y45072D01*
X552557Y45127D01*
X552575Y45164D01*
X552594Y45183D01*
X552779Y45368D01*
X552983Y45535D01*
X553205Y45701D01*
X553427Y45831D01*
X553871Y46053D01*
X554316Y46201D01*
X554520Y46257D01*
X554723Y46312D01*
X554890Y46350D01*
X555038Y46386D01*
X555168Y46405D01*
X555260D01*
X555316Y46424D01*
X555334D01*
X555501Y44813D01*
X555075Y44776D01*
X554705Y44701D01*
X554371Y44590D01*
X554112Y44461D01*
X553890Y44350D01*
X553742Y44239D01*
X553649Y44165D01*
X553612Y44127D01*
X553390Y43850D01*
X553223Y43554D01*
X553094Y43239D01*
X553020Y42961D01*
X552964Y42702D01*
X552946Y42480D01*
X552927Y42406D01*
Y42294D01*
X552946Y41905D01*
X553020Y41554D01*
X553131Y41257D01*
X553242Y40998D01*
X553372Y40795D01*
X553464Y40665D01*
X553538Y40572D01*
X553575Y40535D01*
X553834Y40313D01*
X554094Y40146D01*
X554353Y40017D01*
X554612Y39943D01*
X554816Y39887D01*
X555001Y39869D01*
X555112Y39850D01*
X555131D01*
X555149D01*
X555482Y39887D01*
X555834Y39961D01*
X556149Y40091D01*
X556445Y40220D01*
X556686Y40369D01*
X556890Y40498D01*
X556964Y40535D01*
X557019Y40572D01*
X557038Y40609D01*
X557056D01*
X557260Y40757D01*
X557464Y40943D01*
X557686Y41146D01*
X557908Y41368D01*
X558353Y41831D01*
X558797Y42294D01*
X559001Y42535D01*
X559186Y42739D01*
X559352Y42942D01*
X559501Y43109D01*
X559612Y43239D01*
X559704Y43350D01*
X559760Y43424D01*
X559778Y43442D01*
X560167Y43905D01*
X560537Y44331D01*
X560871Y44683D01*
X561148Y44961D01*
X561389Y45202D01*
X561556Y45368D01*
X561667Y45461D01*
X561685Y45498D01*
X561704D01*
X562019Y45757D01*
X562315Y45961D01*
X562611Y46146D01*
X562870Y46294D01*
X563093Y46405D01*
X563259Y46479D01*
X563371Y46516D01*
X563389Y46535D01*
X563408D01*
X563611Y46609D01*
X563796Y46646D01*
X563982Y46683D01*
X564148Y46701D01*
X564296Y46720D01*
X564407D01*
X564482D01*
X564500D01*
Y38221D01*
D02*
G37*
G36*
X539700Y57804D02*
X535812Y56415D01*
Y51045D01*
X539700Y49545D01*
Y47620D01*
X526886Y52860D01*
Y54712D01*
X539700Y59600D01*
Y57804D01*
D02*
G37*
G36*
X531460Y45416D02*
X531330Y45139D01*
X531201Y44861D01*
X531071Y44602D01*
X530960Y44379D01*
X530868Y44194D01*
X530793Y44083D01*
X530775Y44065D01*
Y44046D01*
X530571Y43713D01*
X530368Y43417D01*
X530182Y43157D01*
X530016Y42954D01*
X529886Y42768D01*
X529775Y42657D01*
X529701Y42565D01*
X529683Y42546D01*
X539700D01*
Y40972D01*
X526831D01*
Y41991D01*
X527146Y42176D01*
X527442Y42380D01*
X527738Y42620D01*
X527998Y42842D01*
X528220Y43065D01*
X528405Y43231D01*
X528460Y43305D01*
X528516Y43361D01*
X528535Y43380D01*
X528553Y43398D01*
X528868Y43787D01*
X529164Y44176D01*
X529423Y44546D01*
X529627Y44916D01*
X529812Y45231D01*
X529886Y45361D01*
X529942Y45472D01*
X529997Y45564D01*
X530016Y45638D01*
X530053Y45676D01*
Y45694D01*
X531571D01*
X531460Y45416D01*
D02*
G37*
G36*
X514200Y57504D02*
X510312Y56115D01*
Y50745D01*
X514200Y49246D01*
Y47320D01*
X501386Y52560D01*
Y54412D01*
X514200Y59300D01*
Y57504D01*
D02*
G37*
G36*
X508534Y46579D02*
X509145Y46542D01*
X509701Y46487D01*
X510219Y46394D01*
X510700Y46301D01*
X511126Y46190D01*
X511515Y46079D01*
X511848Y45968D01*
X512145Y45857D01*
X512404Y45727D01*
X512626Y45635D01*
X512793Y45542D01*
X512941Y45450D01*
X513033Y45394D01*
X513089Y45357D01*
X513107Y45339D01*
X513330Y45135D01*
X513533Y44913D01*
X513719Y44672D01*
X513867Y44431D01*
X513996Y44191D01*
X514107Y43950D01*
X514182Y43709D01*
X514255Y43487D01*
X514311Y43265D01*
X514348Y43061D01*
X514385Y42876D01*
X514404Y42728D01*
X514422Y42598D01*
Y42413D01*
X514385Y41913D01*
X514311Y41450D01*
X514182Y41061D01*
X514052Y40728D01*
X513922Y40450D01*
X513848Y40357D01*
X513793Y40265D01*
X513756Y40191D01*
X513719Y40135D01*
X513681Y40117D01*
Y40098D01*
X513367Y39765D01*
X513033Y39487D01*
X512663Y39246D01*
X512330Y39061D01*
X512015Y38913D01*
X511885Y38839D01*
X511756Y38802D01*
X511663Y38765D01*
X511589Y38728D01*
X511552Y38709D01*
X511534D01*
X511256Y38617D01*
X510978Y38543D01*
X510386Y38432D01*
X509775Y38339D01*
X509182Y38284D01*
X508923Y38265D01*
X508682Y38247D01*
X508460D01*
X508256Y38228D01*
X508108D01*
X507978D01*
X507904D01*
X507886D01*
X507534D01*
X507201Y38247D01*
X506904D01*
X506608Y38265D01*
X506349Y38302D01*
X506090Y38321D01*
X505868Y38339D01*
X505664Y38376D01*
X505479Y38395D01*
X505312Y38432D01*
X505182Y38450D01*
X505071Y38469D01*
X504979Y38487D01*
X504923Y38506D01*
X504886Y38524D01*
X504868D01*
X504460Y38635D01*
X504090Y38765D01*
X503775Y38913D01*
X503497Y39024D01*
X503257Y39154D01*
X503090Y39228D01*
X502997Y39302D01*
X502960Y39321D01*
X502683Y39524D01*
X502442Y39728D01*
X502238Y39950D01*
X502053Y40154D01*
X501923Y40339D01*
X501831Y40487D01*
X501775Y40580D01*
X501757Y40598D01*
Y40617D01*
X501609Y40913D01*
X501516Y41228D01*
X501442Y41524D01*
X501386Y41802D01*
X501349Y42042D01*
X501331Y42246D01*
Y42413D01*
X501368Y42913D01*
X501442Y43376D01*
X501572Y43765D01*
X501701Y44098D01*
X501849Y44376D01*
X501905Y44487D01*
X501979Y44579D01*
X502016Y44653D01*
X502053Y44709D01*
X502090Y44727D01*
Y44746D01*
X502386Y45079D01*
X502738Y45357D01*
X503090Y45598D01*
X503423Y45783D01*
X503738Y45931D01*
X503868Y46005D01*
X503997Y46042D01*
X504090Y46079D01*
X504164Y46116D01*
X504201Y46135D01*
X504220D01*
X504497Y46209D01*
X504775Y46283D01*
X505386Y46394D01*
X505997Y46487D01*
X506571Y46542D01*
X506849Y46561D01*
X507090Y46579D01*
X507312D01*
X507515Y46598D01*
X507664D01*
X507793D01*
X507867D01*
X507886D01*
X508534Y46579D01*
D02*
G37*
G36*
X463700Y60370D02*
X453646D01*
X463700Y53667D01*
Y51908D01*
X450886D01*
Y53538D01*
X460960D01*
X450886Y60259D01*
Y62000D01*
X463700D01*
Y60370D01*
D02*
G37*
G36*
X457867Y49520D02*
X458515Y49446D01*
X459089Y49353D01*
X459367Y49279D01*
X459608Y49223D01*
X459830Y49168D01*
X460034Y49094D01*
X460219Y49038D01*
X460367Y49001D01*
X460478Y48946D01*
X460571Y48927D01*
X460626Y48890D01*
X460645D01*
X461200Y48612D01*
X461700Y48298D01*
X462126Y47964D01*
X462293Y47798D01*
X462459Y47650D01*
X462607Y47502D01*
X462737Y47353D01*
X462848Y47224D01*
X462922Y47113D01*
X462996Y47039D01*
X463052Y46965D01*
X463070Y46927D01*
X463089Y46909D01*
X463237Y46650D01*
X463367Y46391D01*
X463570Y45835D01*
X463718Y45279D01*
X463811Y44742D01*
X463848Y44483D01*
X463885Y44261D01*
X463904Y44057D01*
Y43891D01*
X463922Y43743D01*
Y43539D01*
X463904Y43169D01*
X463867Y42817D01*
X463830Y42484D01*
X463756Y42169D01*
X463663Y41873D01*
X463570Y41595D01*
X463478Y41336D01*
X463367Y41095D01*
X463274Y40891D01*
X463181Y40687D01*
X463089Y40539D01*
X462996Y40391D01*
X462922Y40299D01*
X462885Y40206D01*
X462848Y40169D01*
X462830Y40150D01*
X462607Y39891D01*
X462385Y39669D01*
X462126Y39465D01*
X461867Y39262D01*
X461348Y38928D01*
X460830Y38669D01*
X460589Y38558D01*
X460367Y38465D01*
X460163Y38391D01*
X459997Y38336D01*
X459849Y38280D01*
X459738Y38243D01*
X459663Y38225D01*
X459645D01*
X459219Y39928D01*
X459515Y40002D01*
X459793Y40095D01*
X460052Y40187D01*
X460293Y40280D01*
X460515Y40391D01*
X460700Y40502D01*
X460886Y40632D01*
X461052Y40743D01*
X461200Y40835D01*
X461311Y40947D01*
X461423Y41039D01*
X461515Y41113D01*
X461571Y41187D01*
X461626Y41243D01*
X461645Y41261D01*
X461663Y41280D01*
X461811Y41465D01*
X461922Y41669D01*
X462126Y42076D01*
X462274Y42465D01*
X462367Y42854D01*
X462441Y43187D01*
X462459Y43317D01*
Y43446D01*
X462478Y43558D01*
Y43687D01*
X462459Y44113D01*
X462385Y44520D01*
X462293Y44891D01*
X462182Y45224D01*
X462071Y45483D01*
X462015Y45594D01*
X461978Y45687D01*
X461941Y45761D01*
X461904Y45816D01*
X461885Y45854D01*
Y45872D01*
X461626Y46224D01*
X461348Y46520D01*
X461034Y46779D01*
X460737Y46983D01*
X460478Y47150D01*
X460256Y47261D01*
X460163Y47298D01*
X460108Y47335D01*
X460071Y47353D01*
X460052D01*
X459571Y47502D01*
X459089Y47613D01*
X458608Y47705D01*
X458163Y47761D01*
X457960Y47779D01*
X457775Y47798D01*
X457608D01*
X457478Y47816D01*
X457367D01*
X457275D01*
X457219D01*
X457201D01*
X456719Y47798D01*
X456275Y47761D01*
X455868Y47687D01*
X455497Y47613D01*
X455182Y47557D01*
X455053Y47520D01*
X454942Y47483D01*
X454849Y47464D01*
X454794Y47446D01*
X454757Y47427D01*
X454738D01*
X454312Y47242D01*
X453923Y47039D01*
X453609Y46816D01*
X453331Y46576D01*
X453108Y46372D01*
X452960Y46205D01*
X452868Y46076D01*
X452831Y46057D01*
Y46039D01*
X452590Y45650D01*
X452405Y45224D01*
X452275Y44817D01*
X452201Y44428D01*
X452146Y44076D01*
X452127Y43928D01*
Y43798D01*
X452109Y43706D01*
Y43558D01*
X452127Y43095D01*
X452201Y42669D01*
X452312Y42317D01*
X452423Y42002D01*
X452553Y41761D01*
X452646Y41576D01*
X452720Y41465D01*
X452757Y41428D01*
X453035Y41132D01*
X453349Y40854D01*
X453683Y40632D01*
X454016Y40447D01*
X454312Y40299D01*
X454460Y40243D01*
X454571Y40206D01*
X454664Y40169D01*
X454738Y40132D01*
X454775Y40113D01*
X454794D01*
X454405Y38447D01*
X454071Y38558D01*
X453775Y38669D01*
X453497Y38817D01*
X453220Y38947D01*
X452979Y39095D01*
X452757Y39262D01*
X452534Y39410D01*
X452349Y39558D01*
X452201Y39706D01*
X452053Y39836D01*
X451923Y39965D01*
X451831Y40058D01*
X451738Y40150D01*
X451683Y40224D01*
X451664Y40262D01*
X451646Y40280D01*
X451479Y40539D01*
X451312Y40799D01*
X451183Y41058D01*
X451072Y41336D01*
X450905Y41891D01*
X450794Y42391D01*
X450738Y42632D01*
X450720Y42835D01*
X450701Y43039D01*
X450683Y43206D01*
X450664Y43335D01*
Y43520D01*
X450701Y44131D01*
X450794Y44724D01*
X450905Y45243D01*
X450979Y45483D01*
X451053Y45705D01*
X451127Y45909D01*
X451201Y46094D01*
X451257Y46242D01*
X451312Y46391D01*
X451368Y46483D01*
X451405Y46557D01*
X451423Y46613D01*
X451442Y46631D01*
X451757Y47131D01*
X452127Y47557D01*
X452497Y47927D01*
X452868Y48242D01*
X453201Y48483D01*
X453349Y48576D01*
X453479Y48650D01*
X453571Y48724D01*
X453646Y48761D01*
X453701Y48779D01*
X453720Y48798D01*
X454294Y49057D01*
X454886Y49242D01*
X455479Y49372D01*
X456016Y49464D01*
X456256Y49501D01*
X456497Y49520D01*
X456682Y49538D01*
X456867D01*
X456997Y49557D01*
X457108D01*
X457182D01*
X457201D01*
X457867Y49520D01*
D02*
G37*
G36*
X432852Y75263D02*
X433501Y75170D01*
X433797Y75115D01*
X434075Y75059D01*
X434352Y74985D01*
X434593Y74911D01*
X434815Y74837D01*
X435000Y74763D01*
X435186Y74707D01*
X435315Y74652D01*
X435445Y74596D01*
X435519Y74559D01*
X435574Y74522D01*
X435593D01*
X436130Y74189D01*
X436593Y73819D01*
X437000Y73430D01*
X437333Y73060D01*
X437593Y72708D01*
X437685Y72578D01*
X437778Y72448D01*
X437833Y72337D01*
X437889Y72263D01*
X437907Y72208D01*
X437926Y72189D01*
X438074Y71893D01*
X438185Y71597D01*
X438389Y71004D01*
X438518Y70430D01*
X438630Y69893D01*
X438648Y69652D01*
X438685Y69430D01*
X438704Y69227D01*
Y69060D01*
X438722Y68930D01*
Y68745D01*
X438704Y68227D01*
X438648Y67727D01*
X438556Y67264D01*
X438463Y66856D01*
X438426Y66690D01*
X438389Y66523D01*
X438333Y66375D01*
X438296Y66245D01*
X438259Y66153D01*
X438241Y66079D01*
X438222Y66042D01*
Y66023D01*
X438019Y65523D01*
X437778Y65060D01*
X437519Y64616D01*
X437278Y64227D01*
X437167Y64060D01*
X437056Y63894D01*
X436963Y63764D01*
X436889Y63653D01*
X436815Y63561D01*
X436759Y63486D01*
X436741Y63449D01*
X436722Y63431D01*
X431964D01*
Y68875D01*
X433482D01*
Y65097D01*
X435889D01*
X436074Y65320D01*
X436241Y65579D01*
X436389Y65856D01*
X436519Y66116D01*
X436630Y66338D01*
X436722Y66542D01*
X436759Y66616D01*
X436778Y66653D01*
X436796Y66690D01*
Y66708D01*
X436926Y67097D01*
X437037Y67486D01*
X437111Y67838D01*
X437148Y68171D01*
X437185Y68449D01*
Y68560D01*
X437204Y68671D01*
Y68856D01*
X437185Y69319D01*
X437111Y69763D01*
X437019Y70171D01*
X436926Y70541D01*
X436815Y70837D01*
X436778Y70967D01*
X436741Y71060D01*
X436704Y71152D01*
X436667Y71208D01*
X436648Y71245D01*
Y71263D01*
X436408Y71652D01*
X436148Y72004D01*
X435871Y72300D01*
X435593Y72541D01*
X435334Y72745D01*
X435130Y72874D01*
X435056Y72930D01*
X435000Y72948D01*
X434963Y72985D01*
X434945D01*
X434482Y73171D01*
X434001Y73319D01*
X433519Y73411D01*
X433056Y73485D01*
X432852Y73504D01*
X432667Y73522D01*
X432482Y73541D01*
X432334D01*
X432223Y73559D01*
X432130D01*
X432075D01*
X432056D01*
X431538Y73541D01*
X431075Y73485D01*
X430630Y73411D01*
X430242Y73319D01*
X430075Y73282D01*
X429927Y73226D01*
X429797Y73189D01*
X429686Y73152D01*
X429594Y73115D01*
X429538Y73096D01*
X429501Y73078D01*
X429482D01*
X429223Y72948D01*
X428983Y72819D01*
X428760Y72689D01*
X428575Y72559D01*
X428427Y72448D01*
X428297Y72356D01*
X428223Y72282D01*
X428205Y72263D01*
X428001Y72060D01*
X427816Y71837D01*
X427668Y71597D01*
X427520Y71375D01*
X427427Y71189D01*
X427335Y71041D01*
X427298Y70930D01*
X427279Y70893D01*
X427149Y70560D01*
X427057Y70226D01*
X427001Y69875D01*
X426946Y69560D01*
X426927Y69282D01*
Y69171D01*
X426909Y69078D01*
Y68875D01*
X426927Y68523D01*
X426964Y68190D01*
X427020Y67893D01*
X427075Y67634D01*
X427149Y67412D01*
X427205Y67245D01*
X427242Y67153D01*
X427260Y67116D01*
X427390Y66838D01*
X427538Y66597D01*
X427686Y66375D01*
X427835Y66208D01*
X427964Y66079D01*
X428057Y65968D01*
X428131Y65912D01*
X428149Y65894D01*
X428371Y65727D01*
X428631Y65597D01*
X428871Y65468D01*
X429131Y65357D01*
X429353Y65283D01*
X429520Y65227D01*
X429594Y65209D01*
X429649Y65190D01*
X429668Y65171D01*
X429686D01*
X429279Y63635D01*
X428816Y63764D01*
X428409Y63931D01*
X428038Y64097D01*
X427742Y64246D01*
X427501Y64394D01*
X427335Y64505D01*
X427223Y64579D01*
X427186Y64616D01*
X426890Y64875D01*
X426649Y65153D01*
X426427Y65449D01*
X426242Y65727D01*
X426112Y65986D01*
X426001Y66190D01*
X425964Y66264D01*
X425946Y66319D01*
X425927Y66357D01*
Y66375D01*
X425779Y66801D01*
X425668Y67245D01*
X425575Y67653D01*
X425520Y68042D01*
X425483Y68393D01*
Y68541D01*
X425464Y68653D01*
Y69245D01*
X425501Y69578D01*
X425594Y70226D01*
X425649Y70523D01*
X425724Y70800D01*
X425779Y71060D01*
X425853Y71300D01*
X425927Y71523D01*
X426001Y71708D01*
X426075Y71874D01*
X426131Y72023D01*
X426186Y72134D01*
X426223Y72208D01*
X426242Y72263D01*
X426260Y72282D01*
X426427Y72541D01*
X426594Y72800D01*
X426983Y73245D01*
X427371Y73633D01*
X427779Y73948D01*
X428131Y74208D01*
X428279Y74300D01*
X428427Y74374D01*
X428538Y74448D01*
X428612Y74485D01*
X428668Y74504D01*
X428686Y74522D01*
X429297Y74781D01*
X429908Y74967D01*
X430501Y75115D01*
X430779Y75152D01*
X431038Y75207D01*
X431278Y75226D01*
X431482Y75263D01*
X431686Y75282D01*
X431853D01*
X431982Y75300D01*
X432075D01*
X432149D01*
X432167D01*
X432852Y75263D01*
D02*
G37*
G36*
X438500Y59320D02*
X428446D01*
X438500Y52617D01*
Y50858D01*
X425686D01*
Y52488D01*
X435760D01*
X425686Y59209D01*
Y60950D01*
X438500D01*
Y59320D01*
D02*
G37*
G36*
Y43396D02*
X438481Y42970D01*
X438463Y42581D01*
X438426Y42229D01*
X438389Y41933D01*
X438352Y41674D01*
X438333Y41489D01*
X438315Y41433D01*
X438296Y41378D01*
Y41341D01*
X438204Y41007D01*
X438093Y40711D01*
X438000Y40452D01*
X437889Y40230D01*
X437796Y40044D01*
X437722Y39915D01*
X437667Y39841D01*
X437648Y39804D01*
X437482Y39563D01*
X437278Y39359D01*
X437093Y39156D01*
X436908Y38989D01*
X436741Y38841D01*
X436611Y38730D01*
X436519Y38656D01*
X436482Y38637D01*
X436185Y38452D01*
X435871Y38267D01*
X435574Y38119D01*
X435278Y38008D01*
X435019Y37896D01*
X434815Y37822D01*
X434741Y37804D01*
X434686Y37785D01*
X434649Y37767D01*
X434630D01*
X434186Y37656D01*
X433741Y37563D01*
X433315Y37508D01*
X432908Y37452D01*
X432556Y37434D01*
X432408D01*
X432278Y37415D01*
X432186D01*
X432093D01*
X432056D01*
X432038D01*
X431408Y37434D01*
X430834Y37489D01*
X430316Y37582D01*
X430075Y37619D01*
X429871Y37674D01*
X429668Y37730D01*
X429501Y37767D01*
X429353Y37804D01*
X429223Y37859D01*
X429112Y37878D01*
X429038Y37915D01*
X429001Y37933D01*
X428983D01*
X428501Y38137D01*
X428075Y38378D01*
X427705Y38637D01*
X427390Y38878D01*
X427131Y39100D01*
X426946Y39285D01*
X426890Y39359D01*
X426835Y39415D01*
X426816Y39433D01*
X426797Y39452D01*
X426557Y39748D01*
X426372Y40063D01*
X426205Y40378D01*
X426075Y40674D01*
X425983Y40933D01*
X425927Y41137D01*
X425890Y41211D01*
Y41266D01*
X425872Y41304D01*
Y41322D01*
X425816Y41637D01*
X425761Y42007D01*
X425724Y42378D01*
X425705Y42748D01*
X425686Y43081D01*
Y48007D01*
X438500D01*
Y43396D01*
D02*
G37*
G36*
X408452Y74663D02*
X409100Y74570D01*
X409397Y74515D01*
X409674Y74459D01*
X409952Y74385D01*
X410193Y74311D01*
X410415Y74237D01*
X410600Y74163D01*
X410785Y74107D01*
X410915Y74052D01*
X411045Y73996D01*
X411119Y73959D01*
X411174Y73922D01*
X411193D01*
X411730Y73589D01*
X412193Y73219D01*
X412600Y72830D01*
X412934Y72460D01*
X413193Y72108D01*
X413285Y71978D01*
X413378Y71848D01*
X413433Y71737D01*
X413489Y71663D01*
X413507Y71608D01*
X413526Y71589D01*
X413674Y71293D01*
X413785Y70997D01*
X413989Y70404D01*
X414118Y69830D01*
X414230Y69293D01*
X414248Y69052D01*
X414285Y68830D01*
X414304Y68627D01*
Y68460D01*
X414322Y68330D01*
Y68145D01*
X414304Y67627D01*
X414248Y67127D01*
X414156Y66664D01*
X414063Y66256D01*
X414026Y66090D01*
X413989Y65923D01*
X413933Y65775D01*
X413896Y65645D01*
X413859Y65553D01*
X413841Y65479D01*
X413822Y65442D01*
Y65423D01*
X413619Y64923D01*
X413378Y64460D01*
X413119Y64016D01*
X412878Y63627D01*
X412767Y63460D01*
X412656Y63294D01*
X412563Y63164D01*
X412489Y63053D01*
X412415Y62961D01*
X412359Y62886D01*
X412341Y62849D01*
X412322Y62831D01*
X407564D01*
Y68275D01*
X409082D01*
Y64497D01*
X411489D01*
X411674Y64720D01*
X411841Y64979D01*
X411989Y65257D01*
X412119Y65516D01*
X412230Y65738D01*
X412322Y65942D01*
X412359Y66016D01*
X412378Y66053D01*
X412397Y66090D01*
Y66108D01*
X412526Y66497D01*
X412637Y66886D01*
X412711Y67238D01*
X412748Y67571D01*
X412785Y67849D01*
Y67960D01*
X412804Y68071D01*
Y68256D01*
X412785Y68719D01*
X412711Y69163D01*
X412619Y69571D01*
X412526Y69941D01*
X412415Y70237D01*
X412378Y70367D01*
X412341Y70460D01*
X412304Y70552D01*
X412267Y70608D01*
X412248Y70645D01*
Y70663D01*
X412008Y71052D01*
X411748Y71404D01*
X411471Y71700D01*
X411193Y71941D01*
X410934Y72145D01*
X410730Y72274D01*
X410656Y72330D01*
X410600Y72348D01*
X410563Y72385D01*
X410545D01*
X410082Y72571D01*
X409600Y72719D01*
X409119Y72811D01*
X408656Y72885D01*
X408452Y72904D01*
X408267Y72922D01*
X408082Y72941D01*
X407934D01*
X407823Y72959D01*
X407730D01*
X407675D01*
X407656D01*
X407138Y72941D01*
X406675Y72885D01*
X406231Y72811D01*
X405842Y72719D01*
X405675Y72682D01*
X405527Y72626D01*
X405397Y72589D01*
X405286Y72552D01*
X405193Y72515D01*
X405138Y72497D01*
X405101Y72478D01*
X405082D01*
X404823Y72348D01*
X404582Y72219D01*
X404360Y72089D01*
X404175Y71960D01*
X404027Y71848D01*
X403897Y71756D01*
X403823Y71682D01*
X403805Y71663D01*
X403601Y71460D01*
X403416Y71237D01*
X403268Y70997D01*
X403120Y70774D01*
X403027Y70589D01*
X402934Y70441D01*
X402897Y70330D01*
X402879Y70293D01*
X402749Y69960D01*
X402657Y69626D01*
X402601Y69275D01*
X402546Y68960D01*
X402527Y68682D01*
Y68571D01*
X402509Y68478D01*
Y68275D01*
X402527Y67923D01*
X402564Y67590D01*
X402620Y67293D01*
X402675Y67034D01*
X402749Y66812D01*
X402805Y66645D01*
X402842Y66553D01*
X402860Y66516D01*
X402990Y66238D01*
X403138Y65997D01*
X403286Y65775D01*
X403434Y65608D01*
X403564Y65479D01*
X403657Y65368D01*
X403731Y65312D01*
X403749Y65294D01*
X403971Y65127D01*
X404231Y64997D01*
X404471Y64868D01*
X404731Y64757D01*
X404953Y64682D01*
X405120Y64627D01*
X405193Y64608D01*
X405249Y64590D01*
X405268Y64571D01*
X405286D01*
X404879Y63035D01*
X404416Y63164D01*
X404008Y63331D01*
X403638Y63498D01*
X403342Y63646D01*
X403101Y63794D01*
X402934Y63905D01*
X402823Y63979D01*
X402786Y64016D01*
X402490Y64275D01*
X402249Y64553D01*
X402027Y64849D01*
X401842Y65127D01*
X401712Y65386D01*
X401601Y65590D01*
X401564Y65664D01*
X401546Y65719D01*
X401527Y65757D01*
Y65775D01*
X401379Y66201D01*
X401268Y66645D01*
X401175Y67053D01*
X401120Y67442D01*
X401083Y67793D01*
Y67941D01*
X401064Y68053D01*
Y68645D01*
X401101Y68978D01*
X401194Y69626D01*
X401250Y69923D01*
X401324Y70201D01*
X401379Y70460D01*
X401453Y70700D01*
X401527Y70923D01*
X401601Y71108D01*
X401675Y71274D01*
X401731Y71423D01*
X401786Y71534D01*
X401824Y71608D01*
X401842Y71663D01*
X401861Y71682D01*
X402027Y71941D01*
X402194Y72200D01*
X402583Y72645D01*
X402971Y73033D01*
X403379Y73348D01*
X403731Y73608D01*
X403879Y73700D01*
X404027Y73774D01*
X404138Y73848D01*
X404212Y73885D01*
X404268Y73904D01*
X404286Y73922D01*
X404897Y74181D01*
X405508Y74367D01*
X406101Y74515D01*
X406379Y74552D01*
X406638Y74607D01*
X406879Y74626D01*
X407082Y74663D01*
X407286Y74682D01*
X407453D01*
X407582Y74700D01*
X407675D01*
X407749D01*
X407767D01*
X408452Y74663D01*
D02*
G37*
G36*
X414100Y58720D02*
X404045D01*
X414100Y52017D01*
Y50258D01*
X401287D01*
Y51888D01*
X411360D01*
X401287Y58609D01*
Y60350D01*
X414100D01*
Y58720D01*
D02*
G37*
G36*
Y42796D02*
X414081Y42370D01*
X414063Y41981D01*
X414026Y41629D01*
X413989Y41333D01*
X413952Y41074D01*
X413933Y40889D01*
X413915Y40833D01*
X413896Y40778D01*
Y40741D01*
X413804Y40407D01*
X413693Y40111D01*
X413600Y39852D01*
X413489Y39630D01*
X413396Y39444D01*
X413322Y39315D01*
X413267Y39241D01*
X413248Y39204D01*
X413082Y38963D01*
X412878Y38759D01*
X412693Y38556D01*
X412508Y38389D01*
X412341Y38241D01*
X412211Y38130D01*
X412119Y38056D01*
X412082Y38037D01*
X411785Y37852D01*
X411471Y37667D01*
X411174Y37519D01*
X410878Y37408D01*
X410619Y37297D01*
X410415Y37222D01*
X410341Y37204D01*
X410286Y37185D01*
X410249Y37167D01*
X410230D01*
X409786Y37056D01*
X409341Y36963D01*
X408915Y36908D01*
X408508Y36852D01*
X408156Y36834D01*
X408008D01*
X407878Y36815D01*
X407786D01*
X407693D01*
X407656D01*
X407638D01*
X407008Y36834D01*
X406434Y36889D01*
X405916Y36982D01*
X405675Y37019D01*
X405471Y37074D01*
X405268Y37130D01*
X405101Y37167D01*
X404953Y37204D01*
X404823Y37259D01*
X404712Y37278D01*
X404638Y37315D01*
X404601Y37334D01*
X404582D01*
X404101Y37537D01*
X403675Y37778D01*
X403305Y38037D01*
X402990Y38278D01*
X402731Y38500D01*
X402546Y38685D01*
X402490Y38759D01*
X402435Y38815D01*
X402416Y38833D01*
X402397Y38852D01*
X402157Y39148D01*
X401972Y39463D01*
X401805Y39778D01*
X401675Y40074D01*
X401583Y40333D01*
X401527Y40537D01*
X401490Y40611D01*
Y40666D01*
X401472Y40704D01*
Y40722D01*
X401416Y41037D01*
X401361Y41407D01*
X401324Y41778D01*
X401305Y42148D01*
X401287Y42481D01*
Y47407D01*
X414100D01*
Y42796D01*
D02*
G37*
G36*
X385645Y55381D02*
X385923Y55325D01*
X386441Y55159D01*
X386885Y54955D01*
X387089Y54844D01*
X387256Y54733D01*
X387422Y54640D01*
X387570Y54529D01*
X387682Y54436D01*
X387774Y54344D01*
X387848Y54270D01*
X387922Y54233D01*
X387941Y54196D01*
X387959Y54177D01*
X388126Y53955D01*
X388274Y53733D01*
X388404Y53492D01*
X388515Y53251D01*
X388681Y52788D01*
X388793Y52325D01*
X388848Y52122D01*
X388867Y51918D01*
X388885Y51751D01*
X388904Y51603D01*
X388922Y51474D01*
Y51307D01*
X388904Y50918D01*
X388848Y50548D01*
X388774Y50196D01*
X388681Y49881D01*
X388552Y49585D01*
X388422Y49307D01*
X388293Y49048D01*
X388144Y48826D01*
X387996Y48622D01*
X387867Y48437D01*
X387719Y48289D01*
X387607Y48159D01*
X387515Y48067D01*
X387441Y47993D01*
X387385Y47955D01*
X387367Y47937D01*
X387126Y47752D01*
X386867Y47604D01*
X386626Y47456D01*
X386367Y47344D01*
X385867Y47159D01*
X385386Y47048D01*
X385182Y47011D01*
X384978Y46974D01*
X384812Y46956D01*
X384663Y46937D01*
X384534Y46919D01*
X384441D01*
X384386D01*
X384367D01*
X384034Y46937D01*
X383719Y46974D01*
X383404Y47030D01*
X383126Y47104D01*
X382867Y47196D01*
X382608Y47289D01*
X382386Y47400D01*
X382182Y47493D01*
X381997Y47604D01*
X381830Y47715D01*
X381701Y47807D01*
X381571Y47900D01*
X381479Y47974D01*
X381423Y48030D01*
X381386Y48067D01*
X381367Y48085D01*
X381164Y48307D01*
X380979Y48530D01*
X380830Y48770D01*
X380701Y49011D01*
X380571Y49252D01*
X380479Y49492D01*
X380349Y49937D01*
X380294Y50141D01*
X380256Y50326D01*
X380238Y50492D01*
X380219Y50640D01*
X380201Y50752D01*
Y51159D01*
X380238Y51381D01*
X380331Y51825D01*
X380460Y52233D01*
X380608Y52603D01*
X380756Y52899D01*
X380830Y53029D01*
X380886Y53140D01*
X380942Y53233D01*
X380979Y53288D01*
X380997Y53325D01*
X381016Y53344D01*
X377553Y52659D01*
Y47530D01*
X376053D01*
Y53899D01*
X382645Y55140D01*
X382849Y53659D01*
X382645Y53529D01*
X382478Y53362D01*
X382312Y53214D01*
X382182Y53066D01*
X382090Y52918D01*
X381997Y52807D01*
X381960Y52733D01*
X381941Y52714D01*
X381830Y52474D01*
X381738Y52233D01*
X381682Y52011D01*
X381627Y51789D01*
X381608Y51603D01*
X381590Y51455D01*
Y51103D01*
X381627Y50881D01*
X381719Y50492D01*
X381849Y50159D01*
X381978Y49863D01*
X382127Y49640D01*
X382256Y49474D01*
X382349Y49381D01*
X382367Y49344D01*
X382386D01*
X382701Y49085D01*
X383034Y48900D01*
X383386Y48770D01*
X383738Y48678D01*
X384034Y48622D01*
X384163Y48604D01*
X384274D01*
X384367Y48585D01*
X384441D01*
X384478D01*
X384497D01*
X384756D01*
X384997Y48622D01*
X385460Y48715D01*
X385849Y48844D01*
X386163Y48974D01*
X386423Y49122D01*
X386626Y49252D01*
X386682Y49307D01*
X386737Y49344D01*
X386756Y49363D01*
X386774Y49381D01*
X386922Y49529D01*
X387052Y49678D01*
X387274Y50011D01*
X387422Y50326D01*
X387515Y50640D01*
X387589Y50900D01*
X387607Y51122D01*
X387626Y51196D01*
Y51307D01*
X387607Y51659D01*
X387533Y51974D01*
X387441Y52251D01*
X387330Y52474D01*
X387219Y52677D01*
X387126Y52825D01*
X387052Y52899D01*
X387034Y52937D01*
X386774Y53159D01*
X386497Y53344D01*
X386182Y53492D01*
X385904Y53603D01*
X385626Y53677D01*
X385423Y53733D01*
X385330Y53751D01*
X385274Y53770D01*
X385237D01*
X385219D01*
X385349Y55418D01*
X385645Y55381D01*
D02*
G37*
G36*
X388700Y41178D02*
Y39401D01*
X375886Y34401D01*
Y36123D01*
X385200Y39604D01*
X385589Y39753D01*
X385960Y39882D01*
X386311Y39993D01*
X386626Y40086D01*
X386904Y40179D01*
X387108Y40234D01*
X387182Y40253D01*
X387237Y40271D01*
X387274Y40290D01*
X387293D01*
X386552Y40512D01*
X386200Y40623D01*
X385886Y40734D01*
X385608Y40827D01*
X385497Y40864D01*
X385386Y40882D01*
X385312Y40919D01*
X385256Y40938D01*
X385219Y40956D01*
X385200D01*
X375886Y44289D01*
Y46141D01*
X388700Y41178D01*
D02*
G37*
G36*
X358808Y76363D02*
X359086Y76307D01*
X359604Y76141D01*
X360048Y75937D01*
X360233Y75826D01*
X360419Y75715D01*
X360585Y75604D01*
X360715Y75493D01*
X360844Y75400D01*
X360937Y75307D01*
X361011Y75252D01*
X361067Y75196D01*
X361104Y75159D01*
X361122Y75141D01*
X361289Y74919D01*
X361456Y74696D01*
X361585Y74474D01*
X361696Y74234D01*
X361881Y73771D01*
X361993Y73326D01*
X362030Y73123D01*
X362067Y72937D01*
X362085Y72771D01*
X362104Y72623D01*
X362122Y72512D01*
Y72345D01*
X362104Y71993D01*
X362067Y71678D01*
X362011Y71364D01*
X361937Y71067D01*
X361844Y70789D01*
X361752Y70549D01*
X361641Y70308D01*
X361530Y70104D01*
X361437Y69901D01*
X361326Y69734D01*
X361233Y69586D01*
X361141Y69475D01*
X361067Y69382D01*
X361011Y69308D01*
X360974Y69271D01*
X360956Y69253D01*
X360733Y69030D01*
X360493Y68845D01*
X360252Y68679D01*
X360011Y68530D01*
X359789Y68419D01*
X359548Y68308D01*
X359104Y68160D01*
X358900Y68123D01*
X358715Y68086D01*
X358549Y68049D01*
X358400Y68031D01*
X358289Y68012D01*
X358197D01*
X358141D01*
X358123D01*
X357678Y68031D01*
X357271Y68105D01*
X356919Y68216D01*
X356623Y68327D01*
X356382Y68438D01*
X356197Y68549D01*
X356086Y68623D01*
X356049Y68642D01*
X355771Y68901D01*
X355530Y69179D01*
X355345Y69475D01*
X355197Y69771D01*
X355086Y70030D01*
X355012Y70234D01*
X354993Y70308D01*
X354975Y70364D01*
X354956Y70401D01*
Y70419D01*
X354790Y70104D01*
X354623Y69845D01*
X354438Y69623D01*
X354271Y69438D01*
X354123Y69290D01*
X353993Y69179D01*
X353919Y69123D01*
X353882Y69104D01*
X353623Y68956D01*
X353364Y68845D01*
X353105Y68753D01*
X352864Y68697D01*
X352660Y68660D01*
X352512Y68642D01*
X352401D01*
X352364D01*
X352049Y68660D01*
X351734Y68716D01*
X351457Y68790D01*
X351216Y68882D01*
X351012Y68975D01*
X350846Y69049D01*
X350753Y69104D01*
X350716Y69123D01*
X350438Y69308D01*
X350197Y69530D01*
X349994Y69752D01*
X349809Y69975D01*
X349679Y70160D01*
X349568Y70327D01*
X349512Y70438D01*
X349494Y70456D01*
Y70475D01*
X349346Y70808D01*
X349235Y71141D01*
X349142Y71475D01*
X349086Y71771D01*
X349049Y72012D01*
X349031Y72215D01*
Y72678D01*
X349068Y72937D01*
X349161Y73437D01*
X349309Y73863D01*
X349457Y74234D01*
X349549Y74400D01*
X349623Y74530D01*
X349697Y74659D01*
X349772Y74752D01*
X349827Y74826D01*
X349864Y74882D01*
X349883Y74919D01*
X349901Y74937D01*
X350253Y75289D01*
X350642Y75567D01*
X351049Y75789D01*
X351457Y75974D01*
X351808Y76085D01*
X351957Y76141D01*
X352086Y76178D01*
X352197Y76196D01*
X352271Y76215D01*
X352327Y76233D01*
X352345D01*
X352623Y74659D01*
X352216Y74585D01*
X351864Y74474D01*
X351568Y74345D01*
X351327Y74215D01*
X351142Y74085D01*
X351012Y73974D01*
X350920Y73900D01*
X350901Y73882D01*
X350716Y73641D01*
X350568Y73382D01*
X350475Y73141D01*
X350401Y72900D01*
X350364Y72678D01*
X350327Y72512D01*
Y72363D01*
X350346Y72030D01*
X350420Y71734D01*
X350512Y71475D01*
X350605Y71252D01*
X350716Y71086D01*
X350808Y70956D01*
X350883Y70863D01*
X350901Y70845D01*
X351123Y70641D01*
X351364Y70493D01*
X351605Y70401D01*
X351827Y70327D01*
X352031Y70290D01*
X352179Y70252D01*
X352290D01*
X352308D01*
X352327D01*
X352531D01*
X352716Y70290D01*
X353031Y70382D01*
X353308Y70512D01*
X353549Y70660D01*
X353716Y70808D01*
X353845Y70938D01*
X353919Y71030D01*
X353938Y71049D01*
Y71067D01*
X354104Y71382D01*
X354234Y71678D01*
X354327Y71993D01*
X354382Y72271D01*
X354419Y72512D01*
X354456Y72715D01*
Y72956D01*
X354438Y73030D01*
Y73123D01*
X355826Y73308D01*
X355771Y73067D01*
X355734Y72845D01*
X355697Y72660D01*
X355678Y72493D01*
X355660Y72363D01*
Y72197D01*
X355697Y71808D01*
X355771Y71456D01*
X355882Y71141D01*
X356012Y70882D01*
X356141Y70678D01*
X356252Y70530D01*
X356326Y70438D01*
X356363Y70401D01*
X356641Y70160D01*
X356937Y69975D01*
X357234Y69845D01*
X357530Y69771D01*
X357771Y69715D01*
X357975Y69697D01*
X358049Y69679D01*
X358104D01*
X358141D01*
X358160D01*
X358567Y69715D01*
X358937Y69808D01*
X359252Y69919D01*
X359530Y70067D01*
X359752Y70216D01*
X359919Y70327D01*
X360030Y70419D01*
X360067Y70456D01*
X360326Y70752D01*
X360511Y71067D01*
X360641Y71382D01*
X360733Y71678D01*
X360789Y71937D01*
X360807Y72141D01*
X360826Y72215D01*
Y72326D01*
X360807Y72660D01*
X360733Y72974D01*
X360641Y73252D01*
X360530Y73474D01*
X360437Y73660D01*
X360345Y73808D01*
X360271Y73882D01*
X360252Y73919D01*
X359993Y74141D01*
X359697Y74326D01*
X359382Y74493D01*
X359048Y74622D01*
X358771Y74715D01*
X358641Y74752D01*
X358530Y74770D01*
X358437Y74789D01*
X358363Y74808D01*
X358326Y74826D01*
X358308D01*
X358511Y76400D01*
X358808Y76363D01*
D02*
G37*
G36*
X361900Y63772D02*
X360104D01*
Y65568D01*
X361900D01*
Y63772D01*
D02*
G37*
G36*
X358808Y61420D02*
X359086Y61364D01*
X359604Y61198D01*
X360048Y60994D01*
X360233Y60883D01*
X360419Y60772D01*
X360585Y60661D01*
X360715Y60550D01*
X360844Y60457D01*
X360937Y60365D01*
X361011Y60309D01*
X361067Y60254D01*
X361104Y60216D01*
X361122Y60198D01*
X361289Y59976D01*
X361456Y59754D01*
X361585Y59531D01*
X361696Y59291D01*
X361881Y58828D01*
X361993Y58383D01*
X362030Y58180D01*
X362067Y57994D01*
X362085Y57828D01*
X362104Y57680D01*
X362122Y57569D01*
Y57402D01*
X362104Y57050D01*
X362067Y56735D01*
X362011Y56421D01*
X361937Y56124D01*
X361844Y55847D01*
X361752Y55606D01*
X361641Y55365D01*
X361530Y55161D01*
X361437Y54958D01*
X361326Y54791D01*
X361233Y54643D01*
X361141Y54532D01*
X361067Y54439D01*
X361011Y54365D01*
X360974Y54328D01*
X360956Y54310D01*
X360733Y54088D01*
X360493Y53902D01*
X360252Y53736D01*
X360011Y53587D01*
X359789Y53476D01*
X359548Y53365D01*
X359104Y53217D01*
X358900Y53180D01*
X358715Y53143D01*
X358549Y53106D01*
X358400Y53088D01*
X358289Y53069D01*
X358197D01*
X358141D01*
X358123D01*
X357678Y53088D01*
X357271Y53162D01*
X356919Y53273D01*
X356623Y53384D01*
X356382Y53495D01*
X356197Y53606D01*
X356086Y53680D01*
X356049Y53699D01*
X355771Y53958D01*
X355530Y54236D01*
X355345Y54532D01*
X355197Y54828D01*
X355086Y55087D01*
X355012Y55291D01*
X354993Y55365D01*
X354975Y55421D01*
X354956Y55458D01*
Y55476D01*
X354790Y55161D01*
X354623Y54902D01*
X354438Y54680D01*
X354271Y54495D01*
X354123Y54347D01*
X353993Y54236D01*
X353919Y54180D01*
X353882Y54162D01*
X353623Y54013D01*
X353364Y53902D01*
X353105Y53810D01*
X352864Y53754D01*
X352660Y53717D01*
X352512Y53699D01*
X352401D01*
X352364D01*
X352049Y53717D01*
X351734Y53773D01*
X351457Y53847D01*
X351216Y53939D01*
X351012Y54032D01*
X350846Y54106D01*
X350753Y54162D01*
X350716Y54180D01*
X350438Y54365D01*
X350197Y54587D01*
X349994Y54810D01*
X349809Y55032D01*
X349679Y55217D01*
X349568Y55384D01*
X349512Y55495D01*
X349494Y55513D01*
Y55532D01*
X349346Y55865D01*
X349235Y56198D01*
X349142Y56532D01*
X349086Y56828D01*
X349049Y57069D01*
X349031Y57272D01*
Y57735D01*
X349068Y57994D01*
X349161Y58494D01*
X349309Y58920D01*
X349457Y59291D01*
X349549Y59457D01*
X349623Y59587D01*
X349697Y59717D01*
X349772Y59809D01*
X349827Y59883D01*
X349864Y59939D01*
X349883Y59976D01*
X349901Y59994D01*
X350253Y60346D01*
X350642Y60624D01*
X351049Y60846D01*
X351457Y61031D01*
X351808Y61142D01*
X351957Y61198D01*
X352086Y61235D01*
X352197Y61253D01*
X352271Y61272D01*
X352327Y61290D01*
X352345D01*
X352623Y59717D01*
X352216Y59643D01*
X351864Y59531D01*
X351568Y59402D01*
X351327Y59272D01*
X351142Y59142D01*
X351012Y59031D01*
X350920Y58957D01*
X350901Y58939D01*
X350716Y58698D01*
X350568Y58439D01*
X350475Y58198D01*
X350401Y57958D01*
X350364Y57735D01*
X350327Y57569D01*
Y57421D01*
X350346Y57087D01*
X350420Y56791D01*
X350512Y56532D01*
X350605Y56309D01*
X350716Y56143D01*
X350808Y56013D01*
X350883Y55921D01*
X350901Y55902D01*
X351123Y55698D01*
X351364Y55550D01*
X351605Y55458D01*
X351827Y55384D01*
X352031Y55347D01*
X352179Y55310D01*
X352290D01*
X352308D01*
X352327D01*
X352531D01*
X352716Y55347D01*
X353031Y55439D01*
X353308Y55569D01*
X353549Y55717D01*
X353716Y55865D01*
X353845Y55995D01*
X353919Y56087D01*
X353938Y56106D01*
Y56124D01*
X354104Y56439D01*
X354234Y56735D01*
X354327Y57050D01*
X354382Y57328D01*
X354419Y57569D01*
X354456Y57772D01*
Y58013D01*
X354438Y58087D01*
Y58180D01*
X355826Y58365D01*
X355771Y58124D01*
X355734Y57902D01*
X355697Y57717D01*
X355678Y57550D01*
X355660Y57421D01*
Y57254D01*
X355697Y56865D01*
X355771Y56513D01*
X355882Y56198D01*
X356012Y55939D01*
X356141Y55736D01*
X356252Y55587D01*
X356326Y55495D01*
X356363Y55458D01*
X356641Y55217D01*
X356937Y55032D01*
X357234Y54902D01*
X357530Y54828D01*
X357771Y54773D01*
X357975Y54754D01*
X358049Y54736D01*
X358104D01*
X358141D01*
X358160D01*
X358567Y54773D01*
X358937Y54865D01*
X359252Y54976D01*
X359530Y55124D01*
X359752Y55273D01*
X359919Y55384D01*
X360030Y55476D01*
X360067Y55513D01*
X360326Y55809D01*
X360511Y56124D01*
X360641Y56439D01*
X360733Y56735D01*
X360789Y56995D01*
X360807Y57198D01*
X360826Y57272D01*
Y57383D01*
X360807Y57717D01*
X360733Y58032D01*
X360641Y58309D01*
X360530Y58531D01*
X360437Y58717D01*
X360345Y58865D01*
X360271Y58939D01*
X360252Y58976D01*
X359993Y59198D01*
X359697Y59383D01*
X359382Y59550D01*
X359048Y59679D01*
X358771Y59772D01*
X358641Y59809D01*
X358530Y59828D01*
X358437Y59846D01*
X358363Y59865D01*
X358326Y59883D01*
X358308D01*
X358511Y61457D01*
X358808Y61420D01*
D02*
G37*
G36*
X361900Y47236D02*
Y45459D01*
X349086Y40459D01*
Y42181D01*
X358400Y45662D01*
X358789Y45811D01*
X359160Y45940D01*
X359511Y46051D01*
X359826Y46144D01*
X360104Y46237D01*
X360308Y46292D01*
X360382Y46311D01*
X360437Y46329D01*
X360474Y46348D01*
X360493D01*
X359752Y46570D01*
X359400Y46681D01*
X359086Y46792D01*
X358808Y46884D01*
X358697Y46922D01*
X358586Y46940D01*
X358511Y46977D01*
X358456Y46996D01*
X358419Y47014D01*
X358400D01*
X349086Y50347D01*
Y52199D01*
X361900Y47236D01*
D02*
G37*
G36*
X335600Y91697D02*
X329915D01*
Y89511D01*
X329934Y89308D01*
Y89160D01*
X329952Y89030D01*
X329971Y88938D01*
Y88863D01*
X329990Y88826D01*
Y88808D01*
X330082Y88512D01*
X330138Y88382D01*
X330193Y88271D01*
X330249Y88160D01*
X330286Y88086D01*
X330304Y88049D01*
X330323Y88030D01*
X330434Y87882D01*
X330564Y87734D01*
X330841Y87456D01*
X330971Y87326D01*
X331082Y87234D01*
X331156Y87178D01*
X331175Y87160D01*
X331434Y86975D01*
X331712Y86771D01*
X332008Y86567D01*
X332285Y86364D01*
X332545Y86197D01*
X332748Y86067D01*
X332822Y86012D01*
X332878Y85975D01*
X332915Y85938D01*
X332934D01*
X335600Y84253D01*
Y82142D01*
X332119Y84345D01*
X331749Y84605D01*
X331415Y84845D01*
X331138Y85086D01*
X330878Y85290D01*
X330693Y85475D01*
X330545Y85623D01*
X330452Y85716D01*
X330415Y85753D01*
X330304Y85901D01*
X330175Y86067D01*
X329971Y86401D01*
X329897Y86549D01*
X329823Y86660D01*
X329786Y86734D01*
X329767Y86771D01*
X329712Y86438D01*
X329656Y86123D01*
X329564Y85845D01*
X329490Y85568D01*
X329397Y85327D01*
X329286Y85105D01*
X329193Y84901D01*
X329101Y84716D01*
X328990Y84568D01*
X328897Y84419D01*
X328823Y84308D01*
X328749Y84216D01*
X328693Y84142D01*
X328638Y84086D01*
X328619Y84068D01*
X328601Y84049D01*
X328415Y83901D01*
X328230Y83753D01*
X327841Y83531D01*
X327453Y83383D01*
X327082Y83271D01*
X326768Y83197D01*
X326638Y83179D01*
X326508D01*
X326416Y83160D01*
X326342D01*
X326305D01*
X326286D01*
X325897Y83179D01*
X325546Y83234D01*
X325212Y83327D01*
X324934Y83420D01*
X324694Y83531D01*
X324509Y83605D01*
X324397Y83679D01*
X324379Y83697D01*
X324360D01*
X324064Y83919D01*
X323805Y84142D01*
X323583Y84382D01*
X323416Y84605D01*
X323287Y84808D01*
X323212Y84975D01*
X323157Y85086D01*
X323138Y85105D01*
Y85123D01*
X323083Y85290D01*
X323027Y85493D01*
X322935Y85901D01*
X322879Y86345D01*
X322823Y86753D01*
X322805Y87141D01*
Y87308D01*
X322786Y87456D01*
Y93400D01*
X335600D01*
Y91697D01*
D02*
G37*
G36*
Y70902D02*
X334082D01*
Y78772D01*
X329730D01*
Y71680D01*
X328212D01*
Y78772D01*
X324305D01*
Y71199D01*
X322786D01*
Y80475D01*
X335600D01*
Y70902D01*
D02*
G37*
G36*
X331952Y69088D02*
X332397Y69014D01*
X332785Y68903D01*
X333137Y68773D01*
X333415Y68643D01*
X333526Y68588D01*
X333619Y68551D01*
X333693Y68495D01*
X333748Y68477D01*
X333785Y68440D01*
X333804D01*
X334156Y68162D01*
X334470Y67866D01*
X334730Y67551D01*
X334952Y67255D01*
X335119Y66995D01*
X335230Y66773D01*
X335267Y66699D01*
X335304Y66644D01*
X335322Y66606D01*
Y66588D01*
X335489Y66125D01*
X335619Y65644D01*
X335693Y65162D01*
X335767Y64699D01*
X335785Y64477D01*
X335804Y64292D01*
Y64125D01*
X335822Y63977D01*
Y63681D01*
X335804Y63181D01*
X335748Y62718D01*
X335656Y62292D01*
X335563Y61940D01*
X335489Y61644D01*
X335433Y61514D01*
X335396Y61403D01*
X335359Y61329D01*
X335341Y61274D01*
X335322Y61237D01*
Y61218D01*
X335119Y60829D01*
X334896Y60496D01*
X334656Y60200D01*
X334433Y59959D01*
X334248Y59774D01*
X334082Y59644D01*
X333970Y59552D01*
X333952Y59533D01*
X333933D01*
X333582Y59329D01*
X333248Y59181D01*
X332934Y59089D01*
X332637Y59015D01*
X332378Y58978D01*
X332174Y58941D01*
X332100D01*
X332045D01*
X332026D01*
X332008D01*
X331637Y58959D01*
X331286Y59015D01*
X330971Y59107D01*
X330712Y59200D01*
X330489Y59311D01*
X330323Y59385D01*
X330230Y59459D01*
X330193Y59478D01*
X329915Y59700D01*
X329656Y59959D01*
X329434Y60237D01*
X329230Y60514D01*
X329082Y60755D01*
X328971Y60959D01*
X328934Y61033D01*
X328897Y61089D01*
X328879Y61126D01*
Y61144D01*
X328804Y61292D01*
X328749Y61477D01*
X328675Y61681D01*
X328601Y61903D01*
X328471Y62366D01*
X328341Y62848D01*
X328286Y63070D01*
X328230Y63274D01*
X328175Y63477D01*
X328138Y63644D01*
X328101Y63773D01*
X328082Y63885D01*
X328064Y63959D01*
Y63977D01*
X327971Y64347D01*
X327897Y64681D01*
X327804Y64977D01*
X327730Y65236D01*
X327638Y65477D01*
X327564Y65681D01*
X327490Y65866D01*
X327434Y66033D01*
X327360Y66162D01*
X327305Y66273D01*
X327267Y66347D01*
X327212Y66421D01*
X327156Y66514D01*
X327138Y66532D01*
X326953Y66699D01*
X326768Y66810D01*
X326582Y66903D01*
X326397Y66958D01*
X326249Y66995D01*
X326119Y67014D01*
X326045D01*
X326008D01*
X325712Y66977D01*
X325453Y66903D01*
X325231Y66792D01*
X325027Y66662D01*
X324879Y66551D01*
X324749Y66440D01*
X324675Y66366D01*
X324657Y66329D01*
X324564Y66181D01*
X324472Y66033D01*
X324323Y65681D01*
X324231Y65310D01*
X324157Y64940D01*
X324120Y64607D01*
X324101Y64458D01*
X324083Y64347D01*
Y64088D01*
X324101Y63570D01*
X324175Y63107D01*
X324286Y62737D01*
X324397Y62422D01*
X324509Y62181D01*
X324620Y61996D01*
X324694Y61903D01*
X324712Y61866D01*
X324972Y61607D01*
X325249Y61403D01*
X325546Y61237D01*
X325842Y61126D01*
X326119Y61052D01*
X326323Y60996D01*
X326416Y60977D01*
X326471Y60959D01*
X326508D01*
X326527D01*
X326397Y59329D01*
X325990Y59366D01*
X325620Y59459D01*
X325268Y59552D01*
X324972Y59681D01*
X324731Y59792D01*
X324546Y59885D01*
X324490Y59922D01*
X324435Y59959D01*
X324416Y59977D01*
X324397D01*
X324083Y60218D01*
X323805Y60477D01*
X323564Y60755D01*
X323379Y61033D01*
X323212Y61274D01*
X323120Y61459D01*
X323083Y61533D01*
X323046Y61589D01*
X323027Y61625D01*
Y61644D01*
X322879Y62051D01*
X322768Y62496D01*
X322675Y62903D01*
X322620Y63292D01*
X322583Y63644D01*
Y63773D01*
X322564Y63903D01*
Y64144D01*
X322583Y64625D01*
X322638Y65051D01*
X322712Y65458D01*
X322786Y65810D01*
X322861Y66088D01*
X322898Y66218D01*
X322935Y66310D01*
X322972Y66384D01*
X322990Y66440D01*
X323009Y66477D01*
Y66495D01*
X323194Y66866D01*
X323397Y67199D01*
X323620Y67477D01*
X323823Y67699D01*
X324009Y67866D01*
X324157Y67995D01*
X324268Y68088D01*
X324286Y68106D01*
X324305D01*
X324620Y68292D01*
X324934Y68421D01*
X325249Y68514D01*
X325527Y68569D01*
X325768Y68606D01*
X325953Y68643D01*
X326027D01*
X326082D01*
X326101D01*
X326119D01*
X326434Y68625D01*
X326730Y68569D01*
X327008Y68495D01*
X327249Y68421D01*
X327434Y68347D01*
X327582Y68273D01*
X327675Y68217D01*
X327712Y68199D01*
X327971Y68014D01*
X328212Y67792D01*
X328415Y67569D01*
X328582Y67347D01*
X328730Y67162D01*
X328823Y66995D01*
X328897Y66884D01*
X328915Y66866D01*
Y66847D01*
X328990Y66699D01*
X329064Y66532D01*
X329193Y66162D01*
X329323Y65736D01*
X329453Y65329D01*
X329564Y64959D01*
X329601Y64792D01*
X329638Y64644D01*
X329675Y64533D01*
X329693Y64440D01*
X329712Y64384D01*
Y64366D01*
X329786Y64051D01*
X329860Y63755D01*
X329934Y63496D01*
X329990Y63274D01*
X330045Y63051D01*
X330101Y62866D01*
X330138Y62699D01*
X330193Y62570D01*
X330230Y62440D01*
X330249Y62348D01*
X330304Y62200D01*
X330323Y62107D01*
X330341Y62088D01*
X330452Y61811D01*
X330582Y61570D01*
X330712Y61366D01*
X330823Y61218D01*
X330934Y61089D01*
X331008Y61014D01*
X331063Y60959D01*
X331082Y60940D01*
X331249Y60811D01*
X331434Y60718D01*
X331619Y60663D01*
X331767Y60607D01*
X331915Y60589D01*
X332026Y60570D01*
X332119D01*
X332137D01*
X332360Y60589D01*
X332563Y60626D01*
X332748Y60681D01*
X332897Y60755D01*
X333045Y60829D01*
X333137Y60885D01*
X333211Y60922D01*
X333230Y60940D01*
X333415Y61089D01*
X333563Y61274D01*
X333693Y61459D01*
X333822Y61625D01*
X333896Y61792D01*
X333970Y61922D01*
X334008Y62014D01*
X334026Y62051D01*
X334119Y62329D01*
X334193Y62625D01*
X334230Y62922D01*
X334267Y63181D01*
X334285Y63403D01*
X334304Y63588D01*
Y63755D01*
X334285Y64162D01*
X334248Y64533D01*
X334193Y64866D01*
X334119Y65162D01*
X334045Y65403D01*
X333989Y65588D01*
X333970Y65644D01*
X333952Y65699D01*
X333933Y65718D01*
Y65736D01*
X333785Y66033D01*
X333619Y66310D01*
X333452Y66514D01*
X333285Y66699D01*
X333156Y66847D01*
X333026Y66940D01*
X332952Y66995D01*
X332934Y67014D01*
X332693Y67144D01*
X332434Y67273D01*
X332156Y67347D01*
X331915Y67421D01*
X331674Y67477D01*
X331508Y67514D01*
X331434D01*
X331378Y67532D01*
X331360D01*
X331341D01*
X331489Y69125D01*
X331952Y69088D01*
D02*
G37*
G36*
X335600Y47016D02*
X334082D01*
Y54886D01*
X329730D01*
Y47794D01*
X328212D01*
Y54886D01*
X324305D01*
Y47312D01*
X322786D01*
Y56589D01*
X335600D01*
Y47016D01*
D02*
G37*
G36*
X324305Y41405D02*
X335600D01*
Y39702D01*
X324305D01*
Y35480D01*
X322786D01*
Y45627D01*
X324305D01*
Y41405D01*
D02*
G37*
G36*
X307008Y100063D02*
X307285Y100007D01*
X307804Y99841D01*
X308248Y99637D01*
X308433Y99526D01*
X308619Y99415D01*
X308785Y99304D01*
X308915Y99193D01*
X309044Y99100D01*
X309137Y99008D01*
X309211Y98952D01*
X309267Y98896D01*
X309304Y98859D01*
X309322Y98841D01*
X309489Y98619D01*
X309656Y98397D01*
X309785Y98174D01*
X309896Y97934D01*
X310082Y97471D01*
X310193Y97026D01*
X310230Y96823D01*
X310267Y96637D01*
X310285Y96471D01*
X310304Y96323D01*
X310322Y96212D01*
Y96045D01*
X310304Y95693D01*
X310267Y95378D01*
X310211Y95063D01*
X310137Y94767D01*
X310044Y94489D01*
X309952Y94249D01*
X309841Y94008D01*
X309730Y93804D01*
X309637Y93601D01*
X309526Y93434D01*
X309433Y93286D01*
X309341Y93175D01*
X309267Y93082D01*
X309211Y93008D01*
X309174Y92971D01*
X309156Y92953D01*
X308933Y92730D01*
X308693Y92545D01*
X308452Y92379D01*
X308211Y92230D01*
X307989Y92119D01*
X307748Y92008D01*
X307304Y91860D01*
X307100Y91823D01*
X306915Y91786D01*
X306749Y91749D01*
X306600Y91730D01*
X306489Y91712D01*
X306397D01*
X306341D01*
X306323D01*
X305878Y91730D01*
X305471Y91805D01*
X305119Y91916D01*
X304823Y92027D01*
X304582Y92138D01*
X304397Y92249D01*
X304286Y92323D01*
X304249Y92341D01*
X303971Y92601D01*
X303730Y92879D01*
X303545Y93175D01*
X303397Y93471D01*
X303286Y93730D01*
X303212Y93934D01*
X303193Y94008D01*
X303175Y94064D01*
X303156Y94101D01*
Y94119D01*
X302990Y93804D01*
X302823Y93545D01*
X302638Y93323D01*
X302471Y93138D01*
X302323Y92990D01*
X302193Y92879D01*
X302119Y92823D01*
X302082Y92804D01*
X301823Y92656D01*
X301564Y92545D01*
X301305Y92453D01*
X301064Y92397D01*
X300860Y92360D01*
X300712Y92341D01*
X300601D01*
X300564D01*
X300249Y92360D01*
X299934Y92416D01*
X299657Y92490D01*
X299416Y92582D01*
X299212Y92675D01*
X299046Y92749D01*
X298953Y92804D01*
X298916Y92823D01*
X298638Y93008D01*
X298398Y93230D01*
X298194Y93453D01*
X298009Y93675D01*
X297879Y93860D01*
X297768Y94027D01*
X297712Y94138D01*
X297694Y94156D01*
Y94175D01*
X297546Y94508D01*
X297435Y94841D01*
X297342Y95175D01*
X297286Y95471D01*
X297250Y95712D01*
X297231Y95915D01*
Y96378D01*
X297268Y96637D01*
X297361Y97137D01*
X297509Y97563D01*
X297657Y97934D01*
X297749Y98100D01*
X297824Y98230D01*
X297897Y98359D01*
X297972Y98452D01*
X298027Y98526D01*
X298064Y98582D01*
X298083Y98619D01*
X298101Y98637D01*
X298453Y98989D01*
X298842Y99267D01*
X299249Y99489D01*
X299657Y99674D01*
X300008Y99785D01*
X300157Y99841D01*
X300286Y99878D01*
X300397Y99896D01*
X300471Y99915D01*
X300527Y99933D01*
X300545D01*
X300823Y98359D01*
X300416Y98285D01*
X300064Y98174D01*
X299768Y98045D01*
X299527Y97915D01*
X299342Y97785D01*
X299212Y97674D01*
X299120Y97600D01*
X299101Y97582D01*
X298916Y97341D01*
X298768Y97082D01*
X298675Y96841D01*
X298601Y96600D01*
X298564Y96378D01*
X298527Y96212D01*
Y96063D01*
X298546Y95730D01*
X298620Y95434D01*
X298712Y95175D01*
X298805Y94952D01*
X298916Y94786D01*
X299009Y94656D01*
X299083Y94564D01*
X299101Y94545D01*
X299323Y94341D01*
X299564Y94193D01*
X299805Y94101D01*
X300027Y94027D01*
X300231Y93989D01*
X300379Y93953D01*
X300490D01*
X300508D01*
X300527D01*
X300731D01*
X300916Y93989D01*
X301231Y94082D01*
X301508Y94212D01*
X301749Y94360D01*
X301916Y94508D01*
X302045Y94638D01*
X302119Y94730D01*
X302138Y94749D01*
Y94767D01*
X302304Y95082D01*
X302434Y95378D01*
X302527Y95693D01*
X302582Y95971D01*
X302619Y96212D01*
X302656Y96415D01*
Y96656D01*
X302638Y96730D01*
Y96823D01*
X304027Y97008D01*
X303971Y96767D01*
X303934Y96545D01*
X303897Y96360D01*
X303878Y96193D01*
X303860Y96063D01*
Y95897D01*
X303897Y95508D01*
X303971Y95156D01*
X304082Y94841D01*
X304212Y94582D01*
X304341Y94378D01*
X304452Y94230D01*
X304527Y94138D01*
X304564Y94101D01*
X304841Y93860D01*
X305138Y93675D01*
X305434Y93545D01*
X305730Y93471D01*
X305971Y93415D01*
X306175Y93397D01*
X306248Y93378D01*
X306304D01*
X306341D01*
X306360D01*
X306767Y93415D01*
X307137Y93508D01*
X307452Y93619D01*
X307730Y93767D01*
X307952Y93916D01*
X308119Y94027D01*
X308230Y94119D01*
X308267Y94156D01*
X308526Y94452D01*
X308711Y94767D01*
X308841Y95082D01*
X308933Y95378D01*
X308989Y95638D01*
X309007Y95841D01*
X309026Y95915D01*
Y96026D01*
X309007Y96360D01*
X308933Y96674D01*
X308841Y96952D01*
X308730Y97174D01*
X308637Y97360D01*
X308545Y97508D01*
X308470Y97582D01*
X308452Y97619D01*
X308193Y97841D01*
X307896Y98026D01*
X307582Y98193D01*
X307248Y98322D01*
X306971Y98415D01*
X306841Y98452D01*
X306730Y98470D01*
X306637Y98489D01*
X306563Y98508D01*
X306526Y98526D01*
X306508D01*
X306712Y100100D01*
X307008Y100063D01*
D02*
G37*
G36*
X310100Y87472D02*
X308304D01*
Y89268D01*
X310100D01*
Y87472D01*
D02*
G37*
G36*
X307008Y85120D02*
X307285Y85064D01*
X307804Y84898D01*
X308248Y84694D01*
X308433Y84583D01*
X308619Y84472D01*
X308785Y84361D01*
X308915Y84250D01*
X309044Y84157D01*
X309137Y84065D01*
X309211Y84009D01*
X309267Y83954D01*
X309304Y83917D01*
X309322Y83898D01*
X309489Y83676D01*
X309656Y83454D01*
X309785Y83231D01*
X309896Y82991D01*
X310082Y82528D01*
X310193Y82083D01*
X310230Y81880D01*
X310267Y81694D01*
X310285Y81528D01*
X310304Y81380D01*
X310322Y81269D01*
Y81102D01*
X310304Y80750D01*
X310267Y80435D01*
X310211Y80121D01*
X310137Y79824D01*
X310044Y79547D01*
X309952Y79306D01*
X309841Y79065D01*
X309730Y78861D01*
X309637Y78658D01*
X309526Y78491D01*
X309433Y78343D01*
X309341Y78232D01*
X309267Y78139D01*
X309211Y78065D01*
X309174Y78028D01*
X309156Y78010D01*
X308933Y77787D01*
X308693Y77602D01*
X308452Y77436D01*
X308211Y77288D01*
X307989Y77176D01*
X307748Y77065D01*
X307304Y76917D01*
X307100Y76880D01*
X306915Y76843D01*
X306749Y76806D01*
X306600Y76788D01*
X306489Y76769D01*
X306397D01*
X306341D01*
X306323D01*
X305878Y76788D01*
X305471Y76862D01*
X305119Y76973D01*
X304823Y77084D01*
X304582Y77195D01*
X304397Y77306D01*
X304286Y77380D01*
X304249Y77399D01*
X303971Y77658D01*
X303730Y77936D01*
X303545Y78232D01*
X303397Y78528D01*
X303286Y78787D01*
X303212Y78991D01*
X303193Y79065D01*
X303175Y79121D01*
X303156Y79158D01*
Y79176D01*
X302990Y78861D01*
X302823Y78602D01*
X302638Y78380D01*
X302471Y78195D01*
X302323Y78047D01*
X302193Y77936D01*
X302119Y77880D01*
X302082Y77862D01*
X301823Y77713D01*
X301564Y77602D01*
X301305Y77510D01*
X301064Y77454D01*
X300860Y77417D01*
X300712Y77399D01*
X300601D01*
X300564D01*
X300249Y77417D01*
X299934Y77473D01*
X299657Y77547D01*
X299416Y77639D01*
X299212Y77732D01*
X299046Y77806D01*
X298953Y77862D01*
X298916Y77880D01*
X298638Y78065D01*
X298398Y78287D01*
X298194Y78510D01*
X298009Y78732D01*
X297879Y78917D01*
X297768Y79084D01*
X297712Y79195D01*
X297694Y79213D01*
Y79232D01*
X297546Y79565D01*
X297435Y79898D01*
X297342Y80232D01*
X297286Y80528D01*
X297250Y80769D01*
X297231Y80972D01*
Y81435D01*
X297268Y81694D01*
X297361Y82194D01*
X297509Y82620D01*
X297657Y82991D01*
X297749Y83157D01*
X297824Y83287D01*
X297897Y83417D01*
X297972Y83509D01*
X298027Y83583D01*
X298064Y83639D01*
X298083Y83676D01*
X298101Y83694D01*
X298453Y84046D01*
X298842Y84324D01*
X299249Y84546D01*
X299657Y84731D01*
X300008Y84842D01*
X300157Y84898D01*
X300286Y84935D01*
X300397Y84953D01*
X300471Y84972D01*
X300527Y84991D01*
X300545D01*
X300823Y83417D01*
X300416Y83343D01*
X300064Y83231D01*
X299768Y83102D01*
X299527Y82972D01*
X299342Y82843D01*
X299212Y82731D01*
X299120Y82657D01*
X299101Y82639D01*
X298916Y82398D01*
X298768Y82139D01*
X298675Y81898D01*
X298601Y81657D01*
X298564Y81435D01*
X298527Y81269D01*
Y81121D01*
X298546Y80787D01*
X298620Y80491D01*
X298712Y80232D01*
X298805Y80009D01*
X298916Y79843D01*
X299009Y79713D01*
X299083Y79621D01*
X299101Y79602D01*
X299323Y79398D01*
X299564Y79250D01*
X299805Y79158D01*
X300027Y79084D01*
X300231Y79047D01*
X300379Y79010D01*
X300490D01*
X300508D01*
X300527D01*
X300731D01*
X300916Y79047D01*
X301231Y79139D01*
X301508Y79269D01*
X301749Y79417D01*
X301916Y79565D01*
X302045Y79695D01*
X302119Y79787D01*
X302138Y79806D01*
Y79824D01*
X302304Y80139D01*
X302434Y80435D01*
X302527Y80750D01*
X302582Y81028D01*
X302619Y81269D01*
X302656Y81472D01*
Y81713D01*
X302638Y81787D01*
Y81880D01*
X304027Y82065D01*
X303971Y81824D01*
X303934Y81602D01*
X303897Y81417D01*
X303878Y81250D01*
X303860Y81121D01*
Y80954D01*
X303897Y80565D01*
X303971Y80213D01*
X304082Y79898D01*
X304212Y79639D01*
X304341Y79436D01*
X304452Y79287D01*
X304527Y79195D01*
X304564Y79158D01*
X304841Y78917D01*
X305138Y78732D01*
X305434Y78602D01*
X305730Y78528D01*
X305971Y78473D01*
X306175Y78454D01*
X306248Y78436D01*
X306304D01*
X306341D01*
X306360D01*
X306767Y78473D01*
X307137Y78565D01*
X307452Y78676D01*
X307730Y78824D01*
X307952Y78973D01*
X308119Y79084D01*
X308230Y79176D01*
X308267Y79213D01*
X308526Y79510D01*
X308711Y79824D01*
X308841Y80139D01*
X308933Y80435D01*
X308989Y80695D01*
X309007Y80898D01*
X309026Y80972D01*
Y81083D01*
X309007Y81417D01*
X308933Y81732D01*
X308841Y82009D01*
X308730Y82232D01*
X308637Y82417D01*
X308545Y82565D01*
X308470Y82639D01*
X308452Y82676D01*
X308193Y82898D01*
X307896Y83083D01*
X307582Y83250D01*
X307248Y83379D01*
X306971Y83472D01*
X306841Y83509D01*
X306730Y83528D01*
X306637Y83546D01*
X306563Y83565D01*
X306526Y83583D01*
X306508D01*
X306712Y85157D01*
X307008Y85120D01*
D02*
G37*
G36*
X310100Y70936D02*
Y69159D01*
X297286Y64159D01*
Y65881D01*
X306600Y69362D01*
X306989Y69511D01*
X307360Y69640D01*
X307711Y69751D01*
X308026Y69844D01*
X308304Y69936D01*
X308508Y69992D01*
X308582Y70010D01*
X308637Y70029D01*
X308674Y70048D01*
X308693D01*
X307952Y70270D01*
X307600Y70381D01*
X307285Y70492D01*
X307008Y70585D01*
X306897Y70622D01*
X306786Y70640D01*
X306712Y70677D01*
X306656Y70696D01*
X306619Y70714D01*
X306600D01*
X297286Y74047D01*
Y75899D01*
X310100Y70936D01*
D02*
G37*
G36*
X310322Y62752D02*
X297064Y59030D01*
Y60289D01*
X310322Y64011D01*
Y62752D01*
D02*
G37*
G36*
X307045Y58253D02*
X307323Y58197D01*
X307841Y58030D01*
X308285Y57827D01*
X308489Y57716D01*
X308656Y57604D01*
X308822Y57512D01*
X308971Y57401D01*
X309082Y57308D01*
X309174Y57216D01*
X309248Y57141D01*
X309322Y57105D01*
X309341Y57067D01*
X309359Y57049D01*
X309526Y56827D01*
X309674Y56604D01*
X309804Y56364D01*
X309915Y56123D01*
X310082Y55660D01*
X310193Y55197D01*
X310248Y54994D01*
X310267Y54790D01*
X310285Y54623D01*
X310304Y54475D01*
X310322Y54345D01*
Y54179D01*
X310304Y53790D01*
X310248Y53420D01*
X310174Y53068D01*
X310082Y52753D01*
X309952Y52457D01*
X309822Y52179D01*
X309693Y51920D01*
X309545Y51698D01*
X309396Y51494D01*
X309267Y51309D01*
X309119Y51161D01*
X309007Y51031D01*
X308915Y50938D01*
X308841Y50864D01*
X308785Y50827D01*
X308767Y50809D01*
X308526Y50624D01*
X308267Y50476D01*
X308026Y50327D01*
X307767Y50216D01*
X307267Y50031D01*
X306786Y49920D01*
X306582Y49883D01*
X306378Y49846D01*
X306211Y49827D01*
X306063Y49809D01*
X305934Y49790D01*
X305841D01*
X305786D01*
X305767D01*
X305434Y49809D01*
X305119Y49846D01*
X304804Y49901D01*
X304527Y49976D01*
X304267Y50068D01*
X304008Y50161D01*
X303786Y50272D01*
X303582Y50364D01*
X303397Y50476D01*
X303230Y50587D01*
X303101Y50679D01*
X302971Y50772D01*
X302878Y50846D01*
X302823Y50901D01*
X302786Y50938D01*
X302767Y50957D01*
X302564Y51179D01*
X302379Y51401D01*
X302230Y51642D01*
X302101Y51883D01*
X301971Y52123D01*
X301879Y52364D01*
X301749Y52809D01*
X301693Y53012D01*
X301656Y53197D01*
X301638Y53364D01*
X301619Y53512D01*
X301601Y53623D01*
Y54031D01*
X301638Y54253D01*
X301730Y54697D01*
X301860Y55105D01*
X302008Y55475D01*
X302156Y55771D01*
X302230Y55901D01*
X302286Y56012D01*
X302341Y56105D01*
X302379Y56160D01*
X302397Y56197D01*
X302416Y56216D01*
X298953Y55531D01*
Y50401D01*
X297453D01*
Y56771D01*
X304045Y58012D01*
X304249Y56530D01*
X304045Y56401D01*
X303878Y56234D01*
X303712Y56086D01*
X303582Y55938D01*
X303490Y55790D01*
X303397Y55679D01*
X303360Y55605D01*
X303341Y55586D01*
X303230Y55345D01*
X303138Y55105D01*
X303082Y54882D01*
X303027Y54660D01*
X303008Y54475D01*
X302990Y54327D01*
Y53975D01*
X303027Y53753D01*
X303119Y53364D01*
X303249Y53031D01*
X303379Y52734D01*
X303527Y52512D01*
X303656Y52346D01*
X303749Y52253D01*
X303767Y52216D01*
X303786D01*
X304101Y51957D01*
X304434Y51772D01*
X304786Y51642D01*
X305138Y51550D01*
X305434Y51494D01*
X305563Y51475D01*
X305674D01*
X305767Y51457D01*
X305841D01*
X305878D01*
X305897D01*
X306156D01*
X306397Y51494D01*
X306860Y51586D01*
X307248Y51716D01*
X307563Y51846D01*
X307822Y51994D01*
X308026Y52123D01*
X308082Y52179D01*
X308137Y52216D01*
X308156Y52235D01*
X308174Y52253D01*
X308322Y52401D01*
X308452Y52549D01*
X308674Y52883D01*
X308822Y53197D01*
X308915Y53512D01*
X308989Y53772D01*
X309007Y53994D01*
X309026Y54068D01*
Y54179D01*
X309007Y54531D01*
X308933Y54845D01*
X308841Y55123D01*
X308730Y55345D01*
X308619Y55549D01*
X308526Y55697D01*
X308452Y55771D01*
X308433Y55808D01*
X308174Y56031D01*
X307896Y56216D01*
X307582Y56364D01*
X307304Y56475D01*
X307026Y56549D01*
X306823Y56604D01*
X306730Y56623D01*
X306674Y56642D01*
X306637D01*
X306619D01*
X306749Y58289D01*
X307045Y58253D01*
D02*
G37*
G36*
X310100Y44050D02*
Y42273D01*
X297286Y37273D01*
Y38995D01*
X306600Y42476D01*
X306989Y42625D01*
X307360Y42754D01*
X307711Y42865D01*
X308026Y42958D01*
X308304Y43050D01*
X308508Y43106D01*
X308582Y43124D01*
X308637Y43143D01*
X308674Y43162D01*
X308693D01*
X307952Y43384D01*
X307600Y43495D01*
X307285Y43606D01*
X307008Y43698D01*
X306897Y43735D01*
X306786Y43754D01*
X306712Y43791D01*
X306656Y43809D01*
X306619Y43828D01*
X306600D01*
X297286Y47161D01*
Y49013D01*
X310100Y44050D01*
D02*
G37*
G36*
X284100Y60870D02*
X274046D01*
X284100Y54167D01*
Y52408D01*
X271287D01*
Y54038D01*
X281360D01*
X271287Y60759D01*
Y62500D01*
X284100D01*
Y60870D01*
D02*
G37*
G36*
X278267Y50020D02*
X278915Y49946D01*
X279489Y49853D01*
X279767Y49779D01*
X280008Y49724D01*
X280230Y49668D01*
X280434Y49594D01*
X280619Y49538D01*
X280767Y49501D01*
X280878Y49446D01*
X280971Y49427D01*
X281026Y49390D01*
X281045D01*
X281600Y49113D01*
X282100Y48798D01*
X282526Y48464D01*
X282693Y48298D01*
X282859Y48150D01*
X283008Y48001D01*
X283137Y47853D01*
X283248Y47724D01*
X283322Y47613D01*
X283396Y47539D01*
X283452Y47464D01*
X283470Y47428D01*
X283489Y47409D01*
X283637Y47150D01*
X283767Y46891D01*
X283970Y46335D01*
X284118Y45780D01*
X284211Y45243D01*
X284248Y44983D01*
X284285Y44761D01*
X284304Y44557D01*
Y44391D01*
X284322Y44243D01*
Y44039D01*
X284304Y43669D01*
X284267Y43317D01*
X284230Y42983D01*
X284156Y42669D01*
X284063Y42372D01*
X283970Y42095D01*
X283878Y41835D01*
X283767Y41595D01*
X283674Y41391D01*
X283582Y41187D01*
X283489Y41039D01*
X283396Y40891D01*
X283322Y40799D01*
X283285Y40706D01*
X283248Y40669D01*
X283230Y40650D01*
X283008Y40391D01*
X282785Y40169D01*
X282526Y39965D01*
X282267Y39762D01*
X281748Y39428D01*
X281230Y39169D01*
X280989Y39058D01*
X280767Y38965D01*
X280563Y38891D01*
X280397Y38836D01*
X280249Y38780D01*
X280137Y38743D01*
X280063Y38725D01*
X280045D01*
X279619Y40428D01*
X279915Y40502D01*
X280193Y40595D01*
X280452Y40687D01*
X280693Y40780D01*
X280915Y40891D01*
X281100Y41002D01*
X281285Y41132D01*
X281452Y41243D01*
X281600Y41336D01*
X281711Y41447D01*
X281822Y41539D01*
X281915Y41613D01*
X281971Y41687D01*
X282026Y41743D01*
X282045Y41761D01*
X282063Y41780D01*
X282211Y41965D01*
X282322Y42169D01*
X282526Y42576D01*
X282674Y42965D01*
X282767Y43354D01*
X282841Y43687D01*
X282859Y43817D01*
Y43946D01*
X282878Y44057D01*
Y44187D01*
X282859Y44613D01*
X282785Y45020D01*
X282693Y45391D01*
X282582Y45724D01*
X282470Y45983D01*
X282415Y46094D01*
X282378Y46187D01*
X282341Y46261D01*
X282304Y46316D01*
X282285Y46354D01*
Y46372D01*
X282026Y46724D01*
X281748Y47020D01*
X281434Y47279D01*
X281137Y47483D01*
X280878Y47650D01*
X280656Y47761D01*
X280563Y47798D01*
X280508Y47835D01*
X280471Y47853D01*
X280452D01*
X279971Y48001D01*
X279489Y48113D01*
X279008Y48205D01*
X278563Y48261D01*
X278360Y48279D01*
X278175Y48298D01*
X278008D01*
X277878Y48316D01*
X277767D01*
X277675D01*
X277619D01*
X277601D01*
X277119Y48298D01*
X276675Y48261D01*
X276268Y48187D01*
X275897Y48113D01*
X275582Y48057D01*
X275453Y48020D01*
X275342Y47983D01*
X275249Y47965D01*
X275194Y47946D01*
X275156Y47927D01*
X275138D01*
X274712Y47742D01*
X274323Y47539D01*
X274008Y47316D01*
X273731Y47076D01*
X273508Y46872D01*
X273360Y46705D01*
X273268Y46576D01*
X273231Y46557D01*
Y46539D01*
X272990Y46150D01*
X272805Y45724D01*
X272675Y45317D01*
X272601Y44928D01*
X272546Y44576D01*
X272527Y44428D01*
Y44298D01*
X272509Y44206D01*
Y44057D01*
X272527Y43595D01*
X272601Y43169D01*
X272712Y42817D01*
X272823Y42502D01*
X272953Y42261D01*
X273046Y42076D01*
X273120Y41965D01*
X273157Y41928D01*
X273434Y41632D01*
X273749Y41354D01*
X274083Y41132D01*
X274416Y40947D01*
X274712Y40799D01*
X274860Y40743D01*
X274971Y40706D01*
X275064Y40669D01*
X275138Y40632D01*
X275175Y40613D01*
X275194D01*
X274805Y38947D01*
X274471Y39058D01*
X274175Y39169D01*
X273897Y39317D01*
X273620Y39447D01*
X273379Y39595D01*
X273157Y39762D01*
X272934Y39910D01*
X272749Y40058D01*
X272601Y40206D01*
X272453Y40336D01*
X272323Y40465D01*
X272231Y40558D01*
X272138Y40650D01*
X272083Y40725D01*
X272064Y40761D01*
X272046Y40780D01*
X271879Y41039D01*
X271712Y41298D01*
X271583Y41558D01*
X271472Y41835D01*
X271305Y42391D01*
X271194Y42891D01*
X271138Y43132D01*
X271120Y43335D01*
X271101Y43539D01*
X271083Y43706D01*
X271064Y43835D01*
Y44020D01*
X271101Y44632D01*
X271194Y45224D01*
X271305Y45743D01*
X271379Y45983D01*
X271453Y46205D01*
X271527Y46409D01*
X271601Y46594D01*
X271657Y46742D01*
X271712Y46891D01*
X271768Y46983D01*
X271805Y47057D01*
X271824Y47113D01*
X271842Y47131D01*
X272157Y47631D01*
X272527Y48057D01*
X272897Y48427D01*
X273268Y48742D01*
X273601Y48983D01*
X273749Y49075D01*
X273879Y49149D01*
X273971Y49224D01*
X274046Y49261D01*
X274101Y49279D01*
X274119Y49298D01*
X274694Y49557D01*
X275286Y49742D01*
X275879Y49872D01*
X276416Y49964D01*
X276656Y50001D01*
X276897Y50020D01*
X277082Y50038D01*
X277267D01*
X277397Y50057D01*
X277508D01*
X277582D01*
X277601D01*
X278267Y50020D01*
D02*
G37*
G36*
X631534Y494282D02*
X632145Y494244D01*
X632701Y494189D01*
X633219Y494096D01*
X633700Y494004D01*
X634126Y493893D01*
X634515Y493782D01*
X634848Y493670D01*
X635145Y493559D01*
X635404Y493430D01*
X635626Y493337D01*
X635793Y493245D01*
X635941Y493152D01*
X636033Y493096D01*
X636089Y493059D01*
X636107Y493041D01*
X636330Y492837D01*
X636533Y492615D01*
X636719Y492374D01*
X636867Y492134D01*
X636996Y491893D01*
X637107Y491652D01*
X637182Y491411D01*
X637256Y491189D01*
X637311Y490967D01*
X637348Y490763D01*
X637385Y490578D01*
X637404Y490430D01*
X637422Y490300D01*
Y490115D01*
X637385Y489615D01*
X637311Y489152D01*
X637182Y488764D01*
X637052Y488430D01*
X636922Y488153D01*
X636848Y488060D01*
X636793Y487967D01*
X636756Y487893D01*
X636719Y487838D01*
X636682Y487819D01*
Y487801D01*
X636367Y487467D01*
X636033Y487190D01*
X635663Y486949D01*
X635330Y486764D01*
X635015Y486616D01*
X634885Y486541D01*
X634756Y486505D01*
X634663Y486468D01*
X634589Y486430D01*
X634552Y486412D01*
X634534D01*
X634256Y486319D01*
X633978Y486245D01*
X633386Y486134D01*
X632775Y486042D01*
X632182Y485986D01*
X631923Y485967D01*
X631682Y485949D01*
X631460D01*
X631256Y485930D01*
X631108D01*
X630978D01*
X630904D01*
X630886D01*
X630534D01*
X630201Y485949D01*
X629905D01*
X629608Y485967D01*
X629349Y486005D01*
X629090Y486023D01*
X628867Y486042D01*
X628664Y486079D01*
X628479Y486097D01*
X628312Y486134D01*
X628182Y486153D01*
X628071Y486171D01*
X627979Y486190D01*
X627923Y486208D01*
X627886Y486227D01*
X627868D01*
X627460Y486338D01*
X627090Y486468D01*
X626775Y486616D01*
X626497Y486727D01*
X626257Y486856D01*
X626090Y486930D01*
X625998Y487005D01*
X625960Y487023D01*
X625683Y487227D01*
X625442Y487430D01*
X625238Y487653D01*
X625053Y487856D01*
X624924Y488041D01*
X624831Y488190D01*
X624775Y488282D01*
X624757Y488301D01*
Y488319D01*
X624609Y488615D01*
X624516Y488930D01*
X624442Y489226D01*
X624386Y489504D01*
X624350Y489745D01*
X624331Y489949D01*
Y490115D01*
X624368Y490615D01*
X624442Y491078D01*
X624572Y491467D01*
X624701Y491800D01*
X624849Y492078D01*
X624905Y492189D01*
X624979Y492282D01*
X625016Y492356D01*
X625053Y492411D01*
X625090Y492430D01*
Y492448D01*
X625386Y492782D01*
X625738Y493059D01*
X626090Y493300D01*
X626423Y493485D01*
X626738Y493633D01*
X626868Y493708D01*
X626997Y493745D01*
X627090Y493782D01*
X627164Y493819D01*
X627201Y493837D01*
X627220D01*
X627497Y493911D01*
X627775Y493985D01*
X628386Y494096D01*
X628997Y494189D01*
X629571Y494244D01*
X629849Y494263D01*
X630090Y494282D01*
X630312D01*
X630516Y494300D01*
X630664D01*
X630793D01*
X630867D01*
X630886D01*
X631534Y494282D01*
D02*
G37*
G36*
X637200Y476987D02*
X631515D01*
Y474802D01*
X631534Y474598D01*
Y474450D01*
X631552Y474321D01*
X631571Y474228D01*
Y474154D01*
X631590Y474117D01*
Y474098D01*
X631682Y473802D01*
X631738Y473672D01*
X631793Y473561D01*
X631849Y473450D01*
X631886Y473376D01*
X631904Y473339D01*
X631923Y473321D01*
X632034Y473173D01*
X632164Y473024D01*
X632441Y472747D01*
X632571Y472617D01*
X632682Y472524D01*
X632756Y472469D01*
X632775Y472450D01*
X633034Y472265D01*
X633312Y472062D01*
X633608Y471858D01*
X633885Y471654D01*
X634145Y471488D01*
X634348Y471358D01*
X634422Y471302D01*
X634478Y471265D01*
X634515Y471228D01*
X634534D01*
X637200Y469543D01*
Y467432D01*
X633719Y469636D01*
X633349Y469895D01*
X633015Y470136D01*
X632738Y470377D01*
X632478Y470580D01*
X632293Y470765D01*
X632145Y470914D01*
X632052Y471006D01*
X632015Y471043D01*
X631904Y471191D01*
X631775Y471358D01*
X631571Y471691D01*
X631497Y471839D01*
X631423Y471950D01*
X631386Y472024D01*
X631367Y472062D01*
X631312Y471728D01*
X631256Y471413D01*
X631164Y471136D01*
X631090Y470858D01*
X630997Y470617D01*
X630886Y470395D01*
X630793Y470191D01*
X630701Y470006D01*
X630590Y469858D01*
X630497Y469710D01*
X630423Y469599D01*
X630349Y469506D01*
X630293Y469432D01*
X630238Y469377D01*
X630219Y469358D01*
X630201Y469340D01*
X630016Y469192D01*
X629830Y469043D01*
X629441Y468821D01*
X629053Y468673D01*
X628682Y468562D01*
X628368Y468488D01*
X628238Y468469D01*
X628108D01*
X628016Y468451D01*
X627942D01*
X627905D01*
X627886D01*
X627497Y468469D01*
X627146Y468525D01*
X626812Y468618D01*
X626534Y468710D01*
X626294Y468821D01*
X626109Y468895D01*
X625998Y468969D01*
X625979Y468988D01*
X625960D01*
X625664Y469210D01*
X625405Y469432D01*
X625183Y469673D01*
X625016Y469895D01*
X624887Y470099D01*
X624812Y470266D01*
X624757Y470377D01*
X624738Y470395D01*
Y470414D01*
X624683Y470580D01*
X624627Y470784D01*
X624535Y471191D01*
X624479Y471636D01*
X624423Y472043D01*
X624405Y472432D01*
Y472598D01*
X624386Y472747D01*
Y478690D01*
X637200D01*
Y476987D01*
D02*
G37*
G36*
Y465062D02*
X632756Y461822D01*
X632645Y461748D01*
X632515Y461655D01*
X632219Y461452D01*
X632071Y461359D01*
X631960Y461285D01*
X631886Y461229D01*
X631867Y461211D01*
X632145Y461026D01*
X632404Y460859D01*
X632497Y460785D01*
X632571Y460748D01*
X632626Y460711D01*
X632645Y460692D01*
X637200Y457452D01*
Y455360D01*
X630479Y460155D01*
X624386Y455711D01*
Y457563D01*
X627794Y460118D01*
X628071Y460341D01*
X628330Y460526D01*
X628590Y460711D01*
X628793Y460859D01*
X628979Y460989D01*
X629127Y461081D01*
X629201Y461137D01*
X629238Y461155D01*
X629016Y461285D01*
X628775Y461433D01*
X628516Y461600D01*
X628256Y461766D01*
X628034Y461933D01*
X627849Y462044D01*
X627775Y462100D01*
X627719Y462137D01*
X627701Y462174D01*
X627682D01*
X624386Y464507D01*
Y466525D01*
X630571Y462155D01*
X637200Y467099D01*
Y465062D01*
D02*
G37*
G36*
X633015Y454119D02*
X633441Y454100D01*
X634293Y453989D01*
X634682Y453934D01*
X635052Y453860D01*
X635422Y453767D01*
X635737Y453693D01*
X636052Y453601D01*
X636330Y453526D01*
X636552Y453452D01*
X636756Y453378D01*
X636922Y453323D01*
X637052Y453286D01*
X637126Y453267D01*
X637144Y453249D01*
X637941Y452897D01*
X638311Y452712D01*
X638663Y452527D01*
X638996Y452341D01*
X639311Y452156D01*
X639607Y451990D01*
X639885Y451804D01*
X640126Y451656D01*
X640348Y451508D01*
X640533Y451379D01*
X640681Y451267D01*
X640811Y451175D01*
X640903Y451101D01*
X640959Y451064D01*
X640977Y451045D01*
Y449916D01*
X640200Y450379D01*
X639422Y450786D01*
X638644Y451119D01*
X637904Y451416D01*
X637182Y451675D01*
X636478Y451897D01*
X635811Y452064D01*
X635200Y452193D01*
X634645Y452304D01*
X634126Y452397D01*
X633682Y452453D01*
X633293Y452490D01*
X633126D01*
X632978Y452508D01*
X632867D01*
X632756Y452527D01*
X632682D01*
X632626D01*
X632589D01*
X632571D01*
X631960Y452508D01*
X631367Y452471D01*
X630812Y452416D01*
X630552Y452378D01*
X630312Y452341D01*
X630090Y452304D01*
X629905Y452267D01*
X629719Y452249D01*
X629571Y452212D01*
X629460Y452193D01*
X629367Y452175D01*
X629312Y452156D01*
X629293D01*
X628812Y452027D01*
X628349Y451897D01*
X627923Y451767D01*
X627534Y451619D01*
X627368Y451564D01*
X627220Y451508D01*
X627090Y451453D01*
X626979Y451416D01*
X626886Y451379D01*
X626831Y451342D01*
X626794Y451323D01*
X626775D01*
X626609Y451249D01*
X626442Y451175D01*
X626035Y450953D01*
X625609Y450730D01*
X625183Y450490D01*
X624794Y450267D01*
X624609Y450175D01*
X624461Y450082D01*
X624331Y450008D01*
X624238Y449953D01*
X624183Y449934D01*
X624164Y449916D01*
Y451045D01*
X624572Y451342D01*
X624979Y451619D01*
X625386Y451879D01*
X625794Y452119D01*
X626164Y452341D01*
X626534Y452545D01*
X626886Y452712D01*
X627201Y452878D01*
X627497Y453008D01*
X627775Y453138D01*
X628016Y453249D01*
X628201Y453323D01*
X628368Y453397D01*
X628497Y453434D01*
X628571Y453452D01*
X628590Y453471D01*
X629312Y453693D01*
X630016Y453860D01*
X630682Y453971D01*
X630997Y454026D01*
X631293Y454045D01*
X631571Y454082D01*
X631812Y454100D01*
X632034Y454119D01*
X632219D01*
X632367Y454137D01*
X632478D01*
X632552D01*
X632571D01*
X633015Y454119D01*
D02*
G37*
G36*
X637200Y445898D02*
X624386D01*
Y447601D01*
X637200D01*
Y445898D01*
D02*
G37*
G36*
Y441287D02*
X627146D01*
X637200Y434584D01*
Y432825D01*
X624386D01*
Y434454D01*
X634459D01*
X624386Y441176D01*
Y442916D01*
X637200D01*
Y441287D01*
D02*
G37*
G36*
X640977Y429140D02*
X640348Y428677D01*
X639681Y428251D01*
X639033Y427881D01*
X638737Y427714D01*
X638441Y427566D01*
X638163Y427437D01*
X637922Y427307D01*
X637700Y427196D01*
X637515Y427122D01*
X637348Y427048D01*
X637237Y426992D01*
X637163Y426974D01*
X637144Y426955D01*
X636737Y426788D01*
X636311Y426659D01*
X635904Y426529D01*
X635496Y426437D01*
X634737Y426270D01*
X634367Y426214D01*
X634034Y426159D01*
X633719Y426122D01*
X633441Y426103D01*
X633182Y426066D01*
X632978D01*
X632812Y426048D01*
X632682D01*
X632589D01*
X632571D01*
X631812Y426085D01*
X631071Y426159D01*
X630719Y426214D01*
X630404Y426270D01*
X630090Y426326D01*
X629793Y426381D01*
X629534Y426455D01*
X629293Y426511D01*
X629090Y426566D01*
X628923Y426622D01*
X628775Y426677D01*
X628682Y426696D01*
X628608Y426733D01*
X628590D01*
X628182Y426881D01*
X627757Y427066D01*
X626960Y427437D01*
X626572Y427640D01*
X626220Y427844D01*
X625868Y428029D01*
X625535Y428233D01*
X625238Y428418D01*
X624979Y428585D01*
X624738Y428733D01*
X624535Y428881D01*
X624386Y428992D01*
X624257Y429066D01*
X624183Y429122D01*
X624164Y429140D01*
Y430270D01*
X624498Y430084D01*
X624812Y429899D01*
X625090Y429751D01*
X625349Y429603D01*
X625590Y429473D01*
X625812Y429362D01*
X625998Y429270D01*
X626164Y429177D01*
X626331Y429103D01*
X626442Y429048D01*
X626553Y428992D01*
X626646Y428955D01*
X626701Y428918D01*
X626757Y428899D01*
X626775Y428881D01*
X626794D01*
X627238Y428696D01*
X627701Y428529D01*
X628127Y428381D01*
X628497Y428270D01*
X628830Y428177D01*
X628979Y428140D01*
X629090Y428103D01*
X629182Y428085D01*
X629256Y428066D01*
X629293Y428048D01*
X629312D01*
X629923Y427918D01*
X630516Y427825D01*
X631053Y427751D01*
X631312Y427733D01*
X631552Y427714D01*
X631775Y427696D01*
X631960Y427677D01*
X632145D01*
X632293Y427659D01*
X632404D01*
X632497D01*
X632552D01*
X632571D01*
X633367Y427696D01*
X634145Y427770D01*
X634922Y427900D01*
X635663Y428066D01*
X636385Y428270D01*
X637089Y428492D01*
X637737Y428714D01*
X638348Y428955D01*
X638922Y429214D01*
X639422Y429436D01*
X639885Y429659D01*
X640255Y429862D01*
X640422Y429955D01*
X640570Y430029D01*
X640681Y430103D01*
X640792Y430159D01*
X640866Y430196D01*
X640922Y430233D01*
X640959Y430270D01*
X640977D01*
Y429140D01*
D02*
G37*
G36*
X602860Y493722D02*
X602730Y493445D01*
X602601Y493167D01*
X602471Y492907D01*
X602360Y492685D01*
X602268Y492500D01*
X602193Y492389D01*
X602175Y492370D01*
Y492352D01*
X601971Y492019D01*
X601768Y491722D01*
X601582Y491463D01*
X601416Y491259D01*
X601286Y491074D01*
X601175Y490963D01*
X601101Y490871D01*
X601082Y490852D01*
X611100D01*
Y489278D01*
X598231D01*
Y490297D01*
X598546Y490482D01*
X598842Y490686D01*
X599138Y490926D01*
X599398Y491148D01*
X599620Y491371D01*
X599805Y491537D01*
X599860Y491611D01*
X599916Y491667D01*
X599935Y491685D01*
X599953Y491704D01*
X600268Y492093D01*
X600564Y492482D01*
X600823Y492852D01*
X601027Y493222D01*
X601212Y493537D01*
X601286Y493667D01*
X601342Y493778D01*
X601397Y493870D01*
X601416Y493945D01*
X601453Y493982D01*
Y494000D01*
X602971D01*
X602860Y493722D01*
D02*
G37*
G36*
X599805Y476354D02*
X611100D01*
Y474650D01*
X599805D01*
Y470428D01*
X598287D01*
Y480575D01*
X599805D01*
Y476354D01*
D02*
G37*
G36*
X611100Y467947D02*
X606656Y464707D01*
X606545Y464633D01*
X606415Y464540D01*
X606119Y464336D01*
X605971Y464244D01*
X605860Y464170D01*
X605786Y464114D01*
X605767Y464096D01*
X606045Y463910D01*
X606304Y463744D01*
X606397Y463670D01*
X606471Y463633D01*
X606526Y463596D01*
X606545Y463577D01*
X611100Y460337D01*
Y458244D01*
X604379Y463040D01*
X598287Y458596D01*
Y460448D01*
X601694Y463003D01*
X601971Y463225D01*
X602230Y463411D01*
X602490Y463596D01*
X602693Y463744D01*
X602879Y463873D01*
X603027Y463966D01*
X603101Y464022D01*
X603138Y464040D01*
X602916Y464170D01*
X602675Y464318D01*
X602416Y464484D01*
X602156Y464651D01*
X601934Y464818D01*
X601749Y464929D01*
X601675Y464985D01*
X601619Y465022D01*
X601601Y465059D01*
X601582D01*
X598287Y467392D01*
Y469410D01*
X604471Y465040D01*
X611100Y469984D01*
Y467947D01*
D02*
G37*
G36*
X606915Y457004D02*
X607341Y456985D01*
X608193Y456874D01*
X608582Y456819D01*
X608952Y456745D01*
X609322Y456652D01*
X609637Y456578D01*
X609952Y456485D01*
X610230Y456411D01*
X610452Y456337D01*
X610656Y456263D01*
X610822Y456208D01*
X610952Y456171D01*
X611026Y456152D01*
X611044Y456134D01*
X611841Y455782D01*
X612211Y455597D01*
X612563Y455411D01*
X612896Y455226D01*
X613211Y455041D01*
X613507Y454874D01*
X613785Y454689D01*
X614026Y454541D01*
X614248Y454393D01*
X614433Y454263D01*
X614581Y454152D01*
X614711Y454060D01*
X614803Y453986D01*
X614859Y453949D01*
X614877Y453930D01*
Y452801D01*
X614100Y453264D01*
X613322Y453671D01*
X612544Y454004D01*
X611804Y454300D01*
X611082Y454560D01*
X610378Y454782D01*
X609711Y454949D01*
X609100Y455078D01*
X608545Y455189D01*
X608026Y455282D01*
X607582Y455337D01*
X607193Y455374D01*
X607026D01*
X606878Y455393D01*
X606767D01*
X606656Y455411D01*
X606582D01*
X606526D01*
X606489D01*
X606471D01*
X605860Y455393D01*
X605267Y455356D01*
X604712Y455300D01*
X604453Y455263D01*
X604212Y455226D01*
X603990Y455189D01*
X603805Y455152D01*
X603619Y455134D01*
X603471Y455097D01*
X603360Y455078D01*
X603268Y455060D01*
X603212Y455041D01*
X603193D01*
X602712Y454911D01*
X602249Y454782D01*
X601823Y454652D01*
X601434Y454504D01*
X601268Y454449D01*
X601119Y454393D01*
X600990Y454337D01*
X600879Y454300D01*
X600786Y454263D01*
X600731Y454226D01*
X600694Y454208D01*
X600675D01*
X600508Y454134D01*
X600342Y454060D01*
X599935Y453838D01*
X599509Y453615D01*
X599083Y453375D01*
X598694Y453152D01*
X598509Y453060D01*
X598361Y452967D01*
X598231Y452893D01*
X598138Y452838D01*
X598083Y452819D01*
X598064Y452801D01*
Y453930D01*
X598472Y454226D01*
X598879Y454504D01*
X599286Y454763D01*
X599694Y455004D01*
X600064Y455226D01*
X600434Y455430D01*
X600786Y455597D01*
X601101Y455763D01*
X601397Y455893D01*
X601675Y456022D01*
X601916Y456134D01*
X602101Y456208D01*
X602268Y456282D01*
X602397Y456319D01*
X602471Y456337D01*
X602490Y456356D01*
X603212Y456578D01*
X603916Y456745D01*
X604582Y456856D01*
X604897Y456911D01*
X605193Y456930D01*
X605471Y456967D01*
X605712Y456985D01*
X605934Y457004D01*
X606119D01*
X606267Y457022D01*
X606378D01*
X606452D01*
X606471D01*
X606915Y457004D01*
D02*
G37*
G36*
X605508Y451245D02*
X606082Y451171D01*
X606637Y451060D01*
X606878Y450986D01*
X607119Y450912D01*
X607323Y450856D01*
X607508Y450782D01*
X607674Y450727D01*
X607823Y450671D01*
X607934Y450634D01*
X608008Y450597D01*
X608063Y450560D01*
X608082D01*
X608619Y450245D01*
X609082Y449912D01*
X609489Y449542D01*
X609822Y449190D01*
X610100Y448875D01*
X610211Y448745D01*
X610285Y448634D01*
X610359Y448523D01*
X610415Y448449D01*
X610433Y448412D01*
X610452Y448394D01*
X610600Y448116D01*
X610730Y447838D01*
X610952Y447283D01*
X611100Y446746D01*
X611211Y446246D01*
X611248Y446005D01*
X611267Y445801D01*
X611304Y445616D01*
Y445449D01*
X611322Y445338D01*
Y445153D01*
X611285Y444542D01*
X611193Y443968D01*
X611082Y443431D01*
X611007Y443190D01*
X610933Y442968D01*
X610859Y442765D01*
X610785Y442579D01*
X610730Y442431D01*
X610674Y442302D01*
X610619Y442191D01*
X610582Y442098D01*
X610545Y442061D01*
Y442042D01*
X610211Y441524D01*
X609841Y441080D01*
X609452Y440709D01*
X609082Y440394D01*
X608730Y440135D01*
X608600Y440043D01*
X608471Y439969D01*
X608359Y439894D01*
X608285Y439857D01*
X608230Y439820D01*
X608211D01*
X607915Y439672D01*
X607619Y439561D01*
X607026Y439357D01*
X606434Y439209D01*
X605897Y439117D01*
X605656Y439098D01*
X605434Y439061D01*
X605230Y439043D01*
X605064D01*
X604916Y439024D01*
X604823D01*
X604749D01*
X604730D01*
X604027Y439061D01*
X603379Y439135D01*
X603082Y439191D01*
X602786Y439265D01*
X602527Y439339D01*
X602286Y439394D01*
X602064Y439469D01*
X601860Y439543D01*
X601694Y439598D01*
X601545Y439672D01*
X601434Y439709D01*
X601360Y439746D01*
X601305Y439783D01*
X601286D01*
X600749Y440080D01*
X600268Y440432D01*
X599860Y440802D01*
X599527Y441135D01*
X599268Y441450D01*
X599157Y441598D01*
X599064Y441709D01*
X599009Y441820D01*
X598953Y441894D01*
X598935Y441931D01*
X598916Y441950D01*
X598768Y442228D01*
X598638Y442505D01*
X598416Y443042D01*
X598268Y443598D01*
X598175Y444079D01*
X598138Y444301D01*
X598101Y444524D01*
X598083Y444690D01*
Y444857D01*
X598064Y444987D01*
Y445153D01*
X598083Y445653D01*
X598138Y446116D01*
X598231Y446561D01*
X598342Y446986D01*
X598490Y447375D01*
X598638Y447746D01*
X598805Y448079D01*
X598972Y448375D01*
X599138Y448653D01*
X599305Y448894D01*
X599453Y449097D01*
X599601Y449264D01*
X599712Y449394D01*
X599805Y449505D01*
X599860Y449560D01*
X599879Y449579D01*
X600231Y449875D01*
X600601Y450134D01*
X601008Y450375D01*
X601416Y450560D01*
X601842Y450727D01*
X602249Y450875D01*
X602656Y450986D01*
X603045Y451060D01*
X603416Y451134D01*
X603767Y451190D01*
X604082Y451227D01*
X604341Y451264D01*
X604564D01*
X604730Y451282D01*
X604841D01*
X604860D01*
X604878D01*
X605508Y451245D01*
D02*
G37*
G36*
X606415Y436802D02*
X606749Y436784D01*
X607063Y436747D01*
X607341Y436710D01*
X607600Y436673D01*
X607841Y436617D01*
X608063Y436580D01*
X608267Y436543D01*
X608434Y436487D01*
X608582Y436450D01*
X608693Y436413D01*
X608785Y436376D01*
X608859Y436358D01*
X608896Y436339D01*
X608915D01*
X609322Y436136D01*
X609693Y435876D01*
X609989Y435617D01*
X610248Y435339D01*
X610452Y435099D01*
X610600Y434895D01*
X610637Y434821D01*
X610674Y434765D01*
X610711Y434728D01*
Y434710D01*
X610915Y434247D01*
X611063Y433765D01*
X611174Y433266D01*
X611248Y432803D01*
X611267Y432599D01*
X611285Y432395D01*
X611304Y432210D01*
Y432062D01*
X611322Y431932D01*
Y431766D01*
X611285Y431099D01*
X611248Y430803D01*
X611211Y430525D01*
X611156Y430247D01*
X611100Y430007D01*
X611044Y429784D01*
X610970Y429581D01*
X610896Y429396D01*
X610841Y429248D01*
X610785Y429099D01*
X610730Y428988D01*
X610674Y428896D01*
X610656Y428840D01*
X610619Y428803D01*
Y428784D01*
X610341Y428377D01*
X610026Y428044D01*
X609730Y427785D01*
X609434Y427562D01*
X609174Y427396D01*
X608971Y427285D01*
X608896Y427248D01*
X608841Y427211D01*
X608804Y427192D01*
X608785D01*
X608563Y427118D01*
X608322Y427044D01*
X607823Y426933D01*
X607304Y426859D01*
X606804Y426803D01*
X606582Y426785D01*
X606360Y426766D01*
X606175D01*
X606008Y426748D01*
X605878D01*
X605786D01*
X605712D01*
X605693D01*
X598287D01*
Y428451D01*
X605693D01*
X606119D01*
X606526Y428488D01*
X606878Y428525D01*
X607211Y428581D01*
X607508Y428636D01*
X607785Y428711D01*
X608026Y428766D01*
X608230Y428840D01*
X608397Y428914D01*
X608563Y428988D01*
X608674Y429062D01*
X608785Y429118D01*
X608859Y429173D01*
X608915Y429210D01*
X608934Y429229D01*
X608952Y429248D01*
X609100Y429414D01*
X609230Y429599D01*
X609434Y430007D01*
X609582Y430433D01*
X609674Y430877D01*
X609748Y431284D01*
X609767Y431451D01*
Y431618D01*
X609785Y431729D01*
Y431914D01*
X609767Y432303D01*
X609711Y432654D01*
X609656Y432988D01*
X609563Y433247D01*
X609489Y433469D01*
X609434Y433636D01*
X609378Y433728D01*
X609359Y433765D01*
X609193Y434025D01*
X608989Y434247D01*
X608785Y434432D01*
X608600Y434562D01*
X608415Y434673D01*
X608285Y434765D01*
X608193Y434802D01*
X608156Y434821D01*
X607989Y434877D01*
X607823Y434913D01*
X607434Y434988D01*
X607026Y435043D01*
X606619Y435080D01*
X606267Y435099D01*
X606101D01*
X605971Y435117D01*
X605860D01*
X605767D01*
X605712D01*
X605693D01*
X598287D01*
Y436821D01*
X605693D01*
X606063D01*
X606415Y436802D01*
D02*
G37*
G36*
X599805Y420656D02*
X611100D01*
Y418952D01*
X599805D01*
Y414730D01*
X598287D01*
Y424878D01*
X599805D01*
Y420656D01*
D02*
G37*
G36*
X614877Y412138D02*
X614248Y411675D01*
X613581Y411249D01*
X612933Y410879D01*
X612637Y410712D01*
X612341Y410564D01*
X612063Y410435D01*
X611822Y410305D01*
X611600Y410194D01*
X611415Y410120D01*
X611248Y410046D01*
X611137Y409990D01*
X611063Y409972D01*
X611044Y409953D01*
X610637Y409786D01*
X610211Y409657D01*
X609804Y409527D01*
X609397Y409435D01*
X608637Y409268D01*
X608267Y409212D01*
X607934Y409157D01*
X607619Y409120D01*
X607341Y409101D01*
X607082Y409064D01*
X606878D01*
X606712Y409046D01*
X606582D01*
X606489D01*
X606471D01*
X605712Y409083D01*
X604971Y409157D01*
X604619Y409212D01*
X604304Y409268D01*
X603990Y409324D01*
X603693Y409379D01*
X603434Y409453D01*
X603193Y409509D01*
X602990Y409564D01*
X602823Y409620D01*
X602675Y409675D01*
X602582Y409694D01*
X602508Y409731D01*
X602490D01*
X602082Y409879D01*
X601656Y410064D01*
X600860Y410435D01*
X600471Y410638D01*
X600120Y410842D01*
X599768Y411027D01*
X599435Y411231D01*
X599138Y411416D01*
X598879Y411583D01*
X598638Y411731D01*
X598435Y411879D01*
X598287Y411990D01*
X598157Y412064D01*
X598083Y412120D01*
X598064Y412138D01*
Y413268D01*
X598398Y413083D01*
X598712Y412897D01*
X598990Y412749D01*
X599249Y412601D01*
X599490Y412471D01*
X599712Y412360D01*
X599897Y412268D01*
X600064Y412175D01*
X600231Y412101D01*
X600342Y412046D01*
X600453Y411990D01*
X600546Y411953D01*
X600601Y411916D01*
X600657Y411897D01*
X600675Y411879D01*
X600694D01*
X601138Y411694D01*
X601601Y411527D01*
X602027Y411379D01*
X602397Y411268D01*
X602730Y411175D01*
X602879Y411138D01*
X602990Y411101D01*
X603082Y411083D01*
X603156Y411064D01*
X603193Y411046D01*
X603212D01*
X603823Y410916D01*
X604416Y410823D01*
X604953Y410749D01*
X605212Y410731D01*
X605452Y410712D01*
X605675Y410694D01*
X605860Y410675D01*
X606045D01*
X606193Y410657D01*
X606304D01*
X606397D01*
X606452D01*
X606471D01*
X607267Y410694D01*
X608045Y410768D01*
X608823Y410897D01*
X609563Y411064D01*
X610285Y411268D01*
X610989Y411490D01*
X611637Y411712D01*
X612248Y411953D01*
X612822Y412212D01*
X613322Y412434D01*
X613785Y412657D01*
X614155Y412860D01*
X614322Y412953D01*
X614470Y413027D01*
X614581Y413101D01*
X614692Y413157D01*
X614766Y413194D01*
X614822Y413231D01*
X614859Y413268D01*
X614877D01*
Y412138D01*
D02*
G37*
G36*
X583600Y484582D02*
X582082D01*
Y490896D01*
X581767Y490674D01*
X581637Y490563D01*
X581508Y490471D01*
X581396Y490378D01*
X581323Y490304D01*
X581267Y490248D01*
X581248Y490230D01*
X581156Y490137D01*
X581063Y490026D01*
X580822Y489767D01*
X580545Y489471D01*
X580267Y489156D01*
X580026Y488860D01*
X579915Y488730D01*
X579804Y488619D01*
X579730Y488526D01*
X579674Y488452D01*
X579637Y488415D01*
X579619Y488397D01*
X579360Y488101D01*
X579119Y487804D01*
X578878Y487545D01*
X578675Y487304D01*
X578471Y487082D01*
X578286Y486897D01*
X578119Y486712D01*
X577971Y486564D01*
X577823Y486415D01*
X577712Y486304D01*
X577619Y486212D01*
X577527Y486119D01*
X577416Y486027D01*
X577378Y485990D01*
X577064Y485730D01*
X576786Y485508D01*
X576508Y485323D01*
X576286Y485175D01*
X576082Y485064D01*
X575934Y484990D01*
X575841Y484953D01*
X575804Y484934D01*
X575527Y484823D01*
X575249Y484749D01*
X574990Y484675D01*
X574768Y484638D01*
X574564Y484619D01*
X574416Y484601D01*
X574323D01*
X574286D01*
X574008Y484619D01*
X573749Y484656D01*
X573490Y484693D01*
X573268Y484767D01*
X572823Y484953D01*
X572472Y485138D01*
X572305Y485249D01*
X572175Y485341D01*
X572046Y485434D01*
X571953Y485527D01*
X571879Y485601D01*
X571805Y485638D01*
X571786Y485675D01*
X571768Y485693D01*
X571583Y485897D01*
X571416Y486119D01*
X571287Y486360D01*
X571175Y486601D01*
X570990Y487082D01*
X570861Y487564D01*
X570824Y487767D01*
X570787Y487971D01*
X570768Y488156D01*
X570750Y488304D01*
X570731Y488434D01*
Y488619D01*
X570750Y488952D01*
X570768Y489267D01*
X570824Y489563D01*
X570879Y489841D01*
X570953Y490100D01*
X571027Y490341D01*
X571120Y490563D01*
X571212Y490767D01*
X571305Y490952D01*
X571398Y491100D01*
X571472Y491230D01*
X571546Y491341D01*
X571601Y491433D01*
X571657Y491489D01*
X571675Y491526D01*
X571694Y491545D01*
X571879Y491730D01*
X572083Y491896D01*
X572305Y492063D01*
X572527Y492193D01*
X572971Y492415D01*
X573416Y492563D01*
X573620Y492619D01*
X573823Y492674D01*
X573990Y492711D01*
X574138Y492748D01*
X574268Y492767D01*
X574360D01*
X574416Y492785D01*
X574434D01*
X574601Y491174D01*
X574175Y491137D01*
X573805Y491063D01*
X573471Y490952D01*
X573212Y490822D01*
X572990Y490711D01*
X572842Y490600D01*
X572749Y490526D01*
X572712Y490489D01*
X572490Y490211D01*
X572323Y489915D01*
X572194Y489600D01*
X572120Y489323D01*
X572064Y489063D01*
X572046Y488841D01*
X572027Y488767D01*
Y488656D01*
X572046Y488267D01*
X572120Y487915D01*
X572231Y487619D01*
X572342Y487360D01*
X572472Y487156D01*
X572564Y487027D01*
X572638Y486934D01*
X572675Y486897D01*
X572934Y486675D01*
X573194Y486508D01*
X573453Y486379D01*
X573712Y486304D01*
X573916Y486249D01*
X574101Y486230D01*
X574212Y486212D01*
X574231D01*
X574249D01*
X574582Y486249D01*
X574934Y486323D01*
X575249Y486452D01*
X575545Y486582D01*
X575786Y486730D01*
X575990Y486860D01*
X576064Y486897D01*
X576119Y486934D01*
X576138Y486971D01*
X576156D01*
X576360Y487119D01*
X576564Y487304D01*
X576786Y487508D01*
X577008Y487730D01*
X577453Y488193D01*
X577897Y488656D01*
X578101Y488897D01*
X578286Y489100D01*
X578452Y489304D01*
X578601Y489471D01*
X578712Y489600D01*
X578804Y489711D01*
X578860Y489785D01*
X578878Y489804D01*
X579267Y490267D01*
X579637Y490693D01*
X579971Y491045D01*
X580248Y491322D01*
X580489Y491563D01*
X580656Y491730D01*
X580767Y491822D01*
X580785Y491859D01*
X580804D01*
X581119Y492119D01*
X581415Y492322D01*
X581711Y492508D01*
X581970Y492656D01*
X582193Y492767D01*
X582359Y492841D01*
X582471Y492878D01*
X582489Y492896D01*
X582508D01*
X582711Y492970D01*
X582896Y493007D01*
X583082Y493045D01*
X583248Y493063D01*
X583396Y493082D01*
X583507D01*
X583582D01*
X583600D01*
Y484582D01*
D02*
G37*
G36*
X557408Y492863D02*
X557686Y492807D01*
X558204Y492641D01*
X558648Y492437D01*
X558834Y492326D01*
X559019Y492215D01*
X559185Y492104D01*
X559315Y491993D01*
X559445Y491900D01*
X559537Y491808D01*
X559611Y491752D01*
X559667Y491696D01*
X559704Y491659D01*
X559722Y491641D01*
X559889Y491419D01*
X560056Y491197D01*
X560185Y490974D01*
X560296Y490734D01*
X560481Y490271D01*
X560593Y489826D01*
X560630Y489623D01*
X560667Y489437D01*
X560685Y489271D01*
X560704Y489123D01*
X560722Y489011D01*
Y488845D01*
X560704Y488493D01*
X560667Y488178D01*
X560611Y487864D01*
X560537Y487567D01*
X560444Y487290D01*
X560352Y487049D01*
X560241Y486808D01*
X560130Y486604D01*
X560037Y486401D01*
X559926Y486234D01*
X559833Y486086D01*
X559741Y485975D01*
X559667Y485882D01*
X559611Y485808D01*
X559574Y485771D01*
X559556Y485753D01*
X559333Y485530D01*
X559093Y485345D01*
X558852Y485179D01*
X558611Y485030D01*
X558389Y484919D01*
X558148Y484808D01*
X557704Y484660D01*
X557500Y484623D01*
X557315Y484586D01*
X557149Y484549D01*
X557000Y484530D01*
X556889Y484512D01*
X556797D01*
X556741D01*
X556723D01*
X556278Y484530D01*
X555871Y484605D01*
X555519Y484716D01*
X555223Y484827D01*
X554982Y484938D01*
X554797Y485049D01*
X554686Y485123D01*
X554649Y485141D01*
X554371Y485401D01*
X554130Y485678D01*
X553945Y485975D01*
X553797Y486271D01*
X553686Y486530D01*
X553612Y486734D01*
X553593Y486808D01*
X553575Y486864D01*
X553556Y486901D01*
Y486919D01*
X553390Y486604D01*
X553223Y486345D01*
X553038Y486123D01*
X552871Y485938D01*
X552723Y485790D01*
X552593Y485678D01*
X552519Y485623D01*
X552482Y485605D01*
X552223Y485456D01*
X551964Y485345D01*
X551705Y485253D01*
X551464Y485197D01*
X551260Y485160D01*
X551112Y485141D01*
X551001D01*
X550964D01*
X550649Y485160D01*
X550334Y485216D01*
X550057Y485290D01*
X549816Y485382D01*
X549612Y485475D01*
X549446Y485549D01*
X549353Y485605D01*
X549316Y485623D01*
X549038Y485808D01*
X548797Y486030D01*
X548594Y486253D01*
X548409Y486475D01*
X548279Y486660D01*
X548168Y486827D01*
X548112Y486938D01*
X548094Y486956D01*
Y486975D01*
X547946Y487308D01*
X547835Y487641D01*
X547742Y487975D01*
X547687Y488271D01*
X547649Y488512D01*
X547631Y488715D01*
Y489178D01*
X547668Y489437D01*
X547761Y489937D01*
X547909Y490363D01*
X548057Y490734D01*
X548149Y490900D01*
X548223Y491030D01*
X548298Y491159D01*
X548372Y491252D01*
X548427Y491326D01*
X548464Y491382D01*
X548483Y491419D01*
X548501Y491437D01*
X548853Y491789D01*
X549242Y492067D01*
X549649Y492289D01*
X550057Y492474D01*
X550408Y492585D01*
X550557Y492641D01*
X550686Y492678D01*
X550797Y492696D01*
X550871Y492715D01*
X550927Y492733D01*
X550945D01*
X551223Y491159D01*
X550816Y491085D01*
X550464Y490974D01*
X550168Y490845D01*
X549927Y490715D01*
X549742Y490585D01*
X549612Y490474D01*
X549520Y490400D01*
X549501Y490382D01*
X549316Y490141D01*
X549168Y489882D01*
X549075Y489641D01*
X549001Y489400D01*
X548964Y489178D01*
X548927Y489011D01*
Y488863D01*
X548946Y488530D01*
X549020Y488234D01*
X549112Y487975D01*
X549205Y487752D01*
X549316Y487586D01*
X549409Y487456D01*
X549483Y487364D01*
X549501Y487345D01*
X549723Y487141D01*
X549964Y486993D01*
X550205Y486901D01*
X550427Y486827D01*
X550631Y486790D01*
X550779Y486753D01*
X550890D01*
X550908D01*
X550927D01*
X551131D01*
X551316Y486790D01*
X551631Y486882D01*
X551908Y487012D01*
X552149Y487160D01*
X552316Y487308D01*
X552445Y487438D01*
X552519Y487530D01*
X552538Y487549D01*
Y487567D01*
X552705Y487882D01*
X552834Y488178D01*
X552927Y488493D01*
X552982Y488771D01*
X553019Y489011D01*
X553056Y489215D01*
Y489456D01*
X553038Y489530D01*
Y489623D01*
X554427Y489808D01*
X554371Y489567D01*
X554334Y489345D01*
X554297Y489160D01*
X554278Y488993D01*
X554260Y488863D01*
Y488697D01*
X554297Y488308D01*
X554371Y487956D01*
X554482Y487641D01*
X554612Y487382D01*
X554741Y487178D01*
X554852Y487030D01*
X554926Y486938D01*
X554963Y486901D01*
X555241Y486660D01*
X555537Y486475D01*
X555834Y486345D01*
X556130Y486271D01*
X556371Y486216D01*
X556575Y486197D01*
X556648Y486179D01*
X556704D01*
X556741D01*
X556760D01*
X557167Y486216D01*
X557537Y486308D01*
X557852Y486419D01*
X558130Y486567D01*
X558352Y486716D01*
X558519Y486827D01*
X558630Y486919D01*
X558667Y486956D01*
X558926Y487252D01*
X559111Y487567D01*
X559241Y487882D01*
X559333Y488178D01*
X559389Y488438D01*
X559408Y488641D01*
X559426Y488715D01*
Y488826D01*
X559408Y489160D01*
X559333Y489474D01*
X559241Y489752D01*
X559130Y489974D01*
X559037Y490159D01*
X558945Y490308D01*
X558871Y490382D01*
X558852Y490419D01*
X558593Y490641D01*
X558297Y490826D01*
X557982Y490993D01*
X557648Y491122D01*
X557371Y491215D01*
X557241Y491252D01*
X557130Y491270D01*
X557037Y491289D01*
X556963Y491308D01*
X556926Y491326D01*
X556908D01*
X557112Y492900D01*
X557408Y492863D01*
D02*
G37*
G36*
X533426Y487327D02*
X536500D01*
Y485753D01*
X533426D01*
Y484012D01*
X531982D01*
Y485753D01*
X523686D01*
Y487030D01*
X531982Y492900D01*
X533426D01*
Y487327D01*
D02*
G37*
G36*
X508345Y492363D02*
X508623Y492307D01*
X509141Y492141D01*
X509585Y491937D01*
X509789Y491826D01*
X509956Y491715D01*
X510122Y491622D01*
X510271Y491511D01*
X510382Y491419D01*
X510474Y491326D01*
X510548Y491252D01*
X510622Y491215D01*
X510641Y491178D01*
X510659Y491159D01*
X510826Y490937D01*
X510974Y490715D01*
X511104Y490474D01*
X511215Y490234D01*
X511381Y489771D01*
X511493Y489308D01*
X511548Y489104D01*
X511567Y488900D01*
X511585Y488734D01*
X511604Y488586D01*
X511622Y488456D01*
Y488289D01*
X511604Y487901D01*
X511548Y487530D01*
X511474Y487178D01*
X511381Y486864D01*
X511252Y486567D01*
X511122Y486289D01*
X510993Y486030D01*
X510844Y485808D01*
X510696Y485604D01*
X510567Y485419D01*
X510419Y485271D01*
X510308Y485141D01*
X510215Y485049D01*
X510141Y484975D01*
X510085Y484938D01*
X510067Y484919D01*
X509826Y484734D01*
X509567Y484586D01*
X509326Y484438D01*
X509067Y484327D01*
X508567Y484142D01*
X508086Y484030D01*
X507882Y483993D01*
X507678Y483956D01*
X507511Y483938D01*
X507363Y483919D01*
X507234Y483901D01*
X507141D01*
X507086D01*
X507067D01*
X506734Y483919D01*
X506419Y483956D01*
X506104Y484012D01*
X505826Y484086D01*
X505567Y484179D01*
X505308Y484271D01*
X505086Y484382D01*
X504882Y484475D01*
X504697Y484586D01*
X504530Y484697D01*
X504401Y484790D01*
X504271Y484882D01*
X504179Y484956D01*
X504123Y485012D01*
X504086Y485049D01*
X504067Y485067D01*
X503864Y485290D01*
X503679Y485512D01*
X503530Y485752D01*
X503401Y485993D01*
X503271Y486234D01*
X503179Y486475D01*
X503049Y486919D01*
X502994Y487123D01*
X502956Y487308D01*
X502938Y487475D01*
X502919Y487623D01*
X502901Y487734D01*
Y488141D01*
X502938Y488363D01*
X503031Y488808D01*
X503160Y489215D01*
X503308Y489585D01*
X503456Y489882D01*
X503530Y490011D01*
X503586Y490122D01*
X503642Y490215D01*
X503679Y490271D01*
X503697Y490308D01*
X503716Y490326D01*
X500253Y489641D01*
Y484512D01*
X498753D01*
Y490882D01*
X505345Y492122D01*
X505549Y490641D01*
X505345Y490511D01*
X505178Y490345D01*
X505012Y490196D01*
X504882Y490048D01*
X504790Y489900D01*
X504697Y489789D01*
X504660Y489715D01*
X504641Y489697D01*
X504530Y489456D01*
X504438Y489215D01*
X504382Y488993D01*
X504327Y488771D01*
X504308Y488586D01*
X504290Y488438D01*
Y488086D01*
X504327Y487863D01*
X504419Y487475D01*
X504549Y487141D01*
X504678Y486845D01*
X504827Y486623D01*
X504956Y486456D01*
X505049Y486364D01*
X505067Y486327D01*
X505086D01*
X505401Y486067D01*
X505734Y485882D01*
X506086Y485752D01*
X506437Y485660D01*
X506734Y485604D01*
X506863Y485586D01*
X506974D01*
X507067Y485567D01*
X507141D01*
X507178D01*
X507197D01*
X507456D01*
X507697Y485604D01*
X508160Y485697D01*
X508548Y485827D01*
X508863Y485956D01*
X509123Y486104D01*
X509326Y486234D01*
X509382Y486289D01*
X509437Y486327D01*
X509456Y486345D01*
X509474Y486364D01*
X509622Y486512D01*
X509752Y486660D01*
X509974Y486993D01*
X510122Y487308D01*
X510215Y487623D01*
X510289Y487882D01*
X510308Y488104D01*
X510326Y488178D01*
Y488289D01*
X510308Y488641D01*
X510233Y488956D01*
X510141Y489234D01*
X510030Y489456D01*
X509919Y489660D01*
X509826Y489808D01*
X509752Y489882D01*
X509734Y489919D01*
X509474Y490141D01*
X509197Y490326D01*
X508882Y490474D01*
X508604Y490585D01*
X508326Y490659D01*
X508123Y490715D01*
X508030Y490733D01*
X507974Y490752D01*
X507937D01*
X507919D01*
X508049Y492400D01*
X508345Y492363D01*
D02*
G37*
G36*
X478012Y492481D02*
X478567Y492444D01*
X479086Y492389D01*
X479567Y492296D01*
X479993Y492204D01*
X480382Y492111D01*
X480734Y492000D01*
X481048Y491870D01*
X481308Y491759D01*
X481548Y491648D01*
X481734Y491556D01*
X481900Y491445D01*
X482030Y491371D01*
X482104Y491315D01*
X482159Y491278D01*
X482178Y491259D01*
X482437Y491019D01*
X482659Y490759D01*
X482845Y490500D01*
X483011Y490241D01*
X483159Y489963D01*
X483270Y489704D01*
X483363Y489445D01*
X483437Y489185D01*
X483493Y488963D01*
X483548Y488741D01*
X483585Y488556D01*
X483604Y488389D01*
Y488241D01*
X483622Y488149D01*
Y488056D01*
X483604Y487630D01*
X483530Y487241D01*
X483456Y486889D01*
X483344Y486575D01*
X483252Y486334D01*
X483159Y486149D01*
X483141Y486075D01*
X483104Y486019D01*
X483085Y486001D01*
Y485982D01*
X482863Y485667D01*
X482604Y485371D01*
X482345Y485130D01*
X482085Y484927D01*
X481845Y484760D01*
X481659Y484649D01*
X481585Y484612D01*
X481530Y484575D01*
X481511Y484556D01*
X481493D01*
X481104Y484371D01*
X480697Y484242D01*
X480326Y484149D01*
X479974Y484094D01*
X479678Y484038D01*
X479567D01*
X479456Y484019D01*
X479363D01*
X479308D01*
X479271D01*
X479252D01*
X478919Y484038D01*
X478604Y484075D01*
X478289Y484131D01*
X478012Y484186D01*
X477752Y484279D01*
X477493Y484371D01*
X477271Y484464D01*
X477067Y484575D01*
X476882Y484686D01*
X476716Y484779D01*
X476586Y484871D01*
X476456Y484964D01*
X476364Y485019D01*
X476308Y485075D01*
X476271Y485112D01*
X476253Y485130D01*
X476049Y485334D01*
X475864Y485556D01*
X475716Y485797D01*
X475586Y486019D01*
X475456Y486241D01*
X475364Y486464D01*
X475234Y486889D01*
X475179Y487075D01*
X475142Y487260D01*
X475123Y487408D01*
X475105Y487556D01*
X475086Y487667D01*
Y487815D01*
X475105Y488149D01*
X475160Y488463D01*
X475216Y488760D01*
X475290Y489019D01*
X475382Y489241D01*
X475438Y489408D01*
X475493Y489519D01*
X475512Y489537D01*
Y489556D01*
X475697Y489852D01*
X475901Y490111D01*
X476105Y490352D01*
X476327Y490537D01*
X476512Y490704D01*
X476660Y490834D01*
X476771Y490908D01*
X476790Y490926D01*
X476456D01*
X476123Y490908D01*
X475827Y490889D01*
X475530Y490852D01*
X475271Y490834D01*
X475031Y490797D01*
X474808Y490759D01*
X474605Y490704D01*
X474419Y490667D01*
X474271Y490630D01*
X474142Y490593D01*
X474031Y490574D01*
X473956Y490537D01*
X473901Y490519D01*
X473864Y490500D01*
X473845D01*
X473475Y490315D01*
X473142Y490130D01*
X472883Y489926D01*
X472660Y489741D01*
X472475Y489574D01*
X472346Y489445D01*
X472271Y489352D01*
X472253Y489315D01*
X472105Y489093D01*
X472012Y488871D01*
X471938Y488649D01*
X471883Y488426D01*
X471846Y488260D01*
X471827Y488112D01*
Y487982D01*
X471864Y487649D01*
X471938Y487334D01*
X472049Y487075D01*
X472160Y486834D01*
X472290Y486649D01*
X472401Y486519D01*
X472475Y486445D01*
X472512Y486408D01*
X472679Y486278D01*
X472883Y486149D01*
X473105Y486038D01*
X473327Y485964D01*
X473531Y485890D01*
X473697Y485834D01*
X473808Y485816D01*
X473827Y485797D01*
X473845D01*
X473716Y484223D01*
X473197Y484334D01*
X472734Y484501D01*
X472327Y484686D01*
X471994Y484890D01*
X471735Y485093D01*
X471623Y485167D01*
X471531Y485260D01*
X471475Y485316D01*
X471420Y485371D01*
X471401Y485390D01*
X471383Y485408D01*
X471235Y485593D01*
X471105Y485797D01*
X470883Y486204D01*
X470735Y486612D01*
X470642Y487001D01*
X470568Y487352D01*
X470550Y487500D01*
Y487630D01*
X470531Y487741D01*
Y487889D01*
X470550Y488260D01*
X470587Y488611D01*
X470661Y488945D01*
X470753Y489260D01*
X470883Y489537D01*
X470994Y489815D01*
X471142Y490056D01*
X471272Y490278D01*
X471401Y490463D01*
X471549Y490648D01*
X471660Y490797D01*
X471772Y490908D01*
X471883Y491000D01*
X471957Y491074D01*
X471994Y491111D01*
X472012Y491130D01*
X472346Y491371D01*
X472734Y491574D01*
X473142Y491759D01*
X473568Y491926D01*
X474012Y492056D01*
X474456Y492167D01*
X474919Y492259D01*
X475345Y492333D01*
X475771Y492389D01*
X476160Y492426D01*
X476512Y492463D01*
X476808Y492481D01*
X477067D01*
X477253Y492500D01*
X477327D01*
X477382D01*
X477401D01*
X477419D01*
X478012Y492481D01*
D02*
G37*
G36*
X448971Y485923D02*
X449509Y486367D01*
X450083Y486793D01*
X450638Y487164D01*
X451175Y487515D01*
X451416Y487663D01*
X451638Y487793D01*
X451842Y487923D01*
X452008Y488015D01*
X452156Y488089D01*
X452249Y488145D01*
X452323Y488182D01*
X452341Y488200D01*
X453082Y488571D01*
X453823Y488904D01*
X454526Y489182D01*
X454841Y489293D01*
X455156Y489404D01*
X455434Y489515D01*
X455693Y489589D01*
X455915Y489663D01*
X456100Y489719D01*
X456267Y489774D01*
X456378Y489811D01*
X456452Y489830D01*
X456471D01*
X457230Y490015D01*
X457600Y490089D01*
X457934Y490145D01*
X458248Y490200D01*
X458563Y490256D01*
X458822Y490293D01*
X459082Y490330D01*
X459304Y490348D01*
X459507Y490367D01*
X459693Y490385D01*
X459841D01*
X459952Y490404D01*
X460026D01*
X460081D01*
X460100D01*
Y488793D01*
X459396Y488737D01*
X458748Y488645D01*
X458156Y488552D01*
X457878Y488497D01*
X457619Y488441D01*
X457397Y488404D01*
X457193Y488349D01*
X457008Y488312D01*
X456860Y488274D01*
X456749Y488237D01*
X456656Y488219D01*
X456600Y488200D01*
X456582D01*
X455730Y487923D01*
X454934Y487626D01*
X454545Y487478D01*
X454175Y487330D01*
X453841Y487164D01*
X453508Y487015D01*
X453212Y486886D01*
X452953Y486756D01*
X452730Y486645D01*
X452527Y486552D01*
X452360Y486460D01*
X452249Y486404D01*
X452175Y486367D01*
X452156Y486349D01*
X451768Y486127D01*
X451379Y485904D01*
X451027Y485682D01*
X450694Y485460D01*
X450397Y485256D01*
X450101Y485053D01*
X449842Y484849D01*
X449620Y484682D01*
X449397Y484516D01*
X449212Y484367D01*
X449064Y484219D01*
X448935Y484108D01*
X448823Y484034D01*
X448749Y483960D01*
X448712Y483923D01*
X448694Y483905D01*
X447453D01*
Y492200D01*
X448971D01*
Y485923D01*
D02*
G37*
G36*
X417112Y491181D02*
X417408Y491144D01*
X417686Y491089D01*
X417963Y491015D01*
X418426Y490830D01*
X418648Y490737D01*
X418834Y490626D01*
X419019Y490515D01*
X419167Y490422D01*
X419296Y490311D01*
X419408Y490237D01*
X419500Y490163D01*
X419556Y490107D01*
X419593Y490070D01*
X419611Y490052D01*
X419815Y489830D01*
X419981Y489589D01*
X420130Y489330D01*
X420259Y489071D01*
X420352Y488830D01*
X420444Y488571D01*
X420574Y488071D01*
X420630Y487849D01*
X420667Y487645D01*
X420685Y487460D01*
X420704Y487293D01*
X420722Y487163D01*
Y486978D01*
X420704Y486626D01*
X420667Y486312D01*
X420611Y485997D01*
X420555Y485701D01*
X420463Y485441D01*
X420370Y485182D01*
X420278Y484941D01*
X420167Y484738D01*
X420056Y484552D01*
X419963Y484386D01*
X419870Y484256D01*
X419778Y484127D01*
X419722Y484034D01*
X419667Y483979D01*
X419630Y483941D01*
X419611Y483923D01*
X419389Y483719D01*
X419167Y483534D01*
X418945Y483386D01*
X418704Y483256D01*
X418482Y483127D01*
X418241Y483034D01*
X417815Y482905D01*
X417611Y482849D01*
X417426Y482812D01*
X417260Y482794D01*
X417130Y482775D01*
X417019Y482756D01*
X416926D01*
X416871D01*
X416852D01*
X416426Y482775D01*
X416037Y482849D01*
X415686Y482960D01*
X415389Y483071D01*
X415149Y483182D01*
X414963Y483293D01*
X414852Y483368D01*
X414834Y483386D01*
X414815D01*
X414519Y483645D01*
X414260Y483923D01*
X414056Y484219D01*
X413871Y484497D01*
X413741Y484756D01*
X413649Y484978D01*
X413612Y485052D01*
X413593Y485108D01*
X413575Y485145D01*
Y485164D01*
X413427Y484830D01*
X413260Y484552D01*
X413093Y484312D01*
X412927Y484108D01*
X412779Y483960D01*
X412668Y483849D01*
X412593Y483775D01*
X412556Y483756D01*
X412297Y483590D01*
X412038Y483479D01*
X411779Y483386D01*
X411519Y483330D01*
X411316Y483293D01*
X411149Y483275D01*
X411038D01*
X411020D01*
X411001D01*
X410742Y483293D01*
X410501Y483312D01*
X410038Y483442D01*
X409631Y483608D01*
X409279Y483793D01*
X409001Y483979D01*
X408890Y484071D01*
X408779Y484145D01*
X408705Y484219D01*
X408649Y484275D01*
X408631Y484293D01*
X408612Y484312D01*
X408446Y484515D01*
X408279Y484719D01*
X408149Y484941D01*
X408038Y485164D01*
X407872Y485608D01*
X407761Y486052D01*
X407705Y486238D01*
X407687Y486423D01*
X407668Y486589D01*
X407649Y486738D01*
X407631Y486849D01*
Y487015D01*
X407649Y487312D01*
X407668Y487608D01*
X407779Y488126D01*
X407853Y488367D01*
X407927Y488589D01*
X408020Y488793D01*
X408112Y488978D01*
X408205Y489126D01*
X408298Y489274D01*
X408372Y489404D01*
X408446Y489496D01*
X408501Y489571D01*
X408557Y489626D01*
X408575Y489663D01*
X408594Y489682D01*
X408779Y489848D01*
X408964Y490015D01*
X409168Y490145D01*
X409371Y490256D01*
X409760Y490441D01*
X410131Y490552D01*
X410446Y490626D01*
X410594Y490644D01*
X410705Y490663D01*
X410816Y490681D01*
X410890D01*
X410927D01*
X410945D01*
X411279Y490663D01*
X411594Y490607D01*
X411871Y490533D01*
X412112Y490441D01*
X412297Y490367D01*
X412445Y490293D01*
X412519Y490237D01*
X412556Y490219D01*
X412779Y490015D01*
X412982Y489793D01*
X413167Y489552D01*
X413316Y489311D01*
X413427Y489089D01*
X413501Y488923D01*
X413538Y488848D01*
X413556Y488793D01*
X413575Y488774D01*
Y488756D01*
X413704Y489182D01*
X413871Y489534D01*
X414075Y489848D01*
X414260Y490107D01*
X414445Y490311D01*
X414593Y490459D01*
X414686Y490533D01*
X414704Y490570D01*
X414723D01*
X415056Y490774D01*
X415408Y490941D01*
X415741Y491052D01*
X416074Y491126D01*
X416371Y491163D01*
X416500Y491181D01*
X416612D01*
X416686Y491200D01*
X416760D01*
X416797D01*
X416815D01*
X417112Y491181D01*
D02*
G37*
G36*
X386016Y490882D02*
X386330Y490844D01*
X386645Y490807D01*
X386941Y490733D01*
X387201Y490641D01*
X387460Y490548D01*
X387682Y490456D01*
X387886Y490345D01*
X388071Y490252D01*
X388238Y490159D01*
X388367Y490067D01*
X388497Y489974D01*
X388590Y489900D01*
X388645Y489863D01*
X388682Y489826D01*
X388701Y489808D01*
X388904Y489604D01*
X389071Y489382D01*
X389238Y489159D01*
X389367Y488919D01*
X389478Y488697D01*
X389571Y488474D01*
X389701Y488049D01*
X389756Y487863D01*
X389793Y487678D01*
X389812Y487530D01*
X389830Y487382D01*
X389849Y487271D01*
Y487123D01*
X389830Y486771D01*
X389775Y486437D01*
X389701Y486141D01*
X389608Y485863D01*
X389534Y485660D01*
X389460Y485493D01*
X389404Y485382D01*
X389386Y485345D01*
X389201Y485049D01*
X388997Y484790D01*
X388793Y484567D01*
X388608Y484382D01*
X388423Y484253D01*
X388293Y484141D01*
X388201Y484067D01*
X388164Y484049D01*
X388312D01*
X388404D01*
X388460D01*
X388478D01*
X388849Y484067D01*
X389201Y484086D01*
X389515Y484123D01*
X389812Y484160D01*
X390052Y484216D01*
X390237Y484253D01*
X390312Y484271D01*
X390367D01*
X390386Y484290D01*
X390404D01*
X390737Y484382D01*
X391034Y484475D01*
X391293Y484567D01*
X391515Y484660D01*
X391682Y484734D01*
X391811Y484808D01*
X391904Y484845D01*
X391922Y484864D01*
X392126Y485012D01*
X392293Y485160D01*
X392441Y485308D01*
X392570Y485456D01*
X392682Y485567D01*
X392756Y485678D01*
X392793Y485752D01*
X392811Y485771D01*
X392922Y485975D01*
X392996Y486197D01*
X393052Y486400D01*
X393089Y486604D01*
X393107Y486771D01*
X393126Y486900D01*
Y487030D01*
X393107Y487326D01*
X393052Y487604D01*
X392978Y487845D01*
X392885Y488049D01*
X392811Y488197D01*
X392737Y488326D01*
X392682Y488400D01*
X392663Y488419D01*
X392459Y488604D01*
X392219Y488752D01*
X391959Y488882D01*
X391700Y488974D01*
X391478Y489048D01*
X391274Y489104D01*
X391200Y489122D01*
X391163D01*
X391126Y489141D01*
X391108D01*
X391237Y490659D01*
X391774Y490548D01*
X392237Y490400D01*
X392645Y490215D01*
X392978Y490030D01*
X393237Y489845D01*
X393348Y489752D01*
X393441Y489678D01*
X393496Y489622D01*
X393552Y489567D01*
X393570Y489548D01*
X393589Y489530D01*
X393737Y489345D01*
X393867Y489141D01*
X394070Y488734D01*
X394218Y488326D01*
X394311Y487937D01*
X394385Y487585D01*
X394404Y487437D01*
Y487308D01*
X394422Y487215D01*
Y487067D01*
X394385Y486549D01*
X394311Y486086D01*
X394182Y485660D01*
X394033Y485308D01*
X393978Y485160D01*
X393904Y485012D01*
X393830Y484901D01*
X393774Y484790D01*
X393737Y484715D01*
X393700Y484660D01*
X393663Y484623D01*
Y484604D01*
X393348Y484234D01*
X392996Y483901D01*
X392626Y483642D01*
X392274Y483419D01*
X391959Y483234D01*
X391811Y483160D01*
X391700Y483105D01*
X391589Y483068D01*
X391515Y483031D01*
X391478Y483012D01*
X391460D01*
X391182Y482919D01*
X390867Y482827D01*
X390237Y482697D01*
X389571Y482605D01*
X388941Y482549D01*
X388663Y482512D01*
X388386Y482494D01*
X388145D01*
X387941Y482475D01*
X387775D01*
X387645D01*
X387552D01*
X387534D01*
X387108D01*
X386701Y482494D01*
X386330Y482531D01*
X385979Y482567D01*
X385664Y482605D01*
X385368Y482642D01*
X385090Y482697D01*
X384849Y482753D01*
X384645Y482808D01*
X384460Y482845D01*
X384294Y482901D01*
X384164Y482938D01*
X384071Y482975D01*
X383997Y483012D01*
X383960Y483031D01*
X383942D01*
X383497Y483253D01*
X383109Y483493D01*
X382775Y483771D01*
X382497Y484012D01*
X382294Y484253D01*
X382146Y484438D01*
X382090Y484512D01*
X382053Y484567D01*
X382016Y484586D01*
Y484604D01*
X381794Y484993D01*
X381627Y485382D01*
X381498Y485771D01*
X381423Y486123D01*
X381368Y486437D01*
X381349Y486567D01*
Y486660D01*
X381331Y486752D01*
Y486882D01*
X381349Y487197D01*
X381386Y487493D01*
X381442Y487789D01*
X381516Y488049D01*
X381720Y488548D01*
X381812Y488771D01*
X381923Y488956D01*
X382053Y489141D01*
X382146Y489289D01*
X382257Y489437D01*
X382349Y489548D01*
X382423Y489641D01*
X382479Y489696D01*
X382516Y489734D01*
X382534Y489752D01*
X382757Y489956D01*
X383016Y490122D01*
X383257Y490289D01*
X383516Y490419D01*
X383794Y490530D01*
X384053Y490622D01*
X384534Y490752D01*
X384775Y490807D01*
X384979Y490844D01*
X385182Y490863D01*
X385349Y490882D01*
X385479Y490900D01*
X385571D01*
X385645D01*
X385664D01*
X386016Y490882D01*
D02*
G37*
G36*
X362360Y494122D02*
X362230Y493844D01*
X362101Y493567D01*
X361971Y493307D01*
X361860Y493085D01*
X361768Y492900D01*
X361693Y492789D01*
X361675Y492771D01*
Y492752D01*
X361471Y492419D01*
X361268Y492122D01*
X361082Y491863D01*
X360916Y491660D01*
X360786Y491474D01*
X360675Y491363D01*
X360601Y491271D01*
X360583Y491252D01*
X370600D01*
Y489678D01*
X357731D01*
Y490697D01*
X358046Y490882D01*
X358342Y491086D01*
X358638Y491326D01*
X358898Y491548D01*
X359120Y491771D01*
X359305Y491937D01*
X359360Y492011D01*
X359416Y492067D01*
X359435Y492085D01*
X359453Y492104D01*
X359768Y492493D01*
X360064Y492882D01*
X360323Y493252D01*
X360527Y493622D01*
X360712Y493937D01*
X360786Y494067D01*
X360842Y494178D01*
X360897Y494270D01*
X360916Y494344D01*
X360953Y494381D01*
Y494400D01*
X362471D01*
X362360Y494122D01*
D02*
G37*
G36*
X364934Y485623D02*
X365545Y485586D01*
X366101Y485531D01*
X366619Y485438D01*
X367100Y485345D01*
X367526Y485234D01*
X367915Y485123D01*
X368248Y485012D01*
X368545Y484901D01*
X368804Y484771D01*
X369026Y484679D01*
X369193Y484586D01*
X369341Y484494D01*
X369433Y484438D01*
X369489Y484401D01*
X369507Y484383D01*
X369730Y484179D01*
X369933Y483957D01*
X370119Y483716D01*
X370267Y483475D01*
X370396Y483234D01*
X370507Y482994D01*
X370582Y482753D01*
X370656Y482531D01*
X370711Y482309D01*
X370748Y482105D01*
X370785Y481920D01*
X370804Y481772D01*
X370822Y481642D01*
Y481457D01*
X370785Y480957D01*
X370711Y480494D01*
X370582Y480105D01*
X370452Y479772D01*
X370322Y479494D01*
X370248Y479402D01*
X370193Y479309D01*
X370156Y479235D01*
X370119Y479179D01*
X370081Y479161D01*
Y479142D01*
X369767Y478809D01*
X369433Y478531D01*
X369063Y478291D01*
X368730Y478105D01*
X368415Y477957D01*
X368285Y477883D01*
X368156Y477846D01*
X368063Y477809D01*
X367989Y477772D01*
X367952Y477754D01*
X367934D01*
X367656Y477661D01*
X367378Y477587D01*
X366786Y477476D01*
X366175Y477383D01*
X365582Y477328D01*
X365323Y477309D01*
X365082Y477291D01*
X364860D01*
X364656Y477272D01*
X364508D01*
X364378D01*
X364304D01*
X364286D01*
X363934D01*
X363601Y477291D01*
X363304D01*
X363008Y477309D01*
X362749Y477346D01*
X362490Y477365D01*
X362267Y477383D01*
X362064Y477420D01*
X361879Y477439D01*
X361712Y477476D01*
X361582Y477494D01*
X361471Y477513D01*
X361379Y477531D01*
X361323Y477550D01*
X361286Y477568D01*
X361268D01*
X360860Y477679D01*
X360490Y477809D01*
X360175Y477957D01*
X359897Y478068D01*
X359657Y478198D01*
X359490Y478272D01*
X359398Y478346D01*
X359360Y478365D01*
X359083Y478568D01*
X358842Y478772D01*
X358638Y478994D01*
X358453Y479198D01*
X358324Y479383D01*
X358231Y479531D01*
X358175Y479624D01*
X358157Y479642D01*
Y479661D01*
X358009Y479957D01*
X357916Y480272D01*
X357842Y480568D01*
X357786Y480846D01*
X357749Y481087D01*
X357731Y481290D01*
Y481457D01*
X357768Y481957D01*
X357842Y482420D01*
X357972Y482809D01*
X358101Y483142D01*
X358249Y483420D01*
X358305Y483531D01*
X358379Y483623D01*
X358416Y483697D01*
X358453Y483753D01*
X358490Y483772D01*
Y483790D01*
X358786Y484123D01*
X359138Y484401D01*
X359490Y484642D01*
X359823Y484827D01*
X360138Y484975D01*
X360268Y485049D01*
X360397Y485086D01*
X360490Y485123D01*
X360564Y485160D01*
X360601Y485179D01*
X360620D01*
X360897Y485253D01*
X361175Y485327D01*
X361786Y485438D01*
X362397Y485531D01*
X362971Y485586D01*
X363249Y485605D01*
X363490Y485623D01*
X363712D01*
X363915Y485642D01*
X364064D01*
X364193D01*
X364267D01*
X364286D01*
X364934Y485623D01*
D02*
G37*
G36*
X334360Y493922D02*
X334230Y493644D01*
X334101Y493367D01*
X333971Y493107D01*
X333860Y492885D01*
X333768Y492700D01*
X333694Y492589D01*
X333675Y492570D01*
Y492552D01*
X333471Y492219D01*
X333268Y491922D01*
X333083Y491663D01*
X332916Y491460D01*
X332786Y491274D01*
X332675Y491163D01*
X332601Y491071D01*
X332583Y491052D01*
X342600D01*
Y489478D01*
X329731D01*
Y490497D01*
X330046Y490682D01*
X330342Y490886D01*
X330638Y491126D01*
X330897Y491348D01*
X331120Y491571D01*
X331305Y491737D01*
X331360Y491811D01*
X331416Y491867D01*
X331435Y491885D01*
X331453Y491904D01*
X331768Y492293D01*
X332064Y492682D01*
X332323Y493052D01*
X332527Y493422D01*
X332712Y493737D01*
X332786Y493867D01*
X332842Y493978D01*
X332897Y494070D01*
X332916Y494145D01*
X332953Y494182D01*
Y494200D01*
X334471D01*
X334360Y493922D01*
D02*
G37*
G36*
Y483960D02*
X334230Y483683D01*
X334101Y483405D01*
X333971Y483146D01*
X333860Y482923D01*
X333768Y482738D01*
X333694Y482627D01*
X333675Y482609D01*
Y482590D01*
X333471Y482257D01*
X333268Y481960D01*
X333083Y481701D01*
X332916Y481498D01*
X332786Y481312D01*
X332675Y481201D01*
X332601Y481109D01*
X332583Y481090D01*
X342600D01*
Y479516D01*
X329731D01*
Y480535D01*
X330046Y480720D01*
X330342Y480924D01*
X330638Y481164D01*
X330897Y481386D01*
X331120Y481609D01*
X331305Y481775D01*
X331360Y481849D01*
X331416Y481905D01*
X331435Y481923D01*
X331453Y481942D01*
X331768Y482331D01*
X332064Y482720D01*
X332323Y483090D01*
X332527Y483460D01*
X332712Y483775D01*
X332786Y483905D01*
X332842Y484016D01*
X332897Y484109D01*
X332916Y484183D01*
X332953Y484220D01*
Y484238D01*
X334471D01*
X334360Y483960D01*
D02*
G37*
G36*
X284460Y494822D02*
X284331Y494544D01*
X284201Y494267D01*
X284071Y494007D01*
X283960Y493785D01*
X283868Y493600D01*
X283794Y493489D01*
X283775Y493470D01*
Y493452D01*
X283571Y493119D01*
X283368Y492822D01*
X283183Y492563D01*
X283016Y492360D01*
X282886Y492174D01*
X282775Y492063D01*
X282701Y491971D01*
X282682Y491952D01*
X292700D01*
Y490378D01*
X279831D01*
Y491397D01*
X280146Y491582D01*
X280442Y491786D01*
X280738Y492026D01*
X280998Y492248D01*
X281220Y492471D01*
X281405Y492637D01*
X281460Y492711D01*
X281516Y492767D01*
X281535Y492785D01*
X281553Y492804D01*
X281868Y493193D01*
X282164Y493582D01*
X282423Y493952D01*
X282627Y494322D01*
X282812Y494637D01*
X282886Y494767D01*
X282942Y494878D01*
X282997Y494970D01*
X283016Y495045D01*
X283053Y495081D01*
Y495100D01*
X284571D01*
X284460Y494822D01*
D02*
G37*
G36*
X289608Y486286D02*
X289886Y486231D01*
X290404Y486064D01*
X290848Y485860D01*
X291033Y485749D01*
X291219Y485638D01*
X291385Y485527D01*
X291515Y485416D01*
X291645Y485323D01*
X291737Y485231D01*
X291811Y485175D01*
X291867Y485120D01*
X291904Y485083D01*
X291922Y485064D01*
X292089Y484842D01*
X292256Y484620D01*
X292385Y484397D01*
X292496Y484157D01*
X292682Y483694D01*
X292793Y483249D01*
X292830Y483046D01*
X292867Y482860D01*
X292885Y482694D01*
X292904Y482546D01*
X292922Y482435D01*
Y482268D01*
X292904Y481916D01*
X292867Y481601D01*
X292811Y481287D01*
X292737Y480990D01*
X292644Y480713D01*
X292552Y480472D01*
X292441Y480231D01*
X292330Y480028D01*
X292237Y479824D01*
X292126Y479657D01*
X292033Y479509D01*
X291941Y479398D01*
X291867Y479305D01*
X291811Y479231D01*
X291774Y479194D01*
X291756Y479176D01*
X291534Y478954D01*
X291293Y478768D01*
X291052Y478602D01*
X290811Y478454D01*
X290589Y478343D01*
X290348Y478231D01*
X289904Y478083D01*
X289700Y478046D01*
X289515Y478009D01*
X289349Y477972D01*
X289200Y477954D01*
X289089Y477935D01*
X288997D01*
X288941D01*
X288923D01*
X288478Y477954D01*
X288071Y478028D01*
X287719Y478139D01*
X287423Y478250D01*
X287182Y478361D01*
X286997Y478472D01*
X286886Y478546D01*
X286849Y478565D01*
X286571Y478824D01*
X286330Y479102D01*
X286145Y479398D01*
X285997Y479694D01*
X285886Y479953D01*
X285812Y480157D01*
X285793Y480231D01*
X285775Y480287D01*
X285756Y480324D01*
Y480342D01*
X285590Y480028D01*
X285423Y479768D01*
X285238Y479546D01*
X285071Y479361D01*
X284923Y479213D01*
X284793Y479102D01*
X284719Y479046D01*
X284682Y479028D01*
X284423Y478880D01*
X284164Y478768D01*
X283905Y478676D01*
X283664Y478620D01*
X283460Y478583D01*
X283312Y478565D01*
X283201D01*
X283164D01*
X282849Y478583D01*
X282534Y478639D01*
X282257Y478713D01*
X282016Y478805D01*
X281812Y478898D01*
X281646Y478972D01*
X281553Y479028D01*
X281516Y479046D01*
X281238Y479231D01*
X280998Y479454D01*
X280794Y479676D01*
X280609Y479898D01*
X280479Y480083D01*
X280368Y480250D01*
X280312Y480361D01*
X280294Y480379D01*
Y480398D01*
X280146Y480731D01*
X280035Y481064D01*
X279942Y481398D01*
X279886Y481694D01*
X279849Y481935D01*
X279831Y482138D01*
Y482601D01*
X279868Y482860D01*
X279961Y483360D01*
X280109Y483786D01*
X280257Y484157D01*
X280349Y484323D01*
X280424Y484453D01*
X280498Y484583D01*
X280572Y484675D01*
X280627Y484749D01*
X280664Y484805D01*
X280683Y484842D01*
X280701Y484860D01*
X281053Y485212D01*
X281442Y485490D01*
X281849Y485712D01*
X282257Y485897D01*
X282609Y486008D01*
X282757Y486064D01*
X282886Y486101D01*
X282997Y486119D01*
X283071Y486138D01*
X283127Y486157D01*
X283145D01*
X283423Y484583D01*
X283016Y484509D01*
X282664Y484397D01*
X282368Y484268D01*
X282127Y484138D01*
X281942Y484009D01*
X281812Y483898D01*
X281720Y483823D01*
X281701Y483805D01*
X281516Y483564D01*
X281368Y483305D01*
X281275Y483064D01*
X281201Y482823D01*
X281164Y482601D01*
X281127Y482435D01*
Y482286D01*
X281146Y481953D01*
X281220Y481657D01*
X281312Y481398D01*
X281405Y481175D01*
X281516Y481009D01*
X281609Y480879D01*
X281683Y480787D01*
X281701Y480768D01*
X281923Y480564D01*
X282164Y480416D01*
X282405Y480324D01*
X282627Y480250D01*
X282831Y480213D01*
X282979Y480176D01*
X283090D01*
X283108D01*
X283127D01*
X283331D01*
X283516Y480213D01*
X283831Y480305D01*
X284108Y480435D01*
X284349Y480583D01*
X284516Y480731D01*
X284645Y480861D01*
X284719Y480953D01*
X284738Y480972D01*
Y480990D01*
X284904Y481305D01*
X285034Y481601D01*
X285127Y481916D01*
X285182Y482194D01*
X285219Y482435D01*
X285256Y482638D01*
Y482879D01*
X285238Y482953D01*
Y483046D01*
X286627Y483231D01*
X286571Y482990D01*
X286534Y482768D01*
X286497Y482583D01*
X286478Y482416D01*
X286460Y482286D01*
Y482120D01*
X286497Y481731D01*
X286571Y481379D01*
X286682Y481064D01*
X286812Y480805D01*
X286941Y480602D01*
X287052Y480453D01*
X287127Y480361D01*
X287164Y480324D01*
X287441Y480083D01*
X287738Y479898D01*
X288034Y479768D01*
X288330Y479694D01*
X288571Y479639D01*
X288775Y479620D01*
X288848Y479602D01*
X288904D01*
X288941D01*
X288960D01*
X289367Y479639D01*
X289737Y479731D01*
X290052Y479842D01*
X290330Y479991D01*
X290552Y480139D01*
X290719Y480250D01*
X290830Y480342D01*
X290867Y480379D01*
X291126Y480676D01*
X291311Y480990D01*
X291441Y481305D01*
X291534Y481601D01*
X291589Y481861D01*
X291607Y482064D01*
X291626Y482138D01*
Y482249D01*
X291607Y482583D01*
X291534Y482898D01*
X291441Y483175D01*
X291330Y483397D01*
X291237Y483583D01*
X291145Y483731D01*
X291070Y483805D01*
X291052Y483842D01*
X290793Y484064D01*
X290497Y484249D01*
X290182Y484416D01*
X289848Y484546D01*
X289571Y484638D01*
X289441Y484675D01*
X289330Y484694D01*
X289237Y484712D01*
X289163Y484731D01*
X289126Y484749D01*
X289108D01*
X289312Y486323D01*
X289608Y486286D01*
D02*
G37*
G36*
X310160Y494922D02*
X310030Y494645D01*
X309901Y494367D01*
X309771Y494108D01*
X309660Y493885D01*
X309568Y493700D01*
X309494Y493589D01*
X309475Y493571D01*
Y493552D01*
X309271Y493219D01*
X309068Y492923D01*
X308883Y492663D01*
X308716Y492459D01*
X308586Y492274D01*
X308475Y492163D01*
X308401Y492071D01*
X308382Y492052D01*
X318400D01*
Y490478D01*
X305531D01*
Y491497D01*
X305846Y491682D01*
X306142Y491885D01*
X306438Y492126D01*
X306698Y492348D01*
X306920Y492571D01*
X307105Y492737D01*
X307160Y492811D01*
X307216Y492867D01*
X307234Y492885D01*
X307253Y492904D01*
X307568Y493293D01*
X307864Y493682D01*
X308123Y494052D01*
X308327Y494422D01*
X308512Y494737D01*
X308586Y494867D01*
X308642Y494978D01*
X308697Y495070D01*
X308716Y495145D01*
X308753Y495182D01*
Y495200D01*
X310271D01*
X310160Y494922D01*
D02*
G37*
G36*
X318400Y478165D02*
X316882D01*
Y484479D01*
X316567Y484257D01*
X316437Y484146D01*
X316308Y484053D01*
X316196Y483960D01*
X316122Y483886D01*
X316067Y483831D01*
X316048Y483812D01*
X315956Y483720D01*
X315863Y483609D01*
X315623Y483349D01*
X315345Y483053D01*
X315067Y482738D01*
X314826Y482442D01*
X314715Y482312D01*
X314604Y482201D01*
X314530Y482109D01*
X314475Y482035D01*
X314437Y481998D01*
X314419Y481979D01*
X314160Y481683D01*
X313919Y481387D01*
X313678Y481127D01*
X313475Y480887D01*
X313271Y480664D01*
X313086Y480479D01*
X312919Y480294D01*
X312771Y480146D01*
X312623Y479998D01*
X312512Y479887D01*
X312419Y479794D01*
X312327Y479702D01*
X312215Y479609D01*
X312178Y479572D01*
X311864Y479313D01*
X311586Y479091D01*
X311308Y478905D01*
X311086Y478757D01*
X310882Y478646D01*
X310734Y478572D01*
X310641Y478535D01*
X310604Y478517D01*
X310327Y478405D01*
X310049Y478331D01*
X309790Y478257D01*
X309568Y478220D01*
X309364Y478202D01*
X309216Y478183D01*
X309123D01*
X309086D01*
X308808Y478202D01*
X308549Y478239D01*
X308290Y478276D01*
X308068Y478350D01*
X307623Y478535D01*
X307271Y478720D01*
X307105Y478831D01*
X306975Y478924D01*
X306846Y479016D01*
X306753Y479109D01*
X306679Y479183D01*
X306605Y479220D01*
X306586Y479257D01*
X306568Y479276D01*
X306383Y479479D01*
X306216Y479702D01*
X306087Y479942D01*
X305975Y480183D01*
X305790Y480664D01*
X305661Y481146D01*
X305623Y481350D01*
X305586Y481553D01*
X305568Y481738D01*
X305550Y481887D01*
X305531Y482016D01*
Y482201D01*
X305550Y482535D01*
X305568Y482849D01*
X305623Y483146D01*
X305679Y483423D01*
X305753Y483683D01*
X305827Y483923D01*
X305920Y484146D01*
X306012Y484349D01*
X306105Y484534D01*
X306198Y484683D01*
X306272Y484812D01*
X306346Y484923D01*
X306401Y485016D01*
X306457Y485071D01*
X306475Y485108D01*
X306494Y485127D01*
X306679Y485312D01*
X306883Y485479D01*
X307105Y485645D01*
X307327Y485775D01*
X307771Y485997D01*
X308216Y486145D01*
X308420Y486201D01*
X308623Y486256D01*
X308790Y486293D01*
X308938Y486330D01*
X309068Y486349D01*
X309160D01*
X309216Y486368D01*
X309234D01*
X309401Y484757D01*
X308975Y484720D01*
X308605Y484646D01*
X308271Y484534D01*
X308012Y484405D01*
X307790Y484294D01*
X307642Y484183D01*
X307549Y484109D01*
X307512Y484072D01*
X307290Y483794D01*
X307123Y483498D01*
X306994Y483183D01*
X306920Y482905D01*
X306864Y482646D01*
X306846Y482424D01*
X306827Y482350D01*
Y482238D01*
X306846Y481850D01*
X306920Y481498D01*
X307031Y481202D01*
X307142Y480942D01*
X307271Y480738D01*
X307364Y480609D01*
X307438Y480516D01*
X307475Y480479D01*
X307734Y480257D01*
X307994Y480090D01*
X308253Y479961D01*
X308512Y479887D01*
X308716Y479831D01*
X308901Y479813D01*
X309012Y479794D01*
X309031D01*
X309049D01*
X309382Y479831D01*
X309734Y479905D01*
X310049Y480035D01*
X310345Y480164D01*
X310586Y480313D01*
X310790Y480442D01*
X310864Y480479D01*
X310919Y480516D01*
X310938Y480553D01*
X310956D01*
X311160Y480701D01*
X311364Y480887D01*
X311586Y481090D01*
X311808Y481313D01*
X312253Y481776D01*
X312697Y482238D01*
X312901Y482479D01*
X313086Y482683D01*
X313252Y482887D01*
X313400Y483053D01*
X313512Y483183D01*
X313604Y483294D01*
X313660Y483368D01*
X313678Y483386D01*
X314067Y483849D01*
X314437Y484275D01*
X314771Y484627D01*
X315049Y484905D01*
X315289Y485145D01*
X315456Y485312D01*
X315567Y485405D01*
X315585Y485442D01*
X315604D01*
X315919Y485701D01*
X316215Y485905D01*
X316511Y486090D01*
X316770Y486238D01*
X316993Y486349D01*
X317159Y486423D01*
X317271Y486460D01*
X317289Y486479D01*
X317307D01*
X317511Y486553D01*
X317696Y486590D01*
X317882Y486627D01*
X318048Y486645D01*
X318196Y486664D01*
X318307D01*
X318382D01*
X318400D01*
Y478165D01*
D02*
G37*
G36*
X261352Y488363D02*
X262001Y488270D01*
X262297Y488215D01*
X262575Y488159D01*
X262852Y488085D01*
X263093Y488011D01*
X263315Y487937D01*
X263500Y487863D01*
X263685Y487808D01*
X263815Y487752D01*
X263945Y487696D01*
X264019Y487659D01*
X264074Y487622D01*
X264093D01*
X264630Y487289D01*
X265093Y486919D01*
X265500Y486530D01*
X265833Y486160D01*
X266093Y485808D01*
X266185Y485678D01*
X266278Y485548D01*
X266333Y485437D01*
X266389Y485363D01*
X266408Y485308D01*
X266426Y485289D01*
X266574Y484993D01*
X266685Y484697D01*
X266889Y484104D01*
X267019Y483530D01*
X267130Y482993D01*
X267148Y482752D01*
X267185Y482530D01*
X267204Y482327D01*
Y482160D01*
X267222Y482030D01*
Y481845D01*
X267204Y481327D01*
X267148Y480827D01*
X267055Y480364D01*
X266963Y479956D01*
X266926Y479790D01*
X266889Y479623D01*
X266833Y479475D01*
X266796Y479345D01*
X266759Y479253D01*
X266741Y479179D01*
X266722Y479142D01*
Y479123D01*
X266519Y478623D01*
X266278Y478160D01*
X266019Y477716D01*
X265778Y477327D01*
X265667Y477160D01*
X265556Y476994D01*
X265463Y476864D01*
X265389Y476753D01*
X265315Y476660D01*
X265259Y476586D01*
X265241Y476549D01*
X265222Y476531D01*
X260464D01*
Y481975D01*
X261982D01*
Y478197D01*
X264389D01*
X264574Y478419D01*
X264741Y478679D01*
X264889Y478956D01*
X265019Y479216D01*
X265130Y479438D01*
X265222Y479642D01*
X265259Y479716D01*
X265278Y479753D01*
X265296Y479790D01*
Y479808D01*
X265426Y480197D01*
X265537Y480586D01*
X265611Y480938D01*
X265648Y481271D01*
X265685Y481549D01*
Y481660D01*
X265704Y481771D01*
Y481956D01*
X265685Y482419D01*
X265611Y482864D01*
X265519Y483271D01*
X265426Y483641D01*
X265315Y483937D01*
X265278Y484067D01*
X265241Y484160D01*
X265204Y484252D01*
X265167Y484308D01*
X265148Y484345D01*
Y484363D01*
X264908Y484752D01*
X264648Y485104D01*
X264371Y485400D01*
X264093Y485641D01*
X263834Y485845D01*
X263630Y485974D01*
X263556Y486030D01*
X263500Y486048D01*
X263463Y486085D01*
X263445D01*
X262982Y486271D01*
X262500Y486419D01*
X262019Y486511D01*
X261556Y486585D01*
X261352Y486604D01*
X261167Y486622D01*
X260982Y486641D01*
X260834D01*
X260723Y486659D01*
X260630D01*
X260575D01*
X260556D01*
X260038Y486641D01*
X259575Y486585D01*
X259130Y486511D01*
X258742Y486419D01*
X258575Y486382D01*
X258427Y486326D01*
X258297Y486289D01*
X258186Y486252D01*
X258093Y486215D01*
X258038Y486197D01*
X258001Y486178D01*
X257982D01*
X257723Y486048D01*
X257482Y485919D01*
X257260Y485789D01*
X257075Y485659D01*
X256927Y485548D01*
X256797Y485456D01*
X256723Y485382D01*
X256705Y485363D01*
X256501Y485160D01*
X256316Y484937D01*
X256168Y484697D01*
X256020Y484474D01*
X255927Y484289D01*
X255835Y484141D01*
X255798Y484030D01*
X255779Y483993D01*
X255649Y483660D01*
X255557Y483326D01*
X255501Y482975D01*
X255446Y482660D01*
X255427Y482382D01*
Y482271D01*
X255409Y482178D01*
Y481975D01*
X255427Y481623D01*
X255464Y481290D01*
X255520Y480993D01*
X255575Y480734D01*
X255649Y480512D01*
X255705Y480345D01*
X255742Y480253D01*
X255760Y480216D01*
X255890Y479938D01*
X256038Y479697D01*
X256186Y479475D01*
X256334Y479308D01*
X256464Y479179D01*
X256557Y479068D01*
X256631Y479012D01*
X256649Y478994D01*
X256871Y478827D01*
X257131Y478697D01*
X257371Y478568D01*
X257631Y478457D01*
X257853Y478382D01*
X258019Y478327D01*
X258093Y478308D01*
X258149Y478290D01*
X258168Y478271D01*
X258186D01*
X257779Y476735D01*
X257316Y476864D01*
X256908Y477031D01*
X256538Y477197D01*
X256242Y477346D01*
X256001Y477494D01*
X255835Y477605D01*
X255723Y477679D01*
X255686Y477716D01*
X255390Y477975D01*
X255149Y478253D01*
X254927Y478549D01*
X254742Y478827D01*
X254612Y479086D01*
X254501Y479290D01*
X254464Y479364D01*
X254446Y479419D01*
X254427Y479456D01*
Y479475D01*
X254279Y479901D01*
X254168Y480345D01*
X254075Y480753D01*
X254020Y481142D01*
X253983Y481493D01*
Y481641D01*
X253964Y481753D01*
Y482345D01*
X254001Y482678D01*
X254094Y483326D01*
X254149Y483623D01*
X254223Y483900D01*
X254279Y484160D01*
X254353Y484400D01*
X254427Y484623D01*
X254501Y484808D01*
X254575Y484974D01*
X254631Y485123D01*
X254687Y485234D01*
X254723Y485308D01*
X254742Y485363D01*
X254760Y485382D01*
X254927Y485641D01*
X255094Y485900D01*
X255483Y486345D01*
X255872Y486734D01*
X256279Y487048D01*
X256631Y487308D01*
X256779Y487400D01*
X256927Y487474D01*
X257038Y487548D01*
X257112Y487585D01*
X257168Y487604D01*
X257186Y487622D01*
X257797Y487882D01*
X258408Y488067D01*
X259001Y488215D01*
X259279Y488252D01*
X259538Y488307D01*
X259778Y488326D01*
X259982Y488363D01*
X260186Y488382D01*
X260352D01*
X260482Y488400D01*
X260575D01*
X260649D01*
X260667D01*
X261352Y488363D01*
D02*
G37*
G36*
X267000Y472420D02*
X256945D01*
X267000Y465717D01*
Y463958D01*
X254186D01*
Y465588D01*
X264259D01*
X254186Y472309D01*
Y474050D01*
X267000D01*
Y472420D01*
D02*
G37*
G36*
Y456496D02*
X266982Y456070D01*
X266963Y455681D01*
X266926Y455329D01*
X266889Y455033D01*
X266852Y454774D01*
X266833Y454589D01*
X266815Y454533D01*
X266796Y454478D01*
Y454440D01*
X266704Y454107D01*
X266593Y453811D01*
X266500Y453552D01*
X266389Y453330D01*
X266296Y453144D01*
X266222Y453015D01*
X266167Y452941D01*
X266148Y452904D01*
X265982Y452663D01*
X265778Y452459D01*
X265593Y452256D01*
X265408Y452089D01*
X265241Y451941D01*
X265111Y451830D01*
X265019Y451756D01*
X264982Y451737D01*
X264685Y451552D01*
X264371Y451367D01*
X264074Y451219D01*
X263778Y451108D01*
X263519Y450997D01*
X263315Y450922D01*
X263241Y450904D01*
X263186Y450885D01*
X263148Y450867D01*
X263130D01*
X262686Y450756D01*
X262241Y450663D01*
X261815Y450608D01*
X261408Y450552D01*
X261056Y450533D01*
X260908D01*
X260778Y450515D01*
X260686D01*
X260593D01*
X260556D01*
X260538D01*
X259908Y450533D01*
X259334Y450589D01*
X258816Y450682D01*
X258575Y450719D01*
X258371Y450774D01*
X258168Y450830D01*
X258001Y450867D01*
X257853Y450904D01*
X257723Y450959D01*
X257612Y450978D01*
X257538Y451015D01*
X257501Y451034D01*
X257482D01*
X257001Y451237D01*
X256575Y451478D01*
X256205Y451737D01*
X255890Y451978D01*
X255631Y452200D01*
X255446Y452385D01*
X255390Y452459D01*
X255334Y452515D01*
X255316Y452533D01*
X255298Y452552D01*
X255057Y452848D01*
X254872Y453163D01*
X254705Y453478D01*
X254575Y453774D01*
X254483Y454033D01*
X254427Y454237D01*
X254390Y454311D01*
Y454366D01*
X254372Y454403D01*
Y454422D01*
X254316Y454737D01*
X254261Y455107D01*
X254223Y455477D01*
X254205Y455848D01*
X254186Y456181D01*
Y461106D01*
X267000D01*
Y456496D01*
D02*
G37*
G36*
X243300Y486604D02*
X239412Y485215D01*
Y479845D01*
X243300Y478345D01*
Y476420D01*
X230487Y481660D01*
Y483512D01*
X243300Y488400D01*
Y486604D01*
D02*
G37*
G36*
Y473327D02*
X237615D01*
Y471143D01*
X237634Y470939D01*
Y470791D01*
X237652Y470661D01*
X237671Y470569D01*
Y470494D01*
X237689Y470457D01*
Y470439D01*
X237782Y470143D01*
X237838Y470013D01*
X237893Y469902D01*
X237949Y469791D01*
X237986Y469717D01*
X238004Y469680D01*
X238023Y469661D01*
X238134Y469513D01*
X238263Y469365D01*
X238541Y469087D01*
X238671Y468958D01*
X238782Y468865D01*
X238856Y468809D01*
X238874Y468791D01*
X239134Y468606D01*
X239412Y468402D01*
X239708Y468198D01*
X239986Y467995D01*
X240245Y467828D01*
X240448Y467698D01*
X240522Y467643D01*
X240578Y467606D01*
X240615Y467569D01*
X240634D01*
X243300Y465884D01*
Y463773D01*
X239819Y465976D01*
X239449Y466236D01*
X239115Y466476D01*
X238838Y466717D01*
X238578Y466921D01*
X238393Y467106D01*
X238245Y467254D01*
X238152Y467347D01*
X238115Y467384D01*
X238004Y467532D01*
X237875Y467698D01*
X237671Y468032D01*
X237597Y468180D01*
X237523Y468291D01*
X237486Y468365D01*
X237467Y468402D01*
X237412Y468069D01*
X237356Y467754D01*
X237264Y467476D01*
X237190Y467198D01*
X237097Y466958D01*
X236986Y466736D01*
X236893Y466532D01*
X236801Y466347D01*
X236690Y466199D01*
X236597Y466050D01*
X236523Y465939D01*
X236449Y465847D01*
X236393Y465773D01*
X236338Y465717D01*
X236319Y465699D01*
X236301Y465680D01*
X236116Y465532D01*
X235930Y465384D01*
X235541Y465162D01*
X235153Y465014D01*
X234782Y464902D01*
X234468Y464828D01*
X234338Y464810D01*
X234208D01*
X234116Y464791D01*
X234042D01*
X234005D01*
X233986D01*
X233597Y464810D01*
X233246Y464865D01*
X232912Y464958D01*
X232634Y465051D01*
X232394Y465162D01*
X232209Y465236D01*
X232097Y465310D01*
X232079Y465328D01*
X232060D01*
X231764Y465550D01*
X231505Y465773D01*
X231283Y466013D01*
X231116Y466236D01*
X230986Y466439D01*
X230912Y466606D01*
X230857Y466717D01*
X230838Y466736D01*
Y466754D01*
X230783Y466921D01*
X230727Y467124D01*
X230635Y467532D01*
X230579Y467976D01*
X230523Y468383D01*
X230505Y468772D01*
Y468939D01*
X230487Y469087D01*
Y475031D01*
X243300D01*
Y473327D01*
D02*
G37*
G36*
Y452533D02*
X241782D01*
Y460403D01*
X237430D01*
Y453311D01*
X235912D01*
Y460403D01*
X232005D01*
Y452830D01*
X230487D01*
Y462106D01*
X243300D01*
Y452533D01*
D02*
G37*
G36*
Y448404D02*
X237486D01*
Y442386D01*
X235967D01*
Y448404D01*
X232005D01*
Y441442D01*
X230487D01*
Y450108D01*
X243300D01*
Y448404D01*
D02*
G37*
G36*
X214700Y488004D02*
X210812Y486615D01*
Y481245D01*
X214700Y479745D01*
Y477820D01*
X201887Y483060D01*
Y484912D01*
X214700Y489800D01*
Y488004D01*
D02*
G37*
G36*
Y471839D02*
X214681Y471413D01*
X214663Y471024D01*
X214626Y470672D01*
X214589Y470376D01*
X214552Y470117D01*
X214533Y469932D01*
X214515Y469876D01*
X214496Y469821D01*
Y469784D01*
X214404Y469450D01*
X214293Y469154D01*
X214200Y468895D01*
X214089Y468673D01*
X213996Y468487D01*
X213922Y468358D01*
X213867Y468284D01*
X213848Y468247D01*
X213682Y468006D01*
X213478Y467802D01*
X213293Y467599D01*
X213108Y467432D01*
X212941Y467284D01*
X212811Y467173D01*
X212719Y467099D01*
X212682Y467080D01*
X212385Y466895D01*
X212071Y466710D01*
X211774Y466562D01*
X211478Y466451D01*
X211219Y466339D01*
X211015Y466265D01*
X210941Y466247D01*
X210886Y466228D01*
X210849Y466210D01*
X210830D01*
X210386Y466099D01*
X209941Y466006D01*
X209515Y465951D01*
X209108Y465895D01*
X208756Y465877D01*
X208608D01*
X208478Y465858D01*
X208386D01*
X208293D01*
X208256D01*
X208238D01*
X207608Y465877D01*
X207034Y465932D01*
X206516Y466025D01*
X206275Y466062D01*
X206071Y466117D01*
X205868Y466173D01*
X205701Y466210D01*
X205553Y466247D01*
X205423Y466302D01*
X205312Y466321D01*
X205238Y466358D01*
X205201Y466376D01*
X205182D01*
X204701Y466580D01*
X204275Y466821D01*
X203905Y467080D01*
X203590Y467321D01*
X203331Y467543D01*
X203146Y467728D01*
X203090Y467802D01*
X203034Y467858D01*
X203016Y467876D01*
X202997Y467895D01*
X202757Y468191D01*
X202572Y468506D01*
X202405Y468821D01*
X202275Y469117D01*
X202183Y469376D01*
X202127Y469580D01*
X202090Y469654D01*
Y469710D01*
X202072Y469747D01*
Y469765D01*
X202016Y470080D01*
X201961Y470450D01*
X201924Y470821D01*
X201905Y471191D01*
X201887Y471524D01*
Y476450D01*
X214700D01*
Y471839D01*
D02*
G37*
G36*
X211626Y459137D02*
X214700D01*
Y457563D01*
X211626D01*
Y455822D01*
X210182D01*
Y457563D01*
X201887D01*
Y458840D01*
X210182Y464710D01*
X211626D01*
Y459137D01*
D02*
G37*
G36*
X214922Y453693D02*
X201664Y449971D01*
Y451230D01*
X214922Y454952D01*
Y453693D01*
D02*
G37*
G36*
X211052Y449119D02*
X211497Y449045D01*
X211886Y448934D01*
X212237Y448804D01*
X212515Y448675D01*
X212626Y448619D01*
X212719Y448582D01*
X212793Y448526D01*
X212848Y448508D01*
X212885Y448471D01*
X212904D01*
X213256Y448193D01*
X213570Y447897D01*
X213830Y447582D01*
X214052Y447286D01*
X214219Y447027D01*
X214330Y446805D01*
X214367Y446730D01*
X214404Y446675D01*
X214422Y446638D01*
Y446619D01*
X214589Y446156D01*
X214718Y445675D01*
X214793Y445193D01*
X214867Y444731D01*
X214885Y444508D01*
X214904Y444323D01*
Y444157D01*
X214922Y444008D01*
Y443712D01*
X214904Y443212D01*
X214848Y442749D01*
X214756Y442323D01*
X214663Y441972D01*
X214589Y441675D01*
X214533Y441546D01*
X214496Y441435D01*
X214459Y441361D01*
X214441Y441305D01*
X214422Y441268D01*
Y441250D01*
X214219Y440861D01*
X213996Y440527D01*
X213756Y440231D01*
X213533Y439990D01*
X213348Y439805D01*
X213182Y439676D01*
X213071Y439583D01*
X213052Y439565D01*
X213034D01*
X212682Y439361D01*
X212348Y439213D01*
X212034Y439120D01*
X211737Y439046D01*
X211478Y439009D01*
X211274Y438972D01*
X211200D01*
X211145D01*
X211126D01*
X211108D01*
X210737Y438991D01*
X210386Y439046D01*
X210071Y439139D01*
X209812Y439231D01*
X209589Y439342D01*
X209423Y439416D01*
X209330Y439490D01*
X209293Y439509D01*
X209015Y439731D01*
X208756Y439990D01*
X208534Y440268D01*
X208330Y440546D01*
X208182Y440787D01*
X208071Y440990D01*
X208034Y441064D01*
X207997Y441120D01*
X207978Y441157D01*
Y441175D01*
X207904Y441324D01*
X207849Y441509D01*
X207775Y441712D01*
X207701Y441935D01*
X207571Y442397D01*
X207442Y442879D01*
X207386Y443101D01*
X207330Y443305D01*
X207275Y443508D01*
X207238Y443675D01*
X207201Y443805D01*
X207182Y443916D01*
X207164Y443990D01*
Y444008D01*
X207071Y444379D01*
X206997Y444712D01*
X206905Y445008D01*
X206830Y445268D01*
X206738Y445508D01*
X206664Y445712D01*
X206590Y445897D01*
X206534Y446064D01*
X206460Y446193D01*
X206405Y446305D01*
X206367Y446379D01*
X206312Y446453D01*
X206256Y446545D01*
X206238Y446564D01*
X206053Y446730D01*
X205868Y446842D01*
X205682Y446934D01*
X205497Y446990D01*
X205349Y447027D01*
X205219Y447045D01*
X205145D01*
X205108D01*
X204812Y447008D01*
X204553Y446934D01*
X204331Y446823D01*
X204127Y446693D01*
X203979Y446582D01*
X203849Y446471D01*
X203775Y446397D01*
X203757Y446360D01*
X203664Y446212D01*
X203571Y446064D01*
X203423Y445712D01*
X203331Y445342D01*
X203257Y444971D01*
X203220Y444638D01*
X203201Y444490D01*
X203183Y444379D01*
Y444120D01*
X203201Y443601D01*
X203275Y443138D01*
X203386Y442768D01*
X203498Y442453D01*
X203609Y442212D01*
X203720Y442027D01*
X203794Y441935D01*
X203812Y441898D01*
X204072Y441638D01*
X204349Y441435D01*
X204646Y441268D01*
X204942Y441157D01*
X205219Y441083D01*
X205423Y441027D01*
X205516Y441009D01*
X205571Y440990D01*
X205608D01*
X205627D01*
X205497Y439361D01*
X205090Y439398D01*
X204720Y439490D01*
X204368Y439583D01*
X204072Y439713D01*
X203831Y439824D01*
X203646Y439916D01*
X203590Y439953D01*
X203535Y439990D01*
X203516Y440009D01*
X203498D01*
X203183Y440250D01*
X202905Y440509D01*
X202664Y440787D01*
X202479Y441064D01*
X202312Y441305D01*
X202220Y441490D01*
X202183Y441564D01*
X202146Y441620D01*
X202127Y441657D01*
Y441675D01*
X201979Y442083D01*
X201868Y442527D01*
X201775Y442934D01*
X201720Y443323D01*
X201683Y443675D01*
Y443805D01*
X201664Y443934D01*
Y444175D01*
X201683Y444656D01*
X201738Y445082D01*
X201812Y445490D01*
X201887Y445842D01*
X201961Y446119D01*
X201998Y446249D01*
X202035Y446342D01*
X202072Y446416D01*
X202090Y446471D01*
X202109Y446508D01*
Y446527D01*
X202294Y446897D01*
X202498Y447230D01*
X202720Y447508D01*
X202923Y447730D01*
X203109Y447897D01*
X203257Y448027D01*
X203368Y448119D01*
X203386Y448138D01*
X203405D01*
X203720Y448323D01*
X204034Y448452D01*
X204349Y448545D01*
X204627Y448601D01*
X204868Y448638D01*
X205053Y448675D01*
X205127D01*
X205182D01*
X205201D01*
X205219D01*
X205534Y448656D01*
X205831Y448601D01*
X206108Y448526D01*
X206349Y448452D01*
X206534Y448378D01*
X206682Y448304D01*
X206775Y448249D01*
X206812Y448230D01*
X207071Y448045D01*
X207312Y447823D01*
X207516Y447601D01*
X207682Y447379D01*
X207830Y447193D01*
X207923Y447027D01*
X207997Y446916D01*
X208015Y446897D01*
Y446879D01*
X208090Y446730D01*
X208164Y446564D01*
X208293Y446193D01*
X208423Y445768D01*
X208552Y445360D01*
X208664Y444990D01*
X208701Y444823D01*
X208738Y444675D01*
X208775Y444564D01*
X208793Y444471D01*
X208812Y444416D01*
Y444397D01*
X208886Y444082D01*
X208960Y443786D01*
X209034Y443527D01*
X209090Y443305D01*
X209145Y443083D01*
X209201Y442897D01*
X209238Y442731D01*
X209293Y442601D01*
X209330Y442472D01*
X209349Y442379D01*
X209404Y442231D01*
X209423Y442138D01*
X209441Y442120D01*
X209552Y441842D01*
X209682Y441601D01*
X209812Y441398D01*
X209923Y441250D01*
X210034Y441120D01*
X210108Y441046D01*
X210163Y440990D01*
X210182Y440972D01*
X210349Y440842D01*
X210534Y440750D01*
X210719Y440694D01*
X210867Y440638D01*
X211015Y440620D01*
X211126Y440601D01*
X211219D01*
X211237D01*
X211460Y440620D01*
X211663Y440657D01*
X211848Y440713D01*
X211997Y440787D01*
X212145Y440861D01*
X212237Y440916D01*
X212311Y440953D01*
X212330Y440972D01*
X212515Y441120D01*
X212663Y441305D01*
X212793Y441490D01*
X212922Y441657D01*
X212997Y441824D01*
X213071Y441953D01*
X213108Y442046D01*
X213126Y442083D01*
X213219Y442360D01*
X213293Y442657D01*
X213330Y442953D01*
X213367Y443212D01*
X213385Y443434D01*
X213404Y443620D01*
Y443786D01*
X213385Y444194D01*
X213348Y444564D01*
X213293Y444897D01*
X213219Y445193D01*
X213145Y445434D01*
X213089Y445619D01*
X213071Y445675D01*
X213052Y445731D01*
X213034Y445749D01*
Y445768D01*
X212885Y446064D01*
X212719Y446342D01*
X212552Y446545D01*
X212385Y446730D01*
X212256Y446879D01*
X212126Y446971D01*
X212052Y447027D01*
X212034Y447045D01*
X211793Y447175D01*
X211534Y447304D01*
X211256Y447379D01*
X211015Y447453D01*
X210774Y447508D01*
X210608Y447545D01*
X210534D01*
X210478Y447564D01*
X210460D01*
X210441D01*
X210589Y449156D01*
X211052Y449119D01*
D02*
G37*
G36*
X214700Y432028D02*
X214681Y431602D01*
X214663Y431213D01*
X214626Y430862D01*
X214589Y430565D01*
X214552Y430306D01*
X214533Y430121D01*
X214515Y430065D01*
X214496Y430010D01*
Y429973D01*
X214404Y429640D01*
X214293Y429343D01*
X214200Y429084D01*
X214089Y428862D01*
X213996Y428677D01*
X213922Y428547D01*
X213867Y428473D01*
X213848Y428436D01*
X213682Y428195D01*
X213478Y427992D01*
X213293Y427788D01*
X213108Y427621D01*
X212941Y427473D01*
X212811Y427362D01*
X212719Y427288D01*
X212682Y427270D01*
X212385Y427084D01*
X212071Y426899D01*
X211774Y426751D01*
X211478Y426640D01*
X211219Y426529D01*
X211015Y426455D01*
X210941Y426436D01*
X210886Y426418D01*
X210849Y426399D01*
X210830D01*
X210386Y426288D01*
X209941Y426195D01*
X209515Y426140D01*
X209108Y426084D01*
X208756Y426066D01*
X208608D01*
X208478Y426047D01*
X208386D01*
X208293D01*
X208256D01*
X208238D01*
X207608Y426066D01*
X207034Y426121D01*
X206516Y426214D01*
X206275Y426251D01*
X206071Y426307D01*
X205868Y426362D01*
X205701Y426399D01*
X205553Y426436D01*
X205423Y426492D01*
X205312Y426510D01*
X205238Y426547D01*
X205201Y426566D01*
X205182D01*
X204701Y426769D01*
X204275Y427010D01*
X203905Y427270D01*
X203590Y427510D01*
X203331Y427732D01*
X203146Y427918D01*
X203090Y427992D01*
X203034Y428047D01*
X203016Y428066D01*
X202997Y428084D01*
X202757Y428380D01*
X202572Y428695D01*
X202405Y429010D01*
X202275Y429306D01*
X202183Y429566D01*
X202127Y429769D01*
X202090Y429843D01*
Y429899D01*
X202072Y429936D01*
Y429954D01*
X202016Y430269D01*
X201961Y430639D01*
X201924Y431010D01*
X201905Y431380D01*
X201887Y431713D01*
Y436639D01*
X214700D01*
Y432028D01*
D02*
G37*
G36*
Y423325D02*
X210812Y421937D01*
Y416567D01*
X214700Y415067D01*
Y413141D01*
X201887Y418382D01*
Y420233D01*
X214700Y425121D01*
Y423325D01*
D02*
G37*
G36*
X191200Y487704D02*
X187311Y486315D01*
Y480945D01*
X191200Y479445D01*
Y477520D01*
X178386Y482760D01*
Y484612D01*
X191200Y489500D01*
Y487704D01*
D02*
G37*
G36*
Y471539D02*
X191182Y471113D01*
X191163Y470724D01*
X191126Y470372D01*
X191089Y470076D01*
X191052Y469817D01*
X191033Y469632D01*
X191015Y469576D01*
X190996Y469521D01*
Y469484D01*
X190904Y469150D01*
X190793Y468854D01*
X190700Y468595D01*
X190589Y468373D01*
X190496Y468187D01*
X190422Y468058D01*
X190367Y467984D01*
X190348Y467947D01*
X190182Y467706D01*
X189978Y467502D01*
X189793Y467299D01*
X189608Y467132D01*
X189441Y466984D01*
X189311Y466873D01*
X189219Y466799D01*
X189182Y466780D01*
X188885Y466595D01*
X188571Y466410D01*
X188274Y466262D01*
X187978Y466151D01*
X187719Y466040D01*
X187515Y465965D01*
X187441Y465947D01*
X187386Y465928D01*
X187348Y465910D01*
X187330D01*
X186886Y465799D01*
X186441Y465706D01*
X186015Y465651D01*
X185608Y465595D01*
X185256Y465577D01*
X185108D01*
X184978Y465558D01*
X184886D01*
X184793D01*
X184756D01*
X184738D01*
X184108Y465577D01*
X183534Y465632D01*
X183016Y465725D01*
X182775Y465762D01*
X182571Y465817D01*
X182368Y465873D01*
X182201Y465910D01*
X182053Y465947D01*
X181923Y466002D01*
X181812Y466021D01*
X181738Y466058D01*
X181701Y466077D01*
X181682D01*
X181201Y466280D01*
X180775Y466521D01*
X180405Y466780D01*
X180090Y467021D01*
X179831Y467243D01*
X179646Y467428D01*
X179590Y467502D01*
X179534Y467558D01*
X179516Y467576D01*
X179498Y467595D01*
X179257Y467891D01*
X179072Y468206D01*
X178905Y468521D01*
X178775Y468817D01*
X178683Y469076D01*
X178627Y469280D01*
X178590Y469354D01*
Y469409D01*
X178572Y469446D01*
Y469465D01*
X178516Y469780D01*
X178461Y470150D01*
X178424Y470521D01*
X178405Y470891D01*
X178386Y471224D01*
Y476149D01*
X191200D01*
Y471539D01*
D02*
G37*
G36*
X188145Y463836D02*
X188423Y463781D01*
X188941Y463614D01*
X189385Y463410D01*
X189589Y463299D01*
X189756Y463188D01*
X189922Y463095D01*
X190070Y462984D01*
X190182Y462892D01*
X190274Y462799D01*
X190348Y462725D01*
X190422Y462688D01*
X190441Y462651D01*
X190459Y462632D01*
X190626Y462410D01*
X190774Y462188D01*
X190904Y461947D01*
X191015Y461707D01*
X191182Y461244D01*
X191293Y460781D01*
X191348Y460577D01*
X191367Y460373D01*
X191385Y460207D01*
X191404Y460059D01*
X191422Y459929D01*
Y459762D01*
X191404Y459374D01*
X191348Y459003D01*
X191274Y458651D01*
X191182Y458337D01*
X191052Y458040D01*
X190922Y457763D01*
X190793Y457503D01*
X190644Y457281D01*
X190496Y457077D01*
X190367Y456892D01*
X190219Y456744D01*
X190107Y456614D01*
X190015Y456522D01*
X189941Y456448D01*
X189885Y456411D01*
X189867Y456392D01*
X189626Y456207D01*
X189367Y456059D01*
X189126Y455911D01*
X188867Y455800D01*
X188367Y455615D01*
X187885Y455504D01*
X187682Y455466D01*
X187478Y455429D01*
X187311Y455411D01*
X187163Y455392D01*
X187034Y455374D01*
X186941D01*
X186886D01*
X186867D01*
X186534Y455392D01*
X186219Y455429D01*
X185904Y455485D01*
X185627Y455559D01*
X185367Y455652D01*
X185108Y455744D01*
X184886Y455855D01*
X184682Y455948D01*
X184497Y456059D01*
X184330Y456170D01*
X184201Y456263D01*
X184071Y456355D01*
X183979Y456429D01*
X183923Y456485D01*
X183886Y456522D01*
X183867Y456540D01*
X183664Y456763D01*
X183479Y456985D01*
X183330Y457226D01*
X183201Y457466D01*
X183071Y457707D01*
X182979Y457948D01*
X182849Y458392D01*
X182794Y458596D01*
X182756Y458781D01*
X182738Y458948D01*
X182719Y459096D01*
X182701Y459207D01*
Y459614D01*
X182738Y459836D01*
X182831Y460281D01*
X182960Y460688D01*
X183108Y461059D01*
X183256Y461355D01*
X183330Y461484D01*
X183386Y461595D01*
X183442Y461688D01*
X183479Y461744D01*
X183497Y461781D01*
X183516Y461799D01*
X180053Y461114D01*
Y455985D01*
X178553D01*
Y462355D01*
X185145Y463595D01*
X185349Y462114D01*
X185145Y461984D01*
X184978Y461818D01*
X184812Y461670D01*
X184682Y461521D01*
X184590Y461373D01*
X184497Y461262D01*
X184460Y461188D01*
X184441Y461170D01*
X184330Y460929D01*
X184238Y460688D01*
X184182Y460466D01*
X184127Y460244D01*
X184108Y460059D01*
X184090Y459911D01*
Y459559D01*
X184127Y459337D01*
X184219Y458948D01*
X184349Y458614D01*
X184478Y458318D01*
X184627Y458096D01*
X184756Y457929D01*
X184849Y457837D01*
X184867Y457800D01*
X184886D01*
X185201Y457540D01*
X185534Y457355D01*
X185886Y457226D01*
X186238Y457133D01*
X186534Y457077D01*
X186663Y457059D01*
X186775D01*
X186867Y457040D01*
X186941D01*
X186978D01*
X186997D01*
X187256D01*
X187497Y457077D01*
X187960Y457170D01*
X188348Y457300D01*
X188663Y457429D01*
X188923Y457577D01*
X189126Y457707D01*
X189182Y457763D01*
X189237Y457800D01*
X189256Y457818D01*
X189274Y457837D01*
X189422Y457985D01*
X189552Y458133D01*
X189774Y458466D01*
X189922Y458781D01*
X190015Y459096D01*
X190089Y459355D01*
X190107Y459577D01*
X190126Y459651D01*
Y459762D01*
X190107Y460114D01*
X190033Y460429D01*
X189941Y460707D01*
X189830Y460929D01*
X189719Y461133D01*
X189626Y461281D01*
X189552Y461355D01*
X189534Y461392D01*
X189274Y461614D01*
X188997Y461799D01*
X188682Y461947D01*
X188404Y462058D01*
X188126Y462132D01*
X187923Y462188D01*
X187830Y462206D01*
X187774Y462225D01*
X187737D01*
X187719D01*
X187848Y463873D01*
X188145Y463836D01*
D02*
G37*
G36*
X191422Y453393D02*
X178164Y449671D01*
Y450930D01*
X191422Y454652D01*
Y453393D01*
D02*
G37*
G36*
X187552Y448819D02*
X187997Y448745D01*
X188386Y448634D01*
X188737Y448504D01*
X189015Y448375D01*
X189126Y448319D01*
X189219Y448282D01*
X189293Y448227D01*
X189348Y448208D01*
X189385Y448171D01*
X189404D01*
X189756Y447893D01*
X190070Y447597D01*
X190330Y447282D01*
X190552Y446986D01*
X190719Y446727D01*
X190830Y446505D01*
X190867Y446430D01*
X190904Y446375D01*
X190922Y446338D01*
Y446319D01*
X191089Y445856D01*
X191218Y445375D01*
X191293Y444893D01*
X191367Y444431D01*
X191385Y444208D01*
X191404Y444023D01*
Y443857D01*
X191422Y443708D01*
Y443412D01*
X191404Y442912D01*
X191348Y442449D01*
X191255Y442023D01*
X191163Y441672D01*
X191089Y441375D01*
X191033Y441246D01*
X190996Y441135D01*
X190959Y441061D01*
X190941Y441005D01*
X190922Y440968D01*
Y440950D01*
X190719Y440561D01*
X190496Y440227D01*
X190256Y439931D01*
X190033Y439690D01*
X189848Y439505D01*
X189682Y439376D01*
X189571Y439283D01*
X189552Y439264D01*
X189534D01*
X189182Y439061D01*
X188848Y438913D01*
X188534Y438820D01*
X188237Y438746D01*
X187978Y438709D01*
X187774Y438672D01*
X187700D01*
X187645D01*
X187626D01*
X187608D01*
X187237Y438690D01*
X186886Y438746D01*
X186571Y438839D01*
X186312Y438931D01*
X186089Y439042D01*
X185923Y439116D01*
X185830Y439190D01*
X185793Y439209D01*
X185515Y439431D01*
X185256Y439690D01*
X185034Y439968D01*
X184830Y440246D01*
X184682Y440487D01*
X184571Y440690D01*
X184534Y440764D01*
X184497Y440820D01*
X184478Y440857D01*
Y440875D01*
X184404Y441024D01*
X184349Y441209D01*
X184275Y441412D01*
X184201Y441635D01*
X184071Y442098D01*
X183941Y442579D01*
X183886Y442801D01*
X183830Y443005D01*
X183775Y443209D01*
X183738Y443375D01*
X183701Y443505D01*
X183682Y443616D01*
X183664Y443690D01*
Y443708D01*
X183571Y444079D01*
X183497Y444412D01*
X183405Y444708D01*
X183330Y444968D01*
X183238Y445208D01*
X183164Y445412D01*
X183090Y445597D01*
X183034Y445764D01*
X182960Y445893D01*
X182905Y446004D01*
X182868Y446079D01*
X182812Y446153D01*
X182756Y446245D01*
X182738Y446264D01*
X182553Y446430D01*
X182368Y446541D01*
X182182Y446634D01*
X181997Y446690D01*
X181849Y446727D01*
X181719Y446745D01*
X181645D01*
X181608D01*
X181312Y446708D01*
X181053Y446634D01*
X180831Y446523D01*
X180627Y446393D01*
X180479Y446282D01*
X180349Y446171D01*
X180275Y446097D01*
X180257Y446060D01*
X180164Y445912D01*
X180072Y445764D01*
X179923Y445412D01*
X179831Y445042D01*
X179757Y444671D01*
X179720Y444338D01*
X179701Y444190D01*
X179683Y444079D01*
Y443820D01*
X179701Y443301D01*
X179775Y442838D01*
X179886Y442468D01*
X179998Y442153D01*
X180109Y441912D01*
X180220Y441727D01*
X180294Y441635D01*
X180312Y441598D01*
X180571Y441338D01*
X180849Y441135D01*
X181145Y440968D01*
X181442Y440857D01*
X181719Y440783D01*
X181923Y440727D01*
X182016Y440709D01*
X182071Y440690D01*
X182108D01*
X182127D01*
X181997Y439061D01*
X181590Y439098D01*
X181220Y439190D01*
X180868Y439283D01*
X180571Y439413D01*
X180331Y439524D01*
X180146Y439616D01*
X180090Y439653D01*
X180035Y439690D01*
X180016Y439709D01*
X179998D01*
X179683Y439950D01*
X179405Y440209D01*
X179164Y440487D01*
X178979Y440764D01*
X178812Y441005D01*
X178720Y441190D01*
X178683Y441264D01*
X178646Y441320D01*
X178627Y441357D01*
Y441375D01*
X178479Y441783D01*
X178368Y442227D01*
X178275Y442635D01*
X178220Y443023D01*
X178183Y443375D01*
Y443505D01*
X178164Y443634D01*
Y443875D01*
X178183Y444356D01*
X178238Y444782D01*
X178312Y445190D01*
X178386Y445542D01*
X178461Y445819D01*
X178498Y445949D01*
X178535Y446042D01*
X178572Y446116D01*
X178590Y446171D01*
X178609Y446208D01*
Y446227D01*
X178794Y446597D01*
X178998Y446930D01*
X179220Y447208D01*
X179423Y447430D01*
X179609Y447597D01*
X179757Y447727D01*
X179868Y447819D01*
X179886Y447838D01*
X179905D01*
X180220Y448023D01*
X180534Y448152D01*
X180849Y448245D01*
X181127Y448301D01*
X181368Y448338D01*
X181553Y448375D01*
X181627D01*
X181682D01*
X181701D01*
X181719D01*
X182034Y448356D01*
X182330Y448301D01*
X182608Y448227D01*
X182849Y448152D01*
X183034Y448078D01*
X183182Y448004D01*
X183275Y447949D01*
X183312Y447930D01*
X183571Y447745D01*
X183812Y447523D01*
X184016Y447301D01*
X184182Y447079D01*
X184330Y446893D01*
X184423Y446727D01*
X184497Y446616D01*
X184515Y446597D01*
Y446578D01*
X184590Y446430D01*
X184664Y446264D01*
X184793Y445893D01*
X184923Y445467D01*
X185053Y445060D01*
X185164Y444690D01*
X185201Y444523D01*
X185238Y444375D01*
X185275Y444264D01*
X185293Y444171D01*
X185312Y444116D01*
Y444097D01*
X185386Y443783D01*
X185460Y443486D01*
X185534Y443227D01*
X185590Y443005D01*
X185645Y442783D01*
X185701Y442598D01*
X185738Y442431D01*
X185793Y442301D01*
X185830Y442172D01*
X185849Y442079D01*
X185904Y441931D01*
X185923Y441838D01*
X185941Y441820D01*
X186052Y441542D01*
X186182Y441301D01*
X186312Y441098D01*
X186423Y440950D01*
X186534Y440820D01*
X186608Y440746D01*
X186663Y440690D01*
X186682Y440672D01*
X186849Y440542D01*
X187034Y440449D01*
X187219Y440394D01*
X187367Y440338D01*
X187515Y440320D01*
X187626Y440301D01*
X187719D01*
X187737D01*
X187960Y440320D01*
X188163Y440357D01*
X188348Y440412D01*
X188497Y440487D01*
X188645Y440561D01*
X188737Y440616D01*
X188811Y440653D01*
X188830Y440672D01*
X189015Y440820D01*
X189163Y441005D01*
X189293Y441190D01*
X189422Y441357D01*
X189496Y441524D01*
X189571Y441653D01*
X189608Y441746D01*
X189626Y441783D01*
X189719Y442061D01*
X189793Y442357D01*
X189830Y442653D01*
X189867Y442912D01*
X189885Y443134D01*
X189904Y443320D01*
Y443486D01*
X189885Y443894D01*
X189848Y444264D01*
X189793Y444597D01*
X189719Y444893D01*
X189645Y445134D01*
X189589Y445319D01*
X189571Y445375D01*
X189552Y445430D01*
X189534Y445449D01*
Y445467D01*
X189385Y445764D01*
X189219Y446042D01*
X189052Y446245D01*
X188885Y446430D01*
X188756Y446578D01*
X188626Y446671D01*
X188552Y446727D01*
X188534Y446745D01*
X188293Y446875D01*
X188034Y447004D01*
X187756Y447079D01*
X187515Y447152D01*
X187274Y447208D01*
X187108Y447245D01*
X187034D01*
X186978Y447264D01*
X186960D01*
X186941D01*
X187089Y448856D01*
X187552Y448819D01*
D02*
G37*
G36*
X185367Y436802D02*
X186015Y436728D01*
X186589Y436635D01*
X186867Y436561D01*
X187108Y436506D01*
X187330Y436450D01*
X187534Y436376D01*
X187719Y436320D01*
X187867Y436283D01*
X187978Y436228D01*
X188071Y436209D01*
X188126Y436172D01*
X188145D01*
X188700Y435895D01*
X189200Y435580D01*
X189626Y435246D01*
X189793Y435080D01*
X189959Y434932D01*
X190107Y434784D01*
X190237Y434635D01*
X190348Y434506D01*
X190422Y434395D01*
X190496Y434320D01*
X190552Y434246D01*
X190570Y434209D01*
X190589Y434191D01*
X190737Y433932D01*
X190867Y433672D01*
X191070Y433117D01*
X191218Y432561D01*
X191311Y432024D01*
X191348Y431765D01*
X191385Y431543D01*
X191404Y431339D01*
Y431173D01*
X191422Y431025D01*
Y430821D01*
X191404Y430451D01*
X191367Y430099D01*
X191330Y429766D01*
X191255Y429451D01*
X191163Y429154D01*
X191070Y428877D01*
X190978Y428617D01*
X190867Y428377D01*
X190774Y428173D01*
X190681Y427969D01*
X190589Y427821D01*
X190496Y427673D01*
X190422Y427580D01*
X190385Y427488D01*
X190348Y427451D01*
X190330Y427432D01*
X190107Y427173D01*
X189885Y426951D01*
X189626Y426747D01*
X189367Y426544D01*
X188848Y426210D01*
X188330Y425951D01*
X188089Y425840D01*
X187867Y425747D01*
X187663Y425673D01*
X187497Y425618D01*
X187348Y425562D01*
X187237Y425525D01*
X187163Y425507D01*
X187145D01*
X186719Y427210D01*
X187015Y427284D01*
X187293Y427377D01*
X187552Y427469D01*
X187793Y427562D01*
X188015Y427673D01*
X188200Y427784D01*
X188386Y427914D01*
X188552Y428025D01*
X188700Y428117D01*
X188811Y428229D01*
X188923Y428321D01*
X189015Y428395D01*
X189071Y428469D01*
X189126Y428525D01*
X189145Y428543D01*
X189163Y428562D01*
X189311Y428747D01*
X189422Y428951D01*
X189626Y429358D01*
X189774Y429747D01*
X189867Y430136D01*
X189941Y430469D01*
X189959Y430599D01*
Y430728D01*
X189978Y430839D01*
Y430969D01*
X189959Y431395D01*
X189885Y431802D01*
X189793Y432173D01*
X189682Y432506D01*
X189571Y432765D01*
X189515Y432876D01*
X189478Y432969D01*
X189441Y433043D01*
X189404Y433098D01*
X189385Y433135D01*
Y433154D01*
X189126Y433506D01*
X188848Y433802D01*
X188534Y434061D01*
X188237Y434265D01*
X187978Y434432D01*
X187756Y434543D01*
X187663Y434580D01*
X187608Y434617D01*
X187571Y434635D01*
X187552D01*
X187071Y434784D01*
X186589Y434895D01*
X186108Y434987D01*
X185664Y435043D01*
X185460Y435061D01*
X185275Y435080D01*
X185108D01*
X184978Y435098D01*
X184867D01*
X184775D01*
X184719D01*
X184701D01*
X184219Y435080D01*
X183775Y435043D01*
X183368Y434969D01*
X182997Y434895D01*
X182682Y434839D01*
X182553Y434802D01*
X182442Y434765D01*
X182349Y434746D01*
X182293Y434728D01*
X182257Y434709D01*
X182238D01*
X181812Y434524D01*
X181423Y434320D01*
X181108Y434098D01*
X180831Y433858D01*
X180609Y433654D01*
X180460Y433487D01*
X180368Y433358D01*
X180331Y433339D01*
Y433321D01*
X180090Y432932D01*
X179905Y432506D01*
X179775Y432099D01*
X179701Y431710D01*
X179646Y431358D01*
X179627Y431210D01*
Y431080D01*
X179609Y430988D01*
Y430839D01*
X179627Y430377D01*
X179701Y429951D01*
X179812Y429599D01*
X179923Y429284D01*
X180053Y429043D01*
X180146Y428858D01*
X180220Y428747D01*
X180257Y428710D01*
X180534Y428414D01*
X180849Y428136D01*
X181182Y427914D01*
X181516Y427729D01*
X181812Y427580D01*
X181960Y427525D01*
X182071Y427488D01*
X182164Y427451D01*
X182238Y427414D01*
X182275Y427395D01*
X182293D01*
X181905Y425729D01*
X181571Y425840D01*
X181275Y425951D01*
X180997Y426099D01*
X180720Y426229D01*
X180479Y426377D01*
X180257Y426544D01*
X180035Y426692D01*
X179849Y426840D01*
X179701Y426988D01*
X179553Y427118D01*
X179423Y427247D01*
X179331Y427340D01*
X179238Y427432D01*
X179183Y427506D01*
X179164Y427543D01*
X179146Y427562D01*
X178979Y427821D01*
X178812Y428080D01*
X178683Y428340D01*
X178572Y428617D01*
X178405Y429173D01*
X178294Y429673D01*
X178238Y429914D01*
X178220Y430117D01*
X178201Y430321D01*
X178183Y430488D01*
X178164Y430617D01*
Y430802D01*
X178201Y431413D01*
X178294Y432006D01*
X178405Y432524D01*
X178479Y432765D01*
X178553Y432987D01*
X178627Y433191D01*
X178701Y433376D01*
X178757Y433524D01*
X178812Y433672D01*
X178868Y433765D01*
X178905Y433839D01*
X178923Y433895D01*
X178942Y433913D01*
X179257Y434413D01*
X179627Y434839D01*
X179998Y435209D01*
X180368Y435524D01*
X180701Y435765D01*
X180849Y435857D01*
X180979Y435932D01*
X181071Y436006D01*
X181145Y436043D01*
X181201Y436061D01*
X181220Y436080D01*
X181794Y436339D01*
X182386Y436524D01*
X182979Y436654D01*
X183516Y436746D01*
X183756Y436783D01*
X183997Y436802D01*
X184182Y436820D01*
X184367D01*
X184497Y436839D01*
X184608D01*
X184682D01*
X184701D01*
X185367Y436802D01*
D02*
G37*
G36*
X191200Y415471D02*
X189682D01*
Y421785D01*
X178386D01*
Y423488D01*
X191200D01*
Y415471D01*
D02*
G37*
%LPC*%
G36*
X658823Y29915D02*
X655082Y28526D01*
X654620Y28360D01*
X654175Y28230D01*
X653768Y28101D01*
X653397Y28008D01*
X653083Y27934D01*
X652953Y27897D01*
X652823Y27878D01*
X652749Y27841D01*
X652675D01*
X652638Y27823D01*
X652620D01*
X653046Y27693D01*
X653490Y27545D01*
X653934Y27397D01*
X654360Y27249D01*
X654545Y27175D01*
X654731Y27119D01*
X654897Y27064D01*
X655027Y27008D01*
X655138Y26971D01*
X655230Y26934D01*
X655286Y26916D01*
X655305D01*
X658823Y25582D01*
Y29915D01*
D02*
G37*
G36*
X610623Y56215D02*
X606882Y54826D01*
X606419Y54660D01*
X605975Y54530D01*
X605568Y54401D01*
X605197Y54308D01*
X604883Y54234D01*
X604753Y54197D01*
X604623Y54178D01*
X604549Y54141D01*
X604475D01*
X604438Y54123D01*
X604420D01*
X604846Y53993D01*
X605290Y53845D01*
X605734Y53697D01*
X606160Y53549D01*
X606345Y53475D01*
X606531Y53419D01*
X606697Y53364D01*
X606827Y53308D01*
X606938Y53271D01*
X607030Y53234D01*
X607086Y53215D01*
X607105D01*
X610623Y51882D01*
Y56215D01*
D02*
G37*
G36*
X611382Y46198D02*
X605642Y42161D01*
X611382D01*
Y46198D01*
D02*
G37*
G36*
X586323Y54615D02*
X582582Y53226D01*
X582119Y53060D01*
X581675Y52930D01*
X581268Y52801D01*
X580897Y52708D01*
X580583Y52634D01*
X580453Y52597D01*
X580323Y52578D01*
X580249Y52541D01*
X580175D01*
X580138Y52523D01*
X580120D01*
X580546Y52393D01*
X580990Y52245D01*
X581434Y52097D01*
X581860Y51949D01*
X582045Y51875D01*
X582231Y51819D01*
X582397Y51764D01*
X582527Y51708D01*
X582638Y51671D01*
X582730Y51634D01*
X582786Y51616D01*
X582805D01*
X586323Y50282D01*
Y54615D01*
D02*
G37*
G36*
X559223Y55515D02*
X555482Y54127D01*
X555019Y53960D01*
X554575Y53830D01*
X554168Y53701D01*
X553797Y53608D01*
X553483Y53534D01*
X553353Y53497D01*
X553223Y53478D01*
X553149Y53441D01*
X553075D01*
X553038Y53423D01*
X553020D01*
X553446Y53293D01*
X553890Y53145D01*
X554334Y52997D01*
X554760Y52849D01*
X554945Y52775D01*
X555131Y52719D01*
X555297Y52664D01*
X555427Y52608D01*
X555538Y52571D01*
X555630Y52534D01*
X555686Y52516D01*
X555705D01*
X559223Y51182D01*
Y55515D01*
D02*
G37*
G36*
X534423Y55915D02*
X530682Y54527D01*
X530219Y54360D01*
X529775Y54230D01*
X529368Y54101D01*
X528997Y54008D01*
X528683Y53934D01*
X528553Y53897D01*
X528423Y53878D01*
X528349Y53841D01*
X528275D01*
X528238Y53823D01*
X528220D01*
X528646Y53693D01*
X529090Y53545D01*
X529534Y53397D01*
X529960Y53249D01*
X530145Y53175D01*
X530331Y53119D01*
X530497Y53064D01*
X530627Y53008D01*
X530738Y52971D01*
X530830Y52934D01*
X530886Y52916D01*
X530905D01*
X534423Y51582D01*
Y55915D01*
D02*
G37*
G36*
X508923Y55615D02*
X505182Y54226D01*
X504720Y54060D01*
X504275Y53930D01*
X503868Y53801D01*
X503497Y53708D01*
X503183Y53634D01*
X503053Y53597D01*
X502923Y53578D01*
X502849Y53541D01*
X502775D01*
X502738Y53523D01*
X502720D01*
X503146Y53393D01*
X503590Y53245D01*
X504034Y53097D01*
X504460Y52949D01*
X504645Y52875D01*
X504831Y52819D01*
X504997Y52764D01*
X505127Y52708D01*
X505238Y52671D01*
X505331Y52634D01*
X505386Y52615D01*
X505405D01*
X508923Y51282D01*
Y55615D01*
D02*
G37*
G36*
X508182Y44987D02*
X508015D01*
X507923D01*
X507886D01*
X507312Y44968D01*
X506793Y44950D01*
X506312Y44913D01*
X505868Y44857D01*
X505479Y44802D01*
X505127Y44727D01*
X504812Y44653D01*
X504534Y44579D01*
X504294Y44505D01*
X504090Y44450D01*
X503923Y44376D01*
X503775Y44320D01*
X503683Y44264D01*
X503609Y44227D01*
X503572Y44191D01*
X503553D01*
X503386Y44061D01*
X503238Y43931D01*
X503127Y43783D01*
X503016Y43635D01*
X502849Y43339D01*
X502738Y43061D01*
X502683Y42820D01*
X502646Y42617D01*
X502627Y42543D01*
Y42431D01*
X502646Y42228D01*
X502664Y42024D01*
X502720Y41839D01*
X502794Y41672D01*
X502960Y41357D01*
X503146Y41080D01*
X503349Y40876D01*
X503516Y40709D01*
X503590Y40654D01*
X503646Y40617D01*
X503664Y40580D01*
X503683D01*
X503905Y40450D01*
X504164Y40339D01*
X504460Y40228D01*
X504775Y40154D01*
X505108Y40080D01*
X505460Y40024D01*
X506164Y39932D01*
X506516Y39895D01*
X506830Y39876D01*
X507127Y39858D01*
X507367D01*
X507590Y39839D01*
X507756D01*
X507849D01*
X507867D01*
X507886D01*
X508460D01*
X508978Y39876D01*
X509441Y39913D01*
X509886Y39950D01*
X510256Y40006D01*
X510608Y40080D01*
X510904Y40154D01*
X511182Y40209D01*
X511404Y40283D01*
X511589Y40357D01*
X511756Y40413D01*
X511885Y40487D01*
X511978Y40524D01*
X512034Y40561D01*
X512071Y40598D01*
X512089D01*
X512274Y40746D01*
X512422Y40894D01*
X512570Y41043D01*
X512682Y41191D01*
X512867Y41506D01*
X512996Y41783D01*
X513070Y42042D01*
X513107Y42228D01*
X513126Y42302D01*
Y42413D01*
X513107Y42617D01*
X513089Y42802D01*
X512959Y43154D01*
X512793Y43468D01*
X512608Y43746D01*
X512422Y43950D01*
X512256Y44116D01*
X512126Y44209D01*
X512108Y44246D01*
X512089D01*
X511867Y44376D01*
X511608Y44487D01*
X511311Y44598D01*
X510997Y44672D01*
X510663Y44746D01*
X510312Y44802D01*
X509589Y44894D01*
X509256Y44931D01*
X508941Y44950D01*
X508645Y44968D01*
X508404D01*
X508182Y44987D01*
D02*
G37*
G36*
X436982Y46303D02*
X427205D01*
Y43340D01*
X427223Y43100D01*
Y42859D01*
X427242Y42637D01*
X427298Y42266D01*
X427335Y41970D01*
X427390Y41729D01*
X427446Y41563D01*
X427464Y41470D01*
X427483Y41433D01*
X427649Y41100D01*
X427853Y40785D01*
X428094Y40507D01*
X428334Y40267D01*
X428557Y40081D01*
X428742Y39933D01*
X428816Y39896D01*
X428871Y39859D01*
X428908Y39822D01*
X428927D01*
X429131Y39711D01*
X429371Y39600D01*
X429853Y39433D01*
X430371Y39322D01*
X430871Y39230D01*
X431093Y39211D01*
X431316Y39193D01*
X431501Y39174D01*
X431667D01*
X431815Y39156D01*
X431908D01*
X431982D01*
X432001D01*
X432519Y39174D01*
X433001Y39211D01*
X433427Y39267D01*
X433797Y39322D01*
X433945Y39359D01*
X434075Y39396D01*
X434204Y39433D01*
X434297Y39452D01*
X434371Y39470D01*
X434426Y39489D01*
X434463Y39507D01*
X434482D01*
X434834Y39637D01*
X435149Y39785D01*
X435426Y39952D01*
X435667Y40100D01*
X435852Y40230D01*
X435982Y40341D01*
X436056Y40415D01*
X436093Y40433D01*
X436241Y40618D01*
X436371Y40804D01*
X436482Y40989D01*
X436593Y41174D01*
X436667Y41341D01*
X436722Y41470D01*
X436741Y41563D01*
X436759Y41600D01*
X436833Y41877D01*
X436889Y42211D01*
X436926Y42544D01*
X436945Y42859D01*
X436963Y43137D01*
X436982Y43266D01*
Y46303D01*
D02*
G37*
G36*
X412582Y45703D02*
X402805D01*
Y42740D01*
X402823Y42500D01*
Y42259D01*
X402842Y42037D01*
X402897Y41666D01*
X402934Y41370D01*
X402990Y41129D01*
X403046Y40963D01*
X403064Y40870D01*
X403083Y40833D01*
X403249Y40500D01*
X403453Y40185D01*
X403694Y39907D01*
X403934Y39667D01*
X404157Y39481D01*
X404342Y39333D01*
X404416Y39296D01*
X404471Y39259D01*
X404508Y39222D01*
X404527D01*
X404731Y39111D01*
X404971Y39000D01*
X405453Y38833D01*
X405971Y38722D01*
X406471Y38630D01*
X406693Y38611D01*
X406916Y38593D01*
X407101Y38574D01*
X407267D01*
X407416Y38556D01*
X407508D01*
X407582D01*
X407601D01*
X408119Y38574D01*
X408601Y38611D01*
X409026Y38667D01*
X409397Y38722D01*
X409545Y38759D01*
X409674Y38796D01*
X409804Y38833D01*
X409897Y38852D01*
X409971Y38870D01*
X410026Y38889D01*
X410063Y38907D01*
X410082D01*
X410434Y39037D01*
X410748Y39185D01*
X411026Y39352D01*
X411267Y39500D01*
X411452Y39630D01*
X411582Y39741D01*
X411656Y39815D01*
X411693Y39833D01*
X411841Y40018D01*
X411971Y40204D01*
X412082Y40389D01*
X412193Y40574D01*
X412267Y40741D01*
X412322Y40870D01*
X412341Y40963D01*
X412359Y41000D01*
X412434Y41277D01*
X412489Y41611D01*
X412526Y41944D01*
X412545Y42259D01*
X412563Y42537D01*
X412582Y42666D01*
Y45703D01*
D02*
G37*
G36*
X328453Y91697D02*
X324212D01*
Y87660D01*
X324231Y87160D01*
X324305Y86734D01*
X324397Y86364D01*
X324509Y86086D01*
X324620Y85845D01*
X324712Y85697D01*
X324786Y85604D01*
X324805Y85568D01*
X325046Y85345D01*
X325286Y85179D01*
X325546Y85068D01*
X325768Y84975D01*
X325990Y84938D01*
X326157Y84919D01*
X326268Y84901D01*
X326286D01*
X326305D01*
X326527Y84919D01*
X326749Y84956D01*
X326934Y85012D01*
X327101Y85068D01*
X327249Y85142D01*
X327360Y85197D01*
X327434Y85234D01*
X327453Y85253D01*
X327638Y85382D01*
X327804Y85549D01*
X327934Y85716D01*
X328045Y85882D01*
X328119Y86030D01*
X328175Y86142D01*
X328212Y86216D01*
X328230Y86253D01*
X328304Y86512D01*
X328360Y86808D01*
X328397Y87104D01*
X328415Y87401D01*
X328434Y87660D01*
X328453Y87882D01*
Y91697D01*
D02*
G37*
G36*
X631182Y492689D02*
X631016D01*
X630923D01*
X630886D01*
X630312Y492671D01*
X629793Y492652D01*
X629312Y492615D01*
X628867Y492559D01*
X628479Y492504D01*
X628127Y492430D01*
X627812Y492356D01*
X627534Y492282D01*
X627294Y492208D01*
X627090Y492152D01*
X626923Y492078D01*
X626775Y492023D01*
X626683Y491967D01*
X626609Y491930D01*
X626572Y491893D01*
X626553D01*
X626386Y491763D01*
X626238Y491634D01*
X626127Y491485D01*
X626016Y491337D01*
X625849Y491041D01*
X625738Y490763D01*
X625683Y490523D01*
X625646Y490319D01*
X625627Y490245D01*
Y490134D01*
X625646Y489930D01*
X625664Y489726D01*
X625720Y489541D01*
X625794Y489375D01*
X625960Y489060D01*
X626146Y488782D01*
X626349Y488578D01*
X626516Y488412D01*
X626590Y488356D01*
X626646Y488319D01*
X626664Y488282D01*
X626683D01*
X626905Y488153D01*
X627164Y488041D01*
X627460Y487930D01*
X627775Y487856D01*
X628108Y487782D01*
X628460Y487727D01*
X629164Y487634D01*
X629516Y487597D01*
X629830Y487579D01*
X630127Y487560D01*
X630367D01*
X630590Y487541D01*
X630756D01*
X630849D01*
X630867D01*
X630886D01*
X631460D01*
X631978Y487579D01*
X632441Y487616D01*
X632886Y487653D01*
X633256Y487708D01*
X633608Y487782D01*
X633904Y487856D01*
X634182Y487912D01*
X634404Y487986D01*
X634589Y488060D01*
X634756Y488116D01*
X634885Y488190D01*
X634978Y488227D01*
X635034Y488264D01*
X635071Y488301D01*
X635089D01*
X635274Y488449D01*
X635422Y488597D01*
X635570Y488745D01*
X635682Y488893D01*
X635867Y489208D01*
X635996Y489486D01*
X636071Y489745D01*
X636107Y489930D01*
X636126Y490004D01*
Y490115D01*
X636107Y490319D01*
X636089Y490504D01*
X635959Y490856D01*
X635793Y491171D01*
X635608Y491448D01*
X635422Y491652D01*
X635256Y491819D01*
X635126Y491911D01*
X635108Y491948D01*
X635089D01*
X634867Y492078D01*
X634608Y492189D01*
X634311Y492300D01*
X633997Y492374D01*
X633663Y492448D01*
X633312Y492504D01*
X632589Y492597D01*
X632256Y492634D01*
X631941Y492652D01*
X631645Y492671D01*
X631404D01*
X631182Y492689D01*
D02*
G37*
G36*
X630053Y476987D02*
X625812D01*
Y472950D01*
X625831Y472450D01*
X625905Y472024D01*
X625998Y471654D01*
X626109Y471376D01*
X626220Y471136D01*
X626312Y470988D01*
X626386Y470895D01*
X626405Y470858D01*
X626646Y470636D01*
X626886Y470469D01*
X627146Y470358D01*
X627368Y470266D01*
X627590Y470228D01*
X627757Y470210D01*
X627868Y470191D01*
X627886D01*
X627905D01*
X628127Y470210D01*
X628349Y470247D01*
X628534Y470303D01*
X628701Y470358D01*
X628849Y470432D01*
X628960Y470488D01*
X629034Y470525D01*
X629053Y470543D01*
X629238Y470673D01*
X629404Y470840D01*
X629534Y471006D01*
X629645Y471173D01*
X629719Y471321D01*
X629775Y471432D01*
X629812Y471506D01*
X629830Y471543D01*
X629905Y471802D01*
X629960Y472099D01*
X629997Y472395D01*
X630016Y472691D01*
X630034Y472950D01*
X630053Y473173D01*
Y476987D01*
D02*
G37*
G36*
X605119Y449542D02*
X604990D01*
X604916D01*
X604897D01*
X604379Y449523D01*
X603897Y449486D01*
X603434Y449431D01*
X603027Y449338D01*
X602656Y449245D01*
X602323Y449134D01*
X602008Y449005D01*
X601749Y448894D01*
X601508Y448764D01*
X601305Y448653D01*
X601138Y448542D01*
X601008Y448449D01*
X600897Y448357D01*
X600823Y448301D01*
X600786Y448264D01*
X600768Y448246D01*
X600546Y448005D01*
X600360Y447746D01*
X600194Y447486D01*
X600046Y447209D01*
X599935Y446949D01*
X599823Y446690D01*
X599675Y446209D01*
X599638Y445987D01*
X599601Y445783D01*
X599564Y445616D01*
X599546Y445449D01*
X599527Y445320D01*
Y445153D01*
X599546Y444690D01*
X599620Y444246D01*
X599731Y443857D01*
X599842Y443524D01*
X599972Y443246D01*
X600027Y443135D01*
X600064Y443042D01*
X600120Y442950D01*
X600138Y442894D01*
X600175Y442876D01*
Y442857D01*
X600434Y442505D01*
X600731Y442191D01*
X601027Y441913D01*
X601323Y441691D01*
X601582Y441524D01*
X601805Y441394D01*
X601879Y441357D01*
X601934Y441320D01*
X601971Y441302D01*
X601990D01*
X602434Y441117D01*
X602916Y440987D01*
X603360Y440894D01*
X603786Y440839D01*
X603990Y440802D01*
X604156Y440783D01*
X604323D01*
X604453Y440765D01*
X604564D01*
X604638D01*
X604693D01*
X604712D01*
X605156Y440783D01*
X605582Y440820D01*
X605989Y440876D01*
X606360Y440950D01*
X606693Y441061D01*
X607008Y441154D01*
X607304Y441265D01*
X607563Y441376D01*
X607785Y441505D01*
X607989Y441617D01*
X608156Y441709D01*
X608285Y441802D01*
X608397Y441894D01*
X608489Y441950D01*
X608526Y441987D01*
X608545Y442005D01*
X608785Y442246D01*
X608989Y442505D01*
X609156Y442765D01*
X609322Y443024D01*
X609452Y443283D01*
X609545Y443561D01*
X609637Y443801D01*
X609711Y444061D01*
X609767Y444283D01*
X609804Y444505D01*
X609841Y444690D01*
X609859Y444857D01*
Y444987D01*
X609878Y445079D01*
Y445172D01*
X609859Y445523D01*
X609822Y445857D01*
X609748Y446153D01*
X609674Y446449D01*
X609563Y446727D01*
X609452Y446986D01*
X609341Y447227D01*
X609211Y447449D01*
X609082Y447634D01*
X608971Y447801D01*
X608859Y447949D01*
X608748Y448079D01*
X608674Y448171D01*
X608600Y448246D01*
X608563Y448283D01*
X608545Y448301D01*
X608285Y448523D01*
X608008Y448708D01*
X607711Y448875D01*
X607415Y449023D01*
X607100Y449134D01*
X606804Y449245D01*
X606212Y449394D01*
X605952Y449431D01*
X605693Y449468D01*
X605471Y449505D01*
X605286Y449523D01*
X605119Y449542D01*
D02*
G37*
G36*
X531982Y491363D02*
X526242Y487327D01*
X531982D01*
Y491363D01*
D02*
G37*
G36*
X479382Y490685D02*
X479289D01*
X479252D01*
X478808Y490648D01*
X478419Y490574D01*
X478067Y490445D01*
X477789Y490315D01*
X477549Y490185D01*
X477382Y490056D01*
X477290Y489982D01*
X477253Y489945D01*
X476993Y489648D01*
X476808Y489352D01*
X476660Y489037D01*
X476567Y488760D01*
X476512Y488500D01*
X476493Y488315D01*
X476475Y488241D01*
Y488130D01*
X476512Y487741D01*
X476604Y487389D01*
X476716Y487093D01*
X476864Y486834D01*
X477012Y486630D01*
X477123Y486482D01*
X477215Y486390D01*
X477253Y486353D01*
X477567Y486112D01*
X477901Y485927D01*
X478252Y485797D01*
X478586Y485723D01*
X478882Y485667D01*
X479012Y485649D01*
X479123D01*
X479215Y485630D01*
X479289D01*
X479326D01*
X479345D01*
X479845Y485667D01*
X480271Y485741D01*
X480641Y485853D01*
X480956Y485982D01*
X481197Y486130D01*
X481382Y486241D01*
X481493Y486315D01*
X481511Y486353D01*
X481530D01*
X481678Y486482D01*
X481789Y486630D01*
X481993Y486926D01*
X482122Y487223D01*
X482234Y487482D01*
X482289Y487723D01*
X482308Y487908D01*
X482326Y487982D01*
Y488074D01*
X482308Y488334D01*
X482271Y488574D01*
X482196Y488797D01*
X482122Y488982D01*
X482067Y489148D01*
X481993Y489278D01*
X481956Y489352D01*
X481937Y489389D01*
X481771Y489611D01*
X481604Y489797D01*
X481400Y489963D01*
X481234Y490093D01*
X481067Y490204D01*
X480937Y490278D01*
X480845Y490334D01*
X480808Y490352D01*
X480530Y490463D01*
X480252Y490537D01*
X479993Y490611D01*
X479752Y490648D01*
X479548Y490667D01*
X479382Y490685D01*
D02*
G37*
G36*
X410945Y489071D02*
X410927D01*
X410908D01*
X410612Y489052D01*
X410353Y488978D01*
X410112Y488885D01*
X409908Y488774D01*
X409742Y488682D01*
X409612Y488589D01*
X409538Y488515D01*
X409520Y488497D01*
X409316Y488256D01*
X409168Y488015D01*
X409075Y487756D01*
X409001Y487515D01*
X408964Y487293D01*
X408927Y487126D01*
Y486978D01*
X408946Y486663D01*
X409020Y486367D01*
X409112Y486127D01*
X409223Y485904D01*
X409334Y485738D01*
X409427Y485608D01*
X409501Y485515D01*
X409520Y485497D01*
X409760Y485293D01*
X410001Y485145D01*
X410242Y485034D01*
X410464Y484960D01*
X410668Y484923D01*
X410834Y484886D01*
X410945D01*
X410964D01*
X410983D01*
X411279Y484904D01*
X411557Y484978D01*
X411797Y485071D01*
X412001Y485182D01*
X412168Y485293D01*
X412279Y485386D01*
X412371Y485460D01*
X412390Y485478D01*
X412575Y485701D01*
X412723Y485960D01*
X412816Y486200D01*
X412890Y486441D01*
X412927Y486663D01*
X412945Y486830D01*
X412964Y486941D01*
Y486978D01*
X412945Y487312D01*
X412871Y487608D01*
X412779Y487867D01*
X412668Y488089D01*
X412575Y488256D01*
X412482Y488386D01*
X412408Y488478D01*
X412390Y488497D01*
X412168Y488682D01*
X411908Y488830D01*
X411668Y488923D01*
X411427Y488997D01*
X411223Y489034D01*
X411057Y489052D01*
X410945Y489071D01*
D02*
G37*
G36*
X416926Y489589D02*
X416852D01*
X416815D01*
X416426Y489552D01*
X416074Y489478D01*
X415760Y489367D01*
X415482Y489219D01*
X415278Y489089D01*
X415112Y488978D01*
X415019Y488904D01*
X414982Y488867D01*
X414741Y488589D01*
X414556Y488274D01*
X414427Y487978D01*
X414334Y487682D01*
X414278Y487423D01*
X414260Y487219D01*
X414241Y487145D01*
Y487034D01*
X414278Y486626D01*
X414352Y486256D01*
X414482Y485923D01*
X414612Y485645D01*
X414760Y485423D01*
X414889Y485256D01*
X414963Y485164D01*
X415001Y485127D01*
X415297Y484867D01*
X415612Y484682D01*
X415926Y484552D01*
X416204Y484460D01*
X416482Y484404D01*
X416686Y484386D01*
X416760Y484367D01*
X416815D01*
X416852D01*
X416871D01*
X417260Y484404D01*
X417630Y484478D01*
X417945Y484608D01*
X418204Y484738D01*
X418408Y484867D01*
X418574Y484997D01*
X418667Y485071D01*
X418704Y485108D01*
X418945Y485404D01*
X419130Y485701D01*
X419241Y486015D01*
X419333Y486312D01*
X419389Y486571D01*
X419408Y486793D01*
X419426Y486867D01*
Y486978D01*
X419408Y487238D01*
X419370Y487497D01*
X419315Y487737D01*
X419259Y487941D01*
X419204Y488108D01*
X419148Y488237D01*
X419111Y488311D01*
X419093Y488349D01*
X418945Y488571D01*
X418797Y488756D01*
X418630Y488923D01*
X418463Y489052D01*
X418334Y489163D01*
X418223Y489237D01*
X418130Y489274D01*
X418111Y489293D01*
X417871Y489385D01*
X417648Y489459D01*
X417426Y489515D01*
X417223Y489552D01*
X417056Y489571D01*
X416926Y489589D01*
D02*
G37*
G36*
X385830Y489289D02*
X385775D01*
X385738D01*
X385719D01*
X385238Y489252D01*
X384794Y489178D01*
X384405Y489048D01*
X384090Y488900D01*
X383831Y488771D01*
X383646Y488641D01*
X383590Y488604D01*
X383534Y488567D01*
X383516Y488530D01*
X383497D01*
X383349Y488382D01*
X383201Y488234D01*
X382998Y487919D01*
X382831Y487604D01*
X382738Y487308D01*
X382664Y487067D01*
X382646Y486863D01*
X382627Y486789D01*
Y486493D01*
X382664Y486308D01*
X382757Y485975D01*
X382886Y485678D01*
X383016Y485419D01*
X383164Y485215D01*
X383294Y485067D01*
X383386Y484975D01*
X383405Y484938D01*
X383423D01*
X383738Y484697D01*
X384090Y484512D01*
X384460Y484382D01*
X384812Y484308D01*
X385108Y484253D01*
X385238Y484234D01*
X385368D01*
X385460Y484216D01*
X385534D01*
X385571D01*
X385590D01*
X386071Y484253D01*
X386497Y484327D01*
X386849Y484438D01*
X387145Y484567D01*
X387386Y484715D01*
X387552Y484827D01*
X387664Y484901D01*
X387701Y484938D01*
X387960Y485215D01*
X388145Y485512D01*
X388275Y485808D01*
X388367Y486104D01*
X388423Y486345D01*
X388441Y486549D01*
X388460Y486623D01*
Y486734D01*
X388423Y487123D01*
X388349Y487474D01*
X388219Y487789D01*
X388071Y488067D01*
X387941Y488271D01*
X387812Y488437D01*
X387738Y488530D01*
X387701Y488567D01*
X387404Y488808D01*
X387071Y488993D01*
X386738Y489104D01*
X386423Y489197D01*
X386145Y489252D01*
X386034Y489271D01*
X385923D01*
X385830Y489289D01*
D02*
G37*
G36*
X364582Y484031D02*
X364416D01*
X364323D01*
X364286D01*
X363712Y484012D01*
X363193Y483994D01*
X362712Y483957D01*
X362267Y483901D01*
X361879Y483845D01*
X361527Y483772D01*
X361212Y483697D01*
X360934Y483623D01*
X360694Y483549D01*
X360490Y483494D01*
X360323Y483420D01*
X360175Y483364D01*
X360083Y483309D01*
X360009Y483271D01*
X359972Y483234D01*
X359953D01*
X359786Y483105D01*
X359638Y482975D01*
X359527Y482827D01*
X359416Y482679D01*
X359249Y482383D01*
X359138Y482105D01*
X359083Y481864D01*
X359046Y481661D01*
X359027Y481586D01*
Y481475D01*
X359046Y481272D01*
X359064Y481068D01*
X359120Y480883D01*
X359194Y480716D01*
X359360Y480401D01*
X359546Y480124D01*
X359749Y479920D01*
X359916Y479753D01*
X359990Y479698D01*
X360046Y479661D01*
X360064Y479624D01*
X360083D01*
X360305Y479494D01*
X360564Y479383D01*
X360860Y479272D01*
X361175Y479198D01*
X361508Y479124D01*
X361860Y479068D01*
X362564Y478976D01*
X362916Y478939D01*
X363230Y478920D01*
X363527Y478902D01*
X363767D01*
X363990Y478883D01*
X364156D01*
X364249D01*
X364267D01*
X364286D01*
X364860D01*
X365378Y478920D01*
X365841Y478957D01*
X366286Y478994D01*
X366656Y479050D01*
X367008Y479124D01*
X367304Y479198D01*
X367582Y479253D01*
X367804Y479328D01*
X367989Y479402D01*
X368156Y479457D01*
X368285Y479531D01*
X368378Y479568D01*
X368434Y479605D01*
X368471Y479642D01*
X368489D01*
X368674Y479790D01*
X368822Y479939D01*
X368970Y480087D01*
X369082Y480235D01*
X369267Y480550D01*
X369396Y480827D01*
X369470Y481087D01*
X369507Y481272D01*
X369526Y481346D01*
Y481457D01*
X369507Y481661D01*
X369489Y481846D01*
X369359Y482198D01*
X369193Y482512D01*
X369008Y482790D01*
X368822Y482994D01*
X368656Y483160D01*
X368526Y483253D01*
X368508Y483290D01*
X368489D01*
X368267Y483420D01*
X368008Y483531D01*
X367711Y483642D01*
X367397Y483716D01*
X367063Y483790D01*
X366712Y483845D01*
X365989Y483938D01*
X365656Y483975D01*
X365341Y483994D01*
X365045Y484012D01*
X364804D01*
X364582Y484031D01*
D02*
G37*
G36*
X265482Y459403D02*
X255705D01*
Y456440D01*
X255723Y456200D01*
Y455959D01*
X255742Y455737D01*
X255798Y455366D01*
X255835Y455070D01*
X255890Y454829D01*
X255946Y454663D01*
X255964Y454570D01*
X255983Y454533D01*
X256149Y454200D01*
X256353Y453885D01*
X256594Y453607D01*
X256834Y453367D01*
X257057Y453181D01*
X257242Y453033D01*
X257316Y452996D01*
X257371Y452959D01*
X257408Y452922D01*
X257427D01*
X257631Y452811D01*
X257871Y452700D01*
X258353Y452533D01*
X258871Y452422D01*
X259371Y452330D01*
X259593Y452311D01*
X259816Y452293D01*
X260001Y452274D01*
X260167D01*
X260315Y452256D01*
X260408D01*
X260482D01*
X260501D01*
X261019Y452274D01*
X261501Y452311D01*
X261926Y452367D01*
X262297Y452422D01*
X262445Y452459D01*
X262575Y452496D01*
X262704Y452533D01*
X262797Y452552D01*
X262871Y452570D01*
X262926Y452589D01*
X262963Y452607D01*
X262982D01*
X263334Y452737D01*
X263648Y452885D01*
X263926Y453052D01*
X264167Y453200D01*
X264352Y453330D01*
X264482Y453441D01*
X264556Y453515D01*
X264593Y453533D01*
X264741Y453718D01*
X264871Y453904D01*
X264982Y454089D01*
X265093Y454274D01*
X265167Y454440D01*
X265222Y454570D01*
X265241Y454663D01*
X265259Y454700D01*
X265333Y454977D01*
X265389Y455311D01*
X265426Y455644D01*
X265445Y455959D01*
X265463Y456237D01*
X265482Y456366D01*
Y459403D01*
D02*
G37*
G36*
X238023Y484715D02*
X234282Y483326D01*
X233820Y483160D01*
X233375Y483030D01*
X232968Y482901D01*
X232597Y482808D01*
X232283Y482734D01*
X232153Y482697D01*
X232023Y482678D01*
X231949Y482641D01*
X231875D01*
X231838Y482623D01*
X231820D01*
X232246Y482493D01*
X232690Y482345D01*
X233134Y482197D01*
X233560Y482049D01*
X233745Y481975D01*
X233931Y481919D01*
X234097Y481864D01*
X234227Y481808D01*
X234338Y481771D01*
X234431Y481734D01*
X234486Y481716D01*
X234505D01*
X238023Y480382D01*
Y484715D01*
D02*
G37*
G36*
X236153Y473327D02*
X231912D01*
Y469291D01*
X231931Y468791D01*
X232005Y468365D01*
X232097Y467995D01*
X232209Y467717D01*
X232320Y467476D01*
X232412Y467328D01*
X232486Y467235D01*
X232505Y467198D01*
X232745Y466976D01*
X232986Y466810D01*
X233246Y466698D01*
X233468Y466606D01*
X233690Y466569D01*
X233857Y466550D01*
X233968Y466532D01*
X233986D01*
X234005D01*
X234227Y466550D01*
X234449Y466587D01*
X234634Y466643D01*
X234801Y466698D01*
X234949Y466773D01*
X235060Y466828D01*
X235134Y466865D01*
X235153Y466884D01*
X235338Y467013D01*
X235504Y467180D01*
X235634Y467347D01*
X235745Y467513D01*
X235819Y467661D01*
X235875Y467772D01*
X235912Y467847D01*
X235930Y467884D01*
X236005Y468143D01*
X236060Y468439D01*
X236097Y468735D01*
X236116Y469032D01*
X236134Y469291D01*
X236153Y469513D01*
Y473327D01*
D02*
G37*
G36*
X209423Y486115D02*
X205682Y484726D01*
X205219Y484560D01*
X204775Y484430D01*
X204368Y484301D01*
X203997Y484208D01*
X203683Y484134D01*
X203553Y484097D01*
X203423Y484078D01*
X203349Y484041D01*
X203275D01*
X203238Y484023D01*
X203220D01*
X203646Y483893D01*
X204090Y483745D01*
X204534Y483597D01*
X204960Y483449D01*
X205145Y483375D01*
X205331Y483319D01*
X205497Y483264D01*
X205627Y483208D01*
X205738Y483171D01*
X205831Y483134D01*
X205886Y483116D01*
X205905D01*
X209423Y481782D01*
Y486115D01*
D02*
G37*
G36*
X213182Y474746D02*
X203405D01*
Y471783D01*
X203423Y471543D01*
Y471302D01*
X203442Y471080D01*
X203498Y470709D01*
X203535Y470413D01*
X203590Y470172D01*
X203646Y470006D01*
X203664Y469913D01*
X203683Y469876D01*
X203849Y469543D01*
X204053Y469228D01*
X204294Y468950D01*
X204534Y468710D01*
X204757Y468524D01*
X204942Y468376D01*
X205016Y468339D01*
X205071Y468302D01*
X205108Y468265D01*
X205127D01*
X205331Y468154D01*
X205571Y468043D01*
X206053Y467876D01*
X206571Y467765D01*
X207071Y467673D01*
X207293Y467654D01*
X207516Y467636D01*
X207701Y467617D01*
X207867D01*
X208015Y467599D01*
X208108D01*
X208182D01*
X208201D01*
X208719Y467617D01*
X209201Y467654D01*
X209627Y467710D01*
X209997Y467765D01*
X210145Y467802D01*
X210275Y467839D01*
X210404Y467876D01*
X210497Y467895D01*
X210571Y467913D01*
X210626Y467932D01*
X210663Y467950D01*
X210682D01*
X211034Y468080D01*
X211348Y468228D01*
X211626Y468395D01*
X211867Y468543D01*
X212052Y468673D01*
X212182Y468784D01*
X212256Y468858D01*
X212293Y468876D01*
X212441Y469061D01*
X212571Y469247D01*
X212682Y469432D01*
X212793Y469617D01*
X212867Y469784D01*
X212922Y469913D01*
X212941Y470006D01*
X212959Y470043D01*
X213034Y470321D01*
X213089Y470654D01*
X213126Y470987D01*
X213145Y471302D01*
X213163Y471580D01*
X213182Y471709D01*
Y474746D01*
D02*
G37*
G36*
X210182Y463173D02*
X204442Y459137D01*
X210182D01*
Y463173D01*
D02*
G37*
G36*
X213182Y434935D02*
X203405D01*
Y431973D01*
X203423Y431732D01*
Y431491D01*
X203442Y431269D01*
X203498Y430899D01*
X203535Y430602D01*
X203590Y430362D01*
X203646Y430195D01*
X203664Y430103D01*
X203683Y430065D01*
X203849Y429732D01*
X204053Y429417D01*
X204294Y429140D01*
X204534Y428899D01*
X204757Y428714D01*
X204942Y428566D01*
X205016Y428529D01*
X205071Y428492D01*
X205108Y428455D01*
X205127D01*
X205331Y428343D01*
X205571Y428232D01*
X206053Y428066D01*
X206571Y427955D01*
X207071Y427862D01*
X207293Y427844D01*
X207516Y427825D01*
X207701Y427806D01*
X207867D01*
X208015Y427788D01*
X208108D01*
X208182D01*
X208201D01*
X208719Y427806D01*
X209201Y427844D01*
X209627Y427899D01*
X209997Y427955D01*
X210145Y427992D01*
X210275Y428029D01*
X210404Y428066D01*
X210497Y428084D01*
X210571Y428103D01*
X210626Y428121D01*
X210663Y428140D01*
X210682D01*
X211034Y428269D01*
X211348Y428418D01*
X211626Y428584D01*
X211867Y428732D01*
X212052Y428862D01*
X212182Y428973D01*
X212256Y429047D01*
X212293Y429066D01*
X212441Y429251D01*
X212571Y429436D01*
X212682Y429621D01*
X212793Y429806D01*
X212867Y429973D01*
X212922Y430103D01*
X212941Y430195D01*
X212959Y430232D01*
X213034Y430510D01*
X213089Y430843D01*
X213126Y431176D01*
X213145Y431491D01*
X213163Y431769D01*
X213182Y431899D01*
Y434935D01*
D02*
G37*
G36*
X209423Y421437D02*
X205682Y420048D01*
X205219Y419881D01*
X204775Y419752D01*
X204368Y419622D01*
X203997Y419529D01*
X203683Y419455D01*
X203553Y419418D01*
X203423Y419400D01*
X203349Y419363D01*
X203275D01*
X203238Y419344D01*
X203220D01*
X203646Y419215D01*
X204090Y419067D01*
X204534Y418918D01*
X204960Y418770D01*
X205145Y418696D01*
X205331Y418641D01*
X205497Y418585D01*
X205627Y418530D01*
X205738Y418493D01*
X205831Y418456D01*
X205886Y418437D01*
X205905D01*
X209423Y417104D01*
Y421437D01*
D02*
G37*
G36*
X185923Y485815D02*
X182182Y484426D01*
X181719Y484260D01*
X181275Y484130D01*
X180868Y484001D01*
X180497Y483908D01*
X180183Y483834D01*
X180053Y483797D01*
X179923Y483778D01*
X179849Y483741D01*
X179775D01*
X179738Y483723D01*
X179720D01*
X180146Y483593D01*
X180590Y483445D01*
X181034Y483297D01*
X181460Y483149D01*
X181645Y483075D01*
X181831Y483019D01*
X181997Y482964D01*
X182127Y482908D01*
X182238Y482871D01*
X182330Y482834D01*
X182386Y482816D01*
X182405D01*
X185923Y481482D01*
Y485815D01*
D02*
G37*
G36*
X189682Y474446D02*
X179905D01*
Y471483D01*
X179923Y471243D01*
Y471002D01*
X179942Y470780D01*
X179998Y470409D01*
X180035Y470113D01*
X180090Y469872D01*
X180146Y469706D01*
X180164Y469613D01*
X180183Y469576D01*
X180349Y469243D01*
X180553Y468928D01*
X180794Y468650D01*
X181034Y468410D01*
X181257Y468224D01*
X181442Y468076D01*
X181516Y468039D01*
X181571Y468002D01*
X181608Y467965D01*
X181627D01*
X181831Y467854D01*
X182071Y467743D01*
X182553Y467576D01*
X183071Y467465D01*
X183571Y467373D01*
X183793Y467354D01*
X184016Y467336D01*
X184201Y467317D01*
X184367D01*
X184515Y467299D01*
X184608D01*
X184682D01*
X184701D01*
X185219Y467317D01*
X185701Y467354D01*
X186126Y467410D01*
X186497Y467465D01*
X186645Y467502D01*
X186775Y467539D01*
X186904Y467576D01*
X186997Y467595D01*
X187071Y467613D01*
X187126Y467632D01*
X187163Y467650D01*
X187182D01*
X187534Y467780D01*
X187848Y467928D01*
X188126Y468095D01*
X188367Y468243D01*
X188552Y468373D01*
X188682Y468484D01*
X188756Y468558D01*
X188793Y468576D01*
X188941Y468761D01*
X189071Y468947D01*
X189182Y469132D01*
X189293Y469317D01*
X189367Y469484D01*
X189422Y469613D01*
X189441Y469706D01*
X189459Y469743D01*
X189534Y470020D01*
X189589Y470354D01*
X189626Y470687D01*
X189645Y471002D01*
X189663Y471280D01*
X189682Y471409D01*
Y474446D01*
D02*
G37*
%LPD*%
M02*
