G04*
G04 #@! TF.GenerationSoftware,Altium Limited,Altium Designer,19.0.15 (446)*
G04*
G04 Layer_Color=8421504*
%FSLAX44Y44*%
%MOMM*%
G71*
G01*
G75*
%ADD14R,0.9000X1.3000*%
%ADD15R,0.8000X0.8000*%
%ADD16R,1.4000X1.6000*%
%ADD17R,1.9000X1.9000*%
%ADD18R,1.3500X0.4000*%
%ADD19R,1.6000X3.0000*%
%ADD20R,0.7000X1.3000*%
%ADD21R,0.6000X2.2000*%
%ADD22R,3.5000X2.2000*%
%ADD23R,0.6858X0.5588*%
%ADD24R,0.5588X0.6858*%
%ADD25R,0.5500X1.5000*%
%ADD26R,1.5000X0.5500*%
%ADD27R,0.5500X1.0000*%
%ADD28R,1.3000X0.7000*%
%ADD29R,1.3000X0.9000*%
%ADD30R,2.7000X2.0000*%
%ADD31R,0.9000X0.6000*%
%ADD32R,2.6000X2.5000*%
%ADD33R,2.5000X2.6000*%
%ADD34R,1.0000X0.5500*%
D14*
X398100Y54200D02*
D03*
X379100D02*
D03*
X435762Y98908D02*
D03*
X454762D02*
D03*
X40336Y521945D02*
D03*
X21336D02*
D03*
X141398Y235114D02*
D03*
X122398D02*
D03*
X259817Y353517D02*
D03*
X240817D02*
D03*
X261392Y247904D02*
D03*
X242392D02*
D03*
X457276Y55296D02*
D03*
X476276D02*
D03*
X259400Y480300D02*
D03*
X240400D02*
D03*
X448914Y229445D02*
D03*
X467914D02*
D03*
X457200Y76860D02*
D03*
X476200D02*
D03*
X610900Y331200D02*
D03*
X591900D02*
D03*
X396970Y99909D02*
D03*
X415970D02*
D03*
X397300Y79200D02*
D03*
X416300D02*
D03*
X409879Y252400D02*
D03*
X428879D02*
D03*
X467462D02*
D03*
X448462D02*
D03*
X671897Y127415D02*
D03*
X652897D02*
D03*
X68378Y294075D02*
D03*
X49378D02*
D03*
X104530Y234789D02*
D03*
X85530D02*
D03*
D15*
X247708Y431178D02*
D03*
X231708D02*
D03*
X248347Y389186D02*
D03*
X232348D02*
D03*
X232694Y407393D02*
D03*
X248694D02*
D03*
X609704Y374194D02*
D03*
X593704D02*
D03*
D16*
X46495Y169000D02*
D03*
Y233000D02*
D03*
D17*
X21995Y189000D02*
D03*
Y213000D02*
D03*
D18*
X48745Y214000D02*
D03*
Y207500D02*
D03*
Y201000D02*
D03*
Y194500D02*
D03*
Y188000D02*
D03*
D19*
X73304Y61851D02*
D03*
Y20851D02*
D03*
Y142826D02*
D03*
Y101826D02*
D03*
D20*
X121805Y213201D02*
D03*
X140805D02*
D03*
X410946Y229032D02*
D03*
X429946D02*
D03*
X265167Y429537D02*
D03*
X284167D02*
D03*
X264800Y451800D02*
D03*
X283800D02*
D03*
X103559Y357876D02*
D03*
X84559D02*
D03*
X84591Y213505D02*
D03*
X103591D02*
D03*
X84099Y192227D02*
D03*
X103099D02*
D03*
X103215Y170192D02*
D03*
X84215D02*
D03*
X381356Y98933D02*
D03*
X362356D02*
D03*
X609073Y226200D02*
D03*
X628073D02*
D03*
X248131Y451136D02*
D03*
X229131D02*
D03*
X610569Y354124D02*
D03*
X591569D02*
D03*
X286815Y91175D02*
D03*
X267815D02*
D03*
X11082Y253141D02*
D03*
X30082D02*
D03*
D21*
X135030Y115942D02*
D03*
X147730D02*
D03*
X160430D02*
D03*
X173130D02*
D03*
X185830D02*
D03*
D22*
X160430Y177942D02*
D03*
D23*
X9616Y294453D02*
D03*
Y270069D02*
D03*
D24*
X631228Y243281D02*
D03*
X606844D02*
D03*
D25*
X182000Y258000D02*
D03*
X174000D02*
D03*
X166000D02*
D03*
X158000D02*
D03*
X150000D02*
D03*
X142000D02*
D03*
X134000D02*
D03*
X126000D02*
D03*
Y342000D02*
D03*
X134000D02*
D03*
X142000D02*
D03*
X150000D02*
D03*
X158000D02*
D03*
X166000D02*
D03*
X174000D02*
D03*
X182000D02*
D03*
D26*
X112000Y272000D02*
D03*
Y280000D02*
D03*
Y288000D02*
D03*
Y296000D02*
D03*
Y304000D02*
D03*
Y312000D02*
D03*
Y320000D02*
D03*
Y328000D02*
D03*
X196000D02*
D03*
Y320000D02*
D03*
Y312000D02*
D03*
Y304000D02*
D03*
Y296000D02*
D03*
Y288000D02*
D03*
Y280000D02*
D03*
Y272000D02*
D03*
D27*
X68377Y276352D02*
D03*
X49377D02*
D03*
X68377Y249352D02*
D03*
X58877D02*
D03*
X49377D02*
D03*
X672272Y171752D02*
D03*
X662772D02*
D03*
X653272D02*
D03*
X672272Y144752D02*
D03*
X653272D02*
D03*
D28*
X219634Y292304D02*
D03*
Y273304D02*
D03*
X170765Y413909D02*
D03*
Y394909D02*
D03*
X88536Y274135D02*
D03*
Y255135D02*
D03*
X613179Y455003D02*
D03*
Y474002D02*
D03*
X585295Y454808D02*
D03*
Y473808D02*
D03*
X637042Y417781D02*
D03*
Y436781D02*
D03*
X332493Y48604D02*
D03*
Y67604D02*
D03*
D03*
Y86604D02*
D03*
X271194Y71890D02*
D03*
Y52890D02*
D03*
X672008Y187885D02*
D03*
Y206885D02*
D03*
X672045Y241469D02*
D03*
Y222469D02*
D03*
X248496Y165951D02*
D03*
Y146951D02*
D03*
X28853Y275281D02*
D03*
Y294281D02*
D03*
X649958Y241570D02*
D03*
Y222570D02*
D03*
D29*
X198907Y182981D02*
D03*
Y201981D02*
D03*
X219380Y328143D02*
D03*
Y309143D02*
D03*
X198806Y220776D02*
D03*
Y239776D02*
D03*
X220929Y239726D02*
D03*
Y220726D02*
D03*
X176200Y220497D02*
D03*
Y239497D02*
D03*
X636906Y454287D02*
D03*
Y473287D02*
D03*
X207243Y129461D02*
D03*
Y110461D02*
D03*
X113755Y131372D02*
D03*
Y112373D02*
D03*
X22733Y451181D02*
D03*
Y432181D02*
D03*
X306674Y69949D02*
D03*
Y50949D02*
D03*
X354400Y69100D02*
D03*
Y50100D02*
D03*
X437896Y59994D02*
D03*
Y78994D02*
D03*
X210955Y430704D02*
D03*
Y449704D02*
D03*
X221558Y202171D02*
D03*
Y183171D02*
D03*
X229199Y129462D02*
D03*
Y110462D02*
D03*
X650138Y187909D02*
D03*
Y206909D02*
D03*
D30*
X21819Y100199D02*
D03*
Y68199D02*
D03*
D31*
X67818Y196088D02*
D03*
Y181088D02*
D03*
X68555Y209359D02*
D03*
Y224359D02*
D03*
D32*
X250114Y276541D02*
D03*
Y325541D02*
D03*
D33*
X464859Y282721D02*
D03*
X415859D02*
D03*
D34*
X166484Y448330D02*
D03*
Y438830D02*
D03*
Y429330D02*
D03*
X193484Y448330D02*
D03*
Y429330D02*
D03*
X202828Y165582D02*
D03*
Y156082D02*
D03*
Y146582D02*
D03*
X229828Y165582D02*
D03*
Y146582D02*
D03*
M02*
