M48
;Layer_Color=9474304
;FILE_FORMAT=4:4
METRIC,LZ
;TYPE=PLATED
T1F00S00C0.3000
T3F00S00C1.0000
T4F00S00C1.1000
T5F00S00C1.5000
T6F00S00C3.2000
;TYPE=NON_PLATED
T7F00S00C3.2000
%
T01
X00118Y00074
X00292181Y00067323
X003199Y000673
X003277Y000672
X00307Y00088617
X00365214Y00078374
X00394974Y00077241
X003951Y000836
X004018Y000818
X004576Y000875
X00457Y00043
X00438Y00052
X00616Y00065
X00608367Y00156236
X00639882Y00172
X00639047Y00179667
X00671932Y00161788
X00677Y00127291
X00593387Y00404138
X00597017Y00428227
X00586Y00431178
X0059617Y0044154
X00626703Y00454461
X005693Y004374
X003636Y003982
X003565
X00357Y003896
X003635Y00389
X00326532Y00433132
X00326588Y00444164
X00294537Y00426175
X002962Y004835
X00226704Y00476767
X00224772Y0044771
X00195416Y00438318
X00194209Y00416495
X00219225Y00343652
X00272853Y0035385
X00272794Y00251308
X00307867Y0026128
X00302026Y00225037
X00282315Y00190966
X00252418Y00188873
X0023768Y0020252
X00199039Y00211481
X00197669Y00192481
X00192Y00152
X00213Y00157
X00239Y00138421
X00216Y00102
X00301614Y00165197
X00326846Y00165731
X00397718Y00106602
X00449Y00097
X00476405Y00093939
X00483399Y001396
X004759Y001768
X00447156Y00218854
X0048072Y00251421
X00395551Y00252256
X00220949Y00252927
X00183843Y00287901
X00149721Y00271642
X00101576Y00273102
X00104983Y00248939
X00074256Y00248153
X00075771Y00224483
X00058495Y00226308
Y00219
X00046Y0026
X00076089Y00292042
X00097034Y00319536
X00114007Y0036923
X00099078Y00401511
X00105658Y00419949
X00102Y00425242
X00109625
X00177496Y00425758
X00163Y0041
X00063Y00451
X00009388Y00285889
X00075725Y00181505
X00109987Y00192044
X00110979Y00212117
X00134586Y00226234
X00152218Y00199942
X00162762Y00203855
X00176131Y00211835
X00177696Y00196217
X00176131Y00146
X0015Y0014
X00126183Y00177942
X00090452Y00120282
Y00111979
X00049207Y00522907
X0036Y00491
T03
X00200414Y00025294
X00245414
Y00090294
X00200414
X00607536Y00261834
Y00306834
X00672536
Y00261834
T04
X001162Y00088
X001416
X00167
X002794Y000254
X003048
X003302
X003556
X00381
X004064
X004318
X004572
X00508
X005334
X005588
X005842
X006096
X00635
X0062065Y0012573
X0059525
Y0020193
X0062065
X00662Y004182
Y004436
Y00469
X0056985Y0020193
X0054445
X0051905
X0049365
X0046825
X0044285
X0041745
X0039205
X0036665
X0034125
X0031585
X0029045
Y0012573
X0031585
X0034125
X0036665
X0039205
X0041745
X0044285
X0046825
X0049365
X0051905
X0054445
X0056985
X00146Y003698
Y003952
Y004206
Y00446
X000762Y0047244
X000508
X000254
Y0041148
X000508
X000762
Y0038608
X000508
X000254
Y00342
X000508
Y003166
X000254
Y0049784
X000508
X000762
X0018796Y00508
X0021336
X0023876
X0026416
X0028956
X0031496
X0034036
X0036576
X0039116
X0041656
X004572
X004826
X00508
X005334
X005588
X005842
X006096
X00635
T05
X00021539Y00028626
X00021233Y00138228
T06
X001397Y000254
X006604Y000762
Y003556
T07
X001524Y00508
M30
